<?xml version="1.0" encoding="UTF-8"?>
<svg xmlns="http://www.w3.org/2000/svg" xmlns:xlink="http://www.w3.org/1999/xlink" width="249" height="249" viewBox="0 0 249 249">
<path fill="none" stroke-width="0.0333333" stroke-linecap="butt" stroke-linejoin="miter" stroke="rgb(0%, 0%, 0%)" stroke-opacity="1" stroke-miterlimit="10" d="M -0.0000195312 1.714688 L 0.000214844 0.698516 " transform="matrix(100, 0, 0, 100, 3.830078, 3.839844)"/>
<path fill="none" stroke-width="0.0333333" stroke-linecap="butt" stroke-linejoin="miter" stroke="rgb(0%, 0%, 0%)" stroke-opacity="1" stroke-miterlimit="10" d="M -0.00466797 0.710273 L 0.710293 -0.00476562 " transform="matrix(100, 0, 0, 100, 3.830078, 3.839844)"/>
<path fill="none" stroke-width="0.0333333" stroke-linecap="butt" stroke-linejoin="miter" stroke="rgb(0%, 0%, 0%)" stroke-opacity="1" stroke-miterlimit="10" d="M -0.00490234 1.70293 L 0.710488 2.418086 " transform="matrix(100, 0, 0, 100, 3.830078, 3.839844)"/>
<path fill="none" stroke-width="0.0333333" stroke-linecap="butt" stroke-linejoin="miter" stroke="rgb(0%, 0%, 0%)" stroke-opacity="1" stroke-miterlimit="10" d="M 0.698691 2.413203 L 1.714902 2.413203 " transform="matrix(100, 0, 0, 100, 3.830078, 3.839844)"/>
<path fill="none" stroke-width="0.0333333" stroke-linecap="butt" stroke-linejoin="miter" stroke="rgb(0%, 0%, 0%)" stroke-opacity="1" stroke-miterlimit="10" d="M 1.703105 2.418086 L 2.418262 1.70293 " transform="matrix(100, 0, 0, 100, 3.830078, 3.839844)"/>
<path fill="none" stroke-width="0.0333333" stroke-linecap="butt" stroke-linejoin="miter" stroke="rgb(0%, 0%, 0%)" stroke-opacity="1" stroke-miterlimit="10" d="M 2.413418 1.714688 L 2.413301 0.698516 " transform="matrix(100, 0, 0, 100, 3.830078, 3.839844)"/>
<path fill="none" stroke-width="0.0333333" stroke-linecap="butt" stroke-linejoin="miter" stroke="rgb(0%, 0%, 0%)" stroke-opacity="1" stroke-miterlimit="10" d="M 2.418184 0.710273 L 1.703105 -0.00488281 " transform="matrix(100, 0, 0, 100, 3.830078, 3.839844)"/>
<path fill="none" stroke-width="0.0333333" stroke-linecap="butt" stroke-linejoin="miter" stroke="rgb(0%, 0%, 0%)" stroke-opacity="1" stroke-miterlimit="10" d="M 1.714902 0.0000000000745058 L 0.698496 0.000117188 " transform="matrix(100, 0, 0, 100, 3.830078, 3.839844)"/>
</svg>
