<svg xmlns="http://www.w3.org/2000/svg" width="24px" height="22px" viewBox="0 0 24.000000 22.000000" style="background-color:#ffffffff;background-color:unset;" version="1.1" xmlns:xlink="http://www.w3.org/1999/xlink">
<text x="0" y="0" stroke="none" fill="#000000" transform="matrix(0.05 0 0 0.05 16.4829 19.2005)" font-style="normal" font-weight="normal" font-size="200px" font-family="Arial">
I</text>
<text x="0" y="0" stroke="none" fill="#000000" transform="matrix(0.05 0 0 0.05 19.2613 15.7282)" font-style="normal" font-weight="normal" font-size="150px" font-family="Arial">
-</text>
<path stroke="none" fill="#000000" transform="matrix(0.05 0 0 0.05 -553 -210)" d="M 11273.6,4251.96 L 11273.6,4276.16 L 11139.1,4509.04 L 11118.2,4521.11 L 11273.6,4251.96 Z "></path>
<path stroke="none" fill="#000000" transform="matrix(0.05 0 0 0.05 -553 -210)" d="M 11118.2,4521.11 L 11139.1,4509.04 L 11375.7,4508.56 L 11375.7,4520.56 L 11118.2,4521.11 Z "></path>
<path stroke="none" fill="#000000" transform="matrix(0.05 0 0 0.05 -553 -210)" d="M 11374.6,4428.32 L 11364.2,4434.32 L 11273.6,4276.16 L 11273.6,4251.96 L 11374.6,4428.32 Z "></path>
</svg>
