<?xml version="1.0" standalone="no"?>
<!DOCTYPE svg PUBLIC "-//W3C//DTD SVG 1.1//EN" "http://www.w3.org/Graphics/SVG/1.1/DTD/svg11.dtd" >
<!--
2017-10-25: Created with FontForge (http://fontforge.org)
-->
<svg xmlns="http://www.w3.org/2000/svg" xmlns:xlink="http://www.w3.org/1999/xlink" version="1.1">
<metadata>
Created by FontForge 20170805 at Wed Oct 25 09:04:00 2017
 By annguyen

</metadata>
<defs>
<font id="icons" horiz-adv-x="466" >
  <font-face 
    font-family="icons"
    font-weight="400"
    font-stretch="normal"
    units-per-em="512"
    panose-1="2 0 5 3 0 0 0 0 0 0"
    ascent="448"
    descent="-64"
    bbox="-0.5 -64 1215 448"
    underline-thickness="25.6"
    underline-position="-51.2"
    unicode-range="U+0020-F11F"
  />
    <missing-glyph />
    <glyph glyph-name="space" unicode=" " horiz-adv-x="200" 
 />
    <glyph glyph-name="acidified-hcl" unicode="&#xf10a;" horiz-adv-x="500" 
d="M470 88c7 0 13 -3 13 -8s-6 -9 -13 -9h-5v-24c0 -5 -6 -8 -13 -8s-13 3 -13 8v24h-26v-13c0 -5 -6 -8 -13 -8h-30v-106c0 -3 -3 -7 -8 -8h-5c-3 0 -7 0 -9 2l-52 33c-2 2 -4 3 -4 5v74h-31c-7 0 -13 3 -13 8v13h-21c-7 0 -13 4 -13 9s6 8 13 8h21v13c0 5 6 8 13 8h23
c-51 50 -122 127 -122 166c0 43 41 82 104 98v57h-5c-7 0 -13 3 -13 8s6 8 13 8h139c7 0 13 -3 13 -8s-6 -8 -13 -8h-4v-57c63 -16 104 -55 104 -98c0 -39 -71 -116 -122 -166h22c7 0 13 -3 13 -8v-13h26v24c0 5 6 8 13 8s13 -3 13 -8v-24h5zM188 275c0 -27 46 -88 127 -166
h32c81 78 127 139 127 166c0 38 -39 72 -96 85c-5 1 -8 5 -8 8v62h-78v-62c0 -3 -4 -7 -9 -8c-57 -13 -95 -47 -95 -85zM344 -37v87h-26v-70zM387 66v27h-33h-46h-34v-27h113zM384 201c-12 -14 -26 -29 -42 -45c-2 -2 -6 -4 -11 -4s-9 2 -11 4c-17 18 -32 34 -45 49
c-42 50 -44 67 -44 70c0 5 6 8 13 8h174c7 0 13 -3 13 -8c0 -2 -2 -14 -24 -44c-3 -4 -10 -6 -17 -4s-9 7 -6 11c10 14 15 23 18 29h-142c4 -9 14 -26 38 -54c10 -11 21 -24 33 -37c11 12 21 23 30 33c3 4 11 5 17 3s9 -7 6 -11zM84 -36c7 -3 14 -5 21 -5c38 0 57 16 57 47
c0 11 -2 19 -6 25c-3 4 -6 7 -9 10s-8 5 -11 7s-7 2 -12 3s-8 2 -12 2h-15c-7 0 -12 -1 -15 -2v-22v-22v-9v-13v-12s1 -7 2 -9zM82 67c4 -1 9 -1 16 -1c8 0 16 1 22 2s12 3 17 6s8 8 11 13s4 12 4 20c0 6 -1 12 -4 17s-7 8 -12 11s-11 5 -17 6s-12 2 -19 2
c-5 0 -11 -1 -19 -2v-21s1 -16 1 -21v-11v-11v-10zM0 -56v13c2 0 6 1 13 2s12 3 16 4c1 1 1 3 2 4s1 2 1 4s1 4 1 5s1 3 1 5v5v9c0 91 -2 138 -4 142c0 1 -1 1 -3 2s-4 2 -7 2s-5 1 -7 1h-7s-4 1 -5 1l-1 11c10 0 28 1 52 2s43 1 56 1h11h10c7 0 14 -1 21 -2s13 -3 19 -6
s11 -5 16 -9s9 -9 12 -15s4 -12 4 -19c0 -5 -1 -9 -3 -13s-4 -7 -6 -10s-5 -5 -9 -8s-8 -6 -11 -7s-8 -3 -13 -5c16 -3 29 -10 39 -19s15 -20 15 -34c0 -9 -1 -18 -5 -25s-8 -13 -14 -18s-13 -9 -21 -12s-17 -6 -25 -7s-18 -2 -27 -2c-4 0 -11 1 -20 1h-20
c-11 0 -26 0 -46 -1s-32 -2 -35 -2z" />
    <glyph glyph-name="c-nmr" unicode="&#xf116;" horiz-adv-x="367" 
d="M232 388c-52 0 -93 -18 -123 -53s-45 -82 -45 -143c0 -63 15 -111 44 -145s70 -51 124 -51c35 0 73 6 116 19v-53c-21 -8 -40 -12 -59 -15s-41 -4 -66 -4c-71 0 -126 22 -165 65c-38 44 -58 104 -58 184c0 50 10 94 28 132c19 38 45 67 80 87s77 30 125 30
c51 0 96 -9 134 -28l-25 -52c-39 18 -75 27 -110 27z" />
    <glyph glyph-name="dried" unicode="&#xf115;" horiz-adv-x="608" 
d="M67 172c37 38 68 70 69 70c2 0 132 -132 135 -138c1 -2 -12 -4 -30 -4h-32v-73v-73h-72h-72v73v73l-32 1l-33 1zM605 433c4 -10 3 -17 -5 -24l-183 -172v-259c0 -10 -4 -17 -14 -21c-3 -1 -6 -1 -9 -1c-7 0 -13 2 -17 6l-95 89c-5 4 -7 10 -7 16v170l-183 172
c-8 7 -9 14 -5 24c4 9 12 14 22 14h475c10 0 17 -5 21 -14z" />
    <glyph glyph-name="ea" unicode="&#xf117;" horiz-adv-x="746" 
d="M271 -51h-271v485h271v-53h-210v-152h198v-53h-198v-173h210v-54zM682 -51l-58 151h-192l-58 -151h-62l190 487h55l189 -487h-64zM606 154l-55 147l-23 72c-7 -27 -14 -50 -21 -72l-55 -147h154z" />
    <glyph glyph-name="ei" unicode="&#xf118;" horiz-adv-x="515" 
d="M271 -51h-271v485h271v-53h-210v-152h198v-53h-198v-173h210v-54zM515 -51h-176v35l57 13v389l-57 13v35h176v-35l-57 -13v-389l57 -13v-35z" />
    <glyph glyph-name="gpx-a" unicode="&#xf10c;" horiz-adv-x="649" 
d="M639 9c11 -20 13 -36 6 -50s-20 -21 -40 -21h-332c-20 0 -34 7 -41 21s-5 30 6 50l145 263v132h-18c-5 0 -9 2 -13 6s-6 9 -6 15s2 11 6 15s8 7 13 7h147c5 0 9 -3 13 -7s6 -9 6 -15s-2 -11 -6 -15s-8 -6 -13 -6h-18v-132zM414 250l-78 -143h205l-78 143l-6 10v144h-37
v-144zM136 366l-32 -84c4 0 13 -1 26 -1h30h11c-11 32 -23 60 -35 85zM0 158v15c3 1 7 2 11 3s8 1 11 2s6 1 9 2s6 4 8 6s4 5 6 9l45 116l52 136h24c1 -2 2 -3 2 -4l39 -90c4 -10 11 -26 20 -48s16 -40 21 -52c2 -4 6 -13 11 -27s10 -25 14 -32c3 -6 4 -9 6 -11s8 -3 17 -5
s14 -3 16 -4c1 -5 1 -9 1 -11v-2v-3c-8 0 -20 1 -36 2s-28 2 -36 2c-10 0 -23 -1 -40 -2s-29 -1 -34 -1c0 5 0 10 1 14l24 6h3s2 1 3 1s1 1 2 1s2 1 3 1s1 0 2 1s2 1 2 2s1 2 1 3c0 2 -2 8 -6 18s-9 22 -14 34s-8 18 -8 18l-84 1c-3 -7 -9 -20 -15 -37s-9 -28 -9 -31
s0 -5 2 -7s5 -3 9 -4s7 -2 9 -3s5 0 10 -1s8 -1 8 -1v-11v-5c-7 0 -18 1 -33 2s-26 2 -33 2c-1 0 -3 0 -5 -1s-4 -1 -4 -1c-10 -2 -21 -3 -35 -3z" />
    <glyph glyph-name="gpx-b" unicode="&#xf10d;" horiz-adv-x="566" 
d="M556 9c11 -20 13 -36 6 -50s-20 -22 -40 -22h-333c-20 0 -33 8 -40 22s-5 30 6 50l145 263v132h-18c-5 0 -9 3 -13 7s-6 9 -6 15s2 11 6 15s8 6 13 6h147c5 0 9 -2 13 -6s6 -9 6 -15s-2 -11 -6 -15s-8 -7 -13 -7h-18v-132zM331 250l-78 -143h205l-78 143l-6 10v144h-37
v-144zM102 177c9 -4 18 -6 26 -6c46 0 70 21 70 64c0 15 -3 27 -8 35c-3 6 -7 10 -11 14s-9 7 -13 9s-9 4 -15 5s-11 2 -15 2s-11 1 -18 1c-9 0 -15 -1 -18 -2v-31v-30c0 -1 -1 -5 -1 -13v-19s1 -10 1 -16s1 -10 2 -13zM100 321c5 -1 12 -2 20 -2c10 0 18 1 26 3s15 5 21 9
s10 10 13 17s5 16 5 27c0 9 -1 17 -5 24s-9 12 -15 16s-13 6 -20 8s-15 3 -23 3c-6 0 -14 -1 -24 -3c0 -6 1 -16 1 -29s1 -22 1 -29v-16v-15v-13zM0 149v19c2 1 7 1 16 3s16 3 20 5c1 2 1 3 2 5s1 5 1 7s1 4 1 6s1 4 1 7v7v12c0 126 -1 192 -4 198c0 1 -2 2 -4 3s-5 1 -8 2
s-6 1 -9 1s-6 1 -9 1s-5 1 -6 1l-1 16c12 0 33 1 63 2s53 2 69 2c3 0 7 -1 13 -1h12c9 0 17 0 25 -2s16 -4 24 -8s14 -9 20 -14s10 -12 13 -20s6 -17 6 -27c0 -7 -1 -12 -3 -18s-5 -10 -8 -14s-7 -7 -12 -11s-9 -7 -13 -9s-8 -4 -15 -7c19 -4 34 -13 47 -26s19 -29 19 -48
c0 -13 -3 -25 -7 -35s-10 -18 -17 -25s-15 -12 -25 -16s-21 -8 -31 -10s-21 -2 -32 -2h-24s-20 1 -25 1c-13 0 -31 -1 -56 -2s-39 -3 -43 -3z" />
    <glyph glyph-name="h-nmr" unicode="&#xf119;" horiz-adv-x="380" 
d="M380 -57h-63v232h-255v-232h-62v497h62v-210h255v210h63v-497z" />
    <glyph glyph-name="hand-stop" unicode="&#xf105;" horiz-adv-x="512" 
d="M72 376l72 72h112h112l72 -72l72 -72v-112v-112l-72 -72l-72 -72h-112h-112l-72 72l-72 72v112v112zM408 344l-58 59h-94h-94l-58 -59l-59 -58v-94v-94l59 -58l58 -59h94h94l58 59l59 58v94v94zM204 369c11 3 22 -1 27 -11l3 -4v-74c0 -66 0 -73 2 -75s5 -2 7 0s2 4 2 75
c0 80 -1 76 6 83c10 11 27 9 35 -4l3 -5v-72c0 -50 0 -73 1 -75c2 -4 5 -5 8 -2l2 2l1 62c0 60 0 62 2 66c4 8 10 12 18 13c9 1 20 -7 23 -16c1 -3 1 -31 1 -105v-101l5 5l6 5v25c0 24 1 25 3 29c9 17 30 18 39 1c2 -4 2 -5 2 -42s1 -37 -2 -47c-4 -17 -16 -38 -27 -51
c-12 -14 -32 -27 -51 -34l-8 -2l-53 -1c-62 0 -63 0 -79 8c-17 9 -31 23 -39 40c-8 15 -7 8 -7 128c0 102 0 107 2 111c2 5 7 10 12 12c2 1 7 1 10 1c8 -1 13 -5 17 -12l3 -5v-56c0 -49 1 -56 2 -58c2 -3 5 -2 7 0s2 10 2 86l1 85l2 4c3 5 8 10 12 11z" />
    <glyph glyph-name="hr" unicode="&#xf11a;" horiz-adv-x="851" 
d="M371 -51h-61v227h-249v-227h-61v485h61v-205h249v205h61v-485zM565 201h73c39 0 68 9 86 24s28 38 28 69s-10 52 -28 66s-48 22 -89 22h-70v-181zM565 150v-201h-61v485h134c60 0 104 -11 133 -34s44 -57 44 -103c0 -64 -32 -108 -97 -130l133 -218h-72l-117 201h-97z
" />
    <glyph glyph-name="hr1" unicode="&#xf11e;" horiz-adv-x="1103" 
d="M371 -51h-61v227h-249v-227h-61v485h61v-205h249v205h61v-485zM565 201h73c39 0 68 9 86 24s28 38 28 69s-10 52 -28 66s-48 22 -89 22h-70v-181zM565 150v-201h-61v485h134c60 0 104 -11 133 -34s44 -57 44 -103c0 -64 -32 -108 -97 -130l133 -218h-72l-117 201h-97z
M1103 -51h-59v339c0 30 1 58 3 84c-6 -7 -13 -13 -20 -19c-23 -19 -47 -39 -74 -61l-31 40l131 102h50v-485z" />
    <glyph glyph-name="hr2" unicode="&#xf11f;" horiz-adv-x="1215" 
d="M371 -51h-61v227h-249v-227h-61v485h61v-205h249v205h61v-485zM565 201h73c39 0 68 9 86 24s28 38 28 69s-10 52 -28 66s-48 22 -89 22h-70v-181zM565 150v-201h-61v485h134c60 0 104 -11 133 -34s44 -57 44 -103c0 -64 -32 -108 -97 -130l133 -218h-72l-117 201h-97z
M1215 -51h-321v50l127 128c38 39 64 66 76 83s22 33 28 48s9 33 9 51c0 26 -8 46 -23 60s-36 21 -63 21c-20 0 -38 -3 -56 -10s-38 -19 -60 -36l-32 40c45 38 94 57 148 57c45 0 82 -12 108 -35c27 -23 39 -54 39 -94c0 -21 -3 -41 -11 -61s-20 -40 -35 -61
c-15 -20 -42 -48 -78 -84l-101 -100v-2h245v-55z" />
    <glyph glyph-name="ir" unicode="&#xf11b;" horiz-adv-x="616" 
d="M175 -51h-175v35l57 13v389l-57 13v35h175v-35l-57 -13v-389l57 -13v-35zM331 201h72c39 0 69 9 87 24s27 38 27 69s-10 52 -28 66s-48 22 -89 22h-69v-181zM331 150v-201h-61v485h133c60 0 105 -11 134 -34s43 -57 43 -103c0 -64 -32 -108 -97 -130l133 -218h-71
l-118 201h-96z" />
    <glyph glyph-name="isolated" unicode="&#xf10e;" horiz-adv-x="597" 
d="M249 103c1 -52 1 -95 1 -96c-1 -2 -183 0 -189 2c-3 1 5 10 18 23l22 23l-50 50l-51 51l50 50l50 50l51 -51l50 -50l24 21l23 22zM595 433c4 -10 2 -17 -6 -24l-183 -173v-259c0 -10 -5 -17 -15 -21c-3 -1 -6 -2 -9 -2c-7 0 -13 3 -17 7l-95 90c-5 4 -7 9 -7 15v170
l-183 173c-8 7 -9 14 -5 24c4 9 12 14 22 14h476c10 0 18 -5 22 -14z" />
    <glyph glyph-name="polymer" unicode="&#xf104;" horiz-adv-x="406" 
d="M266 182c0 11 8 20 19 20s19 -9 19 -20s-8 -20 -19 -20s-19 9 -19 20zM264 182c0 -12 10 -22 21 -22s21 10 21 22s-10 21 -21 21s-21 -9 -21 -21zM333 285c0 88 -74 158 -166 158s-167 -70 -167 -158s75 -158 167 -158s166 70 166 158zM326 285c0 -82 -71 -150 -159 -150
s-159 68 -159 150s71 150 159 150s159 -68 159 -150zM330 285c0 -85 -73 -154 -163 -154s-163 69 -163 154s73 154 163 154v0c90 0 163 -69 163 -154zM285 33h105c9 0 16 -7 16 -16s-7 -17 -16 -17h-105c-63 0 -78 2 -78 9c0 9 4 28 78 24zM182 161h1c7 0 13 -5 15 -12
l39 -123c0 -1 1 -3 1 -5c0 -9 -8 -17 -17 -17c-7 0 -14 5 -16 12l-38 122c0 1 -1 4 -1 6c0 9 7 17 16 17z" />
    <glyph glyph-name="reaction" unicode="&#xf100;" horiz-adv-x="341" 
d="M338 38c2 -3 3 -7 3 -11v0c0 -12 -10 -21 -22 -21h-297c-12 0 -22 9 -22 21v0c0 4 1 8 3 11l117 226v87h-12c-6 0 -11 6 -11 12v0c0 6 5 11 11 11h125c6 0 11 -5 11 -11v0c0 -6 -5 -12 -11 -12h-12v-87zM143 259l-60 -115s50 10 87 0s88 0 88 0l-60 115v92h-55v-92z" />
    <glyph glyph-name="reaction-procedure" unicode="&#xf107;" horiz-adv-x="532" 
d="M0 -62v43v230v45h104c21 0 37 -3 49 -8c16 -7 29 -19 38 -36s14 -37 14 -59c0 -23 -5 -42 -15 -60s-23 -31 -40 -37c-11 -4 -26 -6 -45 -6h-52v-69l1 -44zM98 97c12 0 22 2 30 6c16 9 23 25 23 50c0 23 -7 39 -21 48c-8 5 -18 7 -31 7h-46v-111h45zM530 432
c4 -10 2 -18 -5 -25l-172 -179v-268c0 -10 -4 -17 -13 -21c-3 -1 -6 -2 -9 -2c-6 0 -12 2 -16 7l-89 92c-4 5 -6 11 -6 17v175l-172 179c-7 7 -9 15 -5 25c4 9 11 14 21 14h445c10 0 17 -5 21 -14z" />
    <glyph glyph-name="residue-adsorbed" unicode="&#xf10f;" 
d="M114 249c0 10 9 19 19 19s19 -9 19 -19s-9 -18 -19 -18s-19 8 -19 18zM376 71c50 -10 90 -52 90 -113c0 -12 -9 -21 -21 -21h-181c-12 0 -21 9 -21 21c0 62 41 104 90 113v225h-112v-73c0 -47 -40 -86 -88 -86s-87 39 -87 86v73h-24c-12 0 -22 10 -22 22s10 21 22 21h24
v65h-24c-12 0 -22 9 -22 21s10 22 22 22h223c12 0 21 -10 21 -22s-9 -21 -21 -21h-24v-65h112v86c0 12 9 22 21 22s22 -10 22 -22v-354zM177 223v73h-88v-73c0 -24 20 -43 44 -43s44 19 44 43zM177 339v65h-88v-65h88zM288 -20h133c-8 29 -35 50 -67 50s-58 -21 -66 -50z
M97 -41c6 -2 11 -3 17 -3c32 0 48 12 48 38c0 9 -3 16 -6 21c-2 3 -4 7 -7 9s-6 4 -9 5s-6 2 -10 3s-7 1 -10 1h-12c-6 0 -11 0 -13 -1v-18v-18v-8v-11v-10s1 -6 2 -8zM95 45c4 -1 8 0 14 0c7 0 13 0 18 1s10 3 14 5s7 7 9 11s3 10 3 16c0 5 -2 10 -4 14s-6 8 -10 10
s-8 4 -13 5s-10 1 -16 1c-4 0 -9 0 -16 -1v-18s1 -13 1 -17v-9v-10v-8zM27 -57v11c1 0 5 1 11 2s10 2 13 3c1 1 2 2 2 3s1 3 1 4v3s1 3 1 5v4v7c0 76 -1 115 -3 118c0 1 -1 2 -3 2s-3 1 -5 1s-4 1 -6 1s-5 1 -7 1h-3l-1 10c8 0 23 0 43 1s36 1 47 1h8h9c6 0 11 -1 17 -2
s11 -2 16 -4s10 -6 14 -9s7 -7 9 -12s4 -9 4 -15c0 -4 -1 -9 -2 -12s-3 -6 -5 -8s-4 -4 -8 -6s-7 -5 -10 -6s-6 -2 -10 -4c13 -3 23 -8 32 -16s13 -17 13 -28c0 -8 -1 -15 -4 -21s-7 -11 -12 -15s-10 -7 -17 -10s-14 -5 -21 -6s-14 -1 -22 -1h-17s-12 1 -16 1
c-9 0 -22 -1 -39 -2s-26 -1 -29 -1z" />
    <glyph glyph-name="residue-dissolved" unicode="&#xf110;" horiz-adv-x="468" 
d="M115 250c0 10 9 18 19 18s18 -8 18 -18s-8 -19 -18 -19s-19 9 -19 19zM377 70c50 -10 91 -51 91 -112c0 -12 -10 -22 -22 -22h-181c-12 0 -22 10 -22 22c0 62 42 103 91 112v227h-113v-73c0 -48 -39 -87 -87 -87s-88 39 -88 87v73h-24c-12 0 -22 9 -22 21s10 22 22 22h24
v65h-24c-12 0 -22 9 -22 21s10 22 22 22h223c12 0 22 -10 22 -22s-10 -21 -22 -21h-24v-65h113v86c0 12 10 22 22 22s21 -10 21 -22v-356zM178 224v73h-89v-73c0 -24 21 -44 45 -44s44 20 44 44zM178 340v65h-89v-65h89zM289 -21h133c-8 29 -34 51 -66 51s-59 -22 -67 -51z
M197 -7v-20c0 -6 -2 -12 -7 -17s-11 -8 -18 -11s-14 -6 -22 -7s-15 -2 -22 -2c-26 0 -47 9 -64 26s-26 39 -26 65c0 25 9 47 26 64s38 25 63 25c4 0 9 0 14 -1s12 -1 18 -3s12 -3 17 -6s10 -7 13 -11s5 -9 5 -15v-20c0 -2 -1 -3 -3 -3h-22c-2 0 -3 1 -3 3v13
c0 5 -4 9 -12 12s-17 5 -26 5c-17 0 -32 -6 -43 -17s-16 -27 -16 -45c0 -19 6 -35 17 -47s26 -18 44 -18c8 0 17 1 26 4s13 8 13 13v13c0 1 0 1 1 2s1 1 2 1h22c1 0 1 0 2 -1s1 -1 1 -2z" />
    <glyph glyph-name="residue-purified" unicode="&#xf111;" 
d="M114 250c0 10 9 18 19 18s19 -8 19 -18s-9 -19 -19 -19s-19 9 -19 19zM376 71c50 -10 90 -52 90 -113c0 -12 -9 -21 -21 -21h-181c-12 0 -21 9 -21 21c0 62 41 104 90 113v226h-112v-73c0 -47 -40 -86 -88 -86s-87 39 -87 86v73h-24c-12 0 -22 9 -22 21s10 21 22 21h24
v65h-24c-12 0 -22 10 -22 22s10 21 22 21h223c12 0 21 -9 21 -21s-9 -22 -21 -22h-24v-65h112v87c0 12 10 21 22 21s21 -9 21 -21v-355zM177 224v73h-88v-73c0 -24 20 -44 44 -44s44 20 44 44zM177 339v65h-88v-65h88zM288 -20h133c-8 29 -34 50 -66 50s-59 -21 -67 -50z
M94 75l-18 -54c2 0 8 -1 15 -1h17h6c-6 20 -13 39 -20 55zM17 -58v9c2 1 4 2 6 2s4 1 6 1s3 1 5 2s4 1 5 3s3 4 4 6l25 75l30 87h13c1 -1 1 -2 1 -3l22 -58c2 -6 7 -17 12 -31s9 -25 12 -33c1 -3 3 -8 6 -17s6 -15 8 -20c1 -4 2 -6 3 -7s5 -3 10 -4s8 -2 9 -2v-7v-2v-1
c-4 0 -11 0 -20 1s-15 1 -20 1s-13 0 -23 -1s-16 -1 -19 -1v9l14 4h1h2s1 1 2 1s1 1 1 1l1 1l1 1s1 1 1 2s-2 5 -4 11s-4 14 -7 22s-5 12 -5 12h-48c-2 -5 -4 -13 -8 -24s-5 -17 -5 -19s0 -4 1 -5s3 -2 5 -3s4 -1 5 -1s3 -1 6 -1s4 -1 4 -1c0 -2 1 -4 1 -7c0 -1 -1 -2 -1 -3
c-4 0 -10 0 -18 1s-15 1 -19 1h-3s-2 -1 -2 -1c-6 -1 -12 -1 -20 -1z" />
    <glyph glyph-name="resin-solvent" unicode="&#xf108;" horiz-adv-x="260" 
d="M118 435c5 7 11 12 11 12s4 -6 10 -13c41 -50 71 -96 78 -124c6 -21 1 -45 -13 -65c-9 -13 -26 -26 -40 -32c-23 -9 -48 -10 -70 -1c-32 13 -54 43 -56 76c0 7 0 12 1 16c5 28 34 76 79 131zM74 335c1 3 1 7 1 7c-1 1 -6 -8 -9 -15c-11 -23 -12 -50 -1 -68
c4 -7 14 -16 22 -20c7 -3 18 -6 23 -6h4l-6 3c-7 5 -17 14 -22 21s-11 18 -13 27c-4 14 -3 35 1 51zM118 191c-30 -3 -59 -16 -80 -37c-21 -20 -33 -44 -37 -74c-1 -6 -1 -26 0 -32c4 -30 16 -54 37 -74s46 -33 76 -37c6 -1 26 -1 32 0c25 3 48 12 66 27c26 21 42 50 47 84
c1 6 1 26 0 32c-4 30 -16 54 -37 74c-20 20 -45 33 -74 37c-6 1 -23 1 -30 0zM118 191c7 1 24 1 30 0c29 -4 54 -17 74 -37c21 -20 33 -44 37 -74c1 -6 1 -26 0 -32c-5 -34 -21 -63 -47 -84c-18 -15 -41 -23 -66 -27c-6 -1 -26 -1 -32 0c-30 4 -55 17 -76 37s-33 44 -37 74
c-1 6 -1 26 0 32c4 30 16 54 37 74c21 21 50 34 80 37zM145 168c11 -2 24 -6 34 -11c5 -2 10 -6 14 -9c5 -3 9 -6 13 -10s9 -9 12 -14c4 -5 7 -12 9 -17c7 -15 9 -27 9 -43s-2 -28 -9 -43c-10 -23 -30 -43 -53 -53c-32 -14 -82 -4 -98 6c-7 4 -9 5 -9 5l2 -1v0
c-5 4 -10 8 -14 12s-11 12 -11 12s-1 3 -3 5c-21 32 -23 72 -5 106c5 10 11 17 19 25c19 18 41 29 68 31c5 0 16 0 22 -1zM145 168c-6 1 -17 1 -22 1c-27 -2 -49 -13 -68 -31c-8 -8 -14 -16 -19 -25c-18 -34 -16 -74 5 -106c2 -2 3 -5 3 -5s7 -8 11 -12s9 -8 14 -12v0v0
c1 -1 4 -2 7 -4c16 -10 66 -20 98 -6c23 10 43 30 53 53c7 15 9 27 9 43s-2 28 -9 43c-2 5 -5 12 -9 17c-3 5 -8 10 -12 14s-8 7 -13 10c-4 3 -9 7 -14 9c-10 5 -23 9 -34 11zM145 168c11 -2 24 -6 34 -11c5 -2 10 -6 14 -9c5 -3 9 -6 13 -10s9 -9 12 -14c4 -5 7 -12 9 -17
c7 -15 9 -27 9 -43s-2 -28 -9 -43c-10 -23 -30 -43 -53 -53c-32 -14 -82 -4 -98 6c-7 4 -9 5 -9 5l2 -1v0c-5 4 -10 8 -14 12s-11 12 -11 12s-1 3 -3 5c-21 32 -23 72 -5 106c5 10 11 17 19 25c19 18 41 29 68 31c5 0 16 0 22 -1zM145 168c-6 1 -17 1 -22 1
c-27 -2 -49 -13 -68 -31c-8 -8 -14 -16 -19 -25c-18 -34 -16 -74 5 -106c2 -2 3 -5 3 -5s7 -8 11 -12s9 -8 14 -12v0v0c1 -1 4 -2 7 -4c16 -10 66 -20 98 -6c23 10 43 30 53 53c7 15 9 27 9 43s-2 28 -9 43c-2 5 -5 12 -9 17c-3 5 -8 10 -12 14s-8 7 -13 10c-4 3 -9 7 -14 9
c-10 5 -23 9 -34 11zM118 191c7 1 24 1 30 0c29 -4 54 -17 74 -37c21 -20 33 -44 37 -74c1 -6 1 -26 0 -32c-5 -34 -21 -63 -47 -84c-18 -15 -41 -23 -66 -27c-6 -1 -26 -1 -32 0c-30 4 -55 17 -76 37s-33 44 -37 74c-1 6 -1 26 0 32c4 30 16 54 37 74c21 21 50 34 80 37z
M145 168c-6 1 -17 1 -22 1c-27 -2 -49 -13 -68 -31c-8 -8 -14 -15 -19 -25c-18 -34 -16 -74 5 -106c2 -2 3 -5 3 -5s7 -8 11 -12s9 -8 14 -12c2 -1 -9 6 7 -4s66 -20 98 -6c23 10 43 30 53 53c7 15 9 27 9 43s-2 28 -9 43c-2 5 -5 12 -9 17c-3 5 -8 10 -12 14s-8 7 -13 10
c-4 3 -9 7 -14 9c-10 5 -23 9 -34 11z" />
    <glyph glyph-name="resin-solvent-reagent" unicode="&#xf109;" horiz-adv-x="461" 
d="M230 322c0 -19 -6 -37 -16 -53s-23 -29 -41 -39s-37 -14 -58 -14s-40 4 -58 14s-32 23 -42 39s-15 34 -15 53s5 37 15 53s24 29 42 39s37 14 58 14s40 -4 58 -14s31 -23 41 -39s16 -34 16 -53zM325 89c0 -22 -5 -42 -17 -61s-28 -33 -48 -44s-42 -16 -66 -16
s-46 5 -66 16s-36 25 -48 44s-17 39 -17 61s5 42 17 61s28 33 48 44s42 17 66 17s46 -6 66 -17s36 -25 48 -44s17 -39 17 -61zM461 275c0 -17 -4 -32 -13 -46s-21 -25 -36 -33s-32 -13 -50 -13s-34 5 -49 13s-27 19 -36 33s-13 29 -13 46s4 31 13 45s21 26 36 34
s31 12 49 12s35 -4 50 -12s27 -20 36 -34s13 -28 13 -45z" />
    <glyph glyph-name="sample" unicode="&#xf101;" horiz-adv-x="410" 
d="M292 343h-174l-87 -151l87 -151h174l87 151zM307 369v0l103 -177l-103 -177h-205l-102 177l102 177h205zM52 199l71 121l23 -14l-71 -121zM261 306l23 14l71 -121l-23 -14zM135 86h140v-27h-140v27z" />
    <glyph glyph-name="screen" unicode="&#xf103;" horiz-adv-x="512" 
d="M0 271l256 143l256 -143l-256 -143zM0 192l30 25l226 -121l226 122l30 -26l-256 -143zM0 113l30 26l226 -122l226 122l30 -26l-256 -143z" />
    <glyph glyph-name="tlc-control" unicode="&#xf112;" horiz-adv-x="419" 
d="M175 304c0 -8 3 -16 9 -22s14 -8 23 -8s17 2 23 8s9 14 9 22s-3 15 -9 21s-14 9 -23 9s-17 -3 -23 -9s-9 -13 -9 -21zM175 214c0 -8 3 -15 9 -21s14 -9 23 -9s17 3 23 9s9 13 9 21s-3 15 -9 21s-14 9 -23 9s-17 -3 -23 -9s-9 -13 -9 -21zM176 113c0 -8 3 -16 9 -22
s14 -8 23 -8s17 2 23 8s9 14 9 22s-3 15 -9 21s-14 9 -23 9s-17 -3 -23 -9s-9 -13 -9 -21zM32 -21v3c0 4 2 -8 5 -11s7 -4 11 -4h323c4 0 8 1 11 4s5 15 5 11v-3c0 -4 -2 8 -5 11s-7 4 -11 4h-323c-4 0 -8 -1 -11 -4s-5 -15 -5 -11zM0 -33v449c0 8 4 15 10 21s13 9 22 9h355
c9 0 17 -3 23 -9s9 -13 9 -21v-449c0 -8 -3 -15 -9 -21s-14 -9 -23 -9h-355c-9 0 -16 3 -22 9s-10 13 -10 21z" />
    <glyph glyph-name="uv" unicode="&#xf11c;" horiz-adv-x="843" 
d="M374 434v-314c0 -55 -17 -98 -50 -130s-80 -47 -139 -47s-105 15 -137 47s-48 76 -48 132v312h61v-314c0 -40 11 -70 32 -92s53 -33 95 -33c40 0 72 12 93 33c22 21 32 52 32 92v314h61zM435 434h64l110 -311c14 -39 24 -75 30 -106c6 28 16 63 31 107l108 310h65
l-173 -485h-61z" />
    <glyph glyph-name="washed-nahco3" unicode="&#xf113;" horiz-adv-x="450" 
d="M81 141l-19 -55h16h18h6c-7 21 -14 39 -21 55zM0 7v9c2 1 5 2 7 2s4 1 6 1s3 1 5 2s4 1 5 3s3 4 4 7l27 75l31 88h14c1 -1 2 -2 2 -3l23 -58c2 -6 7 -17 12 -32s9 -25 12 -33c1 -3 4 -9 7 -18s6 -15 8 -20c1 -4 3 -6 4 -7s5 -3 10 -4s8 -2 9 -2c0 -3 1 -5 1 -7v-2v-1
c-5 0 -12 0 -22 1s-16 1 -21 1c-6 0 -14 0 -24 -1s-17 -1 -20 -1v9l15 4h1s2 1 2 1h2s1 1 1 1l2 1l1 1v2s-2 5 -4 12s-5 13 -8 21s-4 12 -4 12l-51 1c-2 -5 -4 -13 -8 -24s-6 -18 -6 -20s0 -4 1 -5s3 -1 5 -2s5 -2 6 -2s3 -1 6 -1s5 -1 5 -1v-7v-3c-4 0 -11 0 -20 1
s-16 1 -20 1h-2s-3 -1 -3 -1c-6 -1 -13 -1 -21 -1zM419 89c9 0 13 -3 13 -8s-4 -9 -13 -9h-4v-24c0 -5 -4 -8 -13 -8s-13 3 -13 8v24h-26v-13c0 -5 -5 -8 -14 -8h-30v-106c0 -4 -3 -7 -8 -8h-5c-4 0 -6 0 -9 2l-53 33c-3 2 -4 3 -4 5v74h-30c-9 0 -13 3 -13 8v13h-22
c-9 0 -13 4 -13 9s4 8 13 8h22v13c0 5 4 8 13 8h22c-82 80 -123 136 -123 166c0 21 10 40 29 58s44 31 76 39v57h-4c-9 0 -13 3 -13 8s4 9 13 9h139c9 0 14 -4 14 -9s-5 -8 -14 -8h-4v-57c32 -8 57 -21 76 -39s29 -37 29 -58c0 -30 -41 -86 -123 -166h22c9 0 14 -3 14 -8
v-13h26v24c0 5 4 8 13 8s13 -3 13 -8v-24h4zM136 276c0 -28 42 -84 127 -166h33c85 82 128 138 128 166c0 12 -4 24 -12 35s-19 22 -34 30s-31 15 -50 19c-6 1 -9 4 -9 8v62h-79v-62c0 -4 -2 -7 -8 -8c-29 -6 -52 -17 -70 -33s-26 -32 -26 -51zM293 -35v86h-26v-70zM336 67
v27h-33h-47h-33v-27h113zM333 202c-12 -14 -26 -30 -42 -46c-3 -3 -6 -3 -11 -3s-9 0 -12 3c-17 18 -32 35 -45 50c-29 35 -44 58 -44 70c0 5 4 8 13 8h175c9 0 13 -3 13 -8c0 -8 -8 -24 -24 -45c-4 -5 -9 -6 -17 -4s-10 6 -6 11c9 12 14 22 18 30h-143c6 -14 19 -32 38 -55
c10 -11 22 -24 34 -37c11 12 21 24 30 34c4 5 9 6 17 3s10 -6 6 -11z" />
    <glyph glyph-name="water-free" unicode="&#xf106;" horiz-adv-x="511" 
d="M231 447c13 1 48 1 60 -1c57 -9 105 -33 145 -73c40 -41 66 -90 74 -149c2 -12 2 -52 0 -64c-10 -68 -42 -125 -94 -167c-36 -29 -80 -48 -129 -55c-12 -2 -51 -2 -63 0c-59 8 -108 33 -149 73c-40 41 -66 90 -74 149c-2 12 -2 52 0 64c8 59 33 108 74 149
c42 42 96 68 156 74zM285 400c-12 2 -34 2 -43 1c-53 -4 -99 -25 -135 -61c-16 -16 -27 -31 -37 -50c-36 -68 -32 -149 10 -213c3 -5 6 -9 6 -9s14 13 30 29c25 25 29 29 30 27c7 -19 19 -38 32 -49l6 -4l-25 -25c-24 -24 -25 -25 -23 -26c1 -1 6 -4 12 -8
c58 -35 130 -39 193 -11c46 20 85 60 105 105c13 29 19 54 19 86s-6 57 -19 86c-4 10 -14 28 -18 34c-1 2 -4 -1 -43 -40c-22 -22 -41 -40 -41 -40s-3 4 -6 10s-11 19 -18 29l-12 18l36 36c20 20 35 36 35 36c0 1 -18 12 -27 17c-20 10 -45 19 -67 22zM244 322
c6 8 11 14 11 14s6 -6 12 -14c46 -57 79 -112 87 -144c6 -24 1 -52 -14 -75c-10 -15 -29 -30 -45 -37c-25 -10 -53 -10 -78 0c-36 15 -61 49 -63 87c0 8 -1 15 0 19c6 32 40 87 90 150zM193 207l2 8c-1 1 -7 -9 -11 -17c-12 -26 -12 -58 0 -79c5 -8 16 -19 25 -23
c8 -4 20 -7 26 -7h4l-7 4c-8 5 -19 17 -25 25s-12 20 -15 30c-4 16 -4 40 1 59z" />
    <glyph glyph-name="wellplate" unicode="&#xf102;" horiz-adv-x="332" 
d="M299 314c18 0 33 -15 33 -33v-182c0 -18 -15 -33 -33 -33h-266c-18 0 -33 15 -33 33v182c0 18 15 33 33 33h266zM46 84c15 0 28 13 28 28s-13 27 -28 27s-28 -12 -28 -27s13 -28 28 -28zM46 164c15 0 28 12 28 27s-13 28 -28 28s-28 -13 -28 -28s13 -27 28 -27zM46 244
c15 0 28 12 28 27s-13 28 -28 28s-28 -13 -28 -28s13 -27 28 -27zM126 84c15 0 28 13 28 28s-13 27 -28 27s-28 -12 -28 -27s13 -28 28 -28zM126 164c15 0 28 12 28 27s-13 28 -28 28s-28 -13 -28 -28s13 -27 28 -27zM126 244c15 0 28 12 28 27s-13 28 -28 28
s-28 -13 -28 -28s13 -27 28 -27zM206 84c15 0 27 13 27 28s-12 27 -27 27s-28 -12 -28 -27s13 -28 28 -28zM206 164c15 0 27 12 27 27s-12 28 -27 28s-28 -13 -28 -28s13 -27 28 -27zM206 244c15 0 27 12 27 27s-12 28 -27 28s-28 -13 -28 -28s13 -27 28 -27zM286 84
c15 0 27 13 27 28s-12 27 -27 27s-28 -12 -28 -27s13 -28 28 -28zM286 164c15 0 27 12 27 27s-12 28 -27 28s-28 -13 -28 -28s13 -27 28 -27zM286 244c15 0 27 12 27 27s-12 28 -27 28s-28 -13 -28 -28s13 -27 28 -27z" />
    <glyph glyph-name="xvial" unicode="&#xf11d;" horiz-adv-x="244" 
d="M32 438h179c17 0 33 -14 33 -32v-27c0 -18 -16 -32 -33 -32h-17c25 -4 45 -25 45 -52v-295c0 -29 -24 -54 -53 -54h-128c-29 0 -53 25 -53 54v295c0 27 19 48 44 52h-17c-17 0 -32 14 -32 32v27c0 18 15 32 32 32zM58 332c-21 0 -38 -18 -38 -39v-295
c0 -21 17 -38 38 -38h128c21 0 38 17 38 38v295c0 21 -17 39 -38 39h-43h-85zM38 253h31l53 -79l53 79h31l-69 -102l73 -110h-31l-59 90l-61 -90h-31l76 113z" />
  </font>
</defs>
</svg>
