<?xml version="1.0"?>
<svg version="1.1" id="topsvg"
xmlns="http://www.w3.org/2000/svg" xmlns:xlink="http://www.w3.org/1999/xlink"
xmlns:cml="http://www.xml-cml.org/schema" x="0" y="0" width="200px" height="200px" viewBox="0 0 100 100">
<title>OBDepict</title>
<rect x="0" y="0" width="100" height="100" fill="white"/>
<g transform="translate(0,0)">
<svg width="100" height="100" x="0" y="0" viewBox="0 0 461.048 220"
font-family="sans-serif" stroke="rgb(0,0,0)" stroke-width="2"  stroke-linecap="round">
<line x1="178.6" y1="60.0" x2="201.9" y2="46.5" stroke="rgb(0,0,0)"  stroke-width="2.0"/>
<polygon points="143.920130 120.000100 147.920130 146.800134 139.920130 146.800134 " stroke-width="2.000000" fill="rgb(0,0,0)"  stroke="rgb(0,0,0)" />
<polygon points="109.280087 60.000025 72.639999 43.464076 76.640087 36.535924 " stroke-width="2.000000" fill="rgb(0,0,0)"  stroke="rgb(0,0,0)" />
<line x1="183.6" y1="102.0" x2="182.8" y2="103.4" stroke="rgb(0,0,0)"  stroke-width="2.0"/>
<line x1="187.6" y1="103.6" x2="186.2" y2="106.1" stroke="rgb(0,0,0)"  stroke-width="2.0"/>
<line x1="191.7" y1="105.2" x2="189.6" y2="108.8" stroke="rgb(0,0,0)"  stroke-width="2.0"/>
<line x1="195.7" y1="106.8" x2="193.0" y2="111.5" stroke="rgb(0,0,0)"  stroke-width="2.0"/>
<line x1="199.7" y1="108.3" x2="196.4" y2="114.2" stroke="rgb(0,0,0)"  stroke-width="2.0"/>
<line x1="203.8" y1="109.9" x2="199.8" y2="116.9" stroke="rgb(0,0,0)"  stroke-width="2.0"/>
<line x1="105.0" y1="103.4" x2="104.2" y2="102.0" stroke="rgb(0,0,0)"  stroke-width="2.0"/>
<line x1="101.6" y1="106.1" x2="100.2" y2="103.6" stroke="rgb(0,0,0)"  stroke-width="2.0"/>
<line x1="98.3" y1="108.8" x2="96.2" y2="105.2" stroke="rgb(0,0,0)"  stroke-width="2.0"/>
<line x1="94.9" y1="111.5" x2="92.1" y2="106.8" stroke="rgb(0,0,0)"  stroke-width="2.0"/>
<line x1="91.5" y1="114.2" x2="88.1" y2="108.3" stroke="rgb(0,0,0)"  stroke-width="2.0"/>
<line x1="88.1" y1="116.9" x2="84.1" y2="109.9" stroke="rgb(0,0,0)"  stroke-width="2.0"/>
<line x1="74.6" y1="40.0" x2="51.3" y2="53.5" stroke="rgb(0,0,0)"  stroke-width="2.0"/>
<line x1="223.0" y1="110.9" x2="246.3" y2="97.4" stroke="rgb(0,0,0)"  stroke-width="2.0"/>
<line x1="226.0" y1="116.1" x2="249.3" y2="102.6" stroke="rgb(0,0,0)"  stroke-width="2.0"/>
<line x1="247.8" y1="100.0" x2="282.5" y2="120.0" stroke="rgb(0,0,0)"  stroke-width="2.0"/>
<line x1="351.8" y1="160.0" x2="375.2" y2="173.5" stroke="rgb(0,0,0)"  stroke-width="2.0"/>
<line x1="397.7" y1="173.5" x2="409.8" y2="166.5" stroke="rgb(0,0,0)"  stroke-width="2.0"/>
<line x1="143.9" y1="120.0" x2="109.3" y2="100.0" stroke="rgb(0,0,0)"  stroke-width="2.0"/>
<line x1="109.3" y1="100.0" x2="109.3" y2="60.0" stroke="rgb(0,0,0)"  stroke-width="2.0"/>
<line x1="109.3" y1="60.0" x2="132.7" y2="46.5" stroke="rgb(0,0,0)"  stroke-width="2.0"/>
<line x1="155.2" y1="46.5" x2="178.6" y2="60.0" stroke="rgb(0,0,0)"  stroke-width="2.0"/>
<line x1="178.6" y1="60.0" x2="178.6" y2="100.0" stroke="rgb(0,0,0)"  stroke-width="2.0"/>
<line x1="178.6" y1="100.0" x2="143.9" y2="120.0" stroke="rgb(0,0,0)"  stroke-width="2.0"/>
<line x1="282.5" y1="120.0" x2="317.1" y2="100.0" stroke="rgb(0,0,0)"  stroke-width="2.0"/>
<line x1="317.1" y1="100.0" x2="351.8" y2="120.0" stroke="rgb(0,0,0)"  stroke-width="2.0"/>
<line x1="318.7" y1="109.2" x2="343.0" y2="123.2" stroke="rgb(0,0,0)"  stroke-width="2.0"/>
<line x1="351.8" y1="120.0" x2="351.8" y2="160.0" stroke="rgb(0,0,0)"  stroke-width="2.0"/>
<line x1="351.8" y1="160.0" x2="317.1" y2="180.0" stroke="rgb(0,0,0)"  stroke-width="2.0"/>
<line x1="343.0" y1="156.8" x2="318.7" y2="170.8" stroke="rgb(0,0,0)"  stroke-width="2.0"/>
<line x1="317.1" y1="180.0" x2="282.5" y2="160.0" stroke="rgb(0,0,0)"  stroke-width="2.0"/>
<line x1="282.5" y1="160.0" x2="282.5" y2="120.0" stroke="rgb(0,0,0)"  stroke-width="2.0"/>
<line x1="289.7" y1="154.0" x2="289.7" y2="126.0" stroke="rgb(0,0,0)"  stroke-width="2.0"/>
<text x="137.920130" y="48.000000" fill="rgb(0,0,0)"  stroke="rgb(0,0,0)" stroke-width="1" font-size="16" >O</text>
<text x="207.204217" y="48.000000" fill="rgb(0,0,0)"  stroke="rgb(0,0,0)" stroke-width="1" font-size="16" >OH</text>
<text x="137.920130" y="168.000150" fill="rgb(0,0,0)"  stroke="rgb(0,0,0)" stroke-width="1" font-size="16" >OH</text>
<text x="207.204217" y="128.000100" fill="rgb(0,0,0)"  stroke="rgb(0,0,0)" stroke-width="1" font-size="16" >N</text>
<text x="56.640043" y="128.000100" fill="rgb(0,0,0)"  stroke="rgb(0,0,0)" stroke-width="1" font-size="16" >HO</text>
<text x="22.000000" y="68.000025" fill="rgb(0,0,0)"  stroke="rgb(0,0,0)" stroke-width="1" font-size="16" >HO</text>
<text x="380.408434" y="188.000176" fill="rgb(0,0,0)"  stroke="rgb(0,0,0)" stroke-width="1" font-size="16" >O</text>
<text x="417.048478" y="168.000150" fill="rgb(0,0,0)"  stroke="rgb(0,0,0)" stroke-width="1" font-size="16" >CH</text>
<text x="441.048478" y="171.680150" fill="rgb(0,0,0)"  stroke="rgb(0,0,0)" stroke-width="1" font-size="13" >3</text>
</svg>
</g>
</svg>

