<?xml version="1.0"?>
<svg version="1.1" id="topsvg"
xmlns="http://www.w3.org/2000/svg" xmlns:xlink="http://www.w3.org/1999/xlink"
xmlns:cml="http://www.xml-cml.org/schema" x="0" y="0" width="200px" height="200px" viewBox="0 0 100 100">
<title>C6H14 Pentane, 2-methyl- 107835 - Open Babel Depiction</title>
<rect x="0" y="0" width="100" height="100" fill="white"/>
<g transform="translate(0,0)">
<svg width="100" height="100" x="0" y="0" viewBox="0 0 263.923 214.641"
font-family="sans-serif" stroke="rgb(0,0,0)" stroke-width="2"  stroke-linecap="round">
<line x1="80.0" y1="120.0" x2="80.0" y2="93.0" stroke="rgb(0,0,0)"  stroke-width="2.0"/>
<line x1="80.0" y1="120.0" x2="66.5" y2="143.4" stroke="rgb(0,0,0)"  stroke-width="2.0"/>
<line x1="80.0" y1="120.0" x2="53.0" y2="120.0" stroke="rgb(0,0,0)"  stroke-width="2.0"/>
<line x1="80.0" y1="120.0" x2="114.6" y2="140.0" stroke="rgb(0,0,0)"  stroke-width="2.0"/>
<line x1="109.3" y1="80.0" x2="85.9" y2="93.5" stroke="rgb(0,0,0)"  stroke-width="2.0"/>
<line x1="109.3" y1="80.0" x2="109.3" y2="107.0" stroke="rgb(0,0,0)"  stroke-width="2.0"/>
<line x1="109.3" y1="80.0" x2="95.8" y2="56.6" stroke="rgb(0,0,0)"  stroke-width="2.0"/>
<line x1="109.3" y1="80.0" x2="149.3" y2="80.0" stroke="rgb(0,0,0)"  stroke-width="2.0"/>
<line x1="114.6" y1="140.0" x2="128.1" y2="163.4" stroke="rgb(0,0,0)"  stroke-width="2.0"/>
<line x1="114.6" y1="140.0" x2="101.1" y2="163.4" stroke="rgb(0,0,0)"  stroke-width="2.0"/>
<line x1="114.6" y1="140.0" x2="149.3" y2="120.0" stroke="rgb(0,0,0)"  stroke-width="2.0"/>
<line x1="149.3" y1="120.0" x2="176.3" y2="120.0" stroke="rgb(0,0,0)"  stroke-width="2.0"/>
<line x1="149.3" y1="120.0" x2="149.3" y2="80.0" stroke="rgb(0,0,0)"  stroke-width="2.0"/>
<line x1="149.3" y1="120.0" x2="162.8" y2="143.4" stroke="rgb(0,0,0)"  stroke-width="2.0"/>
<line x1="149.3" y1="80.0" x2="149.3" y2="53.0" stroke="rgb(0,0,0)"  stroke-width="2.0"/>
<line x1="149.3" y1="80.0" x2="189.3" y2="80.0" stroke="rgb(0,0,0)"  stroke-width="2.0"/>
<line x1="189.3" y1="80.0" x2="212.7" y2="66.5" stroke="rgb(0,0,0)"  stroke-width="2.0"/>
<line x1="189.3" y1="80.0" x2="189.3" y2="53.0" stroke="rgb(0,0,0)"  stroke-width="2.0"/>
<line x1="189.3" y1="80.0" x2="202.8" y2="103.4" stroke="rgb(0,0,0)"  stroke-width="2.0"/>
<text x="74.000000" y="88.000000" fill="rgb(0,0,0)"  stroke="rgb(0,0,0)" stroke-width="1" font-size="16" >H</text>
<text x="54.000000" y="162.641016" fill="rgb(0,0,0)"  stroke="rgb(0,0,0)" stroke-width="1" font-size="16" >H</text>
<text x="34.000000" y="128.000000" fill="rgb(0,0,0)"  stroke="rgb(0,0,0)" stroke-width="1" font-size="16" >H</text>
<text x="68.641016" y="108.000000" fill="rgb(0,0,0)"  stroke="rgb(0,0,0)" stroke-width="1" font-size="16" >H</text>
<text x="103.282032" y="128.000000" fill="rgb(0,0,0)"  stroke="rgb(0,0,0)" stroke-width="1" font-size="16" >H</text>
<text x="83.282032" y="53.358984" fill="rgb(0,0,0)"  stroke="rgb(0,0,0)" stroke-width="1" font-size="16" >H</text>
<text x="128.641016" y="182.641016" fill="rgb(0,0,0)"  stroke="rgb(0,0,0)" stroke-width="1" font-size="16" >H</text>
<text x="88.641016" y="182.641016" fill="rgb(0,0,0)"  stroke="rgb(0,0,0)" stroke-width="1" font-size="16" >H</text>
<text x="183.282032" y="128.000000" fill="rgb(0,0,0)"  stroke="rgb(0,0,0)" stroke-width="1" font-size="16" >H</text>
<text x="143.282032" y="48.000000" fill="rgb(0,0,0)"  stroke="rgb(0,0,0)" stroke-width="1" font-size="16" >H</text>
<text x="217.923048" y="68.000000" fill="rgb(0,0,0)"  stroke="rgb(0,0,0)" stroke-width="1" font-size="16" >H</text>
<text x="183.282032" y="48.000000" fill="rgb(0,0,0)"  stroke="rgb(0,0,0)" stroke-width="1" font-size="16" >H</text>
<text x="203.282032" y="122.641016" fill="rgb(0,0,0)"  stroke="rgb(0,0,0)" stroke-width="1" font-size="16" >H</text>
<text x="163.282032" y="162.641016" fill="rgb(0,0,0)"  stroke="rgb(0,0,0)" stroke-width="1" font-size="16" >H</text>
</svg>
</g>
</svg>
