<?xml version="1.0"?>
<svg version="1.1" id="topsvg"
xmlns="http://www.w3.org/2000/svg" xmlns:xlink="http://www.w3.org/1999/xlink"
xmlns:cml="http://www.xml-cml.org/schema" x="0" y="0" width="200px" height="200px" viewBox="0 0 100 100">
<title> - Open Babel Depiction</title>
<rect x="0" y="0" width="100" height="100" fill="white"/>
<g transform="translate(0,0)">
<svg width="100" height="100" x="0" y="0" viewBox="0 0 250.96 220"
font-family="sans-serif" stroke="rgb(0,0,0)" stroke-width="2"  stroke-linecap="round">
<line x1="67.0" y1="75.5" x2="53.0" y2="75.5" stroke="rgb(0,0,0)"  stroke-width="2.0"/>
<line x1="46.5" y1="64.3" x2="53.5" y2="52.2" stroke="rgb(0,0,0)"  stroke-width="2.0"/>
<line x1="66.5" y1="52.2" x2="73.5" y2="64.3" stroke="rgb(0,0,0)"  stroke-width="2.0"/>
<line x1="176.3" y1="120.0" x2="176.3" y2="160.0" stroke="rgb(0,0,0)"  stroke-width="2.0"/>
<line x1="176.3" y1="160.0" x2="141.7" y2="180.0" stroke="rgb(0,0,0)"  stroke-width="2.0"/>
<line x1="141.7" y1="180.0" x2="107.0" y2="160.0" stroke="rgb(0,0,0)"  stroke-width="2.0"/>
<line x1="107.0" y1="160.0" x2="107.0" y2="120.0" stroke="rgb(0,0,0)"  stroke-width="2.0"/>
<line x1="107.0" y1="120.0" x2="141.7" y2="100.0" stroke="rgb(0,0,0)"  stroke-width="2.0"/>
<line x1="141.7" y1="100.0" x2="176.3" y2="120.0" stroke="rgb(0,0,0)"  stroke-width="2.0"/>
<line x1="141.7" y1="60.0" x2="165.1" y2="46.5" stroke="rgb(0,0,0)"  stroke-width="2.0"/>
<line x1="187.6" y1="46.5" x2="199.7" y2="53.5" stroke="rgb(0,0,0)"  stroke-width="2.0"/>
<line x1="211.0" y1="73.0" x2="211.0" y2="87.0" stroke="rgb(0,0,0)"  stroke-width="2.0"/>
<line x1="199.7" y1="106.5" x2="176.3" y2="120.0" stroke="rgb(0,0,0)"  stroke-width="2.0"/>
<line x1="141.7" y1="100.0" x2="141.7" y2="60.0" stroke="rgb(0,0,0)"  stroke-width="2.0"/>
<text x="170.320241" y="48.000000" fill="rgb(0,0,0)"  stroke="rgb(0,0,0)" stroke-width="1" font-size="16" >N</text>
<text x="170.320241" y="32.000000" fill="rgb(0,0,0)"  stroke="rgb(0,0,0)" stroke-width="1" font-size="16" >H</text>
<text x="204.960303" y="68.000035" fill="rgb(0,0,0)"  stroke="rgb(0,0,0)" stroke-width="1" font-size="16" >O</text>
<text x="204.960303" y="108.000106" fill="rgb(0,0,0)"  stroke="rgb(0,0,0)" stroke-width="1" font-size="16" >NH</text>
<text x="54.000035" y="48.904002" fill="rgb(0,0,0)"  stroke="rgb(0,0,0)" stroke-width="1" font-size="16" >O</text>
<text x="74.000071" y="83.548063" fill="rgb(0,0,0)"  stroke="rgb(0,0,0)" stroke-width="1" font-size="16" >O</text>
<text x="34.000000" y="83.548063" fill="rgb(0,0,0)"  stroke="rgb(0,0,0)" stroke-width="1" font-size="16" >O</text>
</svg>
</g>
</svg>
