<svg width="2560" height="2048" xmlns="http://www.w3.org/2000/svg" xmlns:svg="http://www.w3.org/2000/svg" xmlns:xlink="http://www.w3.org/1999/xlink">
 <g class="layer">
  <title>Image</title>
  <image height="2048" id="original_image" width="2560" xlink:href="/api/v1/attachments/image/46"/>
 </g>

 <g class="layer">
  <title>Annotation</title>id=&quot;annotation&quot;
  <rect fill="none" height="75" id="svg_1" stroke="#f20404" stroke-dasharray="null" stroke-linecap="null" stroke-linejoin="null" stroke-width="8" width="92" x="1090" y="1099"/>
  <text fill="#ff0000" font-family="Serif" font-size="70" font-weight="bold" id="svg_2" stroke="#f20404" stroke-dasharray="null" stroke-linecap="null" stroke-linejoin="null" stroke-width="0" text-anchor="middle" x="1257" xml:space="preserve" y="1039">Area of interest</text>
  <path d="m998,638c2.87134,0 3.47736,0 4.13934,0c0.70599,0 1.44397,0 2.96802,0c0.76196,0 2.22595,0 2.9068,0c0.64581,0 1.26166,0 2.42334,0c0.55585,0 1.64252,-0.00067 2.72919,0c1.12,0.00067 1.69507,0.0014 2.27997,0.01068c1.20013,0.01898 1.81543,0.03864 2.44,0.07465c1.9364,0.11163 2.59888,0.19702 3.27051,0.26733c0.67902,0.07104 1.3634,0.1496 2.05353,0.22198c1.39014,0.14587 2.78906,0.263 3.48828,0.30383c0.69275,0.04047 1.3739,0.06818 2.03699,0.08551c1.24792,0.03259 1.82104,0.03375 3.26404,0.03601c0.68799,0.0011 1.67297,-0.00006 2.54163,0c1.0022,0.00012 1.78406,0.00323 2.45972,0.03601c0.82849,0.04016 1.83252,0.12628 3.02002,0.24799c0.64673,0.06628 1.31592,0.1416 1.99951,0.216c0.68848,0.07489 2.04358,0.2251 3.3125,0.33331c0.58044,0.0495 1.64246,0.11426 2.1333,0.14136c0.92664,0.05115 1.81628,0.08337 3.15454,0.24664c0.92932,0.1134 1.39319,0.20544 2.3175,0.35333c0.89172,0.1427 2.11682,0.31793 2.83789,0.36816c0.92896,0.0647 1.89001,0.05719 2.72339,0.05719c0.83337,0 1.80396,0 2.42932,0c0.72937,0 2.0343,0 3.01965,0c0.50574,0 1.50305,0 1.97864,0c1.56519,0 2.31372,0 3.03638,0c1.0459,0 1.82129,0 2.86938,0c0.72742,0 1.5,-0.00104 2.83325,0c0.8761,0.00067 1.3667,-0.00146 2.4375,0.02081c0.57471,0.01196 1.17261,0.01184 3.0625,0.14587c0.65564,0.04651 1.32056,0.11572 1.995,0.19501c0.68555,0.08063 1.38196,0.16791 2.80005,0.39996c0.72607,0.11884 2.20557,0.40186 2.95862,0.55951c0.75635,0.15833 1.50574,0.3255 2.24109,0.49347c0.71399,0.16309 1.39709,0.32513 2.04297,0.47552c1.62842,0.37921 2.40234,0.58386 3.29565,0.66815c0.88489,0.0835 1.66663,0.04169 2.70398,0.04169c0.61865,0 1.30139,0 2.04602,0c0.80469,0 1.66736,0 2.58606,0c1.99731,0 3.07056,0 4.18396,0c1.14331,0 2.30664,0 3.47998,0c1.17334,0 2.33667,0 3.47998,0c2.18665,0 3.21289,0 4.19604,0c0.94714,0 1.86536,0 2.76147,0c0.88123,0 1.75427,0 2.62646,0c1.76941,0 2.67773,0 3.59607,0c0.91833,0 1.82666,0 2.71497,0c0.85828,0 1.67664,0 2.44495,0c1.34668,0 1.90869,0.00104 2.40271,-0.00134c0.43799,-0.00208 0.83215,-0.00635 1.19397,-0.01947c0.34216,-0.01239 0.67639,-0.0318 1.01404,-0.06451c0.73694,-0.07141 1.15576,-0.13214 1.60803,-0.20398c0.48169,-0.07654 0.99097,-0.15143 2.03198,-0.42938c0.53687,-0.14331 2.10718,-0.76141 2.58594,-1.04547c0.94385,-0.56006 1.3645,-0.9057 2.15002,-1.59583c0.37708,-0.3313 1.35645,-1.31024 1.92139,-1.8667c0.70508,-0.69446 1.33521,-1.1239 2.12537,-1.71198c0.698,-0.51947 1.0083,-1.36133 1.53333,-1.86133l0.76599,-0.5l0.69458,-0.40002" fill="none" id="svg_3" stroke="#000000"/>
  <line fill="none" id="svg_4" stroke="#000000" stroke-width="5" x1="979" x2="1044" y1="709" y2="716"/>
  <path d="m1037,799l74,-41l69,41l-31,59l-112,-59z" fill="#FF0000" id="svg_5" stroke="#000000"/>
  <ellipse cx="1260" cy="685" fill="#FF0000" id="svg_6" rx="58" ry="49" stroke="#000000"/>
  <path d="m1300.43154,848.19976c-0.65961,3.7349 -2.3445,7.30438 -2.45796,11.15578c0.15096,2.22995 -1.34507,3.42777 -3.39309,3.38559c-2.20271,2.28327 0.27188,5.89173 2.76419,6.81342c2.54355,1.70733 5.69899,-0.20043 8.21861,1.33111c3.34563,2.61532 4.74235,7.25233 3.58811,11.31753c-1.14762,3.35583 4.72699,2.13534 2.51735,-0.54723c-1.70659,-2.62201 3.21704,-1.75512 1.95656,0.73423c-0.23818,1.99826 1.47397,2.64505 0.71201,4.581c1.98504,1.13823 -0.1664,1.77554 -1.37548,1.99046c-2.83138,1.41143 0.51214,-2.52836 -1.73088,-3.69368c-2.05404,0.44641 -0.66222,3.88605 -1.36726,3.48878c-1.45144,-1.13655 -1.45037,-5.38581 -3.88639,-2.61322c-0.80849,-3.41632 0.66667,-6.97427 -0.46971,-10.37076c0.46551,-2.53654 -3.53936,-3.41146 -3.03282,-0.4695c0.20193,4.49005 -1.16152,8.97116 -0.379,13.43909c1.07776,2.75578 4.09208,3.99723 5.98395,6.12379c1.55374,1.6397 3.56803,3.3928 5.98634,2.87657c2.74287,-0.1189 5.4908,-0.37221 8.22129,0.06326c3.43441,0.10832 6.05615,-2.60638 8.98707,-4.00085c3.44552,-2.7359 2.90304,-7.62278 2.55956,-11.51542c-0.42117,-2.40328 0.50303,-4.80765 0.3308,-7.18843c-2.48404,-3.03936 -4.52207,2.30292 -3.81446,4.59815c-0.00017,2.88722 0.55428,6.60645 -2.19989,8.48721c-2.27293,-0.05731 -4.43611,0.76828 -6.72658,0.33661c-1.85858,1.1037 -4.86903,1.07536 -5.48251,-1.55204c-0.24493,-2.3333 0.81232,-4.77954 -0.62419,-6.95716c1.26215,1.08705 3.4642,-0.93885 2.23698,1.49824c-1.49686,1.98379 1.26748,5.04067 2.30813,2.11257c0.34526,-1.96459 -1.49343,-4.57201 1.52899,-4.15111c0.61638,0.69297 -2.10487,5.54026 1.6149,4.3153c2.652,-0.58091 -0.47181,-4.74098 3.11951,-4.75544c1.73807,-2.0462 1.2701,-5.88154 3.92872,-7.43385c2.96435,-2.00612 7.5927,-0.55778 9.70847,-3.95514c1.8034,-1.73855 0.95473,-6.55725 -2.15549,-4.96058c-3.88676,0.3789 -0.80207,-5.26429 -0.91052,-7.37885c0.91579,-1.84171 -1.11215,-5.71851 -0.41384,-6.12982c1.31948,2.01879 1.79207,4.37998 1.5083,6.73927c-0.02439,2.00075 -0.87288,7.42305 1.90866,4.08046c0.94162,-2.3295 0.66776,-4.96807 1.33862,-7.39164c1.29391,-5.23243 -1.02286,-10.46776 -3.60563,-14.8996c-2.1997,-2.38587 -4.99228,-4.28779 -7.61473,-6.1604c-4.41105,-1.65899 -9.28153,-1.95619 -13.94028,-1.54041c-4.12085,0.71428 -8.47863,1.46733 -11.7614,4.27699c-3.19935,1.88513 -6.2634,4.38886 -7.52823,8.01111c-1.10225,2.91809 -3.03243,5.8898 -2.15518,9.13137c0.83897,2.70221 0.394,5.50856 0.52984,8.27049c1.43019,3.15662 2.78047,-1.61526 2.64663,-3.19364c0.07918,-2.99312 1.65832,-5.64246 2.82192,-8.29959zm26.2688,6.42134c2.9411,0.21075 6.66497,1.84856 6.74523,5.26305c0.44721,3.42654 -2.3215,6.74796 -5.86968,6.41193c-3.22288,-0.26473 -5.2841,-3.04862 -5.07009,-6.1785c-1.07901,-2.24416 0.60012,-4.64769 2.85367,-5.16358c0.43701,-0.14695 0.8862,-0.25694 1.34087,-0.3329zm-19.84745,0.29185c3.41189,-0.60678 7.29375,1.50979 7.30514,5.28645c0.32045,3.65103 -3.55583,4.36634 -6.20005,5.28098c-1.82968,1.1814 -3.73029,0.08143 -5.25061,-1.10887c-1.97254,-2.06465 -1.39277,-6.22522 0.69004,-8.10989c1.00999,-0.74748 2.26028,-1.04131 3.45548,-1.34866zm11.67498,9.63173c1.65174,2.27022 3.63466,5.73215 1.49861,8.30877c-1.89623,1.52075 -2.13529,-2.16311 -4.12557,-0.42816c-1.86711,-1.63521 -0.14506,-4.96269 1.16502,-6.62386c0.43179,-0.47835 0.92591,-0.89949 1.46195,-1.25675z" fill="#FF0000" id="svg_9" stroke="#000000"/>
  <path d="m1397.99915,758.59593l0,17.13804l9.75627,0l14.6051,11.99402l0.00868,-41.12608l-14.60727,11.99402l-9.76278,0zm29.96986,-1.97079c-0.85299,-0.84431 -2.22256,-0.84431 -3.07122,0.00434c-0.84648,0.84865 -0.84648,2.22256 0.00434,3.07339l0,-0.00434c1.87312,1.87529 3.02781,4.44729 3.02781,7.3058c0,2.85634 -1.15252,5.41967 -3.02347,7.29495c-0.85517,0.84431 -0.85517,2.21822 -0.00434,3.07122c0.42324,0.42324 0.97888,0.63595 1.53452,0.63595c0.55781,0 1.11345,-0.21271 1.53669,-0.63595c2.65232,-2.64797 4.29753,-6.32692 4.29536,-10.36617c0.00217,-4.04793 -1.64956,-7.73122 -4.2997,-10.37919zm4.98123,-4.97906c-0.85299,-0.84865 -2.22256,-0.84865 -3.06688,0c-0.85082,0.84865 -0.85082,2.22473 0,3.06905c3.14718,3.14935 5.08758,7.48161 5.08758,12.28703c0,4.80108 -1.9404,9.13117 -5.08324,12.28269c-0.85082,0.84648 -0.85082,2.22039 0,3.06905c0.42324,0.42324 0.97888,0.63595 1.53669,0.63595c0.55564,0 1.11128,-0.21271 1.53452,-0.63595c3.92421,-3.92638 6.35731,-9.36558 6.35297,-15.35174c0.00217,-5.9905 -2.43093,-11.43404 -6.36165,-15.35608zm4.72946,-4.72946c-0.85299,-0.84865 -2.22473,-0.84431 -3.06905,0.00434c-0.84865,0.84431 -0.84865,2.22039 0.00434,3.06688l-0.00434,0c4.36048,4.36048 7.04969,10.35966 7.04969,17.01432c0,6.64815 -2.68921,12.6495 -7.04535,17.01215c-0.84865,0.84648 -0.84865,2.22039 0.00434,3.07122c0.42107,0.42107 0.97671,0.63161 1.53235,0.63161s1.11345,-0.21271 1.53669,-0.63595c5.12882,-5.13533 8.31507,-12.24797 8.31073,-20.07902c0.00434,-7.83757 -3.18191,-14.95237 -8.31941,-20.08554z" fill="#FF0000" id="svg_10" stroke="#000000"/></g>
  
</svg>