<?xml version="1.0" encoding="UTF-8"?>
<svg id="Layer_1" xmlns="http://www.w3.org/2000/svg" version="1.1" viewBox="0 0 32 32">
  <!-- Generator: Adobe Illustrator 29.5.1, SVG Export Plug-In . SVG Version: 2.1.0 Build 141)  -->
  <path d="M3.931,6.669h-1.512L-3.592,25.331H-1.183l1.465-4.883h6.299l1.465,4.883h2.41L4.444,6.669h-.513ZM.889,18.422l2.542-8.476,2.542,8.476H.889Z"/>
  <path d="M20.247,16.096c-.353-.29-.782-.47-1.244-.6.174-.083.359-.15.519-.253.616-.393,1.096-.899,1.443-1.519.345-.619.519-1.313.519-2.083,0-.872-.115-1.619-.347-2.243-.229-.624-.565-1.138-1.006-1.545-.439-.405-.977-.704-1.609-.897-.632-.192-1.35-.288-2.153-.288h-5.332v18.662h5.563c1.06,0,1.982-.208,2.769-.621.787-.415,1.395-1.022,1.827-1.82.431-.799.647-1.78.647-2.942,0-.803-.134-1.538-.404-2.205-.269-.667-.667-1.215-1.191-1.647ZM16.369,8.694c.624,0,1.139.101,1.545.302.405.201.708.517.909.948.2.432.302.989.302,1.672,0,.624-.118,1.16-.353,1.609-.236.448-.558.792-.968,1.031s-.88.359-1.41.359h-2.999v-5.922h2.974ZM19.145,21.748c-.227.5-.554.886-.981,1.16s-.948.41-1.564.41h-3.204v-6.716h3.294c.667,0,1.205.137,1.616.41s.709.662.897,1.166.282,1.102.282,1.794c0,.684-.114,1.276-.339,1.775Z"/>
  <path d="M32.261,21.806c-.243.615-.618,1.064-1.122,1.346s-1.188.422-2.051.422c-.684,0-1.265-.149-1.743-.448s-.864-.715-1.16-1.25c-.294-.533-.508-1.155-.641-1.865-.132-.709-.199-1.474-.199-2.294v-3.474c0-.88.079-1.677.238-2.391.157-.713.397-1.324.718-1.832.32-.508.73-.9,1.23-1.173.499-.273,1.091-.41,1.775-.41.769,0,1.395.148,1.877.442.483.295.848.753,1.096,1.372s.402,1.42.461,2.403h2.358c-.051-1.342-.305-2.476-.763-3.403-.457-.927-1.106-1.632-1.948-2.115-.841-.482-1.869-.724-3.082-.724-.991,0-1.877.184-2.66.551-.781.367-1.444.895-1.986,1.583-.543.688-.957,1.515-1.244,2.48-.286.966-.43,2.047-.43,3.243v3.448c0,1.205.142,2.29.424,3.256s.69,1.792,1.224,2.48c.533.687,1.177,1.215,1.929,1.582s1.593.552,2.524.552c1.299,0,2.383-.248,3.25-.743.868-.496,1.53-1.207,1.987-2.134.457-.927.715-2.032.775-3.314h-2.358c-.077.991-.237,1.794-.481,2.41Z"/>
</svg>