<?xml version="1.0" encoding="UTF-8" standalone="no"?>
<svg
   xmlns:dc="http://purl.org/dc/elements/1.1/"
   xmlns:cc="http://creativecommons.org/ns#"
   xmlns:rdf="http://www.w3.org/1999/02/22-rdf-syntax-ns#"
   xmlns:svg="http://www.w3.org/2000/svg"
   xmlns="http://www.w3.org/2000/svg"
   xmlns:sodipodi="http://sodipodi.sourceforge.net/DTD/sodipodi-0.dtd"
   xmlns:inkscape="http://www.inkscape.org/namespaces/inkscape"
   version="1.0"
   width="1000pt"
   height="1000pt"
   viewBox="0 0 1000 1000"
   preserveAspectRatio="xMidYMid meet"
   id="svg163924"
   inkscape:version="0.91 r13725"
   sodipodi:docname="acidified-hcl.svg">
  <defs
     id="defs163936">
    <symbol
       id="icon-filter"
       viewBox="0 0 22 28">
      <title
         id="title170427">filter</title>
      <path
         class="path1"
         d="M 21.922,4.609 C 22.078,4.984 22,5.421 21.703,5.703 L 14,13.406 14,25 c 0,0.406 -0.25,0.766 -0.609,0.922 C 13.266,25.969 13.125,26 13,26 12.734,26 12.484,25.906 12.297,25.703 l -4,-4 C 8.11,21.516 8,21.265 8,21 L 8,13.406 0.297,5.703 C 0,5.422 -0.078,4.984 0.078,4.609 0.234,4.25 0.594,4 1,4 l 20,0 c 0.406,0 0.766,0.25 0.922,0.609 z"
         id="path170429"
         inkscape:connector-curvature="0" />
    </symbol>
  </defs>
  <sodipodi:namedview
     pagecolor="#ffffff"
     bordercolor="#666666"
     borderopacity="1"
     objecttolerance="10"
     gridtolerance="10"
     guidetolerance="10"
     inkscape:pageopacity="0"
     inkscape:pageshadow="2"
     inkscape:window-width="2556"
     inkscape:window-height="1560"
     id="namedview163934"
     showgrid="false"
     inkscape:zoom="0.97803487"
     inkscape:cx="663.72374"
     inkscape:cy="706.4984"
     inkscape:window-x="0"
     inkscape:window-y="38"
     inkscape:window-maximized="0"
     inkscape:current-layer="g163928" />
  <metadata
     id="metadata163926">
Created by potrace 1.13, written by Peter Selinger 2001-2015
<rdf:RDF>
  <cc:Work
     rdf:about="">
    <dc:format>image/svg+xml</dc:format>
    <dc:type
       rdf:resource="http://purl.org/dc/dcmitype/StillImage" />
    <dc:title></dc:title>
  </cc:Work>
</rdf:RDF>
</metadata>
  <g
     transform="matrix(0.1,0,0,-0.1,0,1000)"
     id="g163928"
     style="fill:#000000;stroke:none">
    <g
       id="g6960"
       transform="matrix(16.583928,0,0,-14.078149,2061.3859,8601.8352)">
      <g
         id="g6914">
        <g
           id="g6916">
          <g
             id="g6918">
            <path
               id="path6920"
               d="m 389.095,405.75 c -35.49,-10.172 -65.587,-3.738 -82.193,17.783 -21.257,27.307 -43.529,37.376 -66.031,37.376 -24.482,0.009 -49.246,-11.93 -73.284,-26.564 -19.55,-10.069 -36.523,-15.778 -48.572,-16.213 l -7.817,0 c 2.014,34.031 15.804,66.167 39.637,91.221 1.613,1.69 3.849,2.645 6.187,2.645 l 197.683,0 c 2.338,0 4.565,-0.956 6.178,-2.645 25.796,-27.11 40.004,-62.49 40.038,-99.618 l -11.826,-3.985 z"
               inkscape:connector-curvature="0" />
            <path
               id="path6922"
               d="m 175.938,419.473 c 47.326,28.791 83.217,37.615 117.47,-6.4 21.103,-27.315 57.83,-35.925 100.762,-23.612 l 5.581,1.877 C 394.256,348.552 369.688,309.845 332.662,286.66 l 0,-219.605 c 14.677,-3.814 25.6,-17.067 25.6,-32.922 C 358.261,15.309 342.953,0 324.128,0 L 187.595,0 c -18.825,0 -34.133,15.309 -34.133,34.133 0,15.855 10.923,29.107 25.6,32.922 l 0,219.605 c -39.817,24.926 -65.203,67.814 -67.985,114.406 l 8.252,0 c 15.06,0.547 34.004,6.742 56.609,18.407 z m 71.39,-197.606 -25.6,0 c -4.71,0 -8.533,-3.823 -8.533,-8.533 0,-4.71 3.823,-8.533 8.533,-8.533 l 25.6,0 c 4.71,0 8.533,3.823 8.533,8.533 0,4.71 -3.823,8.533 -8.533,8.533 z m 25.6,-34.134 -51.2,0 c -4.71,0 -8.533,-3.823 -8.533,-8.533 0,-4.71 3.823,-8.533 8.533,-8.533 l 51.2,0 c 4.71,0 8.533,3.823 8.533,8.533 0,4.71 -3.823,8.533 -8.533,8.533 z m -59.733,-42.666 c 0,-4.71 3.823,-8.533 8.533,-8.533 l 25.6,0 c 4.71,0 8.533,3.823 8.533,8.533 0,4.71 -3.823,8.533 -8.533,8.533 l -25.6,0 c -4.71,0 -8.533,-3.823 -8.533,-8.533 z m 59.733,-25.6 -51.2,0 c -4.71,0 -8.533,-3.823 -8.533,-8.533 0,-4.71 3.823,-8.533 8.533,-8.533 l 51.2,0 c 4.71,0 8.533,3.823 8.533,8.533 0,4.71 -3.823,8.533 -8.533,8.533 z m -102.4,-85.334 c 0,-9.412 7.654,-17.067 17.067,-17.067 l 136.533,0 c 9.412,0 17.067,7.654 17.067,17.067 0,9.412 -7.654,17.067 -17.067,17.067 l -136.533,0 c -9.413,0 -17.067,-7.654 -17.067,-17.067 z"
               inkscape:connector-curvature="0" />
          </g>
        </g>
      </g>
      <g
         id="g6924" />
      <g
         id="g6926" />
      <g
         id="g6928" />
      <g
         id="g6930" />
      <g
         id="g6932" />
      <g
         id="g6934" />
      <g
         id="g6936" />
      <g
         id="g6938" />
      <g
         id="g6940" />
      <g
         id="g6942" />
      <g
         id="g6944" />
      <g
         id="g6946" />
      <g
         id="g6948" />
      <g
         id="g6950" />
      <g
         id="g6952" />
    </g>
    <path
       id="path7180"
       d="m 2282.2229,4852.9217 q 168.1819,-66.6667 318.1819,-66.6667 854.5454,0 854.5454,697.9168 0,237.5 -93.1818,375 -61.3636,91.6667 -139.7728,154.1667 -78.409,62.5 -153.409,96.875 -75,34.375 -182.9546,52.0833 -107.9545,17.7083 -190.9091,21.875 -82.9545,4.1667 -214.7727,4.1667 -165.9091,0 -229.5454,-20.8334 0,-110.4166 -1.1364,-331.25 -1.1364,-220.8333 -1.1364,-329.1666 0,-16.6667 -2.2727,-140.625 -2.2727,-123.9584 -1.1364,-201.0418 1.1364,-77.0833 10.2273,-173.9583 9.0909,-96.875 27.2727,-138.5417 z m -31.8181,1554.1668 q 95.4545,-14.5834 247.7272,-14.5834 186.3636,0 325,27.0834 138.6364,27.0833 250,92.7083 111.3636,65.625 169.3182,186.4583 57.9546,120.8334 57.9546,295.8333 0,145.8334 -65.9092,255.2084 -65.909,109.375 -179.5454,170.8333 -113.6364,61.4583 -245.4546,90.625 -131.8181,29.1667 -281.8181,29.1667 -113.6364,0 -295.4546,-27.0834 0,-104.1666 9.0909,-314.5833 9.091,-210.4167 9.091,-316.6666 0,-56.25 -1.1364,-166.6667 -1.1364,-110.4167 -1.1364,-164.5833 0,-95.8334 2.2728,-143.75 z m -1229.5455,-1852.0834 4.5455,195.8333 q 34.0908,8.3333 193.1818,33.3333 159.0909,25 240.909,56.25 15.9091,25 28.4091,56.25 12.5,31.25 19.3182,69.7917 6.8182,38.5416 12.5,67.7083 5.6818,29.1667 6.8182,78.125 1.1364,48.9583 1.1364,70.8334 l 0,136.4583 q 0,2045.8334 -50,2135.4167 -9.0909,16.6667 -50,30.2083 -40.9091,13.5417 -101.1364,22.9167 -60.2273,9.375 -112.5,14.5833 -52.2727,5.2084 -110.2273,9.375 -57.9545,4.1667 -69.3182,6.25 l -9.0908,172.9167 q 222.7272,4.1667 772.7272,23.9583 550,19.7917 847.7273,19.7917 52.2727,0 155.6818,-1.0417 103.4091,-1.0416 153.4091,-1.0416 159.0909,0 310.2273,-27.0834 151.1363,-27.0833 292.0455,-87.5 140.909,-60.4166 245.4545,-147.9166 104.5455,-87.5 168.1818,-217.7084 63.6363,-130.2083 63.6363,-286.4583 0,-108.3333 -37.5,-198.9583 -37.5,-90.625 -88.6363,-150 -51.1363,-59.375 -146.5909,-119.7917 -95.4546,-60.4166 -165.9091,-93.75 -70.4545,-33.3333 -190.9091,-83.3333 350,-72.9167 582.9546,-279.1667 232.9545,-206.25 232.9545,-516.6666 0,-208.3334 -79.5455,-373.9585 -79.5454,-165.625 -212.5,-271.875 -132.9545,-106.25 -313.6363,-178.125 -180.6819,-71.8749 -371.5909,-101.0416 -190.9091,-29.1666 -400,-29.1666 -100,0 -300,6.25 -200,6.25 -300,6.25 -240.9091,0 -697.7273,-22.9167 -456.8182,-22.9167 -525,-25 z"
       inkscape:connector-curvature="0" />
  </g>
</svg>
