<?xml version="1.0" encoding="UTF-8"?>
<svg id="Layer_1" xmlns="http://www.w3.org/2000/svg" version="1.1" viewBox="0 0 640 640">
  <!-- Generator: Adobe Illustrator 30.2.1, SVG Export Plug-In . SVG Version: 2.1.1 Build 1)  -->
  <path d="M342.6,406.6c-12.5,12.5-32.8,12.5-45.3,0l-128-128c-12.5-12.5-12.5-32.8,0-45.3,12.5-12.5,32.8-12.5,45.3,0l73.4,73.4V96c0-17.7,14.3-32,32-32s32,14.3,32,32v210.7l73.4-73.4c12.5-12.5,32.8-12.5,45.3,0,12.5,12.5,12.5,32.8,0,45.3l-128,128h-.1Z"/>
  <path d="M160,416c0-17.7-14.3-32-32-32s-32,14.3-32,32v64c0,53,43,96,96,96h256c53,0,96-43,96-96v-64c0-17.7-14.3-32-32-32s-32,14.3-32,32v64c0,17.7-14.3,32-32,32H192c-17.7,0-32-14.3-32-32v-64Z"/>
</svg>