<?xml version="1.0" encoding="UTF-8" standalone="no"?>
<svg
   xmlns:dc="http://purl.org/dc/elements/1.1/"
   xmlns:cc="http://creativecommons.org/ns#"
   xmlns:rdf="http://www.w3.org/1999/02/22-rdf-syntax-ns#"
   xmlns:svg="http://www.w3.org/2000/svg"
   xmlns="http://www.w3.org/2000/svg"
   xmlns:sodipodi="http://sodipodi.sourceforge.net/DTD/sodipodi-0.dtd"
   xmlns:inkscape="http://www.inkscape.org/namespaces/inkscape"
   version="1.0"
   width="283.000000pt"
   height="273.000000pt"
   viewBox="0 0 283.000000 273.000000"
   preserveAspectRatio="xMidYMid meet"
   id="svg163924"
   inkscape:version="0.91 r13725"
   sodipodi:docname="dried.svg">
  <defs
     id="defs163936">
    <symbol
       id="icon-filter"
       viewBox="0 0 22 28">
      <title
         id="title170427">filter</title>
      <path
         class="path1"
         d="M21.922 4.609c0.156 0.375 0.078 0.812-0.219 1.094l-7.703 7.703v11.594c0 0.406-0.25 0.766-0.609 0.922-0.125 0.047-0.266 0.078-0.391 0.078-0.266 0-0.516-0.094-0.703-0.297l-4-4c-0.187-0.187-0.297-0.438-0.297-0.703v-7.594l-7.703-7.703c-0.297-0.281-0.375-0.719-0.219-1.094 0.156-0.359 0.516-0.609 0.922-0.609h20c0.406 0 0.766 0.25 0.922 0.609z"
         id="path170429" />
    </symbol>
  </defs>
  <sodipodi:namedview
     pagecolor="#ffffff"
     bordercolor="#666666"
     borderopacity="1"
     objecttolerance="10"
     gridtolerance="10"
     guidetolerance="10"
     inkscape:pageopacity="0"
     inkscape:pageshadow="2"
     inkscape:window-width="2556"
     inkscape:window-height="1560"
     id="namedview163934"
     showgrid="false"
     inkscape:zoom="0.97803487"
     inkscape:cx="-265.86466"
     inkscape:cy="395.18549"
     inkscape:window-x="0"
     inkscape:window-y="38"
     inkscape:window-maximized="0"
     inkscape:current-layer="g163928" />
  <metadata
     id="metadata163926">
Created by potrace 1.13, written by Peter Selinger 2001-2015
<rdf:RDF>
  <cc:Work
     rdf:about="">
    <dc:format>image/svg+xml</dc:format>
    <dc:type
       rdf:resource="http://purl.org/dc/dcmitype/StillImage" />
  </cc:Work>
</rdf:RDF>
</metadata>
  <g
     transform="translate(0.000000,273.000000) scale(0.100000,-0.100000)"
     fill="#000000"
     stroke="none"
     id="g163928">
    <path
       d="m 430.27118,1336.1664 -275,-282.5633 133,-5.6139 132,-5.6138 0,-297.53362 0,-299.40492 295,0 295.00002,0 0,299.40492 0,299.40492 132,0 c 75,0 128,7.4851 122,16.8415 -14,24.3266 -544.00002,563.2554 -552.00002,561.3841 -4,-1.8712 -131,-129.1183 -282,-286.3059 z"
       id="path163932"
       inkscape:connector-curvature="0" />
    <path
       id="path4924"
       d="m 2637.8139,2315.9591 q 24.2667,-55.0385 -19.9844,-93.9681 l -703.7349,-661.8039 0,-996.06182 q 0,-56.3809 -55.6708,-79.2017 -18.5569,-6.712 -35.6864,-6.712 -38.5412,0 -64.2354,25.5056 l -365.4283,343.6548 q -27.1216,25.5056 -27.1216,60.408 l 0,652.40712 -703.73503,661.8039 q -44.2511,38.9296 -19.9844,93.9681 24.2667,52.3536 84.2198,52.3536 l 1827.14163,0 q 59.9531,0 84.2198,-52.3536 z"
       inkscape:connector-curvature="0" />
  </g>
</svg>
