<?xml version="1.0" encoding="UTF-8" standalone="no"?>
<svg
   xmlns:dc="http://purl.org/dc/elements/1.1/"
   xmlns:cc="http://creativecommons.org/ns#"
   xmlns:rdf="http://www.w3.org/1999/02/22-rdf-syntax-ns#"
   xmlns:svg="http://www.w3.org/2000/svg"
   xmlns="http://www.w3.org/2000/svg"
   xmlns:sodipodi="http://sodipodi.sourceforge.net/DTD/sodipodi-0.dtd"
   xmlns:inkscape="http://www.inkscape.org/namespaces/inkscape"
   version="1.0"
   width="283.000000pt"
   height="273.000000pt"
   viewBox="0 0 283.000000 273.000000"
   preserveAspectRatio="xMidYMid meet"
   id="svg163924"
   inkscape:version="0.92.2 5c3e80d, 2017-08-06"
   sodipodi:docname="dried.svg">
  <defs
     id="defs163936">
    <symbol
       id="icon-filter"
       viewBox="0 0 22 28">
      <title
         id="title170427">filter</title>
      <path
         class="path1"
         d="M21.922 4.609c0.156 0.375 0.078 0.812-0.219 1.094l-7.703 7.703v11.594c0 0.406-0.25 0.766-0.609 0.922-0.125 0.047-0.266 0.078-0.391 0.078-0.266 0-0.516-0.094-0.703-0.297l-4-4c-0.187-0.187-0.297-0.438-0.297-0.703v-7.594l-7.703-7.703c-0.297-0.281-0.375-0.719-0.219-1.094 0.156-0.359 0.516-0.609 0.922-0.609h20c0.406 0 0.766 0.25 0.922 0.609z"
         id="path170429" />
    </symbol>
  </defs>
  <sodipodi:namedview
     pagecolor="#ffffff"
     bordercolor="#666666"
     borderopacity="1"
     objecttolerance="10"
     gridtolerance="10"
     guidetolerance="10"
     inkscape:pageopacity="0"
     inkscape:pageshadow="2"
     inkscape:window-width="2556"
     inkscape:window-height="1552"
     id="namedview163934"
     showgrid="false"
     inkscape:zoom="2.7663004"
     inkscape:cx="228.40968"
     inkscape:cy="183.14854"
     inkscape:window-x="0"
     inkscape:window-y="22"
     inkscape:window-maximized="0"
     inkscape:current-layer="g163928" />
  <metadata
     id="metadata163926">
Created by potrace 1.13, written by Peter Selinger 2001-2015
<rdf:RDF>
  <cc:Work
     rdf:about="">
    <dc:format>image/svg+xml</dc:format>
    <dc:type
       rdf:resource="http://purl.org/dc/dcmitype/StillImage" />
  </cc:Work>
</rdf:RDF>
</metadata>
  <g
     transform="translate(0.000000,273.000000) scale(0.100000,-0.100000)"
     fill="#000000"
     stroke="none"
     id="g163928">
    <path
       d="M 372.32669,1202.2901 0.5558742,820.29451 180.35776,812.70506 l 178.45,-7.58926 V 402.88195 -1.8817298 h 398.8087 398.80874 V 402.88195 807.64559 h 178.45 c 101.392,0 173.0424,10.11915 164.9311,22.76796 -18.9266,32.88702 -735.43038,761.46155 -746.24553,758.93175 -5.40757,-2.5297 -177.0981,-174.5542 -381.23408,-387.0552 z"
       id="path163932"
       inkscape:connector-curvature="0"
       style="stroke-width:1.3518939" />
    <path
       id="path4924"
       d="m 3346.8954,2647.0339 q 34.8502,-79.0425 -28.7001,-134.9504 L 2307.5403,1561.6469 V 131.17244 q 0,-80.970305 -79.9505,-113.743961 -26.6501,-9.6393038 -51.2503,-9.6393038 -55.3503,0 -92.2505,36.6293638 L 1559.2864,537.95158 q -38.9501,36.62937 -38.9501,86.75376 V 1561.6469 L 509.68117,2512.0835 q -63.55032,55.9079 -28.70021,134.9504 34.85016,75.1866 120.9506,75.1866 H 3225.9448 q 86.1006,0 120.9506,-75.1866 z"
       inkscape:connector-curvature="0"
       style="stroke-width:1.43612993" />
  </g>
</svg>
