<?xml version="1.0" standalone="no"?>
<!DOCTYPE svg PUBLIC "-//W3C//DTD SVG 20010904//EN"
 "http://www.w3.org/TR/2001/REC-SVG-20010904/DTD/svg10.dtd">
<svg version="1.0" xmlns="http://www.w3.org/2000/svg"
 width="162.000000pt" height="155.000000pt" viewBox="0 0 162.000000 155.000000"
 preserveAspectRatio="xMidYMid meet">

<g transform="translate(0.000000,155.000000) scale(0.100000,-0.100000)"
fill="#000000" stroke="none">
<path d="M248 1159 c-17 -9 -18 -39 -18 -393 0 -314 3 -386 14 -395 9 -8 75
-11 217 -9 l204 3 0 40 0 40 -167 3 -168 2 0 145 0 145 145 0 145 0 0 40 0 40
-145 0 -145 0 0 130 0 130 168 2 167 3 0 40 0 40 -200 2 c-124 2 -207 -1 -217
-8z"/>
<path d="M1054 1162 c-13 -9 -284 -755 -284 -783 0 -18 6 -20 48 -17 l47 3 36
105 36 105 169 0 169 0 39 -107 39 -108 48 0 c42 0 49 3 49 19 0 29 -270 775
-284 783 -6 4 -31 8 -56 8 -25 0 -50 -4 -56 -8z m125 -303 c37 -107 66 -197
64 -201 -5 -9 -267 -11 -275 -3 -3 3 5 34 17 68 12 34 43 124 70 200 26 76 49
136 51 134 2 -2 35 -91 73 -198z"/>
</g>
</svg>
