<?xml version="1.0" standalone="no"?>
<!DOCTYPE svg PUBLIC "-//W3C//DTD SVG 20010904//EN"
 "http://www.w3.org/TR/2001/REC-SVG-20010904/DTD/svg10.dtd">
<svg version="1.0" xmlns="http://www.w3.org/2000/svg"
 width="162.000000pt" height="154.000000pt" viewBox="0 0 162.000000 154.000000"
 preserveAspectRatio="xMidYMid meet">

<g transform="translate(0.000000,154.000000) scale(0.100000,-0.100000)"
fill="#000000" stroke="none">
<path d="M498 1149 c-17 -9 -18 -39 -18 -393 0 -314 3 -386 14 -395 9 -8 75
-11 217 -9 l204 3 0 40 0 40 -167 3 -168 2 0 145 0 145 145 0 145 0 0 40 0 40
-145 0 -145 0 0 130 0 130 168 2 167 3 0 40 0 40 -200 2 c-124 2 -207 -1 -217
-8z"/>
<path d="M1115 1148 c-3 -7 -4 -189 -3 -403 l3 -390 45 0 45 0 0 400 0 400
-43 3 c-28 2 -44 -1 -47 -10z"/>
</g>
</svg>
