<?xml version="1.0" encoding="UTF-8" standalone="no"?>
<!-- Created with Inkscape (http://www.inkscape.org/) -->

<svg
   xmlns:dc="http://purl.org/dc/elements/1.1/"
   xmlns:cc="http://creativecommons.org/ns#"
   xmlns:rdf="http://www.w3.org/1999/02/22-rdf-syntax-ns#"
   xmlns:svg="http://www.w3.org/2000/svg"
   xmlns="http://www.w3.org/2000/svg"
   xmlns:sodipodi="http://sodipodi.sourceforge.net/DTD/sodipodi-0.dtd"
   xmlns:inkscape="http://www.inkscape.org/namespaces/inkscape"
   width="1000mm"
   height="1000mm"
   viewBox="0 0 3543.3071 3543.3071"
   id="svg2"
   version="1.1"
   inkscape:version="0.91 r13725"
   sodipodi:docname="gpx-a.svg">
  <defs
     id="defs4">
    <marker
       inkscape:stockid="Arrow1Lstart"
       orient="auto"
       refY="0.0"
       refX="0.0"
       id="Arrow1Lstart"
       style="overflow:visible"
       inkscape:isstock="true">
      <path
         id="path4453"
         d="M 0.0,0.0 L 5.0,-5.0 L -12.5,0.0 L 5.0,5.0 L 0.0,0.0 z "
         style="fill-rule:evenodd;stroke:none;stroke-width:1pt;stroke-opacity:1;fill:#000000;fill-opacity:1"
         transform="scale(0.8) translate(12.5,0)" />
    </marker>
  </defs>
  <sodipodi:namedview
     id="base"
     pagecolor="#ffffff"
     bordercolor="#666666"
     borderopacity="1.0"
     inkscape:pageopacity="0.0"
     inkscape:pageshadow="2"
     inkscape:zoom="0.35"
     inkscape:cx="2779.5765"
     inkscape:cy="1906.4584"
     inkscape:document-units="px"
     inkscape:current-layer="layer1"
     showgrid="false"
     inkscape:window-width="2556"
     inkscape:window-height="1560"
     inkscape:window-x="0"
     inkscape:window-y="38"
     inkscape:window-maximized="0"
     inkscape:snap-center="false"
     inkscape:snap-grids="true"
     showguides="true">
    <inkscape:grid
       type="xygrid"
       id="grid4447" />
  </sodipodi:namedview>
  <metadata
     id="metadata7">
    <rdf:RDF>
      <cc:Work
         rdf:about="">
        <dc:format>image/svg+xml</dc:format>
        <dc:type
           rdf:resource="http://purl.org/dc/dcmitype/StillImage" />
        <dc:title></dc:title>
      </cc:Work>
    </rdf:RDF>
  </metadata>
  <g
     inkscape:label="Layer 1"
     inkscape:groupmode="layer"
     id="layer1"
     transform="translate(0,2490.9449)">
    <path
       id="path4970"
       d="m 3202.5242,153.55859 q 80.779,147.60491 31.0134,252.91853 -49.7656,105.31362 -202.6686,105.31362 l -1661.7382,0 q -152.903,0 -202.6686,-105.31362 -49.7656,-105.31362 31.0134,-252.91853 l 725.568,-1315.17639 0,-661.7343 -92.3188,0 q -37.5046,0 -64.9116,-31.5111 -27.4072,-31.5112 -27.4072,-74.6317 0,-43.1206 27.4072,-74.6317 27.407,-31.5111 64.9116,-31.5111 l 738.5502,0 q 37.5046,0 64.9118,31.5111 27.407,31.5111 27.407,74.6317 0,43.1205 -27.407,74.6317 -27.4072,31.5111 -64.9118,31.5111 l -92.3186,0 0,661.7343 z M 2078.8316,-1048.841 l -392.355,711.48887 1027.0466,0 -392.3548,-711.48887 -28.8496,-51.4129 0,-723.0982 -184.6376,0 0,723.0982 z"
       inkscape:connector-curvature="0"
       style="opacity:0.7" />
    <path
       id="path5040"
       d="m 1037,-1603.7807 -170,450 q 33,0 136.5,2 103.5,2 160.5,2 19,0 57,-2 -87,-253 -184,-452 z m -725,1105.00003 2,-79 q 23,-7 56,-12.5 33,-5.5 57,-10.5 24,-5 49.5,-14.5 25.5,-9.5 44.5,-29 19,-19.5 31,-50.5 l 237,-616.00003 280,-724 128,0 q 8,14 11,21 l 205,480 q 33,78 106,257.5 73,179.5 114,274.5 15,34.00003 58,144.50003 43,110.5 72,168.5 20,45 35,57 19,15 88,29.5 69,14.5 84,20.5 6,38 6,57 0,4 -0.5,13 -0.5,9 -0.5,13 -63,0 -190,-8 -127,-8 -191,-8 -76,0 -215,7 -139,7 -178,8 0,-43 4,-78 l 131,-28 q 1,0 12.5,-2.5 11.5,-2.5 15.5,-3.5 4,-1 14.5,-4.5 10.5,-3.5 15,-6.5 4.5,-3 11,-8 6.5,-5 9,-11 2.5,-6 2.5,-14 0,-16 -31,-96.5 -31,-80.5 -72,-177.5 -41,-97.00003 -42,-100.00003 l -450,-2 q -26,58.00003 -76.5,195.50003 -50.5,137.5 -50.5,162.5 0,22 14,37.5 14,15.5 43.5,24.5 29.5,9 48.5,13.5 19,4.5 57,8.5 38,4 41,4 1,19 1,58 0,9 -2,27 -58,0 -174.5,-10 -116.5,-10 -174.5,-10 -8,0 -26.5,4 -18.5,4 -21.5,4 -80,14 -188,14 z"
       inkscape:connector-curvature="0" />
  </g>
</svg>
