<?xml version="1.0" encoding="UTF-8" standalone="no"?>
<!-- Created with Inkscape (http://www.inkscape.org/) -->

<svg
   xmlns:dc="http://purl.org/dc/elements/1.1/"
   xmlns:cc="http://creativecommons.org/ns#"
   xmlns:rdf="http://www.w3.org/1999/02/22-rdf-syntax-ns#"
   xmlns:svg="http://www.w3.org/2000/svg"
   xmlns="http://www.w3.org/2000/svg"
   xmlns:sodipodi="http://sodipodi.sourceforge.net/DTD/sodipodi-0.dtd"
   xmlns:inkscape="http://www.inkscape.org/namespaces/inkscape"
   width="1000mm"
   height="1000mm"
   viewBox="0 0 3543.3071 3543.3071"
   id="svg2"
   version="1.1"
   inkscape:version="0.91 r13725"
   sodipodi:docname="gpx-b.svg">
  <defs
     id="defs4">
    <marker
       inkscape:stockid="Arrow1Lstart"
       orient="auto"
       refY="0.0"
       refX="0.0"
       id="Arrow1Lstart"
       style="overflow:visible"
       inkscape:isstock="true">
      <path
         id="path4453"
         d="M 0.0,0.0 L 5.0,-5.0 L -12.5,0.0 L 5.0,5.0 L 0.0,0.0 z "
         style="fill-rule:evenodd;stroke:none;stroke-width:1pt;stroke-opacity:1;fill:#000000;fill-opacity:1"
         transform="scale(0.8) translate(12.5,0)" />
    </marker>
  </defs>
  <sodipodi:namedview
     id="base"
     pagecolor="#ffffff"
     bordercolor="#666666"
     borderopacity="1.0"
     inkscape:pageopacity="0.0"
     inkscape:pageshadow="2"
     inkscape:zoom="0.35"
     inkscape:cx="2779.5765"
     inkscape:cy="1906.4584"
     inkscape:document-units="px"
     inkscape:current-layer="layer1"
     showgrid="false"
     inkscape:window-width="2556"
     inkscape:window-height="1560"
     inkscape:window-x="0"
     inkscape:window-y="38"
     inkscape:window-maximized="0"
     inkscape:snap-center="false"
     inkscape:snap-grids="true"
     showguides="true">
    <inkscape:grid
       type="xygrid"
       id="grid4447" />
  </sodipodi:namedview>
  <metadata
     id="metadata7">
    <rdf:RDF>
      <cc:Work
         rdf:about="">
        <dc:format>image/svg+xml</dc:format>
        <dc:type
           rdf:resource="http://purl.org/dc/dcmitype/StillImage" />
        <dc:title></dc:title>
      </cc:Work>
    </rdf:RDF>
  </metadata>
  <g
     inkscape:label="Layer 1"
     inkscape:groupmode="layer"
     id="layer1"
     transform="translate(0,2490.9449)">
    <path
       id="path4970"
       d="m 3202.5242,153.55859 q 80.779,147.60491 31.0134,252.91853 -49.7656,105.31362 -202.6686,105.31362 l -1661.7382,0 q -152.903,0 -202.6686,-105.31362 -49.7656,-105.31362 31.0134,-252.91853 l 725.568,-1315.17639 0,-661.7343 -92.3188,0 q -37.5046,0 -64.9116,-31.5111 -27.4072,-31.5112 -27.4072,-74.6317 0,-43.1206 27.4072,-74.6317 27.407,-31.5111 64.9116,-31.5111 l 738.5502,0 q 37.5046,0 64.9118,31.5111 27.407,31.5111 27.407,74.6317 0,43.1205 -27.407,74.6317 -27.4072,31.5111 -64.9118,31.5111 l -92.3186,0 0,661.7343 z M 2078.8316,-1048.841 l -392.355,711.48887 1027.0466,0 -392.3548,-711.48887 -28.8496,-51.4129 0,-723.0982 -184.6376,0 0,723.0982 z"
       inkscape:connector-curvature="0"
       style="opacity:0.7" />
    <path
       id="path5189"
       d="m 989.29134,-470.8242 q 79.10546,35.75 149.65906,35.75 401.9415,0 401.9415,-374.25782 0,-127.35931 -43.8287,-201.09368 -28.8628,-49.1562 -65.7431,-82.6719 -36.8803,-33.5156 -72.1571,-51.9492 -35.2767,-18.4336 -86.0539,-27.9297 -50.7772,-9.4961 -89.7955,-11.7304 -39.0182,-2.2344 -101.0199,-2.2344 -78.0364,0 -107.96823,11.1719 0,59.2109 -0.5345,177.63277 -0.5345,118.42186 -0.5345,176.51555 0,8.9375 -1.06899,75.41015 -1.06899,66.47266 -0.5345,107.8086 0.5345,41.33593 4.81047,93.28515 4.27598,51.94923 12.82789,74.29298 z m -14.96587,-833.4218 q 44.89763,7.8203 116.52023,7.8203 87.6574,0 152.8661,-14.5234 65.2086,-14.5235 117.5892,-49.7149 52.3807,-35.1914 79.6401,-99.9882 27.2593,-64.7969 27.2593,-158.6407 0,-78.2031 -31.0008,-136.8554 -31.0008,-58.6524 -84.4505,-91.6094 -53.4497,-32.957 -115.4513,-48.5977 -62.0016,-15.6406 -132.5552,-15.6406 -53.4497,0 -138.96908,14.5234 0,55.8594 4.27597,168.6954 4.27598,112.8359 4.27598,169.8125 0,30.164 -0.5345,89.375 -0.5345,59.2109 -0.5345,88.2578 0,51.3906 1.069,77.0859 z m -578.32548,993.17961 2.13799,-105.01562 q 16.0349,-4.46875 90.86444,-17.875 74.82955,-13.40625 113.31332,-30.16406 7.48295,-13.40625 13.36242,-30.16406 5.87946,-16.75782 9.08644,-37.42579 3.20698,-20.66798 5.87946,-36.3086 2.67249,-15.64063 3.20698,-41.89453 0.5345,-26.25391 0.5345,-37.98438 l 0,-73.17578 q 0,-1097.07799 -23.51786,-1145.11709 -4.27597,-8.9375 -23.51785,-16.1992 -19.24189,-7.2617 -47.57021,-12.2891 -28.32833,-5.0273 -52.91518,-7.8203 -24.58685,-2.793 -51.84619,-5.0273 -27.25933,-2.2344 -32.6043,-3.3516 l -4.27597,-92.7266 q 104.76136,-2.2343 363.45779,-12.8476 258.69633,-10.6133 398.73453,-10.6133 24.5868,0 73.226,0.5586 48.6392,0.5586 72.1571,0.5586 74.8295,0 145.9176,14.5234 71.0881,14.5235 137.3657,46.9219 66.2776,32.3984 115.4513,79.3203 49.1737,46.9219 79.1055,116.7461 29.9318,69.8242 29.9318,153.6133 0,58.0937 -17.6384,106.6914 -17.6384,48.5976 -41.6907,80.4375 -24.0524,31.8398 -68.9501,64.2383 -44.8978,32.3984 -78.0366,50.2734 -33.1388,17.875 -89.7954,44.6875 164.625,39.1016 274.1968,149.7031 109.5719,110.6016 109.5719,277.06244 0,111.71875 -37.4148,200.53516 -37.4148,88.8164 -99.9509,145.79298 -62.5361,56.97656 -147.5211,95.51953 -84.985,38.54297 -174.7805,54.18359 -89.7954,15.64063 -188.1428,15.64063 -47.0357,0 -141.1071,-3.35156 -94.0715,-3.35157 -141.10711,-3.35157 -113.31332,0 -328.181,12.28907 -214.86769,12.28905 -246.9375,13.40624 z"
       inkscape:connector-curvature="0" />
  </g>
</svg>
