<?xml version="1.0" encoding="UTF-8" standalone="no"?>
<!-- Created with Inkscape (http://www.inkscape.org/) -->

<svg
   xmlns:dc="http://purl.org/dc/elements/1.1/"
   xmlns:cc="http://creativecommons.org/ns#"
   xmlns:rdf="http://www.w3.org/1999/02/22-rdf-syntax-ns#"
   xmlns:svg="http://www.w3.org/2000/svg"
   xmlns="http://www.w3.org/2000/svg"
   xmlns:sodipodi="http://sodipodi.sourceforge.net/DTD/sodipodi-0.dtd"
   xmlns:inkscape="http://www.inkscape.org/namespaces/inkscape"
   width="1000mm"
   height="1000mm"
   viewBox="0 0 3543.3071 3543.3071"
   id="svg2"
   version="1.1"
   inkscape:version="0.92.2 5c3e80d, 2017-08-06"
   sodipodi:docname="gpx-b.svg">
  <defs
     id="defs4">
    <marker
       inkscape:stockid="Arrow1Lstart"
       orient="auto"
       refY="0.0"
       refX="0.0"
       id="Arrow1Lstart"
       style="overflow:visible"
       inkscape:isstock="true">
      <path
         id="path4453"
         d="M 0.0,0.0 L 5.0,-5.0 L -12.5,0.0 L 5.0,5.0 L 0.0,0.0 z "
         style="fill-rule:evenodd;stroke:none;stroke-width:1pt;stroke-opacity:1;fill:#000000;fill-opacity:1"
         transform="scale(0.8) translate(12.5,0)" />
    </marker>
  </defs>
  <sodipodi:namedview
     id="base"
     pagecolor="#ffffff"
     bordercolor="#666666"
     borderopacity="1.0"
     inkscape:pageopacity="0.0"
     inkscape:pageshadow="2"
     inkscape:zoom="0.24748737"
     inkscape:cx="2660.7996"
     inkscape:cy="1439.297"
     inkscape:document-units="px"
     inkscape:current-layer="layer1"
     showgrid="false"
     inkscape:window-width="2556"
     inkscape:window-height="1552"
     inkscape:window-x="0"
     inkscape:window-y="22"
     inkscape:window-maximized="0"
     inkscape:snap-center="false"
     inkscape:snap-grids="true"
     showguides="true">
    <inkscape:grid
       type="xygrid"
       id="grid4447" />
  </sodipodi:namedview>
  <metadata
     id="metadata7">
    <rdf:RDF>
      <cc:Work
         rdf:about="">
        <dc:format>image/svg+xml</dc:format>
        <dc:type
           rdf:resource="http://purl.org/dc/dcmitype/StillImage" />
        <dc:title />
      </cc:Work>
    </rdf:RDF>
  </metadata>
  <g
     inkscape:label="Layer 1"
     inkscape:groupmode="layer"
     id="layer1"
     transform="translate(0,2490.9449)">
    <path
       id="path4970"
       d="m 3848.7817,546.4146 q 111.7699,204.23363 42.9118,349.95089 -68.8582,145.71731 -280.4226,145.71731 H 1312.0057 q -211.5644,0 -280.4225,-145.71731 -68.8582,-145.71726 42.9117,-349.95089 l 1003.9327,-1819.7447 v -915.6091 h -127.7371 q -51.8933,0 -89.8148,-43.6004 -37.9221,-43.6004 -37.9221,-103.2641 0,-59.6639 37.9221,-103.2642 37.9215,-43.6004 89.8148,-43.6004 h 1021.8956 q 51.8933,0 89.8152,43.6004 37.9217,43.6003 37.9217,103.2642 0,59.6637 -37.9217,103.2641 -37.9219,43.6004 -89.8152,43.6004 h -127.7368 v 915.6091 z m -1554.7979,-1663.701 -542.8824,984.45207 h 1421.0738 l -542.8821,-984.45207 -39.9177,-71.1375 v -1000.5153 h -255.4738 v 1000.5153 z"
       inkscape:connector-curvature="0"
       style="opacity:1;stroke-width:1.38365066" />
    <path
       id="path5189"
       d="m 710.66083,-615.57708 q 94.4725,42.69479 178.73178,42.69479 480.02279,0 480.02279,-446.96131 0,-152.1 -52.3429,-240.1582 -34.4697,-58.7052 -78.5144,-98.7316 -44.0447,-40.0264 -86.1743,-62.041 -42.1296,-22.0144 -102.7708,-33.3552 -60.64119,-11.3408 -107.23919,-14.0092 -46.5978,-2.6685 -120.644,-2.6685 -93.19573,0 -128.94212,13.3422 0,70.7132 -0.63833,212.1397 -0.63833,141.4265 -0.63833,210.8055 0,10.6738 -1.27665,90.05944 -1.27666,79.38564 -0.63833,128.75151 0.63833,49.36585 5.74495,111.40672 5.10663,62.0409 15.31983,88.72515 z m -17.87314,-995.32252 q 53.61945,9.3395 139.15542,9.3395 104.6858,0 182.56189,-17.3447 77.876,-17.3449 140.4321,-59.3726 62.5562,-42.0276 95.111,-119.4119 32.5547,-77.3843 32.5547,-189.4582 0,-93.3948 -37.0231,-163.441 -37.023,-70.0462 -100.8558,-109.4054 -63.8329,-39.3592 -137.8789,-58.0383 -74.04599,-18.6789 -158.30529,-18.6789 -63.83288,0 -165.96527,17.3446 0,66.7107 5.10663,201.4662 5.10662,134.7554 5.10662,202.8003 0,36.0236 -0.63833,106.737 -0.63833,70.7133 -0.63833,105.4028 0,61.3738 1.27666,92.0606 z M 2.1166448,-424.7847 l 2.55331,-125.41596 q 19.1498502,-5.33685 108.5157752,-21.34741 89.36595,-16.01055 135.32558,-36.02373 8.93659,-16.01055 15.95821,-36.02374 7.0216,-20.01319 10.85157,-44.69612 3.82997,-24.68294 7.0216,-43.36191 3.19165,-18.67898 3.82998,-50.03297 0.63832,-31.35399 0.63832,-45.36323 v -87.39092 q 0,-1310.19661 -28.08644,-1367.56771 -5.10662,-10.6738 -28.08642,-19.3461 -22.97983,-8.6723 -56.81121,-14.6764 -33.83139,-6.0038 -63.19449,-9.3394 -29.363085,-3.3356 -61.917835,-6.004 -32.55472,-2.6685 -38.9380102,-4.0026 l -5.10663,-110.7397 Q 129.78227,-2448.785 438.7331,-2461.46 q 308.95071,-12.675 476.19281,-12.675 29.3629,0 87.45069,0.6671 58.0879,0.6671 86.1745,0.6671 89.3658,0 174.2635,17.3447 84.8977,17.3448 164.0504,56.0369 79.1526,38.6921 137.8788,94.7291 58.7263,56.037 94.4725,139.4253 35.7464,83.3882 35.7464,183.4542 0,69.379 -21.0648,127.4173 -21.0648,58.0381 -49.7895,96.0632 -28.7248,38.0251 -82.3444,76.7173 -53.6196,38.6921 -93.196,60.0395 -39.5763,21.3474 -107.2391,53.3685 196.6051,46.6975 327.4623,178.7845 130.8574,132.087 130.8574,330.8846 0,133.42131 -44.683,239.49121 -44.683,106.06989 -119.3673,174.11474 -74.6845,68.04483 -176.1787,114.07516 -101.4941,46.03034 -208.7333,64.70931 -107.239,18.67898 -224.6915,18.67898 -56.17279,0 -168.51859,-4.00264 -112.34573,-4.00264 -168.51849,-4.00264 -135.32557,0 -391.93348,14.67634 -256.607895,14.67632 -294.9075952,16.01054 z"
       inkscape:connector-curvature="0"
       style="stroke-width:1.19426012" />
  </g>
</svg>
