<?xml version="1.0" standalone="no"?>
<!DOCTYPE svg PUBLIC "-//W3C//DTD SVG 20010904//EN"
 "http://www.w3.org/TR/2001/REC-SVG-20010904/DTD/svg10.dtd">
<svg version="1.0" xmlns="http://www.w3.org/2000/svg"
 width="162.000000pt" height="154.000000pt" viewBox="0 0 162.000000 154.000000"
 preserveAspectRatio="xMidYMid meet">

<g transform="translate(0.000000,154.000000) scale(0.100000,-0.100000)"
fill="#000000" stroke="none">
<path d="M485 1178 c-3 -7 -4 -189 -3 -403 l3 -390 45 0 45 0 3 188 2 187 188
-2 187 -3 3 -188 2 -188 48 3 47 3 0 400 0 400 -45 0 -45 0 -3 -167 -2 -168
-190 0 -190 0 -2 168 -3 167 -43 3 c-28 2 -44 -1 -47 -10z"/>
</g>
</svg>
