<?xml version="1.0" standalone="no"?>
<!DOCTYPE svg PUBLIC "-//W3C//DTD SVG 20010904//EN"
 "http://www.w3.org/TR/2001/REC-SVG-20010904/DTD/svg10.dtd">
<svg version="1.0" xmlns="http://www.w3.org/2000/svg"
 width="512.000000pt" height="512.000000pt" viewBox="0 0 512.000000 512.000000"
 preserveAspectRatio="xMidYMid meet">
<metadata>
Created by potrace 1.13, written by Peter Selinger 2001-2015
</metadata>
<g transform="translate(0.000000,512.000000) scale(0.100000,-0.100000)"
fill="#000000" stroke="none">
<path d="M722 4397 l-722 -722 0 -1115 0 -1115 723 -723 722 -722 1115 0 1115
0 723 723 722 722 0 1115 0 1115 -723 723 -722 722 -1115 0 -1115 0 -723 -723z
m3360 -314 l588 -588 0 -935 0 -935 -587 -587 -588 -588 -935 0 -935 0 -587
587 -588 588 0 935 0 935 587 587 588 588 935 0 935 0 587 -587z"/>
<path d="M2045 4329 c-43 -12 -102 -64 -128 -112 l-22 -42 -3 -844 c-2 -765
-4 -847 -19 -863 -22 -25 -59 -23 -77 4 -14 20 -16 91 -16 579 l0 557 -27 52
c-39 73 -96 112 -172 118 -32 2 -75 -1 -96 -8 -50 -17 -105 -66 -127 -116 -17
-39 -18 -99 -18 -1117 -1 -1201 -5 -1128 70 -1282 83 -171 221 -309 395 -396
161 -80 166 -80 784 -77 l536 4 73 26 c189 70 394 207 511 342 114 132 223
336 268 503 27 98 27 99 27 473 1 368 1 376 -21 416 -89 166 -307 165 -396 -1
-21 -37 -22 -56 -25 -291 l-3 -251 -55 -54 -54 -53 0 1013 c0 740 -3 1024 -12
1052 -27 93 -136 167 -229 156 -81 -10 -142 -54 -181 -130 -19 -38 -20 -63
-21 -658 l-2 -618 -22 -22 c-29 -30 -67 -20 -82 22 -8 22 -11 253 -11 748 l0
717 -32 54 c-77 128 -243 146 -345 39 -66 -70 -63 -34 -63 -834 0 -712 0 -725
-20 -745 -25 -25 -52 -26 -73 -2 -15 16 -17 91 -19 752 l-3 735 -22 42 c-53
98 -162 144 -268 112z"/>
</g>
</svg>
