<?xml version="1.0" standalone="no"?>
<!DOCTYPE svg PUBLIC "-//W3C//DTD SVG 20010904//EN"
 "http://www.w3.org/TR/2001/REC-SVG-20010904/DTD/svg10.dtd">
<svg version="1.0" xmlns="http://www.w3.org/2000/svg"
 width="162.000000pt" height="154.000000pt" viewBox="0 0 162.000000 154.000000"
 preserveAspectRatio="xMidYMid meet">

<g transform="translate(0.000000,154.000000) scale(0.100000,-0.100000)"
fill="#000000" stroke="none">
<path d="M165 1148 c-3 -7 -4 -189 -3 -403 l3 -390 45 0 45 0 3 188 2 187 188
-2 187 -3 3 -188 2 -188 48 3 47 3 0 400 0 400 -45 0 -45 0 -3 -167 -2 -168
-190 0 -190 0 -2 168 -3 167 -43 3 c-28 2 -44 -1 -47 -10z"/>
<path d="M977 1148 c-16 -12 -17 -45 -15 -403 l3 -390 45 0 45 0 3 179 2 178
77 -4 c75 -3 76 -4 113 -45 25 -29 51 -78 80 -155 58 -155 61 -158 115 -158
58 0 58 7 -1 152 -64 156 -78 182 -119 216 l-36 29 25 7 c32 8 93 60 112 97 8
16 14 56 14 95 0 129 -62 188 -217 204 -125 13 -226 12 -246 -2z m293 -96 c64
-31 87 -115 52 -182 -28 -51 -78 -73 -175 -74 l-82 -1 -3 138 -3 137 88 0 c64
0 98 -5 123 -18z"/>
</g>
</svg>
