<?xml version="1.0" encoding="UTF-8" standalone="no"?>
<svg
   xmlns:dc="http://purl.org/dc/elements/1.1/"
   xmlns:cc="http://creativecommons.org/ns#"
   xmlns:rdf="http://www.w3.org/1999/02/22-rdf-syntax-ns#"
   xmlns:svg="http://www.w3.org/2000/svg"
   xmlns="http://www.w3.org/2000/svg"
   xmlns:sodipodi="http://sodipodi.sourceforge.net/DTD/sodipodi-0.dtd"
   xmlns:inkscape="http://www.inkscape.org/namespaces/inkscape"
   version="1.0"
   width="162.000000pt"
   height="154.000000pt"
   viewBox="0 0 162.000000 154.000000"
   preserveAspectRatio="xMidYMid meet"
   id="svg673"
   sodipodi:docname="hr1.svg"
   inkscape:version="0.92.2 5c3e80d, 2017-08-06">
  <metadata
     id="metadata679">
    <rdf:RDF>
      <cc:Work
         rdf:about="">
        <dc:format>image/svg+xml</dc:format>
        <dc:type
           rdf:resource="http://purl.org/dc/dcmitype/StillImage" />
        <dc:title />
      </cc:Work>
    </rdf:RDF>
  </metadata>
  <defs
     id="defs677" />
  <sodipodi:namedview
     pagecolor="#ffffff"
     bordercolor="#666666"
     borderopacity="1"
     objecttolerance="10"
     gridtolerance="10"
     guidetolerance="10"
     inkscape:pageopacity="0"
     inkscape:pageshadow="2"
     inkscape:window-width="1276"
     inkscape:window-height="1552"
     id="namedview675"
     showgrid="false"
     inkscape:zoom="1.1493506"
     inkscape:cx="-52.0904"
     inkscape:cy="102.66667"
     inkscape:window-x="1280"
     inkscape:window-y="22"
     inkscape:window-maximized="0"
     inkscape:current-layer="svg673" />
  <g
     transform="matrix(0.1,0,0,-0.1,-9,154)"
     id="g671"
     style="fill:#000000;stroke:none">
    <path
       d="m 165,1148 c -3,-7 -4,-189 -3,-403 l 3,-390 h 45 45 l 3,188 2,187 188,-2 187,-3 3,-188 2,-188 48,3 47,3 v 400 400 H 690 645 L 642,988 640,820 H 450 260 l -2,168 -3,167 -43,3 c -28,2 -44,-1 -47,-10 z"
       id="path667"
       inkscape:connector-curvature="0" />
    <path
       d="m 872,1148 c -16,-12 -17,-45 -15,-403 l 3,-390 h 45 45 l 3,179 2,178 77,-4 c 75,-3 76,-4 113,-45 25,-29 51,-78 80,-155 58,-155 61,-158 115,-158 58,0 58,7 -1,152 -64,156 -78,182 -119,216 l -36,29 25,7 c 32,8 93,60 112,97 8,16 14,56 14,95 0,129 -62,188 -217,204 -125,13 -226,12 -246,-2 z m 293,-96 c 64,-31 87,-115 52,-182 -28,-51 -78,-73 -175,-74 l -82,-1 -3,138 -3,137 h 88 c 64,0 98,-5 123,-18 z"
       id="path669"
       inkscape:connector-curvature="0" />
  </g>
  <g
     transform="matrix(3.0434354,0,0,3.1328881,-16.248033,-139.81512)"
     aria-label="1"
     style="font-style:normal;font-variant:normal;font-weight:normal;font-stretch:normal;font-size:30px;line-height:1.25;font-family:sans-serif;-inkscape-font-specification:'Noto Sans Meetei Mayek';letter-spacing:0px;word-spacing:0px;fill:#000000;fill-opacity:1;stroke:none;stroke-width:0.5625"
     id="text683">
    <path
       inkscape:connector-curvature="0"
       d="M 56.373875,82.26754 H 53.79575 V 67.296837 q 0,-1.992188 0.117187,-3.691406 -0.410156,0.439453 -0.878906,0.820312 -1.494141,1.245117 -3.266602,2.695313 l -1.376953,-1.772461 5.800781,-4.497071 h 2.182618 z"
       style="stroke-width:0.5625"
       id="path738" />
  </g>
</svg>
