<?xml version="1.0" encoding="UTF-8" standalone="no"?>
<svg
   xmlns:dc="http://purl.org/dc/elements/1.1/"
   xmlns:cc="http://creativecommons.org/ns#"
   xmlns:rdf="http://www.w3.org/1999/02/22-rdf-syntax-ns#"
   xmlns:svg="http://www.w3.org/2000/svg"
   xmlns="http://www.w3.org/2000/svg"
   xmlns:sodipodi="http://sodipodi.sourceforge.net/DTD/sodipodi-0.dtd"
   xmlns:inkscape="http://www.inkscape.org/namespaces/inkscape"
   version="1.0"
   width="162.000000pt"
   height="154.000000pt"
   viewBox="0 0 162.000000 154.000000"
   preserveAspectRatio="xMidYMid meet"
   id="svg673"
   sodipodi:docname="hr2.svg"
   inkscape:version="0.92.2 5c3e80d, 2017-08-06">
  <metadata
     id="metadata679">
    <rdf:RDF>
      <cc:Work
         rdf:about="">
        <dc:format>image/svg+xml</dc:format>
        <dc:type
           rdf:resource="http://purl.org/dc/dcmitype/StillImage" />
        <dc:title></dc:title>
      </cc:Work>
    </rdf:RDF>
  </metadata>
  <defs
     id="defs677" />
  <sodipodi:namedview
     pagecolor="#ffffff"
     bordercolor="#666666"
     borderopacity="1"
     objecttolerance="10"
     gridtolerance="10"
     guidetolerance="10"
     inkscape:pageopacity="0"
     inkscape:pageshadow="2"
     inkscape:window-width="1276"
     inkscape:window-height="1552"
     id="namedview675"
     showgrid="false"
     inkscape:zoom="1.1493506"
     inkscape:cx="108"
     inkscape:cy="102.66667"
     inkscape:window-x="0"
     inkscape:window-y="22"
     inkscape:window-maximized="0"
     inkscape:current-layer="svg673" />
  <g
     transform="matrix(0.1,0,0,-0.1,-12,154)"
     id="g671"
     style="fill:#000000;stroke:none">
    <path
       d="m 165,1148 c -3,-7 -4,-189 -3,-403 l 3,-390 h 45 45 l 3,188 2,187 188,-2 187,-3 3,-188 2,-188 48,3 47,3 v 400 400 H 690 645 L 642,988 640,820 H 450 260 l -2,168 -3,167 -43,3 c -28,2 -44,-1 -47,-10 z"
       id="path667"
       inkscape:connector-curvature="0" />
    <path
       d="m 827,1148 c -16,-12 -17,-45 -15,-403 l 3,-390 h 45 45 l 3,179 2,178 77,-4 c 75,-3 76,-4 113,-45 25,-29 51,-78 80,-155 58,-155 61,-158 115,-158 58,0 58,7 -1,152 -64,156 -78,182 -119,216 l -36,29 25,7 c 32,8 93,60 112,97 8,16 14,56 14,95 0,129 -62,188 -217,204 -125,13 -226,12 -246,-2 z m 293,-96 c 64,-31 87,-115 52,-182 -28,-51 -78,-73 -175,-74 l -82,-1 -3,138 -3,137 h 88 c 64,0 98,-5 123,-18 z"
       id="path669"
       inkscape:connector-curvature="0" />
  </g>
  <g
     aria-label="2"
     style="font-style:normal;font-variant:normal;font-weight:normal;font-stretch:normal;font-size:30px;line-height:1.25;font-family:sans-serif;-inkscape-font-specification:'Noto Sans Meetei Mayek';letter-spacing:0px;word-spacing:0px;fill:#000000;fill-opacity:1;stroke:none;stroke-width:0.5625"
     id="text683"
     transform="matrix(2.4741474,0,0,2.9524936,8.4400671,-123.97323)">
    <path
       d="m 61.325047,82.26754 h -14.16504 v -2.197266 l 5.610352,-5.668945 q 2.53418,-2.563477 3.354492,-3.662109 0.820313,-1.098633 1.215821,-2.124024 0.410156,-1.02539 0.410156,-2.211914 0,-1.699219 -1.010742,-2.651367 -1.010743,-0.952148 -2.768555,-0.952148 -1.318359,0 -2.504883,0.439453 -1.171875,0.439453 -2.651367,1.596679 l -1.40625,-1.772461 q 3.00293,-2.519531 6.5625,-2.519531 2.988281,0 4.731445,1.538086 1.757813,1.523438 1.757813,4.160156 0,1.40625 -0.512696,2.72461 -0.512695,1.303711 -1.538086,2.666015 -1.02539,1.347657 -3.442382,3.706055 l -4.467774,4.40918 v 0.117187 h 10.825196 z"
       style="stroke-width:0.5625"
       id="path759"
       inkscape:connector-curvature="0" />
  </g>
</svg>
