<?xml version="1.0" encoding="UTF-8" standalone="no"?>
<svg
   xmlns:dc="http://purl.org/dc/elements/1.1/"
   xmlns:cc="http://creativecommons.org/ns#"
   xmlns:rdf="http://www.w3.org/1999/02/22-rdf-syntax-ns#"
   xmlns:svg="http://www.w3.org/2000/svg"
   xmlns="http://www.w3.org/2000/svg"
   xmlns:sodipodi="http://sodipodi.sourceforge.net/DTD/sodipodi-0.dtd"
   xmlns:inkscape="http://www.inkscape.org/namespaces/inkscape"
   version="1.0"
   width="283.000000pt"
   height="273.000000pt"
   viewBox="0 0 283.000000 273.000000"
   preserveAspectRatio="xMidYMid meet"
   id="svg163924"
   inkscape:version="0.92.2 5c3e80d, 2017-08-06"
   sodipodi:docname="isolated.svg">
  <defs
     id="defs163936">
    <symbol
       id="icon-filter"
       viewBox="0 0 22 28">
      <title
         id="title170427">filter</title>
      <path
         class="path1"
         d="M21.922 4.609c0.156 0.375 0.078 0.812-0.219 1.094l-7.703 7.703v11.594c0 0.406-0.25 0.766-0.609 0.922-0.125 0.047-0.266 0.078-0.391 0.078-0.266 0-0.516-0.094-0.703-0.297l-4-4c-0.187-0.187-0.297-0.438-0.297-0.703v-7.594l-7.703-7.703c-0.297-0.281-0.375-0.719-0.219-1.094 0.156-0.359 0.516-0.609 0.922-0.609h20c0.406 0 0.766 0.25 0.922 0.609z"
         id="path170429" />
    </symbol>
  </defs>
  <sodipodi:namedview
     pagecolor="#ffffff"
     bordercolor="#666666"
     borderopacity="1"
     objecttolerance="10"
     gridtolerance="10"
     guidetolerance="10"
     inkscape:pageopacity="0"
     inkscape:pageshadow="2"
     inkscape:window-width="2556"
     inkscape:window-height="1552"
     id="namedview163934"
     showgrid="false"
     inkscape:zoom="2.7663004"
     inkscape:cx="106.39383"
     inkscape:cy="163.25726"
     inkscape:window-x="0"
     inkscape:window-y="22"
     inkscape:window-maximized="0"
     inkscape:current-layer="g163928" />
  <metadata
     id="metadata163926">
Created by potrace 1.13, written by Peter Selinger 2001-2015
<rdf:RDF>
  <cc:Work
     rdf:about="">
    <dc:format>image/svg+xml</dc:format>
    <dc:type
       rdf:resource="http://purl.org/dc/dcmitype/StillImage" />
    <dc:title />
  </cc:Work>
</rdf:RDF>
</metadata>
  <g
     transform="translate(0.000000,273.000000) scale(0.100000,-0.100000)"
     fill="#000000"
     stroke="none"
     id="g163928">
    <path
       d="M 1384.6745,825.58846 1377.87,1348.0724 1247.9134,1228.772 1118.8944,1110.4082 840.23334,1389.3713 559.81953,1670.0889 283.23193,1393.8007 6.6443282,1117.5125 287.05814,836.79486 567.47185,556.07726 443.71061,432.44998 c -70.31888,-70.24276 -113.00057,-126.8989 -98.61213,-130.0519 35.90974,-9.69625 1037.57462,-18.60568 1043.32262,-9.35861 1.9978,5.50069 1.8952,243.75008 -3.7466,532.54899 z"
       id="path163932"
       inkscape:connector-curvature="0"
       style="stroke-width:1.3252281" />
    <path
       id="path4924"
       d="m 3292.7615,2648.4252 q 34.9454,-79.2586 -28.7788,-135.3195 L 2250.5643,1560.0704 V 125.68458 q 0,-81.191691 -80.1691,-114.054966 -26.723,-9.6656525 -51.3905,-9.6656525 -55.5015,0 -92.5026,36.7295125 L 1500.2644,533.57599 q -39.0565,36.72954 -39.0565,86.99093 V 1560.0704 L 447.7893,2513.1057 q -63.72411,56.0609 -28.77869,135.3195 34.94544,75.3921 121.28132,75.3921 H 3171.4801 q 86.336,0 121.2814,-75.3921 z"
       inkscape:connector-curvature="0"
       style="stroke-width:1.44005692" />
  </g>
</svg>
