<?xml version="1.0" encoding="UTF-8"?>
<svg id="Layer_1" data-name="Layer 1" xmlns="http://www.w3.org/2000/svg" viewBox="0 0 32 32">
  <path d="M15.95,32.26c-.18,0-.35-.05-.51-.15L2.46,24.05c-.28-.18-.46-.49-.46-.82l.04-15.3c0-.35.19-.67.5-.84L15.58-.14c.31-.17.68-.16.98.02l12.99,8.07c.28.18.46.49.46.82l-.04,15.28c0,.35-.19.67-.5.84l-13.04,7.24c-.15.08-.31.12-.47.12ZM3.93,22.69l12.05,7.48,12.05-6.69.04-14.18L16.02,1.83,3.97,8.49l-.04,14.2Z"/>
  <path d="M20.31,13.06h3.74c-.12-1.04-.39-1.97-.83-2.78-.44-.81-1-1.49-1.7-2.05-.68-.54-1.45-.96-2.32-1.24-.87-.29-1.78-.44-2.76-.44-1.35,0-2.57.25-3.65.73-1.06.5-1.99,1.16-2.72,2.03-.73.85-1.31,1.87-1.7,3.01-.41,1.16-.6,2.41-.6,3.76s.19,2.53.6,3.67c.39,1.14.96,2.14,1.7,2.97.73.85,1.66,1.51,2.72,1.99,1.08.48,2.3.71,3.65.71,1.1,0,2.08-.15,2.99-.5.91-.33,1.7-.83,2.37-1.47.68-.64,1.22-1.41,1.62-2.32.42-.91.68-1.93.77-3.07h-3.74c-.15,1.22-.56,2.2-1.24,2.93-.66.75-1.58,1.12-2.78,1.12-.87,0-1.6-.17-2.22-.52-.62-.35-1.1-.81-1.49-1.37-.37-.58-.66-1.24-.83-1.95-.17-.71-.25-1.45-.25-2.2,0-.79.08-1.56.25-2.3.17-.75.46-1.41.83-1.99.39-.58.87-1.04,1.49-1.39.62-.35,1.35-.52,2.22-.52.48,0,.95.08,1.37.25.44.15.83.37,1.18.66.35.29.64.62.87,1,.23.39.37.79.44,1.25Z"/>
</svg>