<?xml version="1.0" encoding="utf-8"?>
<!-- Generator: Adobe Illustrator 19.1.0, SVG Export Plug-In . SVG Version: 6.00 Build 0)  -->
<svg version="1.1" id="Icon" xmlns="http://www.w3.org/2000/svg" xmlns:xlink="http://www.w3.org/1999/xlink" x="0px" y="0px"
	 viewBox="0 0 1000 1000" style="enable-background:new 0 0 1000 1000;" xml:space="preserve">
<path d="M831.3,800.1L603,360V189h22.5c12.4,0,22.5-10.1,22.5-22.5v0c0-12.4-10.1-22.5-22.5-22.5h-243c-12.4,0-22.5,10.1-22.5,22.5
	v0c0,12.4,10.1,22.5,22.5,22.5H405v171L176.7,800.1c-3.8,6.5-5.7,13.9-5.7,21.3v0c0,23.5,19.1,42.6,42.6,42.6h580.9
	c23.5,0,42.6-19.1,42.6-42.6v0C837,813.9,835,806.6,831.3,800.1z M450,369V189h108v180l117,225c0,0-99.2,18.8-171,0
	c-71.5-18.7-171,0-171,0L450,369z"/>
</svg>
