<?xml version="1.0" encoding="UTF-8"?>
<svg id="Layer_1" xmlns="http://www.w3.org/2000/svg" version="1.1" viewBox="0 0 640 640">
  <!-- Generator: Adobe Illustrator 30.2.1, SVG Export Plug-In . SVG Version: 2.1.1 Build 1)  -->
  <path d="M464,64h-44.1c-12.9-19.3-34.9-32-59.9-32h-80c-25,0-47,12.7-59.9,32h-44.1c-35.3,0-64,28.7-64,64v400c0,35.3,28.7,64,64,64h288c35.3,0,64-28.7,64-64V128c0-35.3-28.7-64-64-64ZM280,80h80c13.3,0,24,10.7,24,24s-10.7,24-24,24h-80c-13.3,0-24-10.7-24-24s10.7-24,24-24ZM480,528c0,8.8-7.2,16-16,16H176c-8.8,0-16-7.2-16-16V128c0-8.8,7.2-16,16-16h32.4c4,36,34.5,64,71.6,64h80c37.1,0,67.6-28,71.6-64h32.4c8.8,0,16,7.2,16,16v400ZM240,216v32c0,4.4183-3.5817,8-8,8h-32c-4.4183,0-8-3.5817-8-8v-32c0-4.4183,3.5817-8,8-8h32c4.4183,0,8,3.5817,8,8ZM240,296v32c0,4.4183-3.5817,8-8,8h-32c-4.4183,0-8-3.5817-8-8v-32c0-4.4183,3.5817-8,8-8h32c4.4183,0,8,3.5817,8,8ZM240,376v32c0,4.4183-3.5817,8-8,8h-32c-4.4183,0-8-3.5817-8-8v-32c0-4.4183,3.5817-8,8-8h32c4.4183,0,8,3.5817,8,8ZM240,456v32c0,4.4183-3.5817,8-8,8h-32c-4.4183,0-8-3.5817-8-8v-32c0-4.4183,3.5817-8,8-8h32c4.4183,0,8,3.5817,8,8ZM448,224v16c0,4.4183-3.5817,8-8,8h-168c-4.4183,0-8-3.5817-8-8v-16c0-4.4183,3.5817-8,8-8h168c4.4183,0,8,3.5817,8,8ZM448,304v16c0,4.4183-3.5817,8-8,8h-168c-4.4183,0-8-3.5817-8-8v-16c0-4.4183,3.5817-8,8-8h168c4.4183,0,8,3.5817,8,8ZM448,384v16c0,4.4183-3.5817,8-8,8h-168c-4.4183,0-8-3.5817-8-8v-16c0-4.4183,3.5817-8,8-8h168c4.4183,0,8,3.5817,8,8ZM448,464v16c0,4.4183-3.5817,8-8,8h-168c-4.4183,0-8-3.5817-8-8v-16c0-4.4183,3.5817-8,8-8h168c4.4183,0,8,3.5817,8,8Z"/>
</svg>