<?xml version="1.0" encoding="UTF-8" standalone="no"?>
<svg
   xmlns:dc="http://purl.org/dc/elements/1.1/"
   xmlns:cc="http://creativecommons.org/ns#"
   xmlns:rdf="http://www.w3.org/1999/02/22-rdf-syntax-ns#"
   xmlns:svg="http://www.w3.org/2000/svg"
   xmlns="http://www.w3.org/2000/svg"
   xmlns:sodipodi="http://sodipodi.sourceforge.net/DTD/sodipodi-0.dtd"
   xmlns:inkscape="http://www.inkscape.org/namespaces/inkscape"
   version="1.0"
   width="1000pt"
   height="1000pt"
   viewBox="0 0 1000 1000"
   preserveAspectRatio="xMidYMid meet"
   id="svg163924"
   inkscape:version="0.91 r13725"
   sodipodi:docname="residue-adsorbed.svg">
  <defs
     id="defs163936">
    <symbol
       id="icon-filter"
       viewBox="0 0 22 28">
      <title
         id="title170427">filter</title>
      <path
         class="path1"
         d="M 21.922,4.609 C 22.078,4.984 22,5.421 21.703,5.703 L 14,13.406 14,25 c 0,0.406 -0.25,0.766 -0.609,0.922 C 13.266,25.969 13.125,26 13,26 12.734,26 12.484,25.906 12.297,25.703 l -4,-4 C 8.11,21.516 8,21.265 8,21 L 8,13.406 0.297,5.703 C 0,5.422 -0.078,4.984 0.078,4.609 0.234,4.25 0.594,4 1,4 l 20,0 c 0.406,0 0.766,0.25 0.922,0.609 z"
         id="path170429"
         inkscape:connector-curvature="0" />
    </symbol>
  </defs>
  <sodipodi:namedview
     pagecolor="#ffffff"
     bordercolor="#666666"
     borderopacity="1"
     objecttolerance="10"
     gridtolerance="10"
     guidetolerance="10"
     inkscape:pageopacity="0"
     inkscape:pageshadow="2"
     inkscape:window-width="2556"
     inkscape:window-height="1560"
     id="namedview163934"
     showgrid="false"
     inkscape:zoom="0.97803487"
     inkscape:cx="663.72374"
     inkscape:cy="706.4984"
     inkscape:window-x="0"
     inkscape:window-y="38"
     inkscape:window-maximized="0"
     inkscape:current-layer="g163928" />
  <metadata
     id="metadata163926">
Created by potrace 1.13, written by Peter Selinger 2001-2015
<rdf:RDF>
  <cc:Work
     rdf:about="">
    <dc:format>image/svg+xml</dc:format>
    <dc:type
       rdf:resource="http://purl.org/dc/dcmitype/StillImage" />
    <dc:title></dc:title>
  </cc:Work>
</rdf:RDF>
</metadata>
  <g
     transform="matrix(0.1,0,0,-0.1,0,1000)"
     id="g163928"
     style="fill:#000000;stroke:none">
    <g
       id="g7350"
       transform="matrix(15.102222,0,0,-14.878841,1166.6767,9081.5591)">
      <g
         id="g7304">
        <g
           id="g7306">
          <g
             id="g7308">
            <circle
               id="circle7310"
               r="18.517"
               cy="198.183"
               cx="157.10899" />
            <path
               id="path7312"
               d="m 397.452,377.705 0,-356.275 C 397.452,9.595 387.857,0 376.022,0 c -11.835,0 -21.43,9.595 -21.43,21.43 l 0,86.762 -111.078,0 0,-65.332 23.93,0 c 11.835,0 21.43,-9.595 21.43,-21.43 C 288.874,9.595 279.279,0 267.444,0 260.675,0 55.812,0 46.77,0 34.935,0 25.34,9.595 25.34,21.43 c 0,11.835 9.595,21.43 21.43,21.43 l 23.93,0 0,65.332 -23.93,0 c -11.835,0 -21.43,9.595 -21.43,21.43 0,11.835 9.595,21.43 21.43,21.43 l 23.93,0 0,73.177 c 0,47.646 38.762,86.408 86.406,86.408 47.644,0 86.408,-38.762 86.408,-86.408 l 0,-73.177 111.078,0 0,226.653 c -48.223,9.505 -89.208,50.847 -89.208,112.865 0,11.835 9.595,21.43 21.43,21.43 l 178.416,0 c 11.835,0 21.43,-9.595 21.43,-21.43 0,-60.872 -39.857,-103.137 -89.208,-112.865 z M 200.655,224.229 c 0,24.013 -19.535,43.548 -43.548,43.548 -24.013,0 -43.547,-19.535 -43.547,-43.548 l 0,-73.177 87.095,0 0,73.177 z m 0,-116.037 -87.095,0 0,-65.332 87.095,0 0,65.332 z M 310.428,469.14 c 7.598,-29.12 34.126,-50.677 65.594,-50.677 31.466,0 57.995,21.556 65.592,50.677 l -131.186,0 z"
               inkscape:connector-curvature="0" />
          </g>
        </g>
      </g>
      <g
         id="g7314" />
      <g
         id="g7316" />
      <g
         id="g7318" />
      <g
         id="g7320" />
      <g
         id="g7322" />
      <g
         id="g7324" />
      <g
         id="g7326" />
      <g
         id="g7328" />
      <g
         id="g7330" />
      <g
         id="g7332" />
      <g
         id="g7334" />
      <g
         id="g7336" />
      <g
         id="g7338" />
      <g
         id="g7340" />
      <g
         id="g7342" />
    </g>
    <path
       id="path7541"
       d="m 2994.3302,1799.5931 q 139.1705,-55.1666 263.2955,-55.1666 707.1363,0 707.1363,577.526 0,196.5312 -77.108,310.3125 -50.7784,75.8542 -115.6619,127.5729 -64.8835,51.7187 -126.946,80.164 -62.0625,28.4453 -151.3949,43.099 -89.3324,14.6536 -157.9772,18.1015 -68.6449,3.448 -177.7245,3.448 -137.2897,0 -189.9488,-17.2396 0,-91.3698 -0.9404,-274.1094 -0.9403,-182.7395 -0.9403,-272.3854 0,-13.7916 -1.8807,-116.3671 -1.8807,-102.5756 -0.9403,-166.362 0.9403,-63.7865 8.463,-143.9505 7.5228,-80.1641 22.5682,-114.6433 z m -26.3295,1286.0729 q 78.9886,-12.0677 204.9943,-12.0677 154.2159,0 268.9374,22.4114 114.7216,22.4115 206.875,76.7162 92.1535,54.3047 140.1108,154.2942 47.9574,99.9896 47.9574,244.8021 0,120.6771 -54.5397,211.1849 -54.5398,90.5078 -148.5739,141.3646 -94.0341,50.8568 -203.1136,74.9922 -109.0796,24.1354 -233.2046,24.1354 -94.034,0 -244.4886,-22.4115 0,-86.1979 7.5227,-260.3177 7.5228,-174.1198 7.5228,-262.0416 0,-46.5469 -0.9404,-137.9167 -0.9403,-91.3698 -0.9403,-136.1927 0,-79.3021 1.8807,-118.9531 z m -1017.4489,-1532.5989 3.7614,162.0521 q 28.2102,6.8958 159.8579,27.5833 131.6477,20.6875 199.3523,46.5469 13.1648,20.6875 23.5085,46.5469 10.3438,25.8593 15.9858,57.7526 5.642,31.8932 10.3438,56.0286 4.7017,24.1354 5.642,64.6484 0.9403,40.5131 0.9403,58.6146 l 0,112.9193 q 0,1692.927 -41.375,1767.0572 -7.5227,13.7917 -41.375,24.9974 -33.8522,11.2057 -83.6903,18.9635 -49.8381,7.7579 -93.0937,12.0678 -43.2557,4.3098 -91.2131,7.7578 -47.9574,3.4479 -57.3608,5.1718 l -7.5227,143.0886 q 184.3068,3.4479 639.4318,19.8255 455.125,16.3777 701.4943,16.3777 43.2557,0 128.8267,-0.862 85.571,-0.862 126.946,-0.862 131.6477,0 256.7131,-22.4115 125.0653,-22.4115 241.6676,-72.4063 116.6022,-49.9948 203.1136,-122.401 86.5114,-72.4063 139.1705,-180.1536 52.6591,-107.7474 52.6591,-237.0443 0,-89.6458 -31.0313,-164.638 -31.0312,-74.9922 -73.3466,-124.125 -42.3153,-49.1328 -121.304,-99.1276 -78.9886,-49.9948 -137.2897,-77.5781 -58.3012,-27.5834 -157.9773,-68.9584 289.625,-60.3385 482.3949,-231.0104 192.7699,-170.6718 192.7699,-427.5416 0,-172.3958 -65.8239,-309.4505 -65.8239,-137.0547 -175.8438,-224.9766 -110.0198,-87.9219 -259.534,-147.3984 -149.5142,-59.4766 -307.4915,-83.612 -157.9773,-24.1354 -331,-24.1354 -82.75,0 -248.25,5.1719 -165.5,5.1718 -248.25,5.1718 -199.3523,0 -577.3693,-18.9635 -378.017,-18.9635 -434.4375,-20.6875 z"
       inkscape:connector-curvature="0" />
  </g>
</svg>
