<?xml version="1.0" encoding="UTF-8" standalone="no"?>
<svg
   xmlns:dc="http://purl.org/dc/elements/1.1/"
   xmlns:cc="http://creativecommons.org/ns#"
   xmlns:rdf="http://www.w3.org/1999/02/22-rdf-syntax-ns#"
   xmlns:svg="http://www.w3.org/2000/svg"
   xmlns="http://www.w3.org/2000/svg"
   xmlns:sodipodi="http://sodipodi.sourceforge.net/DTD/sodipodi-0.dtd"
   xmlns:inkscape="http://www.inkscape.org/namespaces/inkscape"
   version="1.0"
   width="512.000000pt"
   height="512.000000pt"
   viewBox="0 0 512.000000 512.000000"
   preserveAspectRatio="xMidYMid meet"
   id="svg3418"
   inkscape:version="0.91 r13725"
   sodipodi:docname="resin-solvent.svg">
  <defs
     id="defs3430" />
  <sodipodi:namedview
     pagecolor="#ffffff"
     bordercolor="#666666"
     borderopacity="1"
     objecttolerance="10"
     gridtolerance="10"
     guidetolerance="10"
     inkscape:pageopacity="0"
     inkscape:pageshadow="2"
     inkscape:window-width="1276"
     inkscape:window-height="1560"
     id="namedview3428"
     showgrid="true"
     inkscape:snap-others="false"
     inkscape:snap-nodes="false"
     inkscape:snap-global="false"
     showguides="false"
     inkscape:zoom="1.0640625"
     inkscape:cx="341.64068"
     inkscape:cy="352.66233"
     inkscape:window-x="1280"
     inkscape:window-y="38"
     inkscape:window-maximized="0"
     inkscape:current-layer="g3422">
    <inkscape:grid
       type="xygrid"
       id="grid3466" />
  </sodipodi:namedview>
  <metadata
     id="metadata3420">
Created by potrace 1.13, written by Peter Selinger 2001-2015
<rdf:RDF>
  <cc:Work
     rdf:about="">
    <dc:format>image/svg+xml</dc:format>
    <dc:type
       rdf:resource="http://purl.org/dc/dcmitype/StillImage" />
    <dc:title />
  </cc:Work>
</rdf:RDF>
</metadata>
  <g
     transform="translate(0.000000,512.000000) scale(0.100000,-0.100000)"
     fill="#000000"
     stroke="none"
     id="g3422">
    <path
       inkscape:connector-curvature="0"
       d="m 2413.5755,4896.834 c -425.6886,-519.183 -703.0185,-973.5707 -752.7524,-1236.0328 -6.7436,-36.9088 -9.2725,-89.4012 -5.9007,-151.7359 16.0161,-313.3142 225.9101,-597.9216 530.2143,-718.4902 209.051,-82.8397 448.4482,-81.1993 661.7139,4.9212 134.0287,54.953 294.1888,184.5438 375.9548,305.1122 128.1281,188.6447 174.4902,422.4 120.5416,616.7861 -70.8077,260.8217 -349.8233,705.3671 -735.8935,1175.3384 -53.1056,63.9752 -97.7819,116.4676 -98.6249,116.4676 -1.6858,0 -44.6763,-50.852 -95.2531,-112.3666 z m -424.0027,-944.8638 c -40.4615,-152.5561 -43.8334,-352.6835 -9.2724,-480.6339 21.9166,-80.3789 73.3364,-187.0043 122.2274,-253.44 48.8909,-65.6156 147.5159,-158.2975 214.9515,-200.9477 l 53.9488,-33.6278 -33.7179,0 c -51.4198,0 -154.2595,28.7068 -220.8523,60.6943 -75.0223,36.9088 -163.5319,117.2878 -205.6793,186.1842 -102.8397,168.9599 -101.9966,428.1413 2.5288,644.6726 29.5031,61.5145 83.4518,145.1744 89.3525,139.4331 1.6858,-0.8203 -4.2147,-29.5272 -13.4871,-62.3348 z"
       id="path3426" />
    <path
       d="m 2404.496,2594.961 c -287.1035,-28.8343 -549.1997,-150.79 -752.1439,-349.7949 -195.2497,-191.9146 -311.63,-425.8991 -352.5073,-706.2078 -8.1755,-55.7781 -8.1755,-242.0203 0,-297.7984 40.8773,-280.30869 157.7386,-514.29327 352.5073,-706.20782 195.2497,-191.44193 433.7812,-306.77973 718.4802,-346.48619 56.7474,-8.03581 246.2261,-8.03581 302.9735,0 235.6462,33.08873 446.2849,121.01015 620.3745,259.51008 247.6689,196.64158 403.9648,472.22332 450.6131,793.18393 8.1755,55.7781 8.1755,242.0203 0,297.7984 -40.3965,279.8361 -157.7386,514.2932 -352.5073,706.2078 -190.4406,187.1876 -423.2013,301.58 -696.8393,343.1772 -60.1138,8.9812 -229.3943,13.2356 -290.9508,6.6177 z m 261.6153,-224.0578 c 107.243,-14.6536 226.0279,-51.9966 320.2863,-101.157 44.2438,-22.6894 90.1169,-51.025 132.2504,-80.8309 43.6817,-30.9011 86.6196,-63.4923 124.3827,-101.183 40.5115,-40.4336 76.0886,-85.7572 108.378,-132.8016 33.9171,-49.4159 68.7702,-111.0835 88.9684,-155.9896 62.5183,-138.9726 88.4875,-257.6193 88.4875,-408.882 0,-150.79 -25.9692,-269.9094 -88.0066,-407.93661 -97.1439,-214.60402 -285.6608,-399.42814 -504.956,-495.38545 -302.4927,-132.35483 -774.2657,-38.99753 -928.1571,51.52391 -153.8915,90.52128 -40.9706,23.27185 -60.1138,36.87028 -48.1697,34.21741 -97.244,73.58528 -137.0886,112.05522 -39.8445,38.46993 -101.443,115.78422 -102.4048,116.72961 -1.4427,1.41809 -14.4273,20.79866 -29.3356,43.48802 -201.0205,304.41622 -219.2951,685.88192 -48.091,1004.95172 48.091,89.8122 102.4339,162.1347 179.3796,237.766 175.5324,172.534 390.9802,268.964 647.3054,289.7626 42.8011,3.3089 152.4486,-1.4181 208.7152,-8.9812 z"
       id="path3424"
       inkscape:connector-curvature="0"
       sodipodi:nodetypes="cccccccccccccccaaacscczazsccscc"
       style="stroke:#803300;stroke-width:0.47678551" />
  </g>
</svg>
