<?xml version="1.0" encoding="UTF-8" standalone="no"?>
<svg
   xmlns:dc="http://purl.org/dc/elements/1.1/"
   xmlns:cc="http://creativecommons.org/ns#"
   xmlns:rdf="http://www.w3.org/1999/02/22-rdf-syntax-ns#"
   xmlns:svg="http://www.w3.org/2000/svg"
   xmlns="http://www.w3.org/2000/svg"
   xmlns:sodipodi="http://sodipodi.sourceforge.net/DTD/sodipodi-0.dtd"
   xmlns:inkscape="http://www.inkscape.org/namespaces/inkscape"
   version="1.0"
   width="1000pt"
   height="1000pt"
   viewBox="0 0 1000 1000"
   preserveAspectRatio="xMidYMid meet"
   id="svg163924"
   inkscape:version="0.92.2 5c3e80d, 2017-08-06"
   sodipodi:docname="residue-purified.svg">
  <defs
     id="defs163936">
    <symbol
       id="icon-filter"
       viewBox="0 0 22 28">
      <title
         id="title170427">filter</title>
      <path
         class="path1"
         d="M 21.922,4.609 C 22.078,4.984 22,5.421 21.703,5.703 L 14,13.406 14,25 c 0,0.406 -0.25,0.766 -0.609,0.922 C 13.266,25.969 13.125,26 13,26 12.734,26 12.484,25.906 12.297,25.703 l -4,-4 C 8.11,21.516 8,21.265 8,21 L 8,13.406 0.297,5.703 C 0,5.422 -0.078,4.984 0.078,4.609 0.234,4.25 0.594,4 1,4 l 20,0 c 0.406,0 0.766,0.25 0.922,0.609 z"
         id="path170429"
         inkscape:connector-curvature="0" />
    </symbol>
  </defs>
  <sodipodi:namedview
     pagecolor="#ffffff"
     bordercolor="#666666"
     borderopacity="1"
     objecttolerance="10"
     gridtolerance="10"
     guidetolerance="10"
     inkscape:pageopacity="0"
     inkscape:pageshadow="2"
     inkscape:window-width="2556"
     inkscape:window-height="1552"
     id="namedview163934"
     showgrid="false"
     inkscape:zoom="0.69157509"
     inkscape:cx="582.37885"
     inkscape:cy="458.73301"
     inkscape:window-x="0"
     inkscape:window-y="22"
     inkscape:window-maximized="0"
     inkscape:current-layer="g163928" />
  <metadata
     id="metadata163926">
Created by potrace 1.13, written by Peter Selinger 2001-2015
<rdf:RDF>
  <cc:Work
     rdf:about="">
    <dc:format>image/svg+xml</dc:format>
    <dc:type
       rdf:resource="http://purl.org/dc/dcmitype/StillImage" />
    <dc:title />
  </cc:Work>
</rdf:RDF>
</metadata>
  <g
     transform="matrix(0.1,0,0,-0.1,0,1000)"
     id="g163928"
     style="fill:#000000;stroke:none">
    <g
       id="g7350"
       transform="matrix(19.746064,0,0,-19.453995,-60.09795,9981.6782)">
      <g
         id="g7304">
        <g
           id="g7306">
          <g
             id="g7308">
            <circle
               id="circle7310"
               r="18.517"
               cy="198.183"
               cx="157.10899" />
            <path
               id="path7312"
               d="M 397.452,377.705 V 21.43 C 397.452,9.595 387.857,0 376.022,0 c -11.835,0 -21.43,9.595 -21.43,21.43 v 86.762 H 243.514 V 42.86 h 23.93 c 11.835,0 21.43,-9.595 21.43,-21.43 C 288.874,9.595 279.279,0 267.444,0 260.675,0 55.812,0 46.77,0 34.935,0 25.34,9.595 25.34,21.43 c 0,11.835 9.595,21.43 21.43,21.43 H 70.7 v 65.332 H 46.77 c -11.835,0 -21.43,9.595 -21.43,21.43 0,11.835 9.595,21.43 21.43,21.43 H 70.7 v 73.177 c 0,47.646 38.762,86.408 86.406,86.408 47.644,0 86.408,-38.762 86.408,-86.408 v -73.177 h 111.078 v 226.653 c -48.223,9.505 -89.208,50.847 -89.208,112.865 0,11.835 9.595,21.43 21.43,21.43 H 465.23 c 11.835,0 21.43,-9.595 21.43,-21.43 0,-60.872 -39.857,-103.137 -89.208,-112.865 z M 200.655,224.229 c 0,24.013 -19.535,43.548 -43.548,43.548 -24.013,0 -43.547,-19.535 -43.547,-43.548 v -73.177 h 87.095 z m 0,-116.037 H 113.56 V 42.86 h 87.095 z M 310.428,469.14 c 7.598,-29.12 34.126,-50.677 65.594,-50.677 31.466,0 57.995,21.556 65.592,50.677 z"
               inkscape:connector-curvature="0" />
          </g>
        </g>
      </g>
      <g
         id="g7314" />
      <g
         id="g7316" />
      <g
         id="g7318" />
      <g
         id="g7320" />
      <g
         id="g7322" />
      <g
         id="g7324" />
      <g
         id="g7326" />
      <g
         id="g7328" />
      <g
         id="g7330" />
      <g
         id="g7332" />
      <g
         id="g7334" />
      <g
         id="g7336" />
      <g
         id="g7338" />
      <g
         id="g7340" />
      <g
         id="g7342" />
    </g>
    <path
       id="path7462"
       d="M 2281.1488,2711.6079 1926.9047,1651.8951 q 68.765,0 284.4372,-4.7098 215.6721,-4.7098 334.448,-4.7098 39.5921,0 118.776,4.7098 -181.2896,595.794 -383.4171,1064.4226 z M 770.40177,109.42439 l 4.16773,186.0385 q 47.92705,16.4845 116.69226,29.43634 68.76485,12.95207 118.77584,24.72675 50.0108,11.77456 103.1476,34.14616 53.1365,22.37184 92.7285,68.29268 39.592,45.92096 64.5975,118.92322 l 493.8579,1450.62916 583.461,1704.9599 h 266.7249 q 16.6703,-32.9688 22.9216,-49.4531 l 427.1768,-1130.3604 q 68.7651,-183.6834 220.8816,-606.3911 152.1166,-422.7077 237.552,-646.4248 31.2567,-80.0672 120.8596,-340.28537 89.6029,-260.2184 150.0328,-396.80364 41.6759,-105.97138 72.9326,-134.23044 39.5921,-35.32356 183.3735,-69.46996 143.7814,-34.14628 175.0383,-48.27575 12.5027,-89.48689 12.5027,-134.23033 0,-9.41964 -1.0419,-30.61385 -1.042,-21.19432 -1.042,-30.61397 -131.2785,0 -395.9197,18.83941 -264.6413,18.83918 -398.0038,18.83918 -158.3679,0 -448.0146,-16.48439 -289.6465,-16.48438 -370.9144,-18.83929 0,101.26156 8.3352,183.68359 l 272.9764,65.93765 q 2.0838,0 26.0474,5.88734 23.9634,5.88722 32.2986,8.24213 8.3351,2.35491 30.2151,10.59728 21.8798,8.24201 31.2566,15.30675 9.3772,7.06485 22.9219,18.83941 13.5446,11.77468 18.7539,25.90415 5.2095,14.12959 5.2095,32.96865 0,37.67894 -64.5973,227.24975 -64.5975,189.57069 -150.0329,417.9978 -85.4353,228.4268 -87.5191,235.4917 l -937.7049,4.7098 q -54.1787,-136.5852 -159.41,-460.38636 -105.2313,-323.80102 -105.2313,-382.67405 0,-51.80817 29.1731,-88.30948 29.173,-36.50108 90.6448,-57.6954 61.4717,-21.19421 101.0638,-31.79137 39.592,-10.59704 118.776,-20.01681 79.1839,-9.41964 85.4352,-9.41964 2.0838,-44.74333 2.0838,-136.58512 0,-21.19421 -4.1676,-63.58286 -120.8596,0 -363.6211,23.54924 -242.7614,23.54912 -363.6211,23.54912 -16.6704,0 -55.2205,-9.41965 -38.5501,-9.41965 -44.8013,-9.41965 -166.70322,-32.96888 -391.75253,-32.96888 z"
       inkscape:connector-curvature="0"
       style="stroke-width:1.30749393" />
  </g>
</svg>
