<?xml version="1.0" encoding="UTF-8" standalone="no"?>
<svg
   xmlns:dc="http://purl.org/dc/elements/1.1/"
   xmlns:cc="http://creativecommons.org/ns#"
   xmlns:rdf="http://www.w3.org/1999/02/22-rdf-syntax-ns#"
   xmlns:svg="http://www.w3.org/2000/svg"
   xmlns="http://www.w3.org/2000/svg"
   xmlns:sodipodi="http://sodipodi.sourceforge.net/DTD/sodipodi-0.dtd"
   xmlns:inkscape="http://www.inkscape.org/namespaces/inkscape"
   version="1.0"
   width="512.000000pt"
   height="512.000000pt"
   viewBox="0 0 512.000000 512.000000"
   preserveAspectRatio="xMidYMid meet"
   id="svg3418"
   inkscape:version="0.92.2 5c3e80d, 2017-08-06"
   sodipodi:docname="resin-solvent.svg">
  <defs
     id="defs3430" />
  <sodipodi:namedview
     pagecolor="#ffffff"
     bordercolor="#666666"
     borderopacity="1"
     objecttolerance="10"
     gridtolerance="10"
     guidetolerance="10"
     inkscape:pageopacity="0"
     inkscape:pageshadow="2"
     inkscape:window-width="2556"
     inkscape:window-height="1552"
     id="namedview3428"
     showgrid="true"
     inkscape:snap-others="false"
     inkscape:snap-nodes="false"
     inkscape:snap-global="false"
     showguides="false"
     inkscape:zoom="1.0640625"
     inkscape:cx="168.71851"
     inkscape:cy="352.66233"
     inkscape:window-x="0"
     inkscape:window-y="22"
     inkscape:window-maximized="0"
     inkscape:current-layer="g3422">
    <inkscape:grid
       type="xygrid"
       id="grid3466" />
  </sodipodi:namedview>
  <metadata
     id="metadata3420">
Created by potrace 1.13, written by Peter Selinger 2001-2015
<rdf:RDF>
  <cc:Work
     rdf:about="">
    <dc:format>image/svg+xml</dc:format>
    <dc:type
       rdf:resource="http://purl.org/dc/dcmitype/StillImage" />
    <dc:title />
  </cc:Work>
</rdf:RDF>
</metadata>
  <g
     transform="translate(0.000000,512.000000) scale(0.100000,-0.100000)"
     fill="#000000"
     stroke="none"
     id="g3422">
    <path
       inkscape:connector-curvature="0"
       d="m 2478.2345,4989.026 c -450.2618,-549.1532 -743.6008,-1029.7709 -796.2056,-1307.3838 -7.1328,-39.0394 -9.8077,-94.5619 -6.2413,-160.4949 16.9406,-331.4006 238.951,-632.4371 560.8214,-759.9657 221.1186,-87.6217 474.3352,-85.8866 699.9118,5.2053 141.7656,58.1252 311.1711,195.1967 397.6571,322.725 135.5243,199.5343 184.5628,446.7834 127.4999,652.3905 -74.8951,275.8779 -370.0171,746.085 -778.3735,1243.1859 -56.1712,67.6681 -103.4265,123.1907 -104.3181,123.1907 -1.7831,0 -47.2552,-53.7875 -100.7517,-118.853 z m -448.4786,-999.4068 c -42.7971,-161.3625 -46.3636,-373.0424 -9.8076,-508.3789 23.1817,-85.0188 77.5698,-197.7993 129.2831,-268.07 51.7132,-69.4034 156.0313,-167.4354 227.3597,-212.5476 l 57.063,-35.569 h -35.6643 c -54.388,0 -163.1642,30.3639 -233.6012,64.1979 -79.353,39.0394 -172.9719,124.0584 -217.5523,196.9318 -108.7761,178.7133 -107.8844,452.8562 2.6748,681.8868 31.2063,65.0656 88.2691,153.5548 94.5105,147.4821 1.7831,-0.8677 -4.458,-31.2318 -14.2657,-65.9331 z"
       id="path3426"
       style="stroke-width:1.05772579" />
    <path
       d="m 2468.6309,2554.2755 c -303.6767,-30.4987 -580.9027,-159.4945 -795.562,-369.9871 -206.5206,-202.993 -329.6191,-450.4845 -372.8561,-746.9742 -8.6474,-58.9979 -8.6474,-255.9911 0,-314.989 43.237,-296.48976 166.8442,-543.98128 372.8561,-746.97425 206.5206,-202.49306 458.8215,-324.48883 759.955,-366.4873778 60.0232,-8.49968765 260.4397,-8.49968765 320.4629,0 249.2491,34.9988008 472.0471,127.9955578 656.1861,274.4905078 261.9658,207.99287 427.2841,499.48279 476.6251,838.97112 8.6475,58.9979 8.6475,255.9911 0,314.989 -42.7283,295.9899 -166.8442,543.9812 -372.856,746.9742 -201.434,197.9932 -447.6309,318.989 -737.0649,362.9875 -63.5839,9.4996 -242.6363,13.9995 -307.7462,6.9996 z m 276.7173,-236.9917 c 113.4337,-15.4995 239.0755,-54.9981 338.775,-106.9963 46.7979,-23.9993 95.319,-53.9705 139.8847,-85.4969 46.2033,-32.685 91.6198,-67.1575 131.5628,-107.0239 42.85,-42.7677 80.4808,-90.7077 114.6342,-140.4677 35.875,-52.2685 72.74,-117.496 94.1042,-164.9943 66.1272,-146.9949 93.5955,-272.4905 93.5955,-432.485 0,-159.4945 -27.4683,-285.49012 -93.0869,-431.48507 -102.7516,-226.9922 -302.1508,-422.48545 -534.105,-523.98197 -319.9543,-139.99511 -818.9608,-41.24869 -981.7357,54.49817 -162.775,95.74669 -43.3356,24.61523 -63.5839,38.99865 -50.9503,36.19263 -102.8574,77.83305 -145.0022,118.52369 -42.1445,40.69064 -107.2988,122.46795 -108.3161,123.46792 -1.526,1.49995 -15.2602,21.99928 -31.029,45.99841 -212.6246,321.9888 -231.9541,725.475 -50.8672,1062.9634 50.8672,94.9966 108.3471,171.494 189.7345,251.4912 185.6651,182.4936 413.5498,284.4901 684.6716,306.4893 45.2718,3.5 161.2489,-1.5 220.7635,-9.4996 z"
       id="path3424"
       inkscape:connector-curvature="0"
       sodipodi:nodetypes="cccccccccccccccaaacscczazsccscc"
       style="stroke:#803300;stroke-width:0.50430834" />
  </g>
</svg>
