<?xml version="1.0" encoding="UTF-8" standalone="no"?>
<svg
   xmlns:dc="http://purl.org/dc/elements/1.1/"
   xmlns:cc="http://creativecommons.org/ns#"
   xmlns:rdf="http://www.w3.org/1999/02/22-rdf-syntax-ns#"
   xmlns:svg="http://www.w3.org/2000/svg"
   xmlns="http://www.w3.org/2000/svg"
   xmlns:sodipodi="http://sodipodi.sourceforge.net/DTD/sodipodi-0.dtd"
   xmlns:inkscape="http://www.inkscape.org/namespaces/inkscape"
   version="1.0"
   width="1000pt"
   height="1000pt"
   viewBox="0 0 1000 1000"
   preserveAspectRatio="xMidYMid meet"
   id="svg163924"
   inkscape:version="0.92.2 5c3e80d, 2017-08-06"
   sodipodi:docname="residue-adsorbed.svg">
  <defs
     id="defs163936">
    <symbol
       id="icon-filter"
       viewBox="0 0 22 28">
      <title
         id="title170427">filter</title>
      <path
         class="path1"
         d="M 21.922,4.609 C 22.078,4.984 22,5.421 21.703,5.703 L 14,13.406 14,25 c 0,0.406 -0.25,0.766 -0.609,0.922 C 13.266,25.969 13.125,26 13,26 12.734,26 12.484,25.906 12.297,25.703 l -4,-4 C 8.11,21.516 8,21.265 8,21 L 8,13.406 0.297,5.703 C 0,5.422 -0.078,4.984 0.078,4.609 0.234,4.25 0.594,4 1,4 l 20,0 c 0.406,0 0.766,0.25 0.922,0.609 z"
         id="path170429"
         inkscape:connector-curvature="0" />
    </symbol>
  </defs>
  <sodipodi:namedview
     pagecolor="#ffffff"
     bordercolor="#666666"
     borderopacity="1"
     objecttolerance="10"
     gridtolerance="10"
     guidetolerance="10"
     inkscape:pageopacity="0"
     inkscape:pageshadow="2"
     inkscape:window-width="2556"
     inkscape:window-height="1552"
     id="namedview163934"
     showgrid="false"
     inkscape:zoom="0.69157509"
     inkscape:cx="202.48487"
     inkscape:cy="618.58133"
     inkscape:window-x="0"
     inkscape:window-y="22"
     inkscape:window-maximized="0"
     inkscape:current-layer="g163928" />
  <metadata
     id="metadata163926">
Created by potrace 1.13, written by Peter Selinger 2001-2015
<rdf:RDF>
  <cc:Work
     rdf:about="">
    <dc:format>image/svg+xml</dc:format>
    <dc:type
       rdf:resource="http://purl.org/dc/dcmitype/StillImage" />
    <dc:title></dc:title>
  </cc:Work>
</rdf:RDF>
</metadata>
  <g
     transform="matrix(0.1,0,0,-0.1,0,1000)"
     id="g163928"
     style="fill:#000000;stroke:none">
    <g
       id="g7350"
       transform="matrix(19.740425,0,0,-19.448439,-46.181039,9974.6782)">
      <g
         id="g7304">
        <g
           id="g7306">
          <g
             id="g7308">
            <circle
               id="circle7310"
               r="18.517"
               cy="198.183"
               cx="157.10899" />
            <path
               id="path7312"
               d="M 397.452,377.705 V 21.43 C 397.452,9.595 387.857,0 376.022,0 c -11.835,0 -21.43,9.595 -21.43,21.43 v 86.762 H 243.514 V 42.86 h 23.93 c 11.835,0 21.43,-9.595 21.43,-21.43 C 288.874,9.595 279.279,0 267.444,0 260.675,0 55.812,0 46.77,0 34.935,0 25.34,9.595 25.34,21.43 c 0,11.835 9.595,21.43 21.43,21.43 H 70.7 v 65.332 H 46.77 c -11.835,0 -21.43,9.595 -21.43,21.43 0,11.835 9.595,21.43 21.43,21.43 H 70.7 v 73.177 c 0,47.646 38.762,86.408 86.406,86.408 47.644,0 86.408,-38.762 86.408,-86.408 v -73.177 h 111.078 v 226.653 c -48.223,9.505 -89.208,50.847 -89.208,112.865 0,11.835 9.595,21.43 21.43,21.43 H 465.23 c 11.835,0 21.43,-9.595 21.43,-21.43 0,-60.872 -39.857,-103.137 -89.208,-112.865 z M 200.655,224.229 c 0,24.013 -19.535,43.548 -43.548,43.548 -24.013,0 -43.547,-19.535 -43.547,-43.548 v -73.177 h 87.095 z m 0,-116.037 H 113.56 V 42.86 h 87.095 z M 310.428,469.14 c 7.598,-29.12 34.126,-50.677 65.594,-50.677 31.466,0 57.995,21.556 65.592,50.677 z"
               inkscape:connector-curvature="0" />
          </g>
        </g>
      </g>
      <g
         id="g7314" />
      <g
         id="g7316" />
      <g
         id="g7318" />
      <g
         id="g7320" />
      <g
         id="g7322" />
      <g
         id="g7324" />
      <g
         id="g7326" />
      <g
         id="g7328" />
      <g
         id="g7330" />
      <g
         id="g7332" />
      <g
         id="g7334" />
      <g
         id="g7336" />
      <g
         id="g7338" />
      <g
         id="g7340" />
      <g
         id="g7342" />
    </g>
    <path
       id="path7541"
       d="m 2342.7823,456.27105 q 181.9127,-72.10941 344.159,-72.10941 924.3125,0 924.3125,754.89616 0,256.8899 -100.7895,405.6157 -66.3735,99.1506 -151.184,166.7533 -84.8106,67.6025 -165.9338,104.7839 -81.1232,37.1814 -197.8914,56.3356 -116.7682,19.154 -206.4952,23.6608 -89.7272,4.507 -232.3073,4.507 -179.4543,0 -248.286,-22.5342 0,-119.4314 -1.2293,-358.294 -1.229,-238.8626 -1.229,-356.0406 0,-18.0273 -2.4583,-152.1058 -2.4583,-134.07869 -1.2291,-217.4552 1.2291,-83.37662 11.0622,-188.16067 9.8332,-104.78416 29.4992,-149.85258 z m -34.4157,1681.05225 q 103.2476,-15.7739 267.9523,-15.7739 201.5787,0 351.5336,29.2943 149.9549,29.2946 270.4105,100.2774 120.4558,70.9828 183.1417,201.6811 62.6861,130.6985 62.6861,319.9859 0,157.7395 -71.29,276.0441 -71.29,118.3046 -194.2039,184.7806 -122.914,66.4759 -265.494,98.0238 -142.5802,31.5479 -304.8265,31.5479 -122.9138,0 -319.5761,-29.2945 0,-112.6711 9.8331,-340.2666 9.8332,-227.5956 9.8332,-342.52 0,-60.8424 -1.2293,-180.2737 -1.229,-119.4314 -1.229,-178.0204 0,-103.6574 2.4583,-155.486 z M 978.43816,134.03179 l 4.9166,211.82165 q 36.87424,9.01367 208.95354,36.05465 172.0794,27.0411 260.5776,60.84241 17.208,27.0411 30.7284,60.84241 13.5206,33.80131 20.8953,75.48962 7.3748,41.68831 13.5207,73.23618 6.1456,31.54788 7.3748,84.50329 1.229,52.95541 1.229,76.61629 v 147.59914 q 0,2212.85977 -54.0821,2309.75677 -9.833,18.0274 -54.0822,32.6747 -44.2489,14.6472 -109.3933,24.7875 -65.1443,10.1405 -121.6846,15.7741 -56.5405,5.6334 -119.2265,10.1403 -62.6861,4.5069 -74.97754,6.7602 l -9.8331,187.0341 q 240.91124,4.5068 835.81444,25.9143 594.9033,21.4076 916.9376,21.4076 56.5405,0 168.3921,-1.1268 111.8516,-1.1266 165.9337,-1.1266 172.0795,0 335.555,-29.2946 163.4754,-29.2945 315.8887,-94.6438 152.4131,-65.3492 265.4939,-159.9928 113.0809,-94.6437 181.9127,-235.4825 68.8318,-140.8388 68.8318,-309.8454 0,-117.1779 -40.5617,-215.2018 -40.5615,-98.0238 -95.8728,-162.2463 -55.3113,-64.2225 -158.5589,-129.5717 -103.2477,-65.3492 -179.4543,-101.404 -76.2067,-36.0548 -206.4953,-90.1369 378.5748,-78.8697 630.5482,-301.9584 251.9735,-223.0887 251.9735,-558.8485 0,-225.34204 -86.0398,-404.48905 -86.0397,-179.14701 -229.8489,-294.0715 -143.8093,-114.92459 -339.2423,-192.66755 -195.4331,-77.74307 -401.9285,-109.29094 -206.4953,-31.54787 -432.6568,-31.54787 -108.1643,0 -324.4927,6.76032 -216.3285,6.76012 -324.4927,6.76012 -260.5776,0 -754.6913,-24.78755 -494.1139,-24.78754 -567.86224,-27.04109 z"
       inkscape:connector-curvature="0"
       style="stroke-width:1.30712056" />
  </g>
</svg>
