<?xml version="1.0" encoding="UTF-8" standalone="no"?>
<svg
   xmlns:dc="http://purl.org/dc/elements/1.1/"
   xmlns:cc="http://creativecommons.org/ns#"
   xmlns:rdf="http://www.w3.org/1999/02/22-rdf-syntax-ns#"
   xmlns:svg="http://www.w3.org/2000/svg"
   xmlns="http://www.w3.org/2000/svg"
   xmlns:sodipodi="http://sodipodi.sourceforge.net/DTD/sodipodi-0.dtd"
   xmlns:inkscape="http://www.inkscape.org/namespaces/inkscape"
   version="1.0"
   width="1000pt"
   height="1000pt"
   viewBox="0 0 1000 1000"
   preserveAspectRatio="xMidYMid meet"
   id="svg163924"
   inkscape:version="0.92.2 5c3e80d, 2017-08-06"
   sodipodi:docname="residue-dissolved.svg">
  <defs
     id="defs163936">
    <symbol
       id="icon-filter"
       viewBox="0 0 22 28">
      <title
         id="title170427">filter</title>
      <path
         class="path1"
         d="M 21.922,4.609 C 22.078,4.984 22,5.421 21.703,5.703 L 14,13.406 14,25 c 0,0.406 -0.25,0.766 -0.609,0.922 C 13.266,25.969 13.125,26 13,26 12.734,26 12.484,25.906 12.297,25.703 l -4,-4 C 8.11,21.516 8,21.265 8,21 L 8,13.406 0.297,5.703 C 0,5.422 -0.078,4.984 0.078,4.609 0.234,4.25 0.594,4 1,4 l 20,0 c 0.406,0 0.766,0.25 0.922,0.609 z"
         id="path170429"
         inkscape:connector-curvature="0" />
    </symbol>
  </defs>
  <sodipodi:namedview
     pagecolor="#ffffff"
     bordercolor="#666666"
     borderopacity="1"
     objecttolerance="10"
     gridtolerance="10"
     guidetolerance="10"
     inkscape:pageopacity="0"
     inkscape:pageshadow="2"
     inkscape:window-width="2556"
     inkscape:window-height="1552"
     id="namedview163934"
     showgrid="false"
     inkscape:zoom="0.69157509"
     inkscape:cx="303.70523"
     inkscape:cy="573.08237"
     inkscape:window-x="0"
     inkscape:window-y="22"
     inkscape:window-maximized="0"
     inkscape:current-layer="g163928" />
  <metadata
     id="metadata163926">
Created by potrace 1.13, written by Peter Selinger 2001-2015
<rdf:RDF>
  <cc:Work
     rdf:about="">
    <dc:format>image/svg+xml</dc:format>
    <dc:type
       rdf:resource="http://purl.org/dc/dcmitype/StillImage" />
    <dc:title></dc:title>
  </cc:Work>
</rdf:RDF>
</metadata>
  <g
     transform="matrix(0.1,0,0,-0.1,0,1000)"
     id="g163928"
     style="fill:#000000;stroke:none">
    <g
       id="g7350"
       transform="matrix(19.799671,0,0,-19.506808,-121.26818,9992.5231)">
      <g
         id="g7304">
        <g
           id="g7306">
          <g
             id="g7308">
            <circle
               id="circle7310"
               r="18.517"
               cy="198.183"
               cx="157.10899" />
            <path
               id="path7312"
               d="M 397.452,377.705 V 21.43 C 397.452,9.595 387.857,0 376.022,0 c -11.835,0 -21.43,9.595 -21.43,21.43 v 86.762 H 243.514 V 42.86 h 23.93 c 11.835,0 21.43,-9.595 21.43,-21.43 C 288.874,9.595 279.279,0 267.444,0 260.675,0 55.812,0 46.77,0 34.935,0 25.34,9.595 25.34,21.43 c 0,11.835 9.595,21.43 21.43,21.43 H 70.7 v 65.332 H 46.77 c -11.835,0 -21.43,9.595 -21.43,21.43 0,11.835 9.595,21.43 21.43,21.43 H 70.7 v 73.177 c 0,47.646 38.762,86.408 86.406,86.408 47.644,0 86.408,-38.762 86.408,-86.408 v -73.177 h 111.078 v 226.653 c -48.223,9.505 -89.208,50.847 -89.208,112.865 0,11.835 9.595,21.43 21.43,21.43 H 465.23 c 11.835,0 21.43,-9.595 21.43,-21.43 0,-60.872 -39.857,-103.137 -89.208,-112.865 z M 200.655,224.229 c 0,24.013 -19.535,43.548 -43.548,43.548 -24.013,0 -43.547,-19.535 -43.547,-43.548 v -73.177 h 87.095 z m 0,-116.037 H 113.56 V 42.86 h 87.095 z M 310.428,469.14 c 7.598,-29.12 34.126,-50.677 65.594,-50.677 31.466,0 57.995,21.556 65.592,50.677 z"
               inkscape:connector-curvature="0" />
          </g>
        </g>
      </g>
      <g
         id="g7314" />
      <g
         id="g7316" />
      <g
         id="g7318" />
      <g
         id="g7320" />
      <g
         id="g7322" />
      <g
         id="g7324" />
      <g
         id="g7326" />
      <g
         id="g7328" />
      <g
         id="g7330" />
      <g
         id="g7332" />
      <g
         id="g7334" />
      <g
         id="g7336" />
      <g
         id="g7338" />
      <g
         id="g7340" />
      <g
         id="g7342" />
    </g>
    <path
       id="path7640"
       d="M 4225.5484,1112.835 V 713.89554 c 0,-121.99997 -44.53,-230.58001 -133.5898,-325.73978 C 4002.8987,292.99587 3888.2188,219.18589 3747.9189,166.72592 3607.6191,114.26596 3463.6592,74.616053 3316.0393,47.775974 3168.4194,20.936128 3025.0695,7.5160887 2885.9898,7.5160887 c -500.1996,0 -918.0493,169.5798513 -1253.549,508.7395613 -335.4996,339.1597 -503.2495,761.27925 -503.2495,1266.35875 0,495.3194 165.9199,908.8992 497.7595,1240.7388 331.8397,331.8397 745.4193,497.7597 1240.7388,497.7597 82.96,0 175.07,-5.4901 276.3299,-16.4701 101.2599,-10.98 214.7197,-32.94 340.3797,-65.8799 125.6599,-32.94 238.5098,-74.4199 338.5497,-124.44 100.0398,-50.0199 184.2198,-118.9498 252.5398,-206.7898 68.3199,-87.8399 102.4798,-186.6598 102.4798,-296.4597 v -398.9395 c 0,-39.0401 -19.5199,-58.56 -58.5598,-58.56 H 3687.529 c -39.0399,0 -58.5599,19.5199 -58.5599,58.56 v 256.1996 c 0,104.92 -79.9099,187.2699 -239.73,247.0498 -159.8196,59.78 -327.5696,89.67 -503.2493,89.67 -341.5998,0 -620.3697,-111.6298 -836.3094,-334.8897 -215.9397,-223.2598 -323.9096,-513.0094 -323.9096,-869.2493 0,-368.4395 111.6298,-672.8292 334.8896,-913.16904 223.2599,-240.3397 508.1295,-360.50961 854.6092,-360.50961 165.9199,0 334.2797,29.28 505.0796,87.83989 170.7998,58.56 256.1998,139.07989 256.1998,241.55977 V 1112.835 c 0,17.08 5.4899,31.11 16.4699,42.09 10.98,10.98 23.79,16.47 38.43,16.47 h 435.5398 c 14.64,0 28.0599,-5.49 40.2598,-16.47 12.1999,-10.98 18.2999,-25.01 18.2999,-42.09 z"
       inkscape:connector-curvature="0"
       sodipodi:nodetypes="ssssssssssssssssssssssssssssssssss"
       style="stroke-width:1.3110435" />
  </g>
</svg>
