<?xml version="1.0" encoding="UTF-8" standalone="no"?>
<svg
   xmlns:dc="http://purl.org/dc/elements/1.1/"
   xmlns:cc="http://creativecommons.org/ns#"
   xmlns:rdf="http://www.w3.org/1999/02/22-rdf-syntax-ns#"
   xmlns:svg="http://www.w3.org/2000/svg"
   xmlns="http://www.w3.org/2000/svg"
   xmlns:sodipodi="http://sodipodi.sourceforge.net/DTD/sodipodi-0.dtd"
   xmlns:inkscape="http://www.inkscape.org/namespaces/inkscape"
   version="1.0"
   width="1000pt"
   height="1000pt"
   viewBox="0 0 1000 1000"
   preserveAspectRatio="xMidYMid meet"
   id="svg163924"
   inkscape:version="0.91 r13725"
   sodipodi:docname="residue-dissolved.svg">
  <defs
     id="defs163936">
    <symbol
       id="icon-filter"
       viewBox="0 0 22 28">
      <title
         id="title170427">filter</title>
      <path
         class="path1"
         d="M 21.922,4.609 C 22.078,4.984 22,5.421 21.703,5.703 L 14,13.406 14,25 c 0,0.406 -0.25,0.766 -0.609,0.922 C 13.266,25.969 13.125,26 13,26 12.734,26 12.484,25.906 12.297,25.703 l -4,-4 C 8.11,21.516 8,21.265 8,21 L 8,13.406 0.297,5.703 C 0,5.422 -0.078,4.984 0.078,4.609 0.234,4.25 0.594,4 1,4 l 20,0 c 0.406,0 0.766,0.25 0.922,0.609 z"
         id="path170429"
         inkscape:connector-curvature="0" />
    </symbol>
  </defs>
  <sodipodi:namedview
     pagecolor="#ffffff"
     bordercolor="#666666"
     borderopacity="1"
     objecttolerance="10"
     gridtolerance="10"
     guidetolerance="10"
     inkscape:pageopacity="0"
     inkscape:pageshadow="2"
     inkscape:window-width="2556"
     inkscape:window-height="1560"
     id="namedview163934"
     showgrid="false"
     inkscape:zoom="0.97803487"
     inkscape:cx="663.72374"
     inkscape:cy="706.4984"
     inkscape:window-x="0"
     inkscape:window-y="38"
     inkscape:window-maximized="0"
     inkscape:current-layer="g163928" />
  <metadata
     id="metadata163926">
Created by potrace 1.13, written by Peter Selinger 2001-2015
<rdf:RDF>
  <cc:Work
     rdf:about="">
    <dc:format>image/svg+xml</dc:format>
    <dc:type
       rdf:resource="http://purl.org/dc/dcmitype/StillImage" />
    <dc:title></dc:title>
  </cc:Work>
</rdf:RDF>
</metadata>
  <g
     transform="matrix(0.1,0,0,-0.1,0,1000)"
     id="g163928"
     style="fill:#000000;stroke:none">
    <g
       id="g7350"
       transform="matrix(15.102222,0,0,-14.878841,1166.6767,9081.5591)">
      <g
         id="g7304">
        <g
           id="g7306">
          <g
             id="g7308">
            <circle
               id="circle7310"
               r="18.517"
               cy="198.183"
               cx="157.10899" />
            <path
               id="path7312"
               d="m 397.452,377.705 0,-356.275 C 397.452,9.595 387.857,0 376.022,0 c -11.835,0 -21.43,9.595 -21.43,21.43 l 0,86.762 -111.078,0 0,-65.332 23.93,0 c 11.835,0 21.43,-9.595 21.43,-21.43 C 288.874,9.595 279.279,0 267.444,0 260.675,0 55.812,0 46.77,0 34.935,0 25.34,9.595 25.34,21.43 c 0,11.835 9.595,21.43 21.43,21.43 l 23.93,0 0,65.332 -23.93,0 c -11.835,0 -21.43,9.595 -21.43,21.43 0,11.835 9.595,21.43 21.43,21.43 l 23.93,0 0,73.177 c 0,47.646 38.762,86.408 86.406,86.408 47.644,0 86.408,-38.762 86.408,-86.408 l 0,-73.177 111.078,0 0,226.653 c -48.223,9.505 -89.208,50.847 -89.208,112.865 0,11.835 9.595,21.43 21.43,21.43 l 178.416,0 c 11.835,0 21.43,-9.595 21.43,-21.43 0,-60.872 -39.857,-103.137 -89.208,-112.865 z M 200.655,224.229 c 0,24.013 -19.535,43.548 -43.548,43.548 -24.013,0 -43.547,-19.535 -43.547,-43.548 l 0,-73.177 87.095,0 0,73.177 z m 0,-116.037 -87.095,0 0,-65.332 87.095,0 0,65.332 z M 310.428,469.14 c 7.598,-29.12 34.126,-50.677 65.594,-50.677 31.466,0 57.995,21.556 65.592,50.677 l -131.186,0 z"
               inkscape:connector-curvature="0" />
          </g>
        </g>
      </g>
      <g
         id="g7314" />
      <g
         id="g7316" />
      <g
         id="g7318" />
      <g
         id="g7320" />
      <g
         id="g7322" />
      <g
         id="g7324" />
      <g
         id="g7326" />
      <g
         id="g7328" />
      <g
         id="g7330" />
      <g
         id="g7332" />
      <g
         id="g7334" />
      <g
         id="g7336" />
      <g
         id="g7338" />
      <g
         id="g7340" />
      <g
         id="g7342" />
    </g>
    <path
       id="path7640"
       d="m 4608.0701,2308.5667 0,-304.2916 c 0,-93.0556 -33.9653,-175.8751 -101.8958,-248.4584 -67.9305,-72.5833 -155.4028,-128.8819 -262.4167,-168.8958 -107.0139,-40.0139 -216.8194,-70.2569 -329.4167,-90.7292 -112.5972,-20.4722 -221.9375,-30.7083 -328.0208,-30.7083 -381.5278,0 -700.2431,129.3472 -956.1459,388.0417 -255.9027,258.6944 -383.8541,580.6666 -383.8541,965.9166 0,377.8055 126.5555,693.2639 379.6666,946.375 253.1111,253.1111 568.5695,379.6667 946.375,379.6667 63.2778,0 133.5348,-4.1875 210.7709,-12.5625 77.2361,-8.375 163.7777,-25.125 259.625,-50.25 95.8473,-25.125 181.9237,-56.7639 258.2292,-94.9167 76.3055,-38.1528 140.5139,-90.7292 192.625,-157.7292 52.1111,-67 78.1667,-142.375 78.1667,-226.125 l 0,-304.2916 c 0,-29.7778 -14.8889,-44.6667 -44.6667,-44.6667 l -329.4167,0 c -29.7777,0 -44.6666,14.8889 -44.6666,44.6667 l 0,195.4166 c 0,80.0278 -60.9514,142.8403 -182.8543,188.4375 -121.9027,45.5973 -249.8541,68.3959 -383.8541,68.3959 -260.5556,0 -473.1876,-85.1458 -637.8959,-255.4375 -164.7083,-170.2917 -247.0625,-391.2986 -247.0625,-663.0209 0,-281.0277 85.1458,-513.2013 255.4375,-696.5208 170.2917,-183.3194 387.5764,-274.9791 651.8542,-274.9791 126.5556,0 254.9722,22.3333 385.25,67 130.2778,44.6667 195.4167,106.0833 195.4167,184.25 l 0,195.4166 c 0,13.0278 4.1875,23.7292 12.5625,32.1042 8.375,8.375 18.1458,12.5625 29.3125,12.5625 l 332.2084,0 c 11.1667,0 21.4028,-4.1875 30.7083,-12.5625 9.3055,-8.375 13.9583,-19.0764 13.9583,-32.1042 z"
       inkscape:connector-curvature="0"
       sodipodi:nodetypes="ssssssssssssssssssssssssssssssssss" />
  </g>
</svg>
