<?xml version="1.0" encoding="UTF-8" standalone="no"?>
<svg
   xmlns:dc="http://purl.org/dc/elements/1.1/"
   xmlns:cc="http://creativecommons.org/ns#"
   xmlns:rdf="http://www.w3.org/1999/02/22-rdf-syntax-ns#"
   xmlns:svg="http://www.w3.org/2000/svg"
   xmlns="http://www.w3.org/2000/svg"
   xmlns:sodipodi="http://sodipodi.sourceforge.net/DTD/sodipodi-0.dtd"
   xmlns:inkscape="http://www.inkscape.org/namespaces/inkscape"
   version="1.0"
   width="1000pt"
   height="1000pt"
   viewBox="0 0 1000 1000"
   preserveAspectRatio="xMidYMid meet"
   id="svg163924"
   inkscape:version="0.91 r13725"
   sodipodi:docname="residue-purified.svg">
  <defs
     id="defs163936">
    <symbol
       id="icon-filter"
       viewBox="0 0 22 28">
      <title
         id="title170427">filter</title>
      <path
         class="path1"
         d="M 21.922,4.609 C 22.078,4.984 22,5.421 21.703,5.703 L 14,13.406 14,25 c 0,0.406 -0.25,0.766 -0.609,0.922 C 13.266,25.969 13.125,26 13,26 12.734,26 12.484,25.906 12.297,25.703 l -4,-4 C 8.11,21.516 8,21.265 8,21 L 8,13.406 0.297,5.703 C 0,5.422 -0.078,4.984 0.078,4.609 0.234,4.25 0.594,4 1,4 l 20,0 c 0.406,0 0.766,0.25 0.922,0.609 z"
         id="path170429"
         inkscape:connector-curvature="0" />
    </symbol>
  </defs>
  <sodipodi:namedview
     pagecolor="#ffffff"
     bordercolor="#666666"
     borderopacity="1"
     objecttolerance="10"
     gridtolerance="10"
     guidetolerance="10"
     inkscape:pageopacity="0"
     inkscape:pageshadow="2"
     inkscape:window-width="2556"
     inkscape:window-height="1560"
     id="namedview163934"
     showgrid="false"
     inkscape:zoom="0.97803487"
     inkscape:cx="663.72374"
     inkscape:cy="706.4984"
     inkscape:window-x="0"
     inkscape:window-y="38"
     inkscape:window-maximized="0"
     inkscape:current-layer="g163928" />
  <metadata
     id="metadata163926">
Created by potrace 1.13, written by Peter Selinger 2001-2015
<rdf:RDF>
  <cc:Work
     rdf:about="">
    <dc:format>image/svg+xml</dc:format>
    <dc:type
       rdf:resource="http://purl.org/dc/dcmitype/StillImage" />
    <dc:title></dc:title>
  </cc:Work>
</rdf:RDF>
</metadata>
  <g
     transform="matrix(0.1,0,0,-0.1,0,1000)"
     id="g163928"
     style="fill:#000000;stroke:none">
    <g
       id="g7350"
       transform="matrix(15.102222,0,0,-14.878841,1166.6767,9081.5591)">
      <g
         id="g7304">
        <g
           id="g7306">
          <g
             id="g7308">
            <circle
               id="circle7310"
               r="18.517"
               cy="198.183"
               cx="157.10899" />
            <path
               id="path7312"
               d="m 397.452,377.705 0,-356.275 C 397.452,9.595 387.857,0 376.022,0 c -11.835,0 -21.43,9.595 -21.43,21.43 l 0,86.762 -111.078,0 0,-65.332 23.93,0 c 11.835,0 21.43,-9.595 21.43,-21.43 C 288.874,9.595 279.279,0 267.444,0 260.675,0 55.812,0 46.77,0 34.935,0 25.34,9.595 25.34,21.43 c 0,11.835 9.595,21.43 21.43,21.43 l 23.93,0 0,65.332 -23.93,0 c -11.835,0 -21.43,9.595 -21.43,21.43 0,11.835 9.595,21.43 21.43,21.43 l 23.93,0 0,73.177 c 0,47.646 38.762,86.408 86.406,86.408 47.644,0 86.408,-38.762 86.408,-86.408 l 0,-73.177 111.078,0 0,226.653 c -48.223,9.505 -89.208,50.847 -89.208,112.865 0,11.835 9.595,21.43 21.43,21.43 l 178.416,0 c 11.835,0 21.43,-9.595 21.43,-21.43 0,-60.872 -39.857,-103.137 -89.208,-112.865 z M 200.655,224.229 c 0,24.013 -19.535,43.548 -43.548,43.548 -24.013,0 -43.547,-19.535 -43.547,-43.548 l 0,-73.177 87.095,0 0,73.177 z m 0,-116.037 -87.095,0 0,-65.332 87.095,0 0,65.332 z M 310.428,469.14 c 7.598,-29.12 34.126,-50.677 65.594,-50.677 31.466,0 57.995,21.556 65.592,50.677 l -131.186,0 z"
               inkscape:connector-curvature="0" />
          </g>
        </g>
      </g>
      <g
         id="g7314" />
      <g
         id="g7316" />
      <g
         id="g7318" />
      <g
         id="g7320" />
      <g
         id="g7322" />
      <g
         id="g7324" />
      <g
         id="g7326" />
      <g
         id="g7328" />
      <g
         id="g7330" />
      <g
         id="g7332" />
      <g
         id="g7334" />
      <g
         id="g7336" />
      <g
         id="g7338" />
      <g
         id="g7340" />
      <g
         id="g7342" />
    </g>
    <path
       id="path7462"
       d="m 2957.3134,3521.2502 -270.9336,-810.4915 q 52.593,0 217.5438,-3.6022 164.9508,-3.6022 255.7932,-3.6022 30.2808,0 90.8424,3.6022 -138.6542,455.6763 -293.2458,814.0937 z m -1155.4523,-1990.2069 3.1875,142.2863 q 36.6557,12.6077 89.2488,22.5136 52.5929,9.906 90.8424,18.9115 38.2494,9.0055 78.8895,26.1158 40.64,17.1104 70.9208,52.2317 30.2808,35.1213 49.4056,90.9551 l 377.7134,1109.4729 446.2437,1303.9907 203.997,0 q 12.7498,-25.2153 17.531,-37.8229 l 326.7141,-864.5243 q 52.593,-140.4852 168.9351,-463.7812 116.3421,-323.2961 181.6849,-494.3998 23.9059,-61.2372 92.4361,-260.2578 68.5303,-199.0207 114.7484,-303.4841 31.8746,-81.0492 55.7805,-102.6623 30.2809,-27.0163 140.248,-53.1322 109.9672,-26.1158 133.8731,-36.9223 9.5624,-68.4416 9.5624,-102.6623 0,-7.2044 -0.7969,-23.4142 -0.7969,-16.2099 -0.7969,-23.4142 -100.4047,0 -302.8081,14.4088 -202.4034,14.4086 -304.402,14.4086 -121.1232,0 -342.6513,-12.6076 -221.5281,-12.6076 -283.6835,-14.4087 0,77.447 6.3749,140.4852 l 208.7783,50.4306 q 1.5938,0 19.9216,4.5027 18.3278,4.5027 24.7027,6.3038 6.3749,1.8011 23.1092,8.105 16.7341,6.3037 23.9058,11.707 7.1718,5.4033 17.5311,14.4088 10.3592,9.0055 14.3434,19.812 3.9844,10.8066 3.9844,25.2152 0,28.8176 -49.4055,173.8055 -49.4056,144.9879 -114.7484,319.6939 -65.3428,174.7059 -66.9366,180.1092 l -717.1772,3.6022 q -41.437,-104.4634 -121.9202,-352.1136 -80.4832,-247.6501 -80.4832,-292.6775 0,-39.624 22.3122,-67.541 22.3122,-27.9168 69.3271,-44.1267 47.0149,-16.2098 77.2958,-24.3147 30.2808,-8.1049 90.8425,-15.3093 60.5616,-7.2044 65.3427,-7.2044 1.5938,-34.2207 1.5938,-104.4633 0,-16.2098 -3.1875,-48.6295 -92.4361,0 -278.1054,18.0109 -185.6692,18.0109 -278.1054,18.0109 -12.7499,0 -42.2338,-7.2043 -29.484,-7.2044 -34.2651,-7.2044 -127.4982,-25.2153 -299.6208,-25.2153 z"
       inkscape:connector-curvature="0" />
  </g>
</svg>
