<?xml version="1.0" encoding="UTF-8" standalone="no"?>
<svg
   xmlns:dc="http://purl.org/dc/elements/1.1/"
   xmlns:cc="http://creativecommons.org/ns#"
   xmlns:rdf="http://www.w3.org/1999/02/22-rdf-syntax-ns#"
   xmlns:svg="http://www.w3.org/2000/svg"
   xmlns="http://www.w3.org/2000/svg"
   xmlns:sodipodi="http://sodipodi.sourceforge.net/DTD/sodipodi-0.dtd"
   xmlns:inkscape="http://www.inkscape.org/namespaces/inkscape"
   version="1.0"
   width="1000pt"
   height="1000pt"
   viewBox="0 0 1000 1000"
   preserveAspectRatio="xMidYMid meet"
   id="svg163924"
   inkscape:version="0.91 r13725"
   sodipodi:docname="isolated.svg">
  <defs
     id="defs163936">
    <symbol
       id="icon-filter"
       viewBox="0 0 22 28">
      <title
         id="title170427">filter</title>
      <path
         class="path1"
         d="M 21.922,4.609 C 22.078,4.984 22,5.421 21.703,5.703 L 14,13.406 14,25 c 0,0.406 -0.25,0.766 -0.609,0.922 C 13.266,25.969 13.125,26 13,26 12.734,26 12.484,25.906 12.297,25.703 l -4,-4 C 8.11,21.516 8,21.265 8,21 L 8,13.406 0.297,5.703 C 0,5.422 -0.078,4.984 0.078,4.609 0.234,4.25 0.594,4 1,4 l 20,0 c 0.406,0 0.766,0.25 0.922,0.609 z"
         id="path170429"
         inkscape:connector-curvature="0" />
    </symbol>
  </defs>
  <sodipodi:namedview
     pagecolor="#ffffff"
     bordercolor="#666666"
     borderopacity="1"
     objecttolerance="10"
     gridtolerance="10"
     guidetolerance="10"
     inkscape:pageopacity="0"
     inkscape:pageshadow="2"
     inkscape:window-width="2556"
     inkscape:window-height="1560"
     id="namedview163934"
     showgrid="false"
     inkscape:zoom="0.97803487"
     inkscape:cx="663.72374"
     inkscape:cy="665.60006"
     inkscape:window-x="0"
     inkscape:window-y="38"
     inkscape:window-maximized="0"
     inkscape:current-layer="g163928" />
  <metadata
     id="metadata163926">
Created by potrace 1.13, written by Peter Selinger 2001-2015
<rdf:RDF>
  <cc:Work
     rdf:about="">
    <dc:format>image/svg+xml</dc:format>
    <dc:type
       rdf:resource="http://purl.org/dc/dcmitype/StillImage" />
    <dc:title></dc:title>
  </cc:Work>
</rdf:RDF>
</metadata>
  <g
     transform="matrix(0.1,0,0,-0.1,0,1000)"
     id="g163928"
     style="fill:#000000;stroke:none">
    <path
       id="path5991"
       d="m 4313.5965,7017.1151 c 0,-141.9643 54.0865,-263.1696 162.2596,-363.616 108.1731,-100.4465 238.7019,-150.6697 391.5866,-150.6697 152.8847,0 283.4135,50.2232 391.5866,150.6697 108.1731,100.4464 162.2596,221.6517 162.2596,363.616 0,141.9643 -54.0865,263.1697 -162.2596,363.6161 -108.1731,100.4464 -238.7019,150.6696 -391.5866,150.6696 -152.8847,0 -283.4135,-50.2232 -391.5866,-150.6696 -108.1731,-100.4464 -162.2596,-221.6518 -162.2596,-363.6161 z m 0,-1542.8571 c 0,-141.9643 54.0865,-263.1696 162.2596,-363.6161 108.1731,-100.4464 238.7019,-150.6696 391.5866,-150.6696 152.8847,0 283.4135,50.2232 391.5866,150.6696 108.1731,100.4465 162.2596,221.6518 162.2596,363.6161 0,141.9643 -54.0865,263.1697 -162.2596,363.6161 -108.1731,100.4464 -238.7019,150.6696 -391.5866,150.6696 -152.8847,0 -283.4135,-50.2232 -391.5866,-150.6696 -108.1731,-100.4464 -162.2596,-221.6518 -162.2596,-363.6161 z m 16,-1734.8571 c 0,-141.9643 54.0865,-263.1696 162.2596,-363.6161 108.1731,-100.4464 238.7019,-150.6696 391.5866,-150.6696 152.8847,0 283.4135,50.2232 391.5866,150.6696 108.1731,100.4465 162.2596,221.6518 162.2596,363.6161 0,141.9643 -54.0865,263.1696 -162.2596,363.6161 -108.1731,100.4464 -238.7019,150.6696 -391.5866,150.6696 -152.8847,0 -283.4135,-50.2232 -391.5866,-150.6696 -108.1731,-100.4465 -162.2596,-221.6518 -162.2596,-363.6161 z M 1868.058,1445.6867 l 0,43.4283 c 0,69.6428 27.4039,-129.9106 82.2116,-180.8035 54.8077,-50.8929 119.7115,-76.3393 194.7115,-76.3393 l 5538.4616,0 c 75,0 139.9038,25.4464 194.7115,76.3393 54.8077,50.8929 82.2116,250.4463 82.2116,180.8035 l 0,-43.4283 c 0,-69.6428 -27.4039,129.9106 -82.2116,180.8035 -54.8077,50.8929 -119.7115,76.3393 -194.7115,76.3393 l -5538.4616,0 c -75,0 -139.9038,-25.4464 -194.7115,-76.3393 -54.8077,-50.8929 -82.2116,-250.4463 -82.2116,-180.8035 z m -553.8461,-213.7145 0,7723.4286 c 0,139.2857 54.8077,259.8214 164.4231,361.6071 109.6153,101.7857 239.423,152.6786 389.423,152.6786 l 6092.3078,0 c 150,0 279.8077,-50.8929 389.423,-152.6786 109.6154,-101.7857 164.4231,-222.3214 164.4231,-361.6071 l 0,-7723.4286 c 0,-139.2857 -54.8077,-259.8214 -164.4231,-361.6071 -109.6153,-101.7857 -239.423,-152.6786 -389.423,-152.6786 l -6092.3078,0 c -150,0 -279.8077,50.8929 -389.423,152.6786 -109.6154,101.7857 -164.4231,222.3214 -164.4231,361.6071 z"
       inkscape:connector-curvature="0"
       sodipodi:nodetypes="sssssssssssssssssssssssssssssssssssssssssssssssssssss" />
  </g>
</svg>
