<?xml version="1.0" encoding="UTF-8" standalone="no"?>
<svg
   xmlns:dc="http://purl.org/dc/elements/1.1/"
   xmlns:cc="http://creativecommons.org/ns#"
   xmlns:rdf="http://www.w3.org/1999/02/22-rdf-syntax-ns#"
   xmlns:svg="http://www.w3.org/2000/svg"
   xmlns="http://www.w3.org/2000/svg"
   xmlns:sodipodi="http://sodipodi.sourceforge.net/DTD/sodipodi-0.dtd"
   xmlns:inkscape="http://www.inkscape.org/namespaces/inkscape"
   version="1.0"
   width="1000pt"
   height="1000pt"
   viewBox="0 0 1000 1000"
   preserveAspectRatio="xMidYMid meet"
   id="svg163924"
   inkscape:version="0.92.2 5c3e80d, 2017-08-06"
   sodipodi:docname="tlc-control.svg">
  <defs
     id="defs163936">
    <symbol
       id="icon-filter"
       viewBox="0 0 22 28">
      <title
         id="title170427">filter</title>
      <path
         class="path1"
         d="M 21.922,4.609 C 22.078,4.984 22,5.421 21.703,5.703 L 14,13.406 14,25 c 0,0.406 -0.25,0.766 -0.609,0.922 C 13.266,25.969 13.125,26 13,26 12.734,26 12.484,25.906 12.297,25.703 l -4,-4 C 8.11,21.516 8,21.265 8,21 L 8,13.406 0.297,5.703 C 0,5.422 -0.078,4.984 0.078,4.609 0.234,4.25 0.594,4 1,4 l 20,0 c 0.406,0 0.766,0.25 0.922,0.609 z"
         id="path170429"
         inkscape:connector-curvature="0" />
    </symbol>
  </defs>
  <sodipodi:namedview
     pagecolor="#ffffff"
     bordercolor="#666666"
     borderopacity="1"
     objecttolerance="10"
     gridtolerance="10"
     guidetolerance="10"
     inkscape:pageopacity="0"
     inkscape:pageshadow="2"
     inkscape:window-width="2556"
     inkscape:window-height="1552"
     id="namedview163934"
     showgrid="false"
     inkscape:zoom="0.69157509"
     inkscape:cx="218.15496"
     inkscape:cy="440.70454"
     inkscape:window-x="0"
     inkscape:window-y="22"
     inkscape:window-maximized="0"
     inkscape:current-layer="g163928" />
  <metadata
     id="metadata163926">
Created by potrace 1.13, written by Peter Selinger 2001-2015
<rdf:RDF>
  <cc:Work
     rdf:about="">
    <dc:format>image/svg+xml</dc:format>
    <dc:type
       rdf:resource="http://purl.org/dc/dcmitype/StillImage" />
    <dc:title></dc:title>
  </cc:Work>
</rdf:RDF>
</metadata>
  <g
     transform="matrix(0.1,0,0,-0.1,0,1000)"
     id="g163928"
     style="fill:#000000;stroke:none">
    <path
       id="path5991"
       d="m 4281.2302,7178.643 c 0,-161.4905 61.5257,-299.3667 184.5772,-413.6288 123.0515,-114.2621 271.5336,-171.3932 445.4465,-171.3932 173.9129,0 322.3949,57.1311 445.4464,171.3932 123.0516,114.2621 184.5773,252.1383 184.5773,413.6288 0,161.4904 -61.5257,299.3668 -184.5773,413.6288 -123.0515,114.2621 -271.5335,171.3931 -445.4464,171.3931 -173.9129,0 -322.395,-57.131 -445.4465,-171.3931 -123.0515,-114.262 -184.5772,-252.1384 -184.5772,-413.6288 z m 0,-1755.0658 c 0,-161.4905 61.5257,-299.3667 184.5772,-413.6289 123.0515,-114.2621 271.5336,-171.3931 445.4465,-171.3931 173.9129,0 322.3949,57.131 445.4464,171.3931 123.0516,114.2622 184.5773,252.1384 184.5773,413.6289 0,161.4904 -61.5257,299.3668 -184.5773,413.6288 -123.0515,114.2621 -271.5335,171.3931 -445.4464,171.3931 -173.9129,0 -322.395,-57.131 -445.4465,-171.3931 -123.0515,-114.262 -184.5772,-252.1384 -184.5772,-413.6288 z m 18.2007,-1973.4741 c 0,-161.4905 61.5257,-299.3666 184.5772,-413.6288 123.0515,-114.2622 271.5336,-171.3932 445.4465,-171.3932 173.9128,0 322.3949,57.131 445.4464,171.3932 123.0516,114.2622 184.5773,252.1383 184.5773,413.6288 0,161.4905 -61.5257,299.3666 -184.5773,413.6289 -123.0515,114.262 -271.5336,171.3931 -445.4464,171.3931 -173.9129,0 -322.395,-57.1311 -445.4465,-171.3931 -123.0515,-114.2623 -184.5772,-252.1384 -184.5772,-413.6289 z M 1499.3257,840.90526 v 49.40154 c 0,79.22164 31.1731,-147.77889 93.5192,-205.67176 62.3461,-57.89277 136.1769,-86.8392 221.4927,-86.8392 h 6300.2365 c 85.3158,0 159.1466,28.94643 221.4927,86.8392 62.3461,57.89287 93.5193,284.8934 93.5193,205.67176 v -49.40154 c 0,-79.22165 -31.1732,147.77874 -93.5193,205.67164 -62.3461,57.8929 -136.1769,86.8392 -221.4927,86.8392 H 1814.3376 c -85.3158,0 -159.1466,-28.9463 -221.4927,-86.8392 -62.3461,-57.8929 -93.5192,-284.89329 -93.5192,-205.67164 z M 869.30209,597.79584 V 9383.5258 c 0,158.4434 62.34608,295.5579 187.03831,411.3435 124.6921,115.7855 272.3539,173.6784 442.9853,173.6784 h 6930.2604 c 170.6313,0 318.2931,-57.8929 442.9852,-173.6784 124.6922,-115.7856 187.0383,-252.9001 187.0383,-411.3435 V 597.79584 c 0,-158.44339 -62.3461,-295.55792 -187.0383,-411.3435 C 8747.8792,70.666761 8600.2174,12.773913 8429.5861,12.773913 H 1499.3257 c -170.6314,0 -318.2932,57.892848 -442.9853,173.678427 -124.69223,115.78558 -187.03831,252.90011 -187.03831,411.3435 z"
       inkscape:connector-curvature="0"
       sodipodi:nodetypes="sssssssssssssssssssssssssssssssssssssssssssssssssssss"
       style="stroke-width:1.13754272" />
  </g>
</svg>
