<?xml version="1.0" standalone="no"?>
<!DOCTYPE svg PUBLIC "-//W3C//DTD SVG 20010904//EN"
 "http://www.w3.org/TR/2001/REC-SVG-20010904/DTD/svg10.dtd">
<svg version="1.0" xmlns="http://www.w3.org/2000/svg"
 width="162.000000pt" height="154.000000pt" viewBox="0 0 162.000000 154.000000"
 preserveAspectRatio="xMidYMid meet">

<g transform="translate(0.000000,154.000000) scale(0.100000,-0.100000)"
fill="#000000" stroke="none">
<path d="M124 1147 c-3 -8 -4 -149 -2 -313 l3 -299 27 -52 c45 -84 119 -129
231 -140 114 -10 228 33 283 108 49 67 55 111 52 420 l-3 284 -45 0 -45 0 -5
-300 c-4 -253 -8 -305 -21 -330 -35 -63 -95 -95 -175 -95 -81 0 -137 29 -172
88 l-27 47 -5 295 -5 295 -43 3 c-30 2 -44 -1 -48 -11z"/>
<path d="M860 1140 c0 -25 257 -759 272 -777 6 -8 33 -13 65 -13 52 0 55 1 68
33 28 67 265 750 265 764 0 11 -12 13 -47 11 l-48 -3 -111 -330 c-62 -181
-115 -339 -118 -350 -5 -14 -44 88 -124 320 -64 187 -121 346 -125 353 -5 6
-28 12 -53 12 -38 0 -44 -3 -44 -20z"/>
</g>
</svg>
