<?xml version="1.0" encoding="UTF-8" standalone="no"?>
<svg
   xmlns:dc="http://purl.org/dc/elements/1.1/"
   xmlns:cc="http://creativecommons.org/ns#"
   xmlns:rdf="http://www.w3.org/1999/02/22-rdf-syntax-ns#"
   xmlns:svg="http://www.w3.org/2000/svg"
   xmlns="http://www.w3.org/2000/svg"
   xmlns:sodipodi="http://sodipodi.sourceforge.net/DTD/sodipodi-0.dtd"
   xmlns:inkscape="http://www.inkscape.org/namespaces/inkscape"
   version="1.0"
   width="1000pt"
   height="1000pt"
   viewBox="0 0 1000 1000"
   preserveAspectRatio="xMidYMid meet"
   id="svg163924"
   inkscape:version="0.92.2 5c3e80d, 2017-08-06"
   sodipodi:docname="washed-nahco3.svg">
  <defs
     id="defs163936">
    <symbol
       id="icon-filter"
       viewBox="0 0 22 28">
      <title
         id="title170427">filter</title>
      <path
         class="path1"
         d="M 21.922,4.609 C 22.078,4.984 22,5.421 21.703,5.703 L 14,13.406 14,25 c 0,0.406 -0.25,0.766 -0.609,0.922 C 13.266,25.969 13.125,26 13,26 12.734,26 12.484,25.906 12.297,25.703 l -4,-4 C 8.11,21.516 8,21.265 8,21 L 8,13.406 0.297,5.703 C 0,5.422 -0.078,4.984 0.078,4.609 0.234,4.25 0.594,4 1,4 l 20,0 c 0.406,0 0.766,0.25 0.922,0.609 z"
         id="path170429"
         inkscape:connector-curvature="0" />
    </symbol>
  </defs>
  <sodipodi:namedview
     pagecolor="#ffffff"
     bordercolor="#666666"
     borderopacity="1"
     objecttolerance="10"
     gridtolerance="10"
     guidetolerance="10"
     inkscape:pageopacity="0"
     inkscape:pageshadow="2"
     inkscape:window-width="2556"
     inkscape:window-height="1552"
     id="namedview163934"
     showgrid="false"
     inkscape:zoom="0.69157509"
     inkscape:cx="372.2209"
     inkscape:cy="628.9865"
     inkscape:window-x="0"
     inkscape:window-y="22"
     inkscape:window-maximized="0"
     inkscape:current-layer="g163928" />
  <metadata
     id="metadata163926">
Created by potrace 1.13, written by Peter Selinger 2001-2015
<rdf:RDF>
  <cc:Work
     rdf:about="">
    <dc:format>image/svg+xml</dc:format>
    <dc:type
       rdf:resource="http://purl.org/dc/dcmitype/StillImage" />
    <dc:title />
  </cc:Work>
</rdf:RDF>
</metadata>
  <g
     transform="matrix(0.1,0,0,-0.1,0,1000)"
     id="g163928"
     style="fill:#000000;stroke:none">
    <path
       id="path7111"
       d="M 2148.1227,4007.5405 1775.3058,2938.4329 q 72.3702,0 299.35,-4.7514 226.9798,-4.7517 351.9832,-4.7517 41.6676,0 125.0032,4.7517 -190.7945,601.076 -403.5195,1073.859 z M 558.16793,1382.2876 l 4.386,187.6877 q 50.43996,16.6305 122.81027,29.6974 72.37052,13.0669 125.00343,24.9459 52.63301,11.8789 108.55556,34.4489 55.92251,22.5702 97.59031,68.8982 41.6678,46.328 67.9843,119.9776 L 1604.2486,3311.4328 2218.3,5031.508 h 280.7093 q 17.5442,-33.2611 24.1234,-49.8917 l 449.5734,-1140.3814 q 72.3703,-185.3119 232.4624,-611.767 160.092,-426.4552 250.0067,-652.1557 32.8956,-80.777 127.1964,-343.3023 94.3007,-262.5254 157.8989,-400.3214 43.8609,-106.9108 76.7565,-135.4203 41.6678,-35.6369 192.9877,-70.0859 151.3197,-34.4491 184.2155,-48.7038 13.1581,-90.2802 13.1581,-135.4203 0,-9.5032 -1.0965,-30.8854 -1.0966,-21.3821 -1.0966,-30.8852 -138.1615,0 -416.6778,19.0062 -278.5162,19.0064 -418.8708,19.0064 -166.6711,0 -471.5038,-16.6305 -304.8327,-16.6306 -390.3614,-19.0064 0,102.1592 8.7721,185.312 l 287.2885,66.5222 q 2.1931,0 27.413,5.9395 25.2199,5.9395 33.992,8.3153 8.7723,2.3758 31.7992,10.6911 23.027,8.3153 32.8956,15.4426 9.8687,7.1274 24.1234,19.0064 14.2548,11.8789 19.7374,26.1337 5.4826,14.2547 5.4826,33.2611 0,38.0128 -67.9843,229.2643 -67.9841,191.2514 -157.8988,421.7034 -89.9147,230.4522 -92.1077,237.5796 l -986.8686,4.7516 q -57.019,-137.7961 -167.7675,-464.4678 -110.7486,-326.6719 -110.7486,-386.0667 0,-52.2675 30.7024,-89.0923 30.7027,-36.8249 95.3975,-58.207 64.6946,-21.3822 106.3624,-32.0733 41.6678,-10.691 125.0034,-20.1942 83.3355,-9.5031 89.9145,-9.5031 2.1931,-45.1401 2.1931,-137.7961 0,-21.3822 -4.3861,-64.1465 -127.1963,0 -382.6855,23.758 -255.4894,23.7579 -382.6858,23.7579 -17.5443,0 -58.1155,-9.5031 -40.5713,-9.5033 -47.1505,-9.5033 -175.44326,-33.261 -412.29167,-33.261 z"
       inkscape:connector-curvature="0"
       style="stroke-width:1.14038134" />
    <g
       style="fill:#000000;stroke:none"
       id="g4402"
       transform="matrix(34.093625,0,0,-21.180833,-1993.0423,9970.8075)">
      <g
         id="g4360">
        <path
           id="path4362"
           d="m 315,330 h -2.5 v -22.5 c 0,-4.142 -3.358,-7.5 -7.5,-7.5 -4.142,0 -7.5,3.358 -7.5,7.5 V 330 h -15 v -12.5 c 0,-4.142 -3.358,-7.5 -7.5,-7.5 h -12.93 c 29.253,-45.965 70.43,-116.981 70.43,-152.5 0,-39.456 -23.899,-74.976 -60,-90.019 V 15 h 2.5 c 4.142,0 7.5,-3.358 7.5,-7.5 C 282.5,3.358 279.142,0 275,0 h -80 c -4.142,0 -7.5,3.358 -7.5,7.5 0,4.142 3.358,7.5 7.5,7.5 h 2.5 v 52.481 c -36.101,15.043 -60,50.563 -60,90.019 0,35.519 41.177,106.535 70.43,152.5 H 195 c -4.142,0 -7.5,3.358 -7.5,7.5 V 330 H 175 c -4.142,0 -7.5,3.358 -7.5,7.5 0,4.142 3.358,7.5 7.5,7.5 h 12.5 v 12.5 c 0,4.142 3.358,7.5 7.5,7.5 h 17.5 v 67.5 c 0,1.989 0.79,3.897 2.197,5.303 l 30,30 c 1.435,1.435 3.353,2.197 5.305,2.197 0.966,0 1.941,-0.187 2.869,-0.571 2.803,-1.161 4.63,-3.896 4.63,-6.929 V 365 H 275 c 4.142,0 7.5,-3.358 7.5,-7.5 V 345 h 15 v 22.5 c 0,4.142 3.358,7.5 7.5,7.5 4.142,0 7.5,-3.358 7.5,-7.5 V 345 h 2.5 c 4.142,0 7.5,-3.358 7.5,-7.5 0,-4.142 -3.358,-7.5 -7.5,-7.5 z M 152.5,157.5 c 0,-34.906 22.103,-66.171 55,-77.8 2.997,-1.06 5,-3.893 5,-7.071 V 15 h 45 v 57.628 c 0,3.179 2.003,6.012 5,7.071 32.897,11.629 55,42.895 55,77.8 0,25.018 -26.672,80.494 -73.258,152.5 H 225.757 C 179.172,237.994 152.5,182.518 152.5,157.5 Z m 90,286.894 -15,-15 V 365 h 15 z M 267.5,350 h -65 v -25 h 19.168 c 0.03,0 26.635,0 26.635,0 0.03,0 19.197,0 19.197,0 z"
           inkscape:connector-curvature="0" />
        <path
           id="path4364"
           d="m 265.438,225.54 c 1.951,-3.654 0.571,-8.198 -3.083,-10.148 -3.654,-1.952 -8.198,-0.572 -10.148,3.083 -5.137,9.62 -10.904,19.848 -17.207,30.519 -7.092,-12.002 -13.469,-23.374 -19.017,-33.92 -13.783,-26.198 -19.486,-41.823 -21.839,-50.073 h 81.72 c -1.557,5.47 -4.585,14.178 -10.466,27.042 -1.722,3.767 -0.064,8.217 3.703,9.939 3.765,1.72 8.216,0.063 9.939,-3.703 12.812,-28.026 13.46,-38.886 13.46,-40.778 0,-4.142 -3.358,-7.5 -7.5,-7.5 H 185 c -4.142,0 -7.5,3.358 -7.5,7.5 0,2.779 1.215,18.955 25.208,64.558 7.316,13.905 16.024,29.187 25.882,45.421 1.36,2.24 3.791,3.607 6.411,3.607 2.62,0 5.051,-1.368 6.411,-3.607 8.982,-14.794 17.066,-28.904 24.026,-41.94 z"
           inkscape:connector-curvature="0" />
      </g>
      <g
         id="g4366" />
      <g
         id="g4368" />
      <g
         id="g4370" />
      <g
         id="g4372" />
      <g
         id="g4374" />
      <g
         id="g4376" />
      <g
         id="g4378" />
      <g
         id="g4380" />
      <g
         id="g4382" />
      <g
         id="g4384" />
      <g
         id="g4386" />
      <g
         id="g4388" />
      <g
         id="g4390" />
      <g
         id="g4392" />
      <g
         id="g4394" />
    </g>
  </g>
</svg>
