<?xml version="1.0" encoding="UTF-8" standalone="no"?>
<svg
   xmlns:dc="http://purl.org/dc/elements/1.1/"
   xmlns:cc="http://creativecommons.org/ns#"
   xmlns:rdf="http://www.w3.org/1999/02/22-rdf-syntax-ns#"
   xmlns:svg="http://www.w3.org/2000/svg"
   xmlns="http://www.w3.org/2000/svg"
   xmlns:sodipodi="http://sodipodi.sourceforge.net/DTD/sodipodi-0.dtd"
   xmlns:inkscape="http://www.inkscape.org/namespaces/inkscape"
   version="1.0"
   width="1000pt"
   height="1000pt"
   viewBox="0 0 1000 1000"
   preserveAspectRatio="xMidYMid meet"
   id="svg163924"
   inkscape:version="0.91 r13725"
   sodipodi:docname="washed-nahco3.svg">
  <defs
     id="defs163936">
    <symbol
       id="icon-filter"
       viewBox="0 0 22 28">
      <title
         id="title170427">filter</title>
      <path
         class="path1"
         d="M 21.922,4.609 C 22.078,4.984 22,5.421 21.703,5.703 L 14,13.406 14,25 c 0,0.406 -0.25,0.766 -0.609,0.922 C 13.266,25.969 13.125,26 13,26 12.734,26 12.484,25.906 12.297,25.703 l -4,-4 C 8.11,21.516 8,21.265 8,21 L 8,13.406 0.297,5.703 C 0,5.422 -0.078,4.984 0.078,4.609 0.234,4.25 0.594,4 1,4 l 20,0 c 0.406,0 0.766,0.25 0.922,0.609 z"
         id="path170429"
         inkscape:connector-curvature="0" />
    </symbol>
  </defs>
  <sodipodi:namedview
     pagecolor="#ffffff"
     bordercolor="#666666"
     borderopacity="1"
     objecttolerance="10"
     gridtolerance="10"
     guidetolerance="10"
     inkscape:pageopacity="0"
     inkscape:pageshadow="2"
     inkscape:window-width="1276"
     inkscape:window-height="1560"
     id="namedview163934"
     showgrid="false"
     inkscape:zoom="0.69157509"
     inkscape:cx="638.28022"
     inkscape:cy="628.9865"
     inkscape:window-x="1280"
     inkscape:window-y="38"
     inkscape:window-maximized="0"
     inkscape:current-layer="g163928" />
  <metadata
     id="metadata163926">
Created by potrace 1.13, written by Peter Selinger 2001-2015
<rdf:RDF>
  <cc:Work
     rdf:about="">
    <dc:format>image/svg+xml</dc:format>
    <dc:type
       rdf:resource="http://purl.org/dc/dcmitype/StillImage" />
    <dc:title />
  </cc:Work>
</rdf:RDF>
</metadata>
  <g
     transform="matrix(0.1,0,0,-0.1,0,1000)"
     id="g163928"
     style="fill:#000000;stroke:none">
    <path
       id="path7111"
       d="m 2577.0376,4156.0014 -326.923,-937.5 q 63.4614,0 262.4999,-4.1666 199.0385,-4.1667 308.6539,-4.1667 36.5384,0 109.6153,4.1667 -167.3077,527.0833 -353.8461,941.6666 z m -1394.2307,-2302.0833 3.8461,164.5833 q 44.2308,14.5833 107.6923,26.0417 63.4616,11.4583 109.6154,21.875 46.1539,10.4166 95.1923,30.2083 49.0385,19.7917 85.5769,60.4167 36.5385,40.625 59.6154,105.2083 l 455.7693,1283.3334 538.4614,1508.3333 246.1539,0 q 15.3846,-29.1667 21.1538,-43.75 l 394.2308,-1000 q 63.4615,-162.5 203.8462,-536.4583 140.3846,-373.9584 219.2307,-571.8751 28.8462,-70.8333 111.5385,-301.0416 82.6923,-230.2084 138.4615,-351.0417 38.4616,-93.75 67.3077,-118.75 36.5385,-31.25 169.2308,-61.4583 132.6923,-30.2084 161.5385,-42.7084 11.5384,-79.1666 11.5384,-118.7499 0,-8.3334 -0.9615,-27.0834 -0.9616,-18.75 -0.9616,-27.0833 -121.1538,0 -365.3846,16.6666 -244.2308,16.6667 -367.3077,16.6667 -146.1538,0 -413.4615,-14.5833 -267.3077,-14.5834 -342.3077,-16.6667 0,89.5834 7.6923,162.5 l 251.9231,58.3333 q 1.9231,0 24.0384,5.2084 22.1154,5.2083 29.8077,7.2916 7.6923,2.0834 27.8846,9.375 20.1924,7.2917 28.8462,13.5417 8.6538,6.25 21.1538,16.6667 12.5,10.4166 17.3077,22.9166 4.8077,12.5 4.8077,29.1667 0,33.3333 -59.6154,201.0417 -59.6153,167.7083 -138.4615,369.7916 -78.8461,202.0834 -80.7692,208.3334 l -865.3846,4.1667 q -50,-120.8334 -147.1153,-407.2917 -97.1154,-286.4584 -97.1154,-338.5417 0,-45.8333 26.923,-78.125 26.9231,-32.2917 83.6539,-51.0417 56.7308,-18.75 93.2692,-28.125 36.5385,-9.375 109.6154,-17.7083 73.0769,-8.3333 78.8461,-8.3333 1.9231,-39.5834 1.9231,-120.8333 0,-18.7501 -3.8462,-56.2501 -111.5384,0 -335.5768,20.8334 -224.0385,20.8333 -335.577,20.8333 -15.3846,0 -50.9615,-8.3333 -35.5769,-8.3334 -41.3462,-8.3334 -153.8461,-29.1666 -361.5384,-29.1666 z"
       inkscape:connector-curvature="0" />
    <g
       style="fill:#000000;stroke:none"
       id="g4402"
       transform="matrix(29.896686,0,0,-18.573464,-1054.3483,9385.1878)">
      <g
         id="g4360">
        <path
           id="path4362"
           d="m 315,330 -2.5,0 0,-22.5 c 0,-4.142 -3.358,-7.5 -7.5,-7.5 -4.142,0 -7.5,3.358 -7.5,7.5 l 0,22.5 -15,0 0,-12.5 c 0,-4.142 -3.358,-7.5 -7.5,-7.5 l -12.93,0 c 29.253,-45.965 70.43,-116.981 70.43,-152.5 0,-39.456 -23.899,-74.976 -60,-90.019 l 0,-52.481 2.5,0 c 4.142,0 7.5,-3.358 7.5,-7.5 C 282.5,3.358 279.142,0 275,0 l -80,0 c -4.142,0 -7.5,3.358 -7.5,7.5 0,4.142 3.358,7.5 7.5,7.5 l 2.5,0 0,52.481 c -36.101,15.043 -60,50.563 -60,90.019 0,35.519 41.177,106.535 70.43,152.5 L 195,310 c -4.142,0 -7.5,3.358 -7.5,7.5 l 0,12.5 -12.5,0 c -4.142,0 -7.5,3.358 -7.5,7.5 0,4.142 3.358,7.5 7.5,7.5 l 12.5,0 0,12.5 c 0,4.142 3.358,7.5 7.5,7.5 l 17.5,0 0,67.5 c 0,1.989 0.79,3.897 2.197,5.303 l 30,30 c 1.435,1.435 3.353,2.197 5.305,2.197 0.966,0 1.941,-0.187 2.869,-0.571 2.803,-1.161 4.63,-3.896 4.63,-6.929 l 0,-97.5 17.499,0 c 4.142,0 7.5,-3.358 7.5,-7.5 l 0,-12.5 15,0 0,22.5 c 0,4.142 3.358,7.5 7.5,7.5 4.142,0 7.5,-3.358 7.5,-7.5 l 0,-22.5 2.5,0 c 4.142,0 7.5,-3.358 7.5,-7.5 0,-4.142 -3.358,-7.5 -7.5,-7.5 z M 152.5,157.5 c 0,-34.906 22.103,-66.171 55,-77.8 2.997,-1.06 5,-3.893 5,-7.071 l 0,-57.629 45,0 0,57.628 c 0,3.179 2.003,6.012 5,7.071 32.897,11.629 55,42.895 55,77.8 0,25.018 -26.672,80.494 -73.258,152.5 l -18.485,0 C 179.172,237.994 152.5,182.518 152.5,157.5 Z m 90,286.894 -15,-15 0,-64.394 15,0 0,79.394 z m 25,-94.394 -65,0 0,-25 19.168,0 c 0.03,0 26.635,0 26.635,0 0.03,0 19.197,0 19.197,0 l 0,25 z"
           inkscape:connector-curvature="0" />
        <path
           id="path4364"
           d="m 265.438,225.54 c 1.951,-3.654 0.571,-8.198 -3.083,-10.148 -3.654,-1.952 -8.198,-0.572 -10.148,3.083 -5.137,9.62 -10.904,19.848 -17.207,30.519 -7.092,-12.002 -13.469,-23.374 -19.017,-33.92 -13.783,-26.198 -19.486,-41.823 -21.839,-50.073 l 81.72,0 c -1.557,5.47 -4.585,14.178 -10.466,27.042 -1.722,3.767 -0.064,8.217 3.703,9.939 3.765,1.72 8.216,0.063 9.939,-3.703 12.812,-28.026 13.46,-38.886 13.46,-40.778 0,-4.142 -3.358,-7.5 -7.5,-7.5 l -100,0 c -4.142,0 -7.5,3.358 -7.5,7.5 0,2.779 1.215,18.955 25.208,64.558 7.316,13.905 16.024,29.187 25.882,45.421 1.36,2.24 3.791,3.607 6.411,3.607 2.62,0 5.051,-1.368 6.411,-3.607 8.982,-14.794 17.066,-28.904 24.026,-41.94 z"
           inkscape:connector-curvature="0" />
      </g>
      <g
         id="g4366" />
      <g
         id="g4368" />
      <g
         id="g4370" />
      <g
         id="g4372" />
      <g
         id="g4374" />
      <g
         id="g4376" />
      <g
         id="g4378" />
      <g
         id="g4380" />
      <g
         id="g4382" />
      <g
         id="g4384" />
      <g
         id="g4386" />
      <g
         id="g4388" />
      <g
         id="g4390" />
      <g
         id="g4392" />
      <g
         id="g4394" />
    </g>
  </g>
</svg>
