<?xml version="1.0" encoding="UTF-8" standalone="no"?>
<svg
   xmlns:dc="http://purl.org/dc/elements/1.1/"
   xmlns:cc="http://creativecommons.org/ns#"
   xmlns:rdf="http://www.w3.org/1999/02/22-rdf-syntax-ns#"
   xmlns:svg="http://www.w3.org/2000/svg"
   xmlns="http://www.w3.org/2000/svg"
   xmlns:sodipodi="http://sodipodi.sourceforge.net/DTD/sodipodi-0.dtd"
   xmlns:inkscape="http://www.inkscape.org/namespaces/inkscape"
   version="1.0"
   width="1000pt"
   height="1000pt"
   viewBox="0 0 1000 1000"
   preserveAspectRatio="xMidYMid meet"
   id="svg163924"
   inkscape:version="0.91 r13725"
   sodipodi:docname="washed-nahco3.svg">
  <defs
     id="defs163936">
    <symbol
       id="icon-filter"
       viewBox="0 0 22 28">
      <title
         id="title170427">filter</title>
      <path
         class="path1"
         d="M 21.922,4.609 C 22.078,4.984 22,5.421 21.703,5.703 L 14,13.406 14,25 c 0,0.406 -0.25,0.766 -0.609,0.922 C 13.266,25.969 13.125,26 13,26 12.734,26 12.484,25.906 12.297,25.703 l -4,-4 C 8.11,21.516 8,21.265 8,21 L 8,13.406 0.297,5.703 C 0,5.422 -0.078,4.984 0.078,4.609 0.234,4.25 0.594,4 1,4 l 20,0 c 0.406,0 0.766,0.25 0.922,0.609 z"
         id="path170429"
         inkscape:connector-curvature="0" />
    </symbol>
  </defs>
  <sodipodi:namedview
     pagecolor="#ffffff"
     bordercolor="#666666"
     borderopacity="1"
     objecttolerance="10"
     gridtolerance="10"
     guidetolerance="10"
     inkscape:pageopacity="0"
     inkscape:pageshadow="2"
     inkscape:window-width="2556"
     inkscape:window-height="1560"
     id="namedview163934"
     showgrid="false"
     inkscape:zoom="0.97803487"
     inkscape:cx="663.72374"
     inkscape:cy="706.4984"
     inkscape:window-x="0"
     inkscape:window-y="38"
     inkscape:window-maximized="0"
     inkscape:current-layer="g163928" />
  <metadata
     id="metadata163926">
Created by potrace 1.13, written by Peter Selinger 2001-2015
<rdf:RDF>
  <cc:Work
     rdf:about="">
    <dc:format>image/svg+xml</dc:format>
    <dc:type
       rdf:resource="http://purl.org/dc/dcmitype/StillImage" />
    <dc:title></dc:title>
  </cc:Work>
</rdf:RDF>
</metadata>
  <g
     transform="matrix(0.1,0,0,-0.1,0,1000)"
     id="g163928"
     style="fill:#000000;stroke:none">
    <g
       id="g6960"
       transform="matrix(16.583928,0,0,-14.078149,2061.3859,8601.8352)">
      <g
         id="g6914">
        <g
           id="g6916">
          <g
             id="g6918">
            <path
               id="path6920"
               d="m 389.095,405.75 c -35.49,-10.172 -65.587,-3.738 -82.193,17.783 -21.257,27.307 -43.529,37.376 -66.031,37.376 -24.482,0.009 -49.246,-11.93 -73.284,-26.564 -19.55,-10.069 -36.523,-15.778 -48.572,-16.213 l -7.817,0 c 2.014,34.031 15.804,66.167 39.637,91.221 1.613,1.69 3.849,2.645 6.187,2.645 l 197.683,0 c 2.338,0 4.565,-0.956 6.178,-2.645 25.796,-27.11 40.004,-62.49 40.038,-99.618 l -11.826,-3.985 z"
               inkscape:connector-curvature="0" />
            <path
               id="path6922"
               d="m 175.938,419.473 c 47.326,28.791 83.217,37.615 117.47,-6.4 21.103,-27.315 57.83,-35.925 100.762,-23.612 l 5.581,1.877 C 394.256,348.552 369.688,309.845 332.662,286.66 l 0,-219.605 c 14.677,-3.814 25.6,-17.067 25.6,-32.922 C 358.261,15.309 342.953,0 324.128,0 L 187.595,0 c -18.825,0 -34.133,15.309 -34.133,34.133 0,15.855 10.923,29.107 25.6,32.922 l 0,219.605 c -39.817,24.926 -65.203,67.814 -67.985,114.406 l 8.252,0 c 15.06,0.547 34.004,6.742 56.609,18.407 z m 71.39,-197.606 -25.6,0 c -4.71,0 -8.533,-3.823 -8.533,-8.533 0,-4.71 3.823,-8.533 8.533,-8.533 l 25.6,0 c 4.71,0 8.533,3.823 8.533,8.533 0,4.71 -3.823,8.533 -8.533,8.533 z m 25.6,-34.134 -51.2,0 c -4.71,0 -8.533,-3.823 -8.533,-8.533 0,-4.71 3.823,-8.533 8.533,-8.533 l 51.2,0 c 4.71,0 8.533,3.823 8.533,8.533 0,4.71 -3.823,8.533 -8.533,8.533 z m -59.733,-42.666 c 0,-4.71 3.823,-8.533 8.533,-8.533 l 25.6,0 c 4.71,0 8.533,3.823 8.533,8.533 0,4.71 -3.823,8.533 -8.533,8.533 l -25.6,0 c -4.71,0 -8.533,-3.823 -8.533,-8.533 z m 59.733,-25.6 -51.2,0 c -4.71,0 -8.533,-3.823 -8.533,-8.533 0,-4.71 3.823,-8.533 8.533,-8.533 l 51.2,0 c 4.71,0 8.533,3.823 8.533,8.533 0,4.71 -3.823,8.533 -8.533,8.533 z m -102.4,-85.334 c 0,-9.412 7.654,-17.067 17.067,-17.067 l 136.533,0 c 9.412,0 17.067,7.654 17.067,17.067 0,9.412 -7.654,17.067 -17.067,17.067 l -136.533,0 c -9.413,0 -17.067,-7.654 -17.067,-17.067 z"
               inkscape:connector-curvature="0" />
          </g>
        </g>
      </g>
      <g
         id="g6924" />
      <g
         id="g6926" />
      <g
         id="g6928" />
      <g
         id="g6930" />
      <g
         id="g6932" />
      <g
         id="g6934" />
      <g
         id="g6936" />
      <g
         id="g6938" />
      <g
         id="g6940" />
      <g
         id="g6942" />
      <g
         id="g6944" />
      <g
         id="g6946" />
      <g
         id="g6948" />
      <g
         id="g6950" />
      <g
         id="g6952" />
    </g>
    <path
       id="path7111"
       d="m 2655.7895,7215.197 -326.923,-937.5 q 63.4614,0 262.4999,-4.1666 199.0385,-4.1667 308.6539,-4.1667 36.5384,0 109.6153,4.1667 -167.3077,527.0833 -353.8461,941.6666 z m -1394.2307,-2302.0833 3.8461,164.5833 q 44.2308,14.5833 107.6923,26.0417 63.4616,11.4583 109.6154,21.875 46.1539,10.4166 95.1923,30.2083 49.0385,19.7917 85.5769,60.4167 36.5385,40.625 59.6154,105.2083 l 455.7693,1283.3334 538.4614,1508.3333 246.1539,0 q 15.3846,-29.1667 21.1538,-43.75 l 394.2308,-1000 q 63.4615,-162.5 203.8462,-536.4583 140.3846,-373.9584 219.2307,-571.8751 28.8462,-70.8333 111.5385,-301.0416 82.6923,-230.2084 138.4615,-351.0417 38.4616,-93.75 67.3077,-118.75 36.5385,-31.25 169.2308,-61.4583 132.6923,-30.2084 161.5385,-42.7084 11.5384,-79.1666 11.5384,-118.7499 0,-8.3334 -0.9615,-27.0834 -0.9616,-18.75 -0.9616,-27.0833 -121.1538,0 -365.3846,16.6666 -244.2308,16.6667 -367.3077,16.6667 -146.1538,0 -413.4615,-14.5833 -267.3077,-14.5834 -342.3077,-16.6667 0,89.5834 7.6923,162.5 l 251.9231,58.3333 q 1.9231,0 24.0384,5.2084 22.1154,5.2083 29.8077,7.2916 7.6923,2.0834 27.8846,9.375 20.1924,7.2917 28.8462,13.5417 8.6538,6.25 21.1538,16.6667 12.5,10.4166 17.3077,22.9166 4.8077,12.5 4.8077,29.1667 0,33.3333 -59.6154,201.0417 -59.6153,167.7083 -138.4615,369.7916 -78.8461,202.0834 -80.7692,208.3334 l -865.3846,4.1667 q -50,-120.8334 -147.1153,-407.2917 -97.1154,-286.4584 -97.1154,-338.5417 0,-45.8333 26.923,-78.125 26.9231,-32.2917 83.6539,-51.0417 56.7308,-18.75 93.2692,-28.125 36.5385,-9.375 109.6154,-17.7083 73.0769,-8.3333 78.8461,-8.3333 1.9231,-39.5834 1.9231,-120.8333 0,-18.7501 -3.8462,-56.2501 -111.5384,0 -335.5768,20.8334 -224.0385,20.8333 -335.577,20.8333 -15.3846,0 -50.9615,-8.3333 -35.5769,-8.3334 -41.3462,-8.3334 -153.8461,-29.1666 -361.5384,-29.1666 z"
       inkscape:connector-curvature="0" />
  </g>
</svg>
