<?xml version="1.0" standalone="no"?>
<!DOCTYPE svg PUBLIC "-//W3C//DTD SVG 20010904//EN"
 "http://www.w3.org/TR/2001/REC-SVG-20010904/DTD/svg10.dtd">
<svg version="1.0" xmlns="http://www.w3.org/2000/svg"
 width="512.000000pt" height="512.000000pt" viewBox="0 0 512.000000 512.000000"
 preserveAspectRatio="xMidYMid meet">
<metadata>
Created by potrace 1.13, written by Peter Selinger 2001-2015
</metadata>
<g transform="translate(0.000000,512.000000) scale(0.100000,-0.100000)"
fill="#000000" stroke="none">
<path d="M2315 5109 c-597 -61 -1142 -319 -1564 -740 -406 -406 -648 -901
-733 -1494 -17 -118 -17 -512 0 -630 85 -593 328 -1088 733 -1494 406 -405
902 -649 1494 -733 118 -17 512 -17 630 0 490 70 928 256 1290 549 515 416
840 999 937 1678 17 118 17 512 0 630 -84 592 -328 1088 -733 1494 -396 396
-880 638 -1449 726 -125 19 -477 28 -605 14z m544 -474 c223 -31 470 -110 666
-214 92 -48 275 -162 275 -171 0 -3 -161 -166 -359 -364 l-358 -358 122 -182
c67 -99 148 -226 180 -281 32 -55 60 -102 62 -105 2 -2 188 180 413 405 388
388 410 408 424 390 45 -61 143 -235 185 -330 130 -294 184 -545 184 -865 0
-319 -54 -571 -183 -863 -202 -454 -594 -845 -1050 -1048 -629 -280 -1348
-239 -1930 109 -58 35 -114 70 -125 78 -18 14 -7 27 228 262 l248 248 -56 48
c-130 112 -252 300 -319 490 -6 17 -55 -28 -301 -274 -162 -162 -296 -292
-298 -290 -3 3 -30 44 -61 92 -418 644 -456 1451 -100 2126 100 190 213 343
373 503 365 365 813 569 1346 613 89 7 317 -3 434 -19z"/>
<path d="M2443 3863 c-505 -633 -834 -1187 -893 -1507 -8 -45 -11 -109 -7
-185 19 -382 268 -729 629 -876 248 -101 532 -99 785 6 159 67 349 225 446
372 152 230 207 515 143 752 -84 318 -415 860 -873 1433 -63 78 -116 142 -117
142 -2 0 -53 -62 -113 -137z m-503 -1152 c-48 -186 -52 -430 -11 -586 26 -98
87 -228 145 -309 58 -80 175 -193 255 -245 l64 -41 -40 0 c-61 0 -183 35 -262
74 -89 45 -194 143 -244 227 -122 206 -121 522 3 786 35 75 99 177 106 170 2
-1 -5 -36 -16 -76z"/>
</g>
</svg>
