<?xml version="1.0" encoding="UTF-8" standalone="no"?>
<svg
   xmlns:dc="http://purl.org/dc/elements/1.1/"
   xmlns:cc="http://creativecommons.org/ns#"
   xmlns:rdf="http://www.w3.org/1999/02/22-rdf-syntax-ns#"
   xmlns:svg="http://www.w3.org/2000/svg"
   xmlns="http://www.w3.org/2000/svg"
   version="1.1"
   id="svg2"
   viewBox="0 0 36.297538 70.317066"
   height="19.845039mm"
   width="10.243972mm">
  <defs
     id="defs4" />
  <metadata
     id="metadata7">
    <rdf:RDF>
      <cc:Work
         rdf:about="">
        <dc:format>image/svg+xml</dc:format>
        <dc:type
           rdf:resource="http://purl.org/dc/dcmitype/StillImage" />
        <dc:title></dc:title>
      </cc:Work>
    </rdf:RDF>
  </metadata>
  <g
     transform="translate(-30.635411,-944.94604)"
     id="layer1">
    <path
       id="path4382"
       transform="translate(0,921.25984)"
       d="m 36.492188,25.103516 c -2.312363,0 -4.439454,1.907927 -4.439454,4.373046 l 0,3.648438 c 0,2.46513 2.127093,4.373047 4.439454,4.373047 l 2.351562,0 c -3.48323,0.561742 -6.152344,3.580973 -6.152344,7.220703 l 0,40.546875 c 0,4.038 3.282346,7.320313 7.320313,7.320313 l 17.544922,0 c 4.037966,0 7.320312,-3.282313 7.320312,-7.320313 l 0,-40.546875 c 0,-3.63973 -2.669114,-6.658961 -6.152344,-7.220703 l 2.351563,0 c 2.312362,0 4.439453,-1.907917 4.439453,-4.373047 l 0,-3.648438 c 0,-2.465119 -2.127091,-4.373046 -4.439453,-4.373046 l -24.583984,0 z m 3.519531,14.560546 11.625,0 5.919922,0 c 2.935973,0 5.267578,2.331599 5.267578,5.267579 l 0,40.546875 c 0,2.936 -2.331605,5.267578 -5.267578,5.267578 l -17.544922,0 c -2.935972,0 -5.267578,-2.331578 -5.267578,-5.267578 l 0,-40.546875 c 0,-2.93598 2.331606,-5.267579 5.267578,-5.267579 z"
       style="color:#000000;font-style:normal;font-variant:normal;font-weight:normal;font-stretch:normal;font-size:medium;line-height:normal;font-family:sans-serif;text-indent:0;text-align:start;text-decoration:none;text-decoration-line:none;text-decoration-style:solid;text-decoration-color:#000000;letter-spacing:normal;word-spacing:normal;text-transform:none;direction:ltr;block-progression:tb;writing-mode:lr-tb;baseline-shift:baseline;text-anchor:start;white-space:normal;clip-rule:nonzero;display:inline;overflow:visible;visibility:visible;opacity:1;isolation:auto;mix-blend-mode:normal;color-interpolation:sRGB;color-interpolation-filters:linearRGB;solid-color:#000000;solid-opacity:1;fill:#000000;fill-opacity:1;fill-rule:nonzero;stroke:none;stroke-width:2.05326557;stroke-linecap:square;stroke-linejoin:round;stroke-miterlimit:4;stroke-dasharray:none;stroke-dashoffset:0;stroke-opacity:1;color-rendering:auto;image-rendering:auto;shape-rendering:auto;text-rendering:auto;enable-background:accumulate" />
    <path
       id="rect4136"
       d="m 37.279297,971.67195 9.082031,13.59375 -10.410156,15.5664 4.257812,0 8.261719,-12.40234 8.203125,12.40234 4.238281,0 -10,-15.15624 9.375,-14.00391 -4.238281,0 -7.285156,10.83984 -7.246094,-10.83984 z"
       style="color:#000000;font-style:normal;font-variant:normal;font-weight:normal;font-stretch:normal;font-size:medium;line-height:normal;font-family:sans-serif;text-indent:0;text-align:start;text-decoration:none;text-decoration-line:none;text-decoration-style:solid;text-decoration-color:#000000;letter-spacing:normal;word-spacing:normal;text-transform:none;direction:ltr;block-progression:tb;writing-mode:lr-tb;baseline-shift:baseline;text-anchor:start;white-space:normal;clip-rule:nonzero;display:inline;overflow:visible;visibility:visible;opacity:1;isolation:auto;mix-blend-mode:normal;color-interpolation:sRGB;color-interpolation-filters:linearRGB;solid-color:#000000;solid-opacity:1;fill:#000000;fill-opacity:1;fill-rule:nonzero;stroke:none;stroke-width:2.05326557;stroke-linecap:square;stroke-linejoin:round;stroke-miterlimit:4;stroke-dasharray:none;stroke-dashoffset:0;stroke-opacity:1;color-rendering:auto;image-rendering:auto;shape-rendering:auto;text-rendering:auto;enable-background:accumulate" />
    <g
       id="text4138"
       style="font-style:normal;font-weight:normal;font-size:40px;line-height:125%;font-family:sans-serif;letter-spacing:0px;word-spacing:0px;fill:#000000;fill-opacity:1;stroke:none;stroke-width:1px;stroke-linecap:butt;stroke-linejoin:miter;stroke-opacity:1" />
  </g>
</svg>
