<svg version="1.1" xmlns="http://www.w3.org/2000/svg" xmlns:xlink="http://www.w3.org/1999/xlink" xmlns:cml="http://www.xml-cml.org/schema"
          width="12in" height="3.33in" viewBox="0 0 310 110">
        <title>Reaction 1</title><g transform='translate(0, 0) scale(1)'><svg width="100" height="100" x="0" y="0" viewBox="0 0 149.281 160.001" font-family="sans-serif" stroke="rgb(0,0,0)" stroke-width="2" stroke-linecap="round">
<line x1="109.3" y1="60.0" x2="109.3" y2="100.0" stroke="rgb(0,0,0)" stroke-width="2.0"/>
<line x1="102.1" y1="66.0" x2="102.1" y2="94.0" stroke="rgb(0,0,0)" stroke-width="2.0"/>
<line x1="109.3" y1="100.0" x2="74.6" y2="120.0" stroke="rgb(0,0,0)" stroke-width="2.0"/>
<line x1="74.6" y1="120.0" x2="40.0" y2="100.0" stroke="rgb(0,0,0)" stroke-width="2.0"/>
<line x1="73.0" y1="110.8" x2="48.8" y2="96.8" stroke="rgb(0,0,0)" stroke-width="2.0"/>
<line x1="40.0" y1="100.0" x2="40.0" y2="60.0" stroke="rgb(0,0,0)" stroke-width="2.0"/>
<line x1="40.0" y1="60.0" x2="74.6" y2="40.0" stroke="rgb(0,0,0)" stroke-width="2.0"/>
<line x1="48.8" y1="63.2" x2="73.0" y2="49.2" stroke="rgb(0,0,0)" stroke-width="2.0"/>
<line x1="74.6" y1="40.0" x2="109.3" y2="60.0" stroke="rgb(0,0,0)" stroke-width="2.0"/>
</svg></g><g transform='translate(130, 0) scale(0.5)'><svg width="100" height="100" x="0" y="0" viewBox="0 0 149.281 160.001" font-family="sans-serif" stroke="rgb(0,0,0)" stroke-width="2" stroke-linecap="round">
<line x1="109.3" y1="60.0" x2="109.3" y2="100.0" stroke="rgb(0,0,0)" stroke-width="2.0"/>
<line x1="102.1" y1="66.0" x2="102.1" y2="94.0" stroke="rgb(0,0,0)" stroke-width="2.0"/>
<line x1="109.3" y1="100.0" x2="74.6" y2="120.0" stroke="rgb(0,0,0)" stroke-width="2.0"/>
<line x1="74.6" y1="120.0" x2="40.0" y2="100.0" stroke="rgb(0,0,0)" stroke-width="2.0"/>
<line x1="73.0" y1="110.8" x2="48.8" y2="96.8" stroke="rgb(0,0,0)" stroke-width="2.0"/>
<line x1="40.0" y1="100.0" x2="40.0" y2="60.0" stroke="rgb(0,0,0)" stroke-width="2.0"/>
<line x1="40.0" y1="60.0" x2="74.6" y2="40.0" stroke="rgb(0,0,0)" stroke-width="2.0"/>
<line x1="48.8" y1="63.2" x2="73.0" y2="49.2" stroke="rgb(0,0,0)" stroke-width="2.0"/>
<line x1="74.6" y1="40.0" x2="109.3" y2="60.0" stroke="rgb(0,0,0)" stroke-width="2.0"/>
</svg></g><g transform='translate(100, 0)'>        <svg stroke="black" stroke-width="1">
          <line x1="0" y1="50" x2="110" y2="50" stroke="black"/>
          <polygon points="102,50 100,47 110,50 100,53"/>
        </svg>
</g><g transform='translate(100, 0)'>          <svg font-family="sans-serif">
            <text text-anchor="middle" x="55" y="80" font-size="7">Water / Aceton</text>
          </svg>
</g><g transform='translate(100, 0)'>        <svg font-family="sans-serif">
          <text text-anchor="middle" x="55" y="65" font-size="9">37.5 °C</text>
        </svg>
</g><g transform='translate(210, 0) scale(1)'><svg width="100" height="100" x="0" y="0" viewBox="0 0 149.281 160.001" font-family="sans-serif" stroke="rgb(0,0,0)" stroke-width="2" stroke-linecap="round">
<line x1="109.3" y1="60.0" x2="109.3" y2="100.0" stroke="rgb(0,0,0)" stroke-width="2.0"/>
<line x1="102.1" y1="66.0" x2="102.1" y2="94.0" stroke="rgb(0,0,0)" stroke-width="2.0"/>
<line x1="109.3" y1="100.0" x2="74.6" y2="120.0" stroke="rgb(0,0,0)" stroke-width="2.0"/>
<line x1="74.6" y1="120.0" x2="40.0" y2="100.0" stroke="rgb(0,0,0)" stroke-width="2.0"/>
<line x1="73.0" y1="110.8" x2="48.8" y2="96.8" stroke="rgb(0,0,0)" stroke-width="2.0"/>
<line x1="40.0" y1="100.0" x2="40.0" y2="60.0" stroke="rgb(0,0,0)" stroke-width="2.0"/>
<line x1="40.0" y1="60.0" x2="74.6" y2="40.0" stroke="rgb(0,0,0)" stroke-width="2.0"/>
<line x1="48.8" y1="63.2" x2="73.0" y2="49.2" stroke="rgb(0,0,0)" stroke-width="2.0"/>
<line x1="74.6" y1="40.0" x2="109.3" y2="60.0" stroke="rgb(0,0,0)" stroke-width="2.0"/>
</svg>          <svg font-family="sans-serif">
            <text text-anchor="middle" font-size="9" y="105" x="55">68 %</text>
          </svg>
</g></svg>