<svg xmlns="http://www.w3.org/2000/svg" viewBox="0.18 42.01 113.61 30.61" width="113.61" height="30.61">
  <!-- Background with Halftone Pattern -->
  <path d="M1.03 48.83v17.01q0,5.67 5.58,5.67h95.38q5.58,0 5.58,-5.67V48.83q0,-5.67 -5.58,-5.67H6.61q-5.58,0 -5.58,5.67z" 
        fill="url(#pattern)"
        stroke="#000000"
        stroke-width="0.57" />

  <!-- Pattern inline: Halftones -->
  <pattern id="pattern" patternUnits="userSpaceOnUse" width="10" height="10">
    <g transform="scale(0.1)">
      <circle r="25" cy="50" cx="50" fill="#dc9592" />
      <path d="M 25,0 A 25,25 0 0 1 0,25 25,25 0 0 1 -25,0 25,25 0 0 1 0,-25 25,25 0 0 1 25,0 Z" fill="#dc9592" />
      <path d="M 125,0 A 25,25 0 0 1 100,25 25,25 0 0 1 75,0 25,25 0 0 1 100,-25 25,25 0 0 1 125,0 Z" fill="#dc9592" />
      <path d="M 25,100 A 25,25 0 0 1 0,125 25,25 0 0 1 -25,100 25,25 0 0 1 0,75 25,25 0 0 1 25,100 Z" fill="#dc9592" />
      <path d="m 125,100 a 25,25 0 0 1 -25,25 25,25 0 0 1 -25,-25 25,25 0 0 1 25,-25 25,25 0 0 1 25,25 z" fill="#dc9592" />
    </g>
  </pattern>
</svg>
