<svg xmlns="http://www.w3.org/2000/svg" version="1.1"  height="50" width="50" viewBox="400.96 208.66 198.08 197.74">
<path d="M0 0 C3.4964157 2.84420913 6.77543904 5.85306736 10 9 C10.886875 9.845625 11.77375 10.69125 12.6875 11.5625 C13.450625 12.366875 14.21375 13.17125 15 14 C15.51820313 14.53496094 16.03640625 15.06992188 16.5703125 15.62109375 C33.32624649 33.69195529 41.69200848 59.54714307 41 84 C39.89201773 100.9051235 35.03072147 115.32224159 27 130 C26.38511719 131.155 25.77023437 132.31 25.13671875 133.5 C21.98966785 139.19399898 19.28159541 143.21102938 14 147 C11.79950918 149.14406798 9.62908226 151.29075768 7.58984375 153.58984375 C-0.10320598 161.92555611 -10.73373237 167.40415072 -21 172 C-21.79019531 172.35835937 -22.58039063 172.71671875 -23.39453125 173.0859375 C-45.58758589 182.15406735 -73.01076223 181.15973589 -95 172 C-121.90280516 160.08372924 -140.12135123 140.57901897 -150.984375 113.55078125 C-151.76877467 111.38567809 -152.39895714 109.22272455 -153 107 C-153.27714844 106.11828125 -153.55429687 105.2365625 -153.83984375 104.328125 C-158.43556439 87.30066235 -158.28789119 66.51306003 -152 50 C-151.57589844 48.77925781 -151.15179688 47.55851562 -150.71484375 46.30078125 C-148.1995211 39.3312787 -145.02193097 32.92607103 -141.25 26.5625 C-140.86110596 25.90507812 -140.47221191 25.24765625 -140.0715332 24.5703125 C-139.1091572 23.00731807 -138.06184377 21.49719971 -137 20 C-136.34 20 -135.68 20 -135 20 C-134.773125 19.46375 -134.54625 18.9275 -134.3125 18.375 C-125.42311018 2.28943746 -104.08647838 -9.12232374 -86.91796875 -14.29296875 C-56.56195582 -22.79162534 -25.98170422 -17.83708489 0 0 Z " fill="#B78EB5" transform="translate(558,227)"/>
<path d="M0 0 C0.66 0.66 1.32 1.32 2 2 C1.51294934 16.14320188 -2.63875975 30.46001409 -9 43 C-9.99 42.67 -10.98 42.34 -12 42 C-14.35367738 43.6296054 -14.35367738 43.6296054 -17 46 C-18.34525141 47.05315499 -19.69999814 48.09425974 -21.0625 49.125 C-21.71347656 49.62257813 -22.36445312 50.12015625 -23.03515625 50.6328125 C-26.53012397 53.06469859 -30.30237145 54.56672557 -34.25 56.125 C-35.14203125 56.47820312 -36.0340625 56.83140625 -36.953125 57.1953125 C-37.96632813 57.59363281 -37.96632813 57.59363281 -39 58 C-39.495 56.515 -39.495 56.515 -40 55 C-40.99 55.66 -41.98 56.32 -43 57 C-42.08287267 53.91511716 -41.43058268 52.31986142 -38.8125 50.375 C-36 49 -36 49 -32.6875 47.6875 C-28.99410462 46.16527631 -26.11521885 43.94122302 -22.9921875 41.48046875 C-21.096331 40.07158715 -19.21288288 38.97092193 -17.125 37.875 C-13.75688612 35.85413167 -13.48099474 35.39757617 -12 32 C-11.51402344 30.99066406 -11.02804687 29.98132813 -10.52734375 28.94140625 C-10.00269531 27.82636719 -9.47804688 26.71132813 -8.9375 25.5625 C-8.41027344 24.45003906 -7.88304687 23.33757812 -7.33984375 22.19140625 C-5.92486153 19.14224316 -5.92486153 19.14224316 -5.50390625 16.27734375 C-5 14 -5 14 -3.51171875 12.54296875 C-1.35457228 10.3412301 -1.27245991 8.31993019 -0.8125 5.3125 C-0.57466797 3.82169922 -0.57466797 3.82169922 -0.33203125 2.30078125 C-0.22246094 1.54152344 -0.11289062 0.78226562 0 0 Z " fill="#8B5D86" transform="translate(597,309)"/>
<path d="M0 0 C0.66 0 1.32 0 2 0 C0.97747479 3.40841737 -0.22836507 6.54333489 -1.875 9.6875 C-5.95851927 17.76242909 -8.52251278 24.73259397 -8.04296875 33.8828125 C-8.02878906 34.58148438 -8.01460938 35.28015625 -8 36 C-8.495 36.495 -8.495 36.495 -9 37 C-9.21566215 39.09971069 -9.37105832 41.20568506 -9.5 43.3125 C-9.92454216 49.88279531 -10.43534696 56.44041365 -11 63 C-13.45823172 59.31265242 -14.01242616 56.30300029 -15 52 C-15.12117188 52.63808594 -15.24234375 53.27617187 -15.3671875 53.93359375 C-15.53476562 54.75988281 -15.70234375 55.58617187 -15.875 56.4375 C-16.03742188 57.26121094 -16.19984375 58.08492188 -16.3671875 58.93359375 C-16.57601563 59.61550781 -16.78484375 60.29742187 -17 61 C-17.99 61.495 -17.99 61.495 -19 62 C-19.88825192 41.8416161 -14.52194255 23.892148 -4.25 6.5625 C-3.86110596 5.90507812 -3.47221191 5.24765625 -3.0715332 4.5703125 C-2.1091572 3.00731807 -1.06184377 1.49719971 0 0 Z " fill="#956491" transform="translate(421,247)"/>
<path d="M0 0 C3.4375 1 3.4375 1 6 2 C7.125 8.75 7.125 8.75 6 11 C6.66 11 7.32 11 8 11 C8.33 10.34 8.66 9.68 9 9 C8.6452187 11.57216446 8.1957002 12.79677287 6.375 14.6875 C3.29564007 16.38925154 0.47476635 16.66588785 -3 17 C-3 16.01 -3 15.02 -3 14 C-4.65 14 -6.3 14 -8 14 C-8 12.35 -8 10.7 -8 9 C-8.66 9 -9.32 9 -10 9 C-10.35789474 3.63157895 -10.35789474 3.63157895 -8.9375 1.125 C-5.90123244 -0.63799406 -3.44906599 -0.29229373 0 0 Z " fill="#FBF2FC" transform="translate(513,257)"/>
<path d="M0 0 C0.33 0 0.66 0 1 0 C0.835 0.99 0.67 1.98 0.5 3 C-0.03659745 7.34721706 -0.1471733 11.68705293 -0.1875 16.0625 C-0.20039063 16.73474609 -0.21328125 17.40699219 -0.2265625 18.09960938 C-0.2356315 22.73840371 0.6597227 26.5849689 2 31 C2.21794764 33.71562756 2.0958736 36.26760245 2 39 C-0.45823172 35.31265242 -1.01242616 32.30300029 -2 28 C-2.12117188 28.63808594 -2.24234375 29.27617187 -2.3671875 29.93359375 C-2.53476562 30.75988281 -2.70234375 31.58617187 -2.875 32.4375 C-3.03742188 33.26121094 -3.19984375 34.08492188 -3.3671875 34.93359375 C-3.57601563 35.61550781 -3.78484375 36.29742187 -4 37 C-4.99 37.495 -4.99 37.495 -6 38 C-6.61289154 24.09076708 -4.44886505 13.20631563 0 0 Z " fill="#6F5269" transform="translate(408,271)"/>
<path d="M0 0 C1.23268696 3.69806088 0.59433466 4.84773679 -0.75 8.4375 C-1.09546875 9.38496094 -1.4409375 10.33242188 -1.796875 11.30859375 C-2.96239042 13.91586687 -4.04874874 15.91570888 -6 18 C-6.99 18 -7.98 18 -9 18 C-11.00459513 19.31031907 -11.00459513 19.31031907 -13 21 C-14.33207652 22.0224728 -15.6654095 23.04331077 -17 24.0625 C-17.66 24.56910156 -18.32 25.07570313 -19 25.59765625 C-20.97141636 26.97995796 -22.75427317 28.12615871 -25 29 C-25.99 28.67 -26.98 28.34 -28 28 C-27.443125 27.63648438 -26.88625 27.27296875 -26.3125 26.8984375 C-15.29771527 19.71610551 -15.29771527 19.71610551 -6.2265625 10.3203125 C-5.82179688 9.88460938 -5.41703125 9.44890625 -5 9 C-4.34 9 -3.68 9 -3 9 C-2.01 6.03 -1.02 3.06 0 0 Z M-28 29 C-30.38573379 30.89213369 -32.07175348 32.02391783 -35 33 C-35.33 32.34 -35.66 31.68 -36 31 C-35 29 -35 29 -33.125 28.3125 C-31 28 -31 28 -28 29 Z " fill="#7A4975" transform="translate(593,334)"/>
<path d="M0 0 C0 3 0 3 -1.92773438 5.26831055 C-2.80751953 6.13238525 -3.68730469 6.99645996 -4.59375 7.88671875 C-5.05986694 8.34859085 -5.52598389 8.81046295 -6.00622559 9.28633118 C-7.4972629 10.76056952 -8.99838872 12.22404088 -10.5 13.6875 C-11.51240054 14.68485528 -12.52412811 15.68289417 -13.53515625 16.68164062 C-16.01567629 19.12907564 -18.50535089 21.56695887 -21 24 C-21.33 23.34 -21.66 22.68 -22 22 C-19.60397811 17.11580152 -17.05314862 13.68468056 -13 10 C-12.04867188 9.12988281 -12.04867188 9.12988281 -11.078125 8.2421875 C-7.56751718 5.08791957 -4.19384755 2.22798151 0 0 Z " fill="#BC93BB" transform="translate(447,224)"/>
<path d="M0 0 C0.89138672 0.10828125 0.89138672 0.10828125 1.80078125 0.21875 C8.22562641 0.93817279 14.53847873 1.11055835 21 1 C21.33 1.99 21.66 2.98 22 4 C16.84922976 6.11313651 12.451334 6.18690288 7 6 C6.01 6 5.02 6 4 6 C2.31763529 5.37400383 0.6476038 4.71247732 -1 4 C-0.67 2.68 -0.34 1.36 0 0 Z " fill="#7E4579" transform="translate(514,366)"/>
<path d="M0 0 C0.66 0.66 1.32 1.32 2 2 C1.9765625 4.3828125 1.9765625 4.3828125 1.625 7.125 C1.45871094 8.49011719 1.45871094 8.49011719 1.2890625 9.8828125 C1.14597656 10.93082031 1.14597656 10.93082031 1 12 C0.34 12 -0.32 12 -1 12 C-1.12375 12.94875 -1.2475 13.8975 -1.375 14.875 C-2 18 -2 18 -4 20 C-4.50234886 21.27519326 -4.95638903 22.56991875 -5.375 23.875 C-6.62912276 27.41226932 -8.05962671 29.56658763 -11 32 C-10.34067626 28.97123156 -9.32009801 26.36285496 -8 23.5625 C-6.8228468 20.99301506 -5.98276068 18.9118879 -5.4375 16.125 C-5 14 -5 14 -3.546875 12.72265625 C-1.44171425 10.37827269 -1.2846319 8.39951629 -0.8125 5.3125 C-0.65394531 4.31863281 -0.49539063 3.32476562 -0.33203125 2.30078125 C-0.22246094 1.54152344 -0.11289062 0.78226562 0 0 Z " fill="#A0719D" transform="translate(597,309)"/>
<path d="M0 0 C0.66 0 1.32 0 2 0 C0.74223119 4.19256271 -0.91836947 7.90455977 -2.921875 11.76953125 C-4.52813478 15.09262666 -5.79187536 18.53586101 -7.0703125 21.99609375 C-8 24 -8 24 -10 25 C-10.41953234 17.86795018 -8.16838268 12.82827485 -4.5625 6.875 C-3.95063843 5.86167603 -3.95063843 5.86167603 -3.32641602 4.82788086 C-2.28367528 3.17501456 -1.14883517 1.58096584 0 0 Z " fill="#AA7FA8" transform="translate(421,247)"/>
<path d="M0 0 C0.66 0.33 1.32 0.66 2 1 C-14.83627935 13.4724643 -14.83627935 13.4724643 -19.05078125 14.5 C-21.9493869 15.24353011 -23.76517181 17.07556462 -26 19 C-25.08287267 15.91511716 -24.43058268 14.31986142 -21.8125 12.375 C-19 11 -19 11 -15.6875 9.6875 C-11.96122578 8.15793766 -9.02527473 5.90821379 -5.89453125 3.40234375 C-3.97974157 1.98500458 -2.21328762 0.88439857 0 0 Z " fill="#975D93" transform="translate(580,347)"/>
<path d="M0 0 C0.33 0 0.66 0 1 0 C0.835 0.99 0.67 1.98 0.5 3 C-0.03659745 7.34721706 -0.1471733 11.68705293 -0.1875 16.0625 C-0.20039063 16.73474609 -0.21328125 17.40699219 -0.2265625 18.09960938 C-0.2356315 22.73840371 0.6597227 26.5849689 2 31 C2.21794764 33.71562756 2.0958736 36.26760245 2 39 C-2.61096196 32.08355706 -2.19888634 23.25416532 -2.25 15.1875 C-2.25918457 14.37539063 -2.26836914 13.56328125 -2.27783203 12.7265625 C-2.25397282 8.09214869 -1.76890043 4.35907606 0 0 Z " fill="#82567E" transform="translate(408,271)"/>
<path d="M0 0 C-2.58787727 2.58787727 -4.42007861 2.62709152 -8 3 C-8.66 2.67 -9.32 2.34 -10 2 C-10.33 2.66 -10.66 3.32 -11 4 C-12.99609375 5.10546875 -12.99609375 5.10546875 -15.4375 6.1875 C-16.24058594 6.55230469 -17.04367187 6.91710937 -17.87109375 7.29296875 C-20 8 -20 8 -22 7 C-22 6.34 -22 5.68 -22 5 C-19.60539412 4.18372554 -17.20943474 3.37188355 -14.8125 2.5625 C-14.13896484 2.33240234 -13.46542969 2.10230469 -12.77148438 1.86523438 C-2.90880102 -1.45440051 -2.90880102 -1.45440051 0 0 Z M-24 6 C-23.34 6.33 -22.68 6.66 -22 7 C-22.99 7 -23.98 7 -25 7 C-24.67 6.67 -24.34 6.34 -24 6 Z " fill="#C8A3C7" transform="translate(484,211)"/>
<path d="M0 0 C0.99 0 1.98 0 3 0 C3.02687279 1.81242052 3.04633715 3.62495233 3.0625 5.4375 C3.07410156 6.44683594 3.08570313 7.45617187 3.09765625 8.49609375 C3 11 3 11 2 12 C1.63239269 14.32817964 1.29758419 16.6618385 1 19 C0.34 18.67 -0.32 18.34 -1 18 C-1.02717692 15.93757383 -1.0464758 13.87504297 -1.0625 11.8125 C-1.07410156 10.66394531 -1.08570313 9.51539063 -1.09765625 8.33203125 C-1.01192832 5.40699414 -0.67849023 2.83683709 0 0 Z " fill="#A775A5" transform="translate(410,272)"/>
<path d="M0 0 C3.4375 1 3.4375 1 6 2 C6.33 4.31 6.66 6.62 7 9 C6.34 9 5.68 9 5 9 C4.67 7.35 4.34 5.7 4 4 C2.56465159 3.7773254 1.12654475 3.57238094 -0.3125 3.375 C-1.11300781 3.25898438 -1.91351563 3.14296875 -2.73828125 3.0234375 C-5.28723215 2.78466593 -5.28723215 2.78466593 -8 5 C-9.19232613 7.05003955 -9.19232613 7.05003955 -10 9 C-10.35789474 3.63157895 -10.35789474 3.63157895 -8.9375 1.125 C-5.90123244 -0.63799406 -3.44906599 -0.29229373 0 0 Z " fill="#EEDCEE" transform="translate(513,257)"/>
<path d="M0 0 C0.81210937 0.33837891 0.81210937 0.33837891 1.640625 0.68359375 C-1.05618159 4.01494307 -4.44814528 5.13258886 -8.359375 6.68359375 C-9.8134375 7.27140625 -9.8134375 7.27140625 -11.296875 7.87109375 C-11.9775 8.13921875 -12.658125 8.40734375 -13.359375 8.68359375 C-13.359375 7.69359375 -13.359375 6.70359375 -13.359375 5.68359375 C-11.61814951 4.64786479 -9.86600905 3.63046855 -8.109375 2.62109375 C-6.64757812 1.76837891 -6.64757812 1.76837891 -5.15625 0.8984375 C-2.359375 -0.31640625 -2.359375 -0.31640625 0 0 Z " fill="#885084" transform="translate(573.359375,355.31640625)"/>
<path d="M0 0 C1.23268696 3.69806088 0.59433466 4.84773679 -0.75 8.4375 C-1.09546875 9.38496094 -1.4409375 10.33242188 -1.796875 11.30859375 C-2.94350119 13.87361144 -4.22164429 15.83837798 -6 18 C-6.66 17.01 -7.32 16.02 -8 15 C-7.67386719 14.50371094 -7.34773437 14.00742187 -7.01171875 13.49609375 C-4.19308521 9.11432421 -1.91745586 4.84409902 0 0 Z " fill="#72576B" transform="translate(593,334)"/>
<path d="M0 0 C0 5.54206396 -3.67156362 10.44383167 -7.1875 14.5625 C-9 16 -9 16 -11 16 C-9.92598892 13.08482708 -9.22189824 11.22189824 -7 9 C-6.30251417 7.68252676 -5.63040043 6.35085807 -5 5 C-4.34 5 -3.68 5 -3 5 C-2.690625 4.360625 -2.38125 3.72125 -2.0625 3.0625 C-1 1 -1 1 0 0 Z " fill="#6D5467" transform="translate(583,357)"/>
<path d="M0 0 C0.66 0.33 1.32 0.66 2 1 C-1.63 4.63 -5.26 8.26 -9 12 C-9.33 11.01 -9.66 10.02 -10 9 C-6.7 6.03 -3.4 3.06 0 0 Z " fill="#C49BC3" transform="translate(441,230)"/>
<path d="M0 0 C0.99 0.33 1.98 0.66 3 1 C-2.02065304 5.63342182 -7.07852282 9.58255173 -13 13 C-11.86280581 9.58841744 -10.95657056 8.88145399 -8 7 C-7.34 7 -6.68 7 -6 7 C-5.7525 6.401875 -5.505 5.80375 -5.25 5.1875 C-3.80517427 2.65905497 -2.51719455 1.44929383 0 0 Z " fill="#6C5466" transform="translate(566,377)"/>
<path d="M0 0 C0.99 0.66 1.98 1.32 3 2 C0.92227529 2.86772029 -1.16243177 3.71873619 -3.25 4.5625 C-4.99023438 5.27599609 -4.99023438 5.27599609 -6.765625 6.00390625 C-9.86266644 6.95770524 -11.07321701 7.20983356 -14 6 C-10.68545325 2.82956397 -7.28816393 2.24361815 -2.92578125 1.4296875 C-1.00249079 1.18120767 -1.00249079 1.18120767 0 0 Z " fill="#6B5164" transform="translate(536,396)"/>
<path d="M0 0 C0.33 0.99 0.66 1.98 1 3 C-2.88309282 6.64775386 -5.71201818 7.58525633 -11 8 C-11 7.34 -11 6.68 -11 6 C-9.5437455 5.32880451 -8.08492133 4.66318193 -6.625 4 C-5.40683594 3.443125 -5.40683594 3.443125 -4.1640625 2.875 C-2 2 -2 2 0 2 C0 1.34 0 0.68 0 0 Z " fill="#EFDDEE" transform="translate(521,266)"/>
<path d="M0 0 C0 0.66 0 1.32 0 2 C-0.7425 2.268125 -1.485 2.53625 -2.25 2.8125 C-4.86636554 3.94229421 -6.80187111 5.20893202 -9 7 C-8.6875 4.625 -8.6875 4.625 -8 2 C-4.77208445 -0.1519437 -3.71599191 -0.20086443 0 0 Z " fill="#F6E9F6" transform="translate(513,259)"/>
<path d="M0 0 C0.33 0.66 0.66 1.32 1 2 C-0.33135812 5.86093856 -3.0880704 8.24132985 -6 11 C-6.66 10.67 -7.32 10.34 -8 10 C-5.83735988 6.01618925 -3.28788824 3.11016455 0 0 Z " fill="#956292" transform="translate(590,336)"/>
<path d="M0 0 C2.34914492 2.34914492 2.73140357 3.95679446 3.625 7.125 C3.88539063 8.03507812 4.14578125 8.94515625 4.4140625 9.8828125 C4.70410156 10.93082031 4.70410156 10.93082031 5 12 C2 11 2 11 0.8125 8.8125 C-0.07334979 5.74609689 -0.14770318 3.17561845 0 0 Z " fill="#BD94BA" transform="translate(589,266)"/>
<path d="M0 0 C1 2 1 2 0.29296875 4.34765625 C-0.07183594 5.24355469 -0.43664062 6.13945312 -0.8125 7.0625 C-1.16957031 7.96097656 -1.52664063 8.85945313 -1.89453125 9.78515625 C-3 12 -3 12 -5 13 C-4.39254603 8.14036821 -2.27241033 4.2594482 0 0 Z " fill="#AC7EAA" transform="translate(416,259)"/>
<path d="M0 0 C0.66 0 1.32 0 2 0 C3.7265625 1.75 3.7265625 1.75 5.625 4 C6.25664063 4.7425 6.88828125 5.485 7.5390625 6.25 C8.02117188 6.8275 8.50328125 7.405 9 8 C8.01 9.485 8.01 9.485 7 11 C6.401875 10.05125 5.80375 9.1025 5.1875 8.125 C3.18437474 4.86035803 3.18437474 4.86035803 0 3 C0 2.01 0 1.02 0 0 Z " fill="#C7A1C5" transform="translate(568,237)"/>
<path d="M0 0 C3.3 0.66 6.6 1.32 10 2 C9.67 2.66 9.34 3.32 9 4 C5.7 3.34 2.4 2.68 -1 2 C-0.67 1.34 -0.34 0.68 0 0 Z " fill="#CBA5C9" transform="translate(511,209)"/>
<path d="M0 0 C1.22589844 0.01353516 1.22589844 0.01353516 2.4765625 0.02734375 C3.41628906 0.04474609 3.41628906 0.04474609 4.375 0.0625 C4.045 0.7225 3.715 1.3825 3.375 2.0625 C1.08984375 2.4765625 1.08984375 2.4765625 -1.6875 2.6875 C-2.60660156 2.76226562 -3.52570313 2.83703125 -4.47265625 2.9140625 C-5.18292969 2.96304688 -5.89320313 3.01203125 -6.625 3.0625 C-6.625 2.4025 -6.625 1.7425 -6.625 1.0625 C-4.21954362 -0.14022819 -2.67503047 -0.03821472 0 0 Z " fill="#CAA4C8" transform="translate(492.625,208.9375)"/>
<path d="M0 0 C1 3 1 3 0.22265625 5.04296875 C-0.16019531 5.75066406 -0.54304688 6.45835937 -0.9375 7.1875 C-1.31777344 7.90292969 -1.69804687 8.61835938 -2.08984375 9.35546875 C-2.54037109 10.16951172 -2.54037109 10.16951172 -3 11 C-3.33 11 -3.66 11 -4 11 C-3.56179109 6.44262737 -3.14958831 3.42346555 0 0 Z " fill="#A0759E" transform="translate(416,256)"/>
<path d="M0 0 C0.33 0.99 0.66 1.98 1 3 C-1.3125 4.5625 -1.3125 4.5625 -4 6 C-4.99 5.67 -5.98 5.34 -7 5 C-4.69 3.35 -2.38 1.7 0 0 Z " fill="#6D5567" transform="translate(546,391)"/>
<path d="M0 0 C0.66 0 1.32 0 2 0 C0.60667426 3.36720387 -0.9789286 4.9859524 -4 7 C-2.92598892 4.08482708 -2.22189824 2.22189824 0 0 Z " fill="#8C5289" transform="translate(558,359)"/>
</svg>