<svg xmlns="http://www.w3.org/2000/svg" version="1.1"  height="50" width="50"  viewBox="401.07 208.75 197.97 197.54">
<path d="M0 0 C3.4964157 2.84420913 6.77543904 5.85306736 10 9 C10.886875 9.845625 11.77375 10.69125 12.6875 11.5625 C13.450625 12.366875 14.21375 13.17125 15 14 C15.50660156 14.51175781 16.01320313 15.02351563 16.53515625 15.55078125 C34.09672137 34.23244619 41.71183809 60.80884103 41 86 C40.5483185 91.78348704 39.41770976 97.38276059 38 103 C37.82694336 103.68578125 37.65388672 104.3715625 37.47558594 105.078125 C34.91700311 114.81813262 31.13656653 123.30208068 26 132 C25.48179687 132.94101562 24.96359375 133.88203125 24.4296875 134.8515625 C21.49099905 140.06734985 18.7909446 143.4322753 14 147 C11.79950918 149.14406798 9.62908226 151.29075768 7.58984375 153.58984375 C-0.10562364 161.92817574 -10.7342356 167.39696371 -21 172 C-21.77859375 172.35835937 -22.5571875 172.71671875 -23.359375 173.0859375 C-45.68076533 182.3056422 -72.78400882 180.59973852 -95 172 C-121.95935625 160.28373875 -140.16557299 140.46899102 -150.984375 113.55078125 C-151.76891987 111.38527731 -152.40073258 109.22369671 -153 107 C-153.27714844 106.09507812 -153.55429687 105.19015625 -153.83984375 104.2578125 C-158.00848856 88.54375048 -158.15288948 69.47927999 -153 54 C-152.63648438 52.77410156 -152.27296875 51.54820312 -151.8984375 50.28515625 C-147.19889052 34.81250342 -137.34229602 14.70782259 -123 6 C-122.34 6 -121.68 6 -121 6 C-121 5.34 -121 4.68 -121 4 C-86.28670314 -24.74237565 -36.59224628 -25.12148539 0 0 Z " fill="#89B379" transform="translate(558,227)"/>
<path d="M0 0 C0.33 0 0.66 0 1 0 C0.25781488 13.85412231 -5.0268826 26.19218787 -12 38 C-12.51820313 38.94101562 -13.03640625 39.88203125 -13.5703125 40.8515625 C-16.50900095 46.06734985 -19.2090554 49.4322753 -24 53 C-26.20049082 55.14406798 -28.37091774 57.29075768 -30.41015625 59.58984375 C-38.10562364 67.92817574 -48.7342356 73.39696371 -59 78 C-59.77859375 78.35835938 -60.5571875 78.71671875 -61.359375 79.0859375 C-83.61443512 88.27824494 -110.85647915 86.67310486 -133 78 C-137.760547 75.84905518 -142.3926813 73.45907865 -147 71 C-142.34802743 69.44934248 -138.45120304 71.2151832 -134 73 C-133.21625 73.70125 -132.4325 74.4025 -131.625 75.125 C-127.90547337 77.78180474 -124.52015052 77.50076729 -120.03515625 77.71875 C-117.2286485 77.97881249 -115.26905679 78.50440462 -112.6875 79.5625 C-107.30124795 81.61961102 -101.82511922 81.17793151 -96.16015625 81.0078125 C-93 81 -93 81 -91 82 C-91 81.34 -91 80.68 -91 80 C-89.1746875 80.2784375 -89.1746875 80.2784375 -87.3125 80.5625 C-83.92127916 80.97896572 -81.320866 80.93665451 -78 80 C-76.9275 79.71125 -75.855 79.4225 -74.75 79.125 C-73.5125 78.75375 -72.275 78.3825 -71 78 C-70.38898438 77.82984375 -69.77796875 77.6596875 -69.1484375 77.484375 C-63.56051646 75.80152619 -58.33887628 73.40318911 -53.0625 70.9375 C-51.92482178 70.40842041 -51.92482178 70.40842041 -50.76416016 69.86865234 C-50.04921387 69.52914551 -49.33426758 69.18963867 -48.59765625 68.83984375 C-47.95320557 68.53425537 -47.30875488 68.22866699 -46.64477539 67.91381836 C-44.80967062 66.99280188 -44.80967062 66.99280188 -43 65 C-42.01 65 -41.02 65 -40 65 C-39.62875 64.0409375 -39.62875 64.0409375 -39.25 63.0625 C-38.8375 62.381875 -38.425 61.70125 -38 61 C-37.34 60.855625 -36.68 60.71125 -36 60.5625 C-35.34 60.376875 -34.68 60.19125 -34 60 C-33.72027344 59.24589844 -33.44054687 58.49179687 -33.15234375 57.71484375 C-31.79050069 54.50643384 -30.2475517 53.18684014 -27.5625 51 C-24.19434418 48.24776724 -22.12351635 45.79199348 -20 42 C-17.18022389 38.45720438 -14.26144598 35.14065169 -11 32 C-11.5775 32.28875 -12.155 32.5775 -12.75 32.875 C-14.14169162 33.57084581 -15.53688954 34.25978526 -16.9375 34.9375 C-19.07502524 36.00368428 -19.07502524 36.00368428 -21.3125 37.4375 C-24.44001754 39.25582415 -27.66444404 40.60513114 -31 42 C-32.34013497 42.65288627 -33.67741528 43.31225595 -35 44 C-35.66 43.01 -36.32 42.02 -37 41 C-36.02417969 40.38511719 -35.04835938 39.77023437 -34.04296875 39.13671875 C-32.75768345 38.32051568 -31.47253432 37.50409816 -30.1875 36.6875 C-29.54490234 36.28337891 -28.90230469 35.87925781 -28.24023438 35.46289062 C-27.61826172 35.06650391 -26.99628906 34.67011719 -26.35546875 34.26171875 C-25.78465576 33.90037842 -25.21384277 33.53903809 -24.62573242 33.16674805 C-22.8900567 31.9210964 -21.48148167 30.53504173 -20 29 C-18.90096099 28.09788324 -17.79654563 27.20228603 -16.6875 26.3125 C-13.35197616 23.49176102 -10.8630968 20.39772493 -8.359375 16.83203125 C-7 15 -7 15 -5.4296875 13.61328125 C-3.45478839 11.38477488 -3.06559265 9.25120456 -2.375 6.375 C-1.08333333 1.08333333 -1.08333333 1.08333333 0 0 Z " fill="#55634B" transform="translate(596,321)"/>
<path d="M0 0 C0.66 0 1.32 0 2 0 C1.58021396 2.51871625 1.19844863 4.63479415 -0.02734375 6.890625 C-1.13039596 9.28278643 -1.2368261 10.88123262 -1.1875 13.5 C-1.18105469 14.2528125 -1.17460937 15.005625 -1.16796875 15.78125 C-1.07275153 17.9979668 -1.07275153 17.9979668 -0.42578125 20.05859375 C0.26484413 23.20759205 -1.11468163 25.9567181 -2 29 C-1.67 29.99 -1.34 30.98 -1 32 C-1.08617726 34.232269 -1.23922241 36.46238486 -1.4375 38.6875 C-1.59025391 40.45673828 -1.59025391 40.45673828 -1.74609375 42.26171875 C-1.82988281 43.16535156 -1.91367187 44.06898438 -2 45 C-2.66 45 -3.32 45 -4 45 C-4 42.69 -4 40.38 -4 38 C-4.66 38 -5.32 38 -6 38 C-10.96737545 52.90212635 -3.56195592 71.74177498 1.27563477 85.78027344 C1.94764101 87.83955243 2.50376675 89.89228765 3 92 C2.34 92 1.68 92 1 92 C-2.09817375 85.44852587 -5.02590885 78.98181389 -7 72 C-7.27972656 71.08992188 -7.55945313 70.17984375 -7.84765625 69.2421875 C-11.99360543 53.54543109 -12.17929922 34.45633388 -7 19 C-6.58477372 17.68005304 -6.17079122 16.35971439 -5.7578125 15.0390625 C-2.33340761 4.31196522 -2.33340761 4.31196522 0 0 Z " fill="#55634B" transform="translate(412,262)"/>
<path d="M0 0 C3.16790022 2.19993071 3.96229226 4.59557703 5.01171875 8.2421875 C5.25 10.5625 5.25 10.5625 3.625 13.9375 C2.84125 14.80375 2.0575 15.67 1.25 16.5625 C0.79625 17.18125 0.3425 17.8 -0.125 18.4375 C-2.59877359 20.15011248 -4.83211895 19.7570254 -7.75 19.5625 C-7.75 18.9025 -7.75 18.2425 -7.75 17.5625 C-8.74 17.2325 -9.73 16.9025 -10.75 16.5625 C-13.95148213 14.42817858 -14.27206739 13.87830104 -15.4375 10.4375 C-15.68886719 9.71304687 -15.94023437 8.98859375 -16.19921875 8.2421875 C-16.47185547 7.41074219 -16.47185547 7.41074219 -16.75 6.5625 C-11.44361503 -0.00066036 -8.83117208 -1.40495919 0 0 Z " fill="#D2E8CB" transform="translate(517.75,256.4375)"/>
<path d="M0 0 C0.33 0 0.66 0 1 0 C0.34266485 12.27025614 -3.98465147 24.35155323 -10 35 C-10.33 34.01 -10.66 33.02 -11 32 C-11.5775 32.28875 -12.155 32.5775 -12.75 32.875 C-14.14169162 33.57084581 -15.53688954 34.25978526 -16.9375 34.9375 C-19.07502524 36.00368428 -19.07502524 36.00368428 -21.3125 37.4375 C-24.44001754 39.25582415 -27.66444404 40.60513114 -31 42 C-32.34013497 42.65288627 -33.67741528 43.31225595 -35 44 C-35.66 43.01 -36.32 42.02 -37 41 C-36.02417969 40.38511719 -35.04835938 39.77023437 -34.04296875 39.13671875 C-32.75768345 38.32051568 -31.47253432 37.50409816 -30.1875 36.6875 C-29.22360352 36.08131836 -29.22360352 36.08131836 -28.24023438 35.46289062 C-27.61826172 35.06650391 -26.99628906 34.67011719 -26.35546875 34.26171875 C-25.78465576 33.90037842 -25.21384277 33.53903809 -24.62573242 33.16674805 C-22.8900567 31.9210964 -21.48148167 30.53504173 -20 29 C-18.90096099 28.09788324 -17.79654563 27.20228603 -16.6875 26.3125 C-13.35197616 23.49176102 -10.8630968 20.39772493 -8.359375 16.83203125 C-7 15 -7 15 -5.4296875 13.61328125 C-3.45478839 11.38477488 -3.06559265 9.25120456 -2.375 6.375 C-1.08333333 1.08333333 -1.08333333 1.08333333 0 0 Z " fill="#5F7653" transform="translate(596,321)"/>
<path d="M0 0 C0.495 0.99 0.495 0.99 1 2 C-3.92240954 0.40354285 -8.76393319 -1.38158155 -13.609375 -3.1953125 C-15.89551311 -4.10633797 -15.89551311 -4.10633797 -18 -4 C-18 -4.66 -18 -5.32 -18 -6 C-21.96 -6 -25.92 -6 -30 -6 C-30 -6.66 -30 -7.32 -30 -8 C-34.27077392 -8.05883232 -38.54144139 -8.09387308 -42.8125 -8.125 C-44.00810547 -8.14175781 -45.20371094 -8.15851563 -46.43554688 -8.17578125 C-56.45678305 -8.23039289 -65.51776984 -7.09389174 -74.9609375 -3.70703125 C-77 -3 -77 -3 -80.375 -2.1875 C-84.79052989 -0.74103331 -88.48203363 1.45944605 -92.44921875 3.85546875 C-95 5 -95 5 -97.33203125 4.67578125 C-97.88246094 4.45277344 -98.43289063 4.22976562 -99 4 C-67.56318155 -13.47904076 -32.56419848 -17.41905742 0 0 Z " fill="#A1C792" transform="translate(546,220)"/>
<path d="M0 0 C1.51465672 3.42790732 2.27013551 5.18959346 1.0625 8.8125 C-1 11 -1 11 -4.5 12 C-8 12 -8 12 -9.9375 10.9375 C-11.43904748 8.199384 -11.26140874 6.07155269 -11 3 C-8.89427904 -1.21144191 -4.11694326 -0.07767817 0 0 Z " fill="#F2FCEE" transform="translate(517,260)"/>
<path d="M0 0 C0.33 0.66 0.66 1.32 1 2 C0.14453125 4.3125 0.14453125 4.3125 -1.1875 7 C-1.61417969 7.886875 -2.04085937 8.77375 -2.48046875 9.6875 C-4.14340099 12.21823492 -5.21869577 12.93327489 -8 14 C-10.18703953 15.05824493 -12.24667172 16.15333648 -14.3125 17.4375 C-17.44001754 19.25582415 -20.66444404 20.60513114 -24 22 C-25.34013497 22.65288627 -26.67741528 23.31225595 -28 24 C-28.66 23.01 -29.32 22.02 -30 21 C-28.27728773 19.84448547 -26.54653083 18.70095881 -24.8125 17.5625 C-23.84957031 16.92441406 -22.88664063 16.28632813 -21.89453125 15.62890625 C-19.12277143 14.06908999 -17.09320307 13.51817761 -14 13 C-11.51406311 11.29577243 -11.51406311 11.29577243 -9 9 C-8.10861328 8.26136719 -8.10861328 8.26136719 -7.19921875 7.5078125 C-4.30220298 5.09663167 -2.11355173 3.1703276 0 0 Z " fill="#497A36" transform="translate(589,341)"/>
<path d="M0 0 C0.33 0 0.66 0 1 0 C1.19693992 2.66626359 1.38274782 5.33256639 1.5625 8 C1.61857422 8.74378906 1.67464844 9.48757813 1.73242188 10.25390625 C2.06319014 15.32568632 1.93348505 19.99160115 1 25 C0.34 25.33 -0.32 25.66 -1 26 C-1.85156732 28.81775155 -2.47363693 31.66024146 -3.12109375 34.53125 C-3.41113281 35.3459375 -3.70117188 36.160625 -4 37 C-5.485 37.495 -5.485 37.495 -7 38 C-8.21869929 40.50447516 -8.21869929 40.50447516 -9 43 C-10 40 -10 40 -9.1875 38.1875 C-8.795625 37.465625 -8.40375 36.74375 -8 36 C-7.5359375 34.5459375 -7.5359375 34.5459375 -7.0625 33.0625 C-6 30 -6 30 -4.47705078 27.66503906 C-2.82400073 24.68244496 -2.51929838 22.68021828 -2.3046875 19.296875 C-2.22863281 18.2346875 -2.15257812 17.1725 -2.07421875 16.078125 C-2.00847656 14.97984375 -1.94273437 13.8815625 -1.875 12.75 C-1.73032557 10.55704017 -1.58208857 8.36431142 -1.4296875 6.171875 C-1.37022949 5.2034668 -1.31077148 4.23505859 -1.24951172 3.23730469 C-1 1 -1 1 0 0 Z " fill="#749E62" transform="translate(597,296)"/>
<path d="M0 0 C0.66 0.33 1.32 0.66 2 1 C-4.82626992 9.15822503 -12.43799837 16.53279684 -20 24 C-20.66 22.68 -21.32 21.36 -22 20 C-20.75479583 18.55834372 -19.50362077 17.12184348 -18.25 15.6875 C-17.55390625 14.88699219 -16.8578125 14.08648437 -16.140625 13.26171875 C-14.19557177 11.20663514 -12.36964014 9.5382748 -10 8 C-9.34 8 -8.68 8 -8 8 C-8 7.34 -8 6.68 -8 6 C-6.25 4.4921875 -6.25 4.4921875 -4 2.875 C-3.2575 2.33617187 -2.515 1.79734375 -1.75 1.2421875 C-0.88375 0.62730469 -0.88375 0.62730469 0 0 Z " fill="#93BE83" transform="translate(445,225)"/>
<path d="M0 0 C0.66 0 1.32 0 2 0 C1.58021396 2.51871625 1.19844863 4.63479415 -0.02734375 6.890625 C-1.13039596 9.28278643 -1.2368261 10.88123262 -1.1875 13.5 C-1.18105469 14.2528125 -1.17460937 15.005625 -1.16796875 15.78125 C-1.07275153 17.9979668 -1.07275153 17.9979668 -0.42578125 20.05859375 C0.26484413 23.20759205 -1.11468163 25.9567181 -2 29 C-1.67 29.99 -1.34 30.98 -1 32 C-1.16011121 34.70123106 -1.60440608 37.31875231 -2 40 C-7.28555563 29.78125911 -5.57074455 17.49367024 -2.8515625 6.671875 C-2.09043109 4.28373791 -1.20133404 2.19374042 0 0 Z " fill="#6B9659" transform="translate(412,262)"/>
<path d="M0 0 C0.33 0 0.66 0 1 0 C1.125 5.75 1.125 5.75 0 8 C-0.12541286 10.57533857 -0.18517756 13.11191813 -0.1875 15.6875 C-0.19974609 16.38294922 -0.21199219 17.07839844 -0.22460938 17.79492188 C-0.23787347 22.5302024 0.56684832 26.44763583 2 31 C2.125 33.9375 2.125 33.9375 2 36 C1.34 36 0.68 36 0 36 C0 33.69 0 31.38 0 29 C-0.66 29 -1.32 29 -2 29 C-2.33 29.66 -2.66 30.32 -3 31 C-4.08101726 19.76682064 -4.87157677 10.47493547 0 0 Z " fill="#5A734E" transform="translate(408,271)"/>
<path d="M0 0 C7.42217294 3.56766284 13.08654343 8.31598972 19 14 C19.886875 14.845625 20.77375 15.69125 21.6875 16.5625 C30.82900184 26.19813707 30.82900184 26.19813707 33 31 C29.57041562 29.58214152 27.97606696 27.96809658 25.875 24.9375 C23.88925353 21.95372478 23.88925353 21.95372478 21 20 C21 19.34 21 18.68 21 18 C20.34 18 19.68 18 19 18 C19 17.34 19 16.68 19 16 C18.34 16 17.68 16 17 16 C17 15.34 17 14.68 17 14 C16.34 14 15.68 14 15 14 C15 13.34 15 12.68 15 12 C14.34 12 13.68 12 13 12 C12.484375 11.46375 11.96875 10.9275 11.4375 10.375 C8.50584729 7.51851787 5.29316739 5.52445583 1.828125 3.3671875 C1.22484375 2.91601562 0.6215625 2.46484375 0 2 C0 1.34 0 0.68 0 0 Z " fill="#9DC48E" transform="translate(549,222)"/>
<path d="M0 0 C0 3.19610552 -0.54671542 4.41717626 -2 7.1875 C-2.37125 7.90292969 -2.7425 8.61835938 -3.125 9.35546875 C-3.41375 9.89816406 -3.7025 10.44085938 -4 11 C-4.66 11 -5.32 11 -6 11 C-6.61546983 13.90150062 -7.08751864 16.73765711 -7.4375 19.6875 C-8 23 -8 23 -10 25 C-10 25.99 -10 26.98 -10 28 C-10.62599617 29.68236471 -11.28752268 31.3523962 -12 33 C-12.33 33 -12.66 33 -13 33 C-13.30144493 27.17206478 -12.77612608 24.21911703 -10 19 C-9.9071875 17.4221875 -9.9071875 17.4221875 -9.8125 15.8125 C-8.52333967 9.76336309 -4.37394693 4.37394693 0 0 Z " fill="#77A365" transform="translate(423,246)"/>
<path d="M0 0 C0.89203125 0.11085938 1.7840625 0.22171875 2.703125 0.3359375 C3.37859375 0.43132812 4.0540625 0.52671875 4.75 0.625 C4.75 0.955 4.75 1.285 4.75 1.625 C1.45 1.955 -1.85 2.285 -5.25 2.625 C-5.29125 3.883125 -5.3325 5.14125 -5.375 6.4375 C-5.39820313 7.14519531 -5.42140625 7.85289062 -5.4453125 8.58203125 C-5.38254462 10.93859719 -5.38254462 10.93859719 -3.25 13.625 C-5.5625 13.625 -5.5625 13.625 -8.25 12.625 C-9.79669344 10.10738951 -10.83394811 7.55446126 -11.25 4.625 C-8.08412193 -0.1238171 -5.53975987 -0.72891577 0 0 Z " fill="#DDEFD8" transform="translate(512.25,258.375)"/>
<path d="M0 0 C0.33 0.66 0.66 1.32 1 2 C-2.28120562 6.64555573 -5.30936259 10.68223207 -10 14 C-10.92425781 14.66708984 -10.92425781 14.66708984 -11.8671875 15.34765625 C-13.57059646 16.57561572 -15.28446736 17.78903579 -17 19 C-17 16 -17 16 -15.7109375 14.48828125 C-14.03426549 13.02980629 -12.34232191 11.59787976 -10.625 10.1875 C-8.23372658 8.16528147 -6.1587207 6.12081694 -4.1875 3.6875 C-2 1 -2 1 0 0 Z " fill="#5A8C46" transform="translate(590,337)"/>
<path d="M0 0 C1.11955078 0.20496094 1.11955078 0.20496094 2.26171875 0.4140625 C6.07745696 0.99390507 9.14830957 0.91619539 12.94921875 0.0390625 C11.19921875 3.9140625 11.19921875 3.9140625 8.94921875 5.0390625 C7.32756123 5.16054555 5.70037548 5.21449902 4.07421875 5.2265625 C2.77871094 5.24783203 2.77871094 5.24783203 1.45703125 5.26953125 C-1.17491005 5.02765502 -2.79058669 4.36889791 -5.05078125 3.0390625 C-2.63671875 0.05022321 -2.63671875 0.05022321 0 0 Z " fill="#4E8837" transform="translate(523.05078125,362.9609375)"/>
<path d="M0 0 C0.99 1.32 1.98 2.64 3 4 C-1.83333333 11.5 -1.83333333 11.5 -4 13 C-7.1875 13.1875 -7.1875 13.1875 -10 13 C-10 12.34 -10 11.68 -10 11 C-10.99 10.67 -11.98 10.34 -13 10 C-11.95199219 9.81824219 -11.95199219 9.81824219 -10.8828125 9.6328125 C-9.51769531 9.38144531 -9.51769531 9.38144531 -8.125 9.125 C-6.76761719 8.88136719 -6.76761719 8.88136719 -5.3828125 8.6328125 C-2.83494012 8.16955297 -2.83494012 8.16955297 -1 6 C-0.60235737 4.01178687 -0.26224651 2.01055661 0 0 Z " fill="#D2E8CB" transform="translate(520,263)"/>
<path d="M0 0 C0.33 0.66 0.66 1.32 1 2 C0.109375 4.34765625 0.109375 4.34765625 -1.25 7.0625 C-1.68828125 7.96097656 -2.1265625 8.85945313 -2.578125 9.78515625 C-4 12 -4 12 -7 13 C-7 12.34 -7 11.68 -7 11 C-7.78375 11.515625 -8.5675 12.03125 -9.375 12.5625 C-10.24125 13.036875 -11.1075 13.51125 -12 14 C-12.66 13.67 -13.32 13.34 -14 13 C-13.319375 12.46375 -12.63875 11.9275 -11.9375 11.375 C-9.71457454 9.57774112 -7.50232519 7.77457093 -5.3125 5.9375 C-4.73113281 5.45152344 -4.14976562 4.96554687 -3.55078125 4.46484375 C-1.76036759 2.8831847 -1.76036759 2.8831847 0 0 Z " fill="#507441" transform="translate(589,341)"/>
<path d="M0 0 C0.33 0 0.66 0 1 0 C1.13277344 0.83144531 1.26554687 1.66289062 1.40234375 2.51953125 C1.57894531 3.60621094 1.75554687 4.69289063 1.9375 5.8125 C2.19853516 7.43091797 2.19853516 7.43091797 2.46484375 9.08203125 C2.93871921 12.04933356 2.93871921 12.04933356 4 15 C3.83988879 17.70123106 3.39559392 20.31875231 3 23 C0.31689279 17.81265939 -0.12814248 13.59408748 -0.0625 7.8125 C-0.05798828 7.06291016 -0.05347656 6.31332031 -0.04882812 5.54101562 C-0.03706354 3.69397617 -0.01912865 1.84697787 0 0 Z " fill="#5E8D4B" transform="translate(407,279)"/>
<path d="M0 0 C0 3 0 3 -2.01171875 5.05078125 C-2.89472656 5.79714844 -3.77773438 6.54351562 -4.6875 7.3125 C-8.54992523 10.66541381 -11.8865364 13.95249733 -15 18 C-15.66 17.34 -16.32 16.68 -17 16 C-15.75479583 14.55834372 -14.50362077 13.12184348 -13.25 11.6875 C-12.55390625 10.88699219 -11.8578125 10.08648437 -11.140625 9.26171875 C-9.19557177 7.20663514 -7.36964014 5.5382748 -5 4 C-4.34 4 -3.68 4 -3 4 C-3 3.34 -3 2.68 -3 2 C-2.01 1.34 -1.02 0.68 0 0 Z " fill="#89B279" transform="translate(440,229)"/>
<path d="M0 0 C1.98 0.99 1.98 0.99 4 2 C4 2.99 4 3.98 4 5 C4.99 5.33 5.98 5.66 7 6 C7 6.99 7 7.98 7 9 C7.61875 9.04125 8.2375 9.0825 8.875 9.125 C9.926875 9.558125 9.926875 9.558125 11 10 C12.25 13.0625 12.25 13.0625 13 16 C8.8410831 14.47379196 6.75850553 11.46451578 4.25 8 C3.63318359 7.18015625 3.63318359 7.18015625 3.00390625 6.34375 C0 2.27200997 0 2.27200997 0 0 Z " fill="#57644D" transform="translate(417,359)"/>
<path d="M0 0 C3.10190545 4.65285818 4.33846504 9.41532676 4 15 C3.34 15 2.68 15 2 15 C2 12.69 2 10.38 2 8 C1.34 8 0.68 8 0 8 C-0.33 8.66 -0.66 9.32 -1 10 C-1.02689216 8.52093108 -1.04634621 7.04172517 -1.0625 5.5625 C-1.07410156 4.73878906 -1.08570313 3.91507812 -1.09765625 3.06640625 C-1 1 -1 1 0 0 Z " fill="#507840" transform="translate(406,292)"/>
<path d="M0 0 C0.66 0.33 1.32 0.66 2 1 C-6.23529412 7.09411765 -6.23529412 7.09411765 -11 9 C-13.17578125 8.5703125 -13.17578125 8.5703125 -15 8 C-12.54665445 6.63603538 -10.08808766 5.28365831 -7.625 3.9375 C-6.92632812 3.54755859 -6.22765625 3.15761719 -5.5078125 2.75585938 C-3.70389816 1.77584822 -1.85416518 0.88124929 0 0 Z " fill="#97BF88" transform="translate(462,216)"/>
<path d="M0 0 C0.33 0.66 0.66 1.32 1 2 C-0.25 4.625 -0.25 4.625 -2 7 C-2.99 7 -3.98 7 -5 7 C-5.309375 7.61875 -5.61875 8.2375 -5.9375 8.875 C-6.625 10.25 -7.3125 11.625 -8 13 C-8.66 13 -9.32 13 -10 13 C-8.75913019 6.64054224 -4.85530676 3.81649694 0 0 Z " fill="#516346" transform="translate(584,355)"/>
<path d="M0 0 C0.99 0.66 1.98 1.32 3 2 C3.5 5.375 3.5 5.375 3 9 C0.449054 11.84248268 -0.9896147 12.91018797 -4.8125 13.25 C-5.534375 13.1675 -6.25625 13.085 -7 13 C-6.401875 12.731875 -5.80375 12.46375 -5.1875 12.1875 C-2.25288806 10.59442495 -0.47148972 9.21801511 0.75 6.0625 C1.02762708 3.77207663 0.70165614 2.18293021 0 0 Z " fill="#E1F1DC" transform="translate(517,260)"/>
<path d="M0 0 C2.64 0.33 5.28 0.66 8 1 C8.33 1.99 8.66 2.98 9 4 C6.69 4 4.38 4 2 4 C1.34 2.68 0.68 1.36 0 0 Z " fill="#4C5843" transform="translate(492,402)"/>
<path d="M0 0 C0.66 0.33 1.32 0.66 2 1 C-2.455 4.465 -2.455 4.465 -7 8 C-7.66 7.67 -8.32 7.34 -9 7 C-8 4 -8 4 -6.22265625 2.796875 C-5.50980469 2.45140625 -4.79695312 2.1059375 -4.0625 1.75 C-3.35222656 1.39421875 -2.64195312 1.0384375 -1.91015625 0.671875 C-1.27980469 0.45015625 -0.64945313 0.2284375 0 0 Z " fill="#4F8839" transform="translate(561,358)"/>
<path d="M0 0 C2.39073445 3.82517513 2.55966552 7.59665524 3 12 C2.01 12.495 2.01 12.495 1 13 C0.63901937 11.02206479 0.28638652 9.04260427 -0.0625 7.0625 C-0.25972656 5.96035156 -0.45695313 4.85820312 -0.66015625 3.72265625 C-0.77230469 2.82417969 -0.88445313 1.92570312 -1 1 C-0.67 0.67 -0.34 0.34 0 0 Z " fill="#83AC71" transform="translate(595,284)"/>
<path d="M0 0 C0 3.19610552 -0.54671542 4.41717626 -2 7.1875 C-2.37125 7.90292969 -2.7425 8.61835938 -3.125 9.35546875 C-3.558125 10.16951172 -3.558125 10.16951172 -4 11 C-4.99 10.34 -5.98 9.68 -7 9 C-4.69 6.03 -2.38 3.06 0 0 Z " fill="#7FA76E" transform="translate(423,246)"/>
<path d="M0 0 C2.4375 0.6875 2.4375 0.6875 5 2 C5.8125 4.625 5.8125 4.625 6 7 C1.2 4.53846154 1.2 4.53846154 0.1875 1.8125 C0.125625 1.214375 0.06375 0.61625 0 0 Z " fill="#54634A" transform="translate(436,379)"/>
<path d="M0 0 C0 0.99 0 1.98 0 3 C-1.8125 4.75 -1.8125 4.75 -4 6 C-4.99 5.67 -5.98 5.34 -7 5 C-4.53846154 1.18461538 -4.53846154 1.18461538 -1.8125 0.25 C-1.214375 0.1675 -0.61625 0.085 0 0 Z " fill="#487F32" transform="translate(548,363)"/>
<path d="M0 0 C1.31223496 3.93670488 0.24296256 6.12488144 -1 10 C-1.66 9.01 -2.32 8.02 -3 7 C-1.59459459 1.59459459 -1.59459459 1.59459459 0 0 Z " fill="#626F57" transform="translate(593,334)"/>
</svg>