<svg xmlns="http://www.w3.org/2000/svg" version="1.1" height="50" width="50" viewBox="401.08 208.62 197.87 197.72">
<path d="M0 0 C1.13453613 0.00161133 2.26907227 0.00322266 3.43798828 0.00488281 C12.64955404 0.1386689 20.51630744 1.47718496 29.25 4.375 C30.28640625 4.66375 31.3228125 4.9525 32.390625 5.25 C40.75631625 7.70276812 47.87534375 11.8037845 55.25 16.375 C56.1147998 16.90480469 56.1147998 16.90480469 56.99707031 17.4453125 C58.45180685 18.3657082 59.85634694 19.36449627 61.25 20.375 C61.25 21.035 61.25 21.695 61.25 22.375 C62.054375 22.7153125 62.054375 22.7153125 62.875 23.0625 C77.57927875 31.18854878 89.11395067 50.7637559 93.87109375 66.41894531 C95.15415584 71.03754953 96.23939431 75.6899357 97.25 80.375 C97.51151855 81.54893311 97.51151855 81.54893311 97.77832031 82.74658203 C101.99810869 106.26119986 96.56829301 130.26501563 84.25 150.375 C83.71117187 151.35082031 83.17234375 152.32664062 82.6171875 153.33203125 C79.71588618 158.51943649 77.00598614 161.83330819 72.25 165.375 C70.04950918 167.51906798 67.87908226 169.66575768 65.83984375 171.96484375 C58.14437636 180.30317574 47.5157644 185.77196371 37.25 190.375 C36.47140625 190.73335937 35.6928125 191.09171875 34.890625 191.4609375 C13.77890762 200.18099468 -12.56889487 199.37125877 -33.8359375 191.61328125 C-41.32579829 188.43059242 -49.00124482 184.92883294 -55.75 180.375 C-55.75 179.715 -55.75 179.055 -55.75 178.375 C-56.44867188 178.15199219 -57.14734375 177.92898438 -57.8671875 177.69921875 C-75.20163569 169.73664702 -86.0014119 148.67803467 -92.734375 131.92578125 C-93.51891987 129.76027731 -94.15073258 127.59869671 -94.75 125.375 C-95.02714844 124.47007812 -95.30429687 123.56515625 -95.58984375 122.6328125 C-99.75625481 106.92717079 -99.91343222 87.84472521 -94.75 72.375 C-94.37488281 71.1375 -93.99976563 69.9 -93.61328125 68.625 C-91.30874112 61.18921399 -88.51971641 54.19257224 -84.75 47.375 C-84.09 47.375 -83.43 47.375 -82.75 47.375 C-82.66234375 46.81554687 -82.5746875 46.25609375 -82.484375 45.6796875 C-81.53747629 42.7080373 -79.98695862 40.89779593 -78 38.5 C-76.9171875 37.18708984 -76.9171875 37.18708984 -75.8125 35.84765625 C-75.131875 35.03167969 -74.45125 34.21570313 -73.75 33.375 C-73.255 32.75496094 -72.76 32.13492188 -72.25 31.49609375 C-69.99885466 28.68919691 -67.82167467 26.28155669 -64.75 24.375 C-64.09 24.375 -63.43 24.375 -62.75 24.375 C-62.75 23.715 -62.75 23.055 -62.75 22.375 C-53.94029804 14.98810389 -43.44476008 9.18718324 -32.75 5.0625 C-32.13431152 4.82007568 -31.51862305 4.57765137 -30.88427734 4.32788086 C-20.93061063 0.67682742 -10.51758811 -0.01574254 0 0 Z " fill="#525050" transform="translate(499.75,208.625)"/>
<path d="M0 0 C3.12501034 1.65094886 5.14621313 2.97715281 7.3125 5.75 C7.3125 6.74 7.3125 7.73 7.3125 8.75 C7.9725 8.75 8.6325 8.75 9.3125 8.75 C9.3125 9.41 9.3125 10.07 9.3125 10.75 C9.9725 10.75 10.6325 10.75 11.3125 10.75 C10.99115396 16.05220974 8.01853058 19.24234575 4.3125 22.75 C0.16267667 25.30373743 -3.00611666 24.6679183 -7.6875 23.75 C-7.6875 22.76 -7.6875 21.77 -7.6875 20.75 C-9.6675 20.42 -11.6475 20.09 -13.6875 19.75 C-14.0175 17.44 -14.3475 15.13 -14.6875 12.75 C-16.3375 12.42 -17.9875 12.09 -19.6875 11.75 C-19.02083333 10.08333333 -18.35416667 8.41666667 -17.6875 6.75 C-17.419375 5.88375 -17.15125 5.0175 -16.875 4.125 C-13.43185022 -2.76129956 -6.42220936 -2.17702012 0 0 Z " fill="#D1D1D1" transform="translate(515.6875,254.25)"/>
<path d="M0 0 C0.495 0.99 0.495 0.99 1 2 C0.505 2.556875 0.01 3.11375 -0.5 3.6875 C-2.25696492 5.88379063 -2.25696492 5.88379063 -1.8125 8.4375 C-2 11 -2 11 -4.6875 13.5 C-5.23921875 13.91507812 -5.7909375 14.33015625 -6.359375 14.7578125 C-9.35170181 17.02343137 -11.92338336 19.78619675 -14.41015625 22.58984375 C-20.13474788 28.79265679 -27.95364074 34.31788025 -36 37 C-37.11375 36.9071875 -37.11375 36.9071875 -38.25 36.8125 C-41.51511482 37.03512147 -43.41567687 38.3408221 -46.15234375 40.04296875 C-49.05834997 41.54819396 -51.75980474 41.73549426 -55 42 C-52.42452085 38.87520536 -49.65079775 37.98626731 -45.875 36.6875 C-40.74963522 34.79321979 -36.49188807 32.65204292 -32.0625 29.4765625 C-29.99269589 27.99477092 -27.87028419 26.68306552 -25.6875 25.375 C-22.71466749 23.54874702 -20.42664687 21.51997944 -18 19 C-17.34 19 -16.68 19 -16 19 C-15.75894531 18.44183594 -15.51789062 17.88367188 -15.26953125 17.30859375 C-13.73113421 14.51107791 -11.84438036 12.41513085 -9.6875 10.0625 C-8.88828125 9.18980469 -8.0890625 8.31710937 -7.265625 7.41796875 C-4.89367667 4.88652734 -2.49255396 2.41214899 0 0 Z " fill="#423D3C" transform="translate(580,358)"/>
<path d="M0 0 C3.12501034 1.65094886 5.14621313 2.97715281 7.3125 5.75 C7.3125 6.74 7.3125 7.73 7.3125 8.75 C7.9725 8.75 8.6325 8.75 9.3125 8.75 C9.3125 9.41 9.3125 10.07 9.3125 10.75 C9.9725 10.75 10.6325 10.75 11.3125 10.75 C10.99115396 16.05220974 8.01853058 19.24234575 4.3125 22.75 C0.16267667 25.30373743 -3.00611666 24.6679183 -7.6875 23.75 C-7.6875 22.76 -7.6875 21.77 -7.6875 20.75 C-6.91664063 20.62882812 -6.14578125 20.50765625 -5.3515625 20.3828125 C-4.34867187 20.21523438 -3.34578125 20.04765625 -2.3125 19.875 C-0.81589844 19.63136719 -0.81589844 19.63136719 0.7109375 19.3828125 C3.4550115 18.9541198 3.4550115 18.9541198 5.3125 16.75 C5.8642043 13.36427785 5.84066294 10.13810907 5.3125 6.75 C2.53483969 3.70353385 -0.29737931 3.54078667 -4.25 3.3125 C-7.30871516 3.44015923 -8.59538405 3.69736231 -11.3125 5.25 C-13.29841638 8.86075706 -12.7759289 11.93294031 -11.6875 15.75 C-10.2644016 18.65630368 -10.2644016 18.65630368 -8.6875 20.75 C-10.3375 20.42 -11.9875 20.09 -13.6875 19.75 C-14.0175 17.44 -14.3475 15.13 -14.6875 12.75 C-16.3375 12.42 -17.9875 12.09 -19.6875 11.75 C-19.02083333 10.08333333 -18.35416667 8.41666667 -17.6875 6.75 C-17.419375 5.88375 -17.15125 5.0175 -16.875 4.125 C-13.43185022 -2.76129956 -6.42220936 -2.17702012 0 0 Z " fill="#A4A4A4" transform="translate(515.6875,254.25)"/>
<path d="M0 0 C0.33 0 0.66 0 1 0 C1.05534912 0.64437012 1.11069824 1.28874023 1.16772461 1.95263672 C1.42360551 4.92681946 1.68054734 7.90090967 1.9375 10.875 C2.02451172 11.88820313 2.11152344 12.90140625 2.20117188 13.9453125 C2.75129655 20.30230874 3.34627622 26.65280844 4 33 C4.66 33 5.32 33 6 33 C6.33 34.98 6.66 36.96 7 39 C8.485 38.505 8.485 38.505 10 38 C9.87625 39.0725 9.7525 40.145 9.625 41.25 C9.55742067 47.51235116 13.02165378 52.68152462 16 58 C17.485 57.505 17.485 57.505 19 57 C19.2475 58.258125 19.495 59.51625 19.75 60.8125 C20.48837994 63.83557727 20.79382006 64.8059483 23.125 67 C24.053125 67.495 24.053125 67.495 25 68 C24.67 68.66 24.34 69.32 24 70 C12.4596305 64.11826511 6.25492943 47.74628148 2.25 36.1875 C0.99154643 32.16640575 -0.03100143 28.09960934 -1 24 C-0.34 24 0.32 24 1 24 C0.83628906 23.02933594 0.67257812 22.05867188 0.50390625 21.05859375 C-0.11628841 16.71723112 -0.11126417 12.44002229 -0.0625 8.0625 C-0.05798828 7.28326172 -0.05347656 6.50402344 -0.04882812 5.70117188 C-0.03716908 3.80074732 -0.01923877 1.90036294 0 0 Z " fill="#4C4647" transform="translate(404,302)"/>
<path d="M0 0 C3.40117553 1.45764666 5.43833341 3.36070715 8 6 C11.6464297 9.22969488 15.53309636 11.4752795 19.796875 13.76953125 C22 15 22 15 25.1875 17.1875 C28.06934548 19.04468931 30.71551684 20.06157624 34 21 C34 21.66 34 22.32 34 23 C35.98 23.33 37.96 23.66 40 24 C40.33 23.34 40.66 22.68 41 22 C41.495 22.99 41.495 22.99 42 24 C42.99 24.66 43.98 25.32 45 26 C34.45167544 27.60906646 26.84975904 23.04740055 18 18 C17.01773437 17.45988281 16.03546875 16.91976563 15.0234375 16.36328125 C14.35570312 15.91339844 13.68796875 15.46351563 13 15 C13 14.34 13 13.68 13 13 C12.34 12.814375 11.68 12.62875 11 12.4375 C6.75810812 10.40492681 3.05634552 7.59480838 0 4 C0 2.68 0 1.36 0 0 Z " fill="#4B4545" transform="translate(431,374)"/>
<path d="M0 0 C2.375 1.5 2.375 1.5 4 3 C3.6845975 5.91747308 3.29679974 7.63196832 1.4375 9.9375 C-2.40867872 11.61403944 -5.06795143 10.24514871 -9 9 C-9.36 3.6 -9.36 3.6 -7.875 1.125 C-5.10703881 -0.53577671 -3.16909182 -0.38805206 0 0 Z " fill="#E9E9E9" transform="translate(514,260)"/>
<path d="M0 0 C-4.74036656 2.31975385 -8.61547101 3.38243436 -13.88671875 3.69140625 C-16.04649939 3.88731383 -16.04649939 3.88731383 -17.94140625 5.01953125 C-20.51540846 6.24547917 -22.41505313 6.19960387 -25.25 6.125 C-26.14203125 6.10695313 -27.0340625 6.08890625 -27.953125 6.0703125 C-28.96632813 6.03550781 -28.96632813 6.03550781 -30 6 C-29.67 5.01 -29.34 4.02 -29 3 C-29.6290625 3.02320313 -30.258125 3.04640625 -30.90625 3.0703125 C-36.67016398 3.19184081 -41.47263742 2.63773706 -47 1 C-47 0.67 -47 0.34 -47 0 C-45.7625 -0.020625 -44.525 -0.04125 -43.25 -0.0625 C-42.55390625 -0.07410156 -41.8578125 -0.08570313 -41.140625 -0.09765625 C-38.94915489 0.00231958 -37.11770997 0.44545735 -35 1 C-24.38120776 2.69832057 -9.1855522 -3.06185073 0 0 Z " fill="#433E3E" transform="translate(524,400)"/>
<path d="M0 0 C3.5625 1.375 3.5625 1.375 6 4 C6.67238803 7.42357571 6.73530167 10.58569225 6 14 C3.34389265 17.28022001 1.18118745 17.73465967 -2.89453125 18.23046875 C-6.71241011 18.49254949 -8.39705229 18.49472633 -11.4375 16 C-13.36373099 12.3016365 -14.46529399 9.19610577 -14 5 C-10.46787277 -0.65140356 -6.14379665 -1.11019483 0 0 Z M-10.5625 2.5625 C-12.58093918 5.98507079 -11.87061285 8.22734431 -11 12 C-10.34 12 -9.68 12 -9 12 C-9 12.99 -9 13.98 -9 15 C-5.54378833 16.72810583 -1.77936542 16.47673896 2 16 C4.34243941 14.65459838 4.34243941 14.65459838 5 12 C5.16272301 8.14888881 4.84331188 5.0794392 2.4375 2 C-2.14157217 0.12140629 -6.29129262 -0.04189475 -10.5625 2.5625 Z " fill="#B6B6B6" transform="translate(516,257)"/>
<path d="M0 0 C0.66 0.33 1.32 0.66 2 1 C-4.65230576 9.00355537 -11.68517402 15.3030045 -20.375 21 C-20.9944751 21.41048584 -21.6139502 21.82097168 -22.25219727 22.24389648 C-23.79447724 23.22878733 -25.39383639 24.12314428 -27 25 C-27.66 24.67 -28.32 24.34 -29 24 C-28.10796875 23.32453125 -27.2159375 22.6490625 -26.296875 21.953125 C-25.11446376 21.05224025 -23.93217876 20.1511898 -22.75 19.25 C-22.16347656 18.8065625 -21.57695313 18.363125 -20.97265625 17.90625 C-17.74982368 15.44386107 -14.84155913 12.9054144 -12 10 C-9.31170601 8.22966005 -7.05904256 7.01968085 -4 6 C-2.90833725 4.06669397 -2.90833725 4.06669397 -2 2 C-1.34 1.34 -0.68 0.68 0 0 Z " fill="#514A49" transform="translate(574,369)"/>
<path d="M0 0 C0.33 0.66 0.66 1.32 1 2 C1.66 2 2.32 2 3 2 C2.67865396 7.30220974 -0.29396942 10.49234575 -4 14 C-8.14982333 16.55373743 -11.31861666 15.9179183 -16 15 C-16 14.01 -16 13.02 -16 12 C-15.16855469 11.96261719 -14.33710938 11.92523438 -13.48046875 11.88671875 C-11.85044922 11.78810547 -11.85044922 11.78810547 -10.1875 11.6875 C-9.10855469 11.62949219 -8.02960937 11.57148438 -6.91796875 11.51171875 C-4.03688304 11.2171246 -4.03688304 11.2171246 -2.15625 9.71875 C-0.77863283 7.6709407 -0.51318217 6.26082245 -0.3125 3.8125 C-0.1578125 1.9253125 -0.1578125 1.9253125 0 0 Z " fill="#9B9B9B" transform="translate(524,263)"/>
<path d="M0 0 C0.66 0.33 1.32 0.66 2 1 C1.319375 1.495 0.63875 1.99 -0.0625 2.5 C-2.41041719 4.99169241 -2.41041719 4.99169241 -1.9375 8.9375 C-1.3069571 12.45146305 -0.09941133 15.07907989 2 18 C0.35 17.67 -1.3 17.34 -3 17 C-3.33 14.69 -3.66 12.38 -4 10 C-4.66 10 -5.32 10 -6 10 C-5.72510809 5.96825194 -5.46508424 4.43105369 -2.4375 1.625 C-1.633125 1.08875 -0.82875 0.5525 0 0 Z " fill="#ABABAB" transform="translate(505,257)"/>
<path d="M0 0 C0.99 0.66 1.98 1.32 3 2 C2.27554688 2.03996094 1.55109375 2.07992187 0.8046875 2.12109375 C-5.23668317 2.69731775 -5.23668317 2.69731775 -9.99609375 6.13671875 C-11.58152299 8.58787788 -11.58152299 8.58787788 -12.87890625 11.1015625 C-13.24886719 11.72804688 -13.61882812 12.35453125 -14 13 C-14.66 13 -15.32 13 -16 13 C-15.33333333 11.33333333 -14.66666667 9.66666667 -14 8 C-13.731875 7.13375 -13.46375 6.2675 -13.1875 5.375 C-10.41048026 -0.17903947 -5.73682153 -0.53118718 0 0 Z " fill="#959494" transform="translate(512,253)"/>
<path d="M0 0 C0 8.18587122 -3.2799565 13.58786544 -8 20 C-8.58203125 18.12109375 -8.58203125 18.12109375 -9 16 C-7.6875 14.0625 -7.6875 14.0625 -6 12 C-5.30341637 10.34561387 -4.63903117 8.67745682 -4 7 C-1.22222222 1.22222222 -1.22222222 1.22222222 0 0 Z " fill="#4E4847" transform="translate(586,348)"/>
<path d="M0 0 C0 0.33 0 0.66 0 1 C-1.258125 1.103125 -2.51625 1.20625 -3.8125 1.3125 C-6.27135361 1.6388965 -7.82493061 1.90152347 -10 3.125 C-11.5556622 6.04186663 -11.18304063 8.76628217 -11 12 C-10.34 12 -9.68 12 -9 12 C-9 12.66 -9 13.32 -9 14 C-10.32 13.67 -11.64 13.34 -13 13 C-14.56390977 5.90225564 -14.56390977 5.90225564 -12.125 2 C-7.96832031 -0.660275 -4.79883879 -0.47047439 0 0 Z " fill="#C1C1C1" transform="translate(516,257)"/>
<path d="M0 0 C0.33 0.66 0.66 1.32 1 2 C1.66 2 2.32 2 3 2 C2.67566492 7.35152885 -0.49704824 10.28280043 -4 14 C-4.66 13.34 -5.32 12.68 -6 12 C-4.7934375 11.2575 -4.7934375 11.2575 -3.5625 10.5 C-0.01911662 7.04304061 -0.2426059 4.85211791 0 0 Z " fill="#949393" transform="translate(524,263)"/>
<path d="M0 0 C1.125 3.75 1.125 3.75 0 6 C-1.32 6 -2.64 6 -4 6 C-4.33 4.68 -4.66 3.36 -5 2 C-3.35 1.34 -1.7 0.68 0 0 Z " fill="#423D3E" transform="translate(413,340)"/>
<path d="M0 0 C0 3 0 3 -2.375 5.625 C-5 8 -5 8 -7 9 C-5.44499019 5.18315774 -2.96404505 2.80804268 0 0 Z " fill="#3C3737" transform="translate(571,368)"/>
<path d="M0 0 C1.875 0.25 1.875 0.25 4 1 C5.25 3.0625 5.25 3.0625 6 5 C4.35 4.67 2.7 4.34 1 4 C0.67 2.68 0.34 1.36 0 0 Z " fill="#A1A1A1" transform="translate(501,270)"/>
</svg>