<svg xmlns="http://www.w3.org/2000/svg" version="1.1" height="50" width="50" viewBox="401.08 208.77 197.97 197.81">
<path d="M0 0 C3.4964157 2.84420913 6.77543904 5.85306736 10 9 C10.886875 9.845625 11.77375 10.69125 12.6875 11.5625 C13.450625 12.366875 14.21375 13.17125 15 14 C15.50660156 14.51175781 16.01320313 15.02351563 16.53515625 15.55078125 C34.09672137 34.23244619 41.71183809 60.80884103 41 86 C40.5483185 91.78348704 39.41770976 97.38276059 38 103 C37.82694336 103.68578125 37.65388672 104.3715625 37.47558594 105.078125 C34.91700311 114.81813262 31.13656653 123.30208068 26 132 C25.48179687 132.94101562 24.96359375 133.88203125 24.4296875 134.8515625 C21.49099905 140.06734985 18.7909446 143.4322753 14 147 C11.79950918 149.14406798 9.62908226 151.29075768 7.58984375 153.58984375 C-0.10562364 161.92817574 -10.7342356 167.39696371 -21 172 C-21.77859375 172.35835937 -22.5571875 172.71671875 -23.359375 173.0859375 C-45.83044516 182.36746648 -72.70222341 180.66139764 -95 172 C-119.09260316 161.97179651 -138.42105382 143.33397978 -148.640625 119.35546875 C-150.30033053 115.25866688 -151.84962926 111.26867128 -153 107 C-153.27714844 106.09507812 -153.55429687 105.19015625 -153.83984375 104.2578125 C-158.00848856 88.54375048 -158.15288948 69.47927999 -153 54 C-152.63648438 52.77410156 -152.27296875 51.54820312 -151.8984375 50.28515625 C-147.19889052 34.81250342 -137.34229602 14.70782259 -123 6 C-122.34 6 -121.68 6 -121 6 C-121 5.34 -121 4.68 -121 4 C-86.28670314 -24.74237565 -36.59224628 -25.12148539 0 0 Z " fill="#BF7976" transform="translate(558,227)"/>
<path d="M0 0 C0.33 0 0.66 0 1 0 C1.91451068 5.61233949 1.96496418 10.39106023 0.875 16 C0.66858887 17.09586426 0.66858887 17.09586426 0.45800781 18.21386719 C-2.12008573 31.21618276 -6.2329918 42.54119945 -13 54 C-13.51820313 54.94101562 -14.03640625 55.88203125 -14.5703125 56.8515625 C-17.50900095 62.06734985 -20.2090554 65.4322753 -25 69 C-27.20049082 71.14406798 -29.37091774 73.29075768 -31.41015625 75.58984375 C-39.10562364 83.92817574 -49.7342356 89.39696371 -60 94 C-60.77859375 94.35835938 -61.5571875 94.71671875 -62.359375 95.0859375 C-79.57896806 102.19837811 -103.2459859 103.9180047 -121 98 C-121 97.34 -121 96.68 -121 96 C-121.66 96 -122.32 96 -123 96 C-122.505 95.01 -122.505 95.01 -122 94 C-121.39414062 94.13277344 -120.78828125 94.26554687 -120.1640625 94.40234375 C-108.41496575 96.87869183 -93.31362942 99.88075583 -82 95 C-79.5 94.65625 -79.5 94.65625 -77 94.5 C-72.16143877 94.08958632 -68.53267728 93.53267728 -65 90 C-63.96875 89.896875 -62.9375 89.79375 -61.875 89.6875 C-57.6456888 88.93713834 -55.34782697 87.57566696 -51.89453125 85.15625 C-50 84 -50 84 -47.99609375 83.5390625 C-45.44138513 82.84914119 -44.18940346 81.66213624 -42.25 79.875 C-41.20972656 78.92753906 -41.20972656 78.92753906 -40.1484375 77.9609375 C-39.08496094 76.99027344 -39.08496094 76.99027344 -38 76 C-36.62615449 74.83197404 -35.25118165 73.66527258 -33.875 72.5 C-30.65425133 69.69769505 -27.89691915 66.70956967 -25.2265625 63.3828125 C-24 62 -24 62 -22 61 C-21.731875 60.236875 -21.46375 59.47375 -21.1875 58.6875 C-19.73419655 55.39844483 -17.77973485 54.20953283 -15 52 C-14.13034494 49.87053397 -14.13034494 49.87053397 -14 48 C-14.38671875 48.43054688 -14.7734375 48.86109375 -15.171875 49.3046875 C-20.70493123 54.43576956 -27.57278821 57.36789687 -35 58 C-35.99 58.99 -35.99 58.99 -37 60 C-38.485 59.505 -38.485 59.505 -40 59 C-36.52055828 53.15950854 -36.52055828 53.15950854 -34.11328125 52.421875 C-33.41589844 52.28265625 -32.71851563 52.1434375 -32 52 C-27.2420987 50.05483114 -23.92392957 48.31627698 -21 44 C-16.60714286 41 -16.60714286 41 -14 41 C-14 40.01 -14 39.02 -14 38 C-13.34 38 -12.68 38 -12 38 C-11.773125 37.030625 -11.54625 36.06125 -11.3125 35.0625 C-10.19283925 31.06255253 -8.27052167 27.74441842 -6.12109375 24.2109375 C-4.89128269 21.78559582 -4.44288009 19.67415219 -4 17 C-3.67185975 15.66537913 -3.33797502 14.33216432 -3 13 C-2.47572958 10.75079839 -1.95516799 8.50073037 -1.4375 6.25 C-1.16808594 5.07953125 -0.89867187 3.9090625 -0.62109375 2.703125 C-0.41613281 1.81109375 -0.21117187 0.9190625 0 0 Z " fill="#6C4C4B" transform="translate(597,305)"/>
<path d="M0 0 C0.66 0 1.32 0 2 0 C1.67386719 0.96550781 1.34773438 1.93101562 1.01171875 2.92578125 C-0.25228079 7.36707178 -0.26054143 11.5979097 -0.1875 16.1875 C-0.18000732 17.43563477 -0.18000732 17.43563477 -0.17236328 18.70898438 C-0.10920585 24.4308262 0.25043972 30.07010625 0.9765625 35.75 C1 38 1 38 -1 41 C-1.495 39.515 -1.495 39.515 -2 38 C-6.54070897 44.81106345 -4.16437865 55.10132321 -2.6875 62.75 C-2.14526981 65.1712952 -1.58450867 67.58856191 -1 70 C-0.79503906 70.90621094 -0.59007812 71.81242187 -0.37890625 72.74609375 C1.43756845 79.79762596 4.90205739 86.00614178 9 92 C9.66 92.33 10.32 92.66 11 93 C11.40729228 95.32156597 11.74438677 97.6568787 12 100 C7.93639914 96.29037134 5.37874627 92.62882695 2.875 87.75 C2.35353394 86.74876099 2.35353394 86.74876099 1.8215332 85.72729492 C-0.62810216 80.93442895 -2.65126952 76.22293616 -4 71 C-4.26425781 69.99839844 -4.52851563 68.99679687 -4.80078125 67.96484375 C-9.15210887 50.99260377 -10.66723576 31.86888145 -5 15 C-4.56171474 13.63306403 -4.12427129 12.26585797 -3.6875 10.8984375 C-2.50529448 7.24843575 -1.26720771 3.62130899 0 0 Z " fill="#6F4D4D" transform="translate(410,266)"/>
<path d="M0 0 C1.91796875 0.52734375 1.91796875 0.52734375 3.91796875 1.52734375 C3.91796875 2.18734375 3.91796875 2.84734375 3.91796875 3.52734375 C4.57796875 3.52734375 5.23796875 3.52734375 5.91796875 3.52734375 C6.57796875 4.84734375 7.23796875 6.16734375 7.91796875 7.52734375 C8.24796875 7.52734375 8.57796875 7.52734375 8.91796875 7.52734375 C9.52484068 14.68843255 9.52484068 14.68843255 6.79296875 18.46484375 C3.63306907 20.73172831 1.7998321 21.52734375 -2.08203125 21.52734375 C-3.64453125 20.21484375 -3.64453125 20.21484375 -5.08203125 18.52734375 C-6.74019909 17.83981074 -8.40662461 17.17173092 -10.08203125 16.52734375 C-12.39497945 14.21439555 -12.577841 13.048295 -13.20703125 9.90234375 C-13.37460937 9.08507812 -13.5421875 8.2678125 -13.71484375 7.42578125 C-13.83601563 6.79929687 -13.9571875 6.1728125 -14.08203125 5.52734375 C-9.59312046 0.54768387 -6.71517833 -1.21358644 0 0 Z " fill="#F5DAD9" transform="translate(514.08203125,255.47265625)"/>
<path d="M0 0 C0.99 0.495 0.99 0.495 2 1 C-0.83641061 5.88648957 -3.81844167 8.67592881 -8.75 11.5 C-9.4097583 11.88236816 -10.0695166 12.26473633 -10.74926758 12.65869141 C-32.28094188 24.75833784 -55.85906252 27.09827563 -80 23 C-80.99 22.67 -81.98 22.34 -83 22 C-83 21.34 -83 20.68 -83 20 C-83.66 20 -84.32 20 -85 20 C-84.67 19.34 -84.34 18.68 -84 18 C-83.39414062 18.13277344 -82.78828125 18.26554687 -82.1640625 18.40234375 C-70.41496575 20.87869183 -55.31362942 23.88075583 -44 19 C-41.5 18.65625 -41.5 18.65625 -39 18.5 C-34.16143877 18.08958632 -30.53267728 17.53267728 -27 14 C-25.96875 13.896875 -24.9375 13.79375 -23.875 13.6875 C-19.6456888 12.93713834 -17.34782697 11.57566696 -13.89453125 9.15625 C-12 8 -12 8 -10.02734375 7.56640625 C-7.2946616 6.80294014 -5.8292039 5.3434369 -3.75 3.4375 C-2.69039062 2.47650391 -2.69039062 2.47650391 -1.609375 1.49609375 C-1.07828125 1.00238281 -0.5471875 0.50867188 0 0 Z " fill="#6B4A49" transform="translate(559,381)"/>
<path d="M0 0 C0.66 0 1.32 0 2 0 C-0.51242444 9.33186219 -3.520927 13.53233412 -11.66015625 18.68359375 C-16.88292915 21.67932456 -21.02172432 23.49121058 -27 24 C-27.66 24.66 -28.32 25.32 -29 26 C-29.99 25.67 -30.98 25.34 -32 25 C-28.52055828 19.15950854 -28.52055828 19.15950854 -26.11328125 18.421875 C-25.41589844 18.28265625 -24.71851563 18.1434375 -24 18 C-19.17416444 16.02705763 -16.06100779 14.25879345 -13 10 C-11.29075009 9.03250005 -9.57939701 8.06774206 -7.84375 7.1484375 C-5.81708723 5.88606705 -4.33637332 4.47161773 -2.6875 2.75 C-1.800625 1.8425 -0.91375 0.935 0 0 Z " fill="#8A3C39" transform="translate(589,339)"/>
<path d="M0 0 C2.30735443 3.46103164 2.7027589 5.98198869 3.4375 10.0625 C5.59485757 21.31330804 8.44550015 30.41305685 15 40 C15.66 40.33 16.32 40.66 17 41 C17.40729228 43.32156597 17.74438677 45.6568787 18 48 C13.93639914 44.29037134 11.37874627 40.62882695 8.875 35.75 C8.52735596 35.08250732 8.17971191 34.41501465 7.8215332 33.72729492 C5.37166093 28.93396544 3.35100653 24.22268297 2 19 C1.73574219 18.01 1.47148437 17.02 1.19921875 16 C-0.08888874 11.01850375 -1.2014079 6.08537423 -2 1 C-1.34 0.67 -0.68 0.34 0 0 Z " fill="#6C4D4D" transform="translate(404,318)"/>
<path d="M0 0 C1 3 1 3 -0.625 6.5 C-0.99496094 7.19867188 -1.36492187 7.89734375 -1.74609375 8.6171875 C-5.67915156 16.0912226 -9 22.80782362 -9 31.375 C-9 35.39529247 -9.31684069 39.03767598 -10 43 C-10.99 43.495 -10.99 43.495 -12 44 C-12.0543251 40.97892098 -12.09382927 37.95883472 -12.125 34.9375 C-12.14175781 34.08994141 -12.15851563 33.24238281 -12.17578125 32.36914062 C-12.2156775 27.20257561 -11.7069175 22.93916553 -10 18 C-9.71640625 17.14535156 -9.4328125 16.29070312 -9.140625 15.41015625 C-6.90267895 9.51100898 -4.04988532 4.83286315 0 0 Z " fill="#A86664" transform="translate(421,248)"/>
<path d="M0 0 C0.33 0 0.66 0 1 0 C2.27567351 6.76106962 1.48725585 12.31349436 0 19 C-0.66 19 -1.32 19 -2 19 C-2.12117187 19.66386719 -2.24234375 20.32773437 -2.3671875 21.01171875 C-4.64130435 32.99456522 -4.64130435 32.99456522 -9.125 36.3125 C-10.07375 36.869375 -11.0225 37.42625 -12 38 C-10.78666109 32.81573374 -8.8880708 28.75961787 -6.12109375 24.2109375 C-4.89128269 21.78559582 -4.44288009 19.67415219 -4 17 C-3.67185975 15.66537913 -3.33797502 14.33216432 -3 13 C-2.47572958 10.75079839 -1.95516799 8.50073037 -1.4375 6.25 C-1.16808594 5.07953125 -0.89867187 3.9090625 -0.62109375 2.703125 C-0.41613281 1.81109375 -0.21117187 0.9190625 0 0 Z M-14 38 C-13.01 38.495 -13.01 38.495 -12 39 C-12.99 39.495 -12.99 39.495 -14 40 C-14 39.34 -14 38.68 -14 38 Z " fill="#A46361" transform="translate(597,305)"/>
<path d="M0 0 C17.49602141 -0.60831313 34.11764245 -0.23529651 50 8 C46.87768631 9.56115685 44.70033459 8.14573574 41.4375 7.125 C35.8759374 5.45996428 30.76535071 4.48858904 25 4 C24.67 3.67 24.34 3.34 24 3 C22.64202987 2.93754531 21.2808998 2.94048401 19.921875 2.97265625 C19.09042969 2.98490234 18.25898438 2.99714844 17.40234375 3.00976562 C15.64965071 3.04461298 13.89703454 3.08360034 12.14453125 3.12695312 C7.63391386 3.18602901 4.09757487 3.15884626 0 1 C0 0.67 0 0.34 0 0 Z " fill="#D2928F" transform="translate(489,209)"/>
<path d="M0 0 C1 1 1 1 1.3125 3.3125 C1 6 1 6 -0.625 8.375 C-3 10 -3 10 -6.1875 9.8125 C-9 9 -9 9 -10 8 C-10.04092937 5.66702567 -10.04241723 3.33294775 -10 1 C-6.42721532 -1.33605152 -4.06815321 -0.99443745 0 0 Z " fill="#FEF0F0" transform="translate(516,261)"/>
<path d="M0 0 C1.91796875 0.52734375 1.91796875 0.52734375 3.91796875 1.52734375 C3.91796875 2.18734375 3.91796875 2.84734375 3.91796875 3.52734375 C4.57796875 3.52734375 5.23796875 3.52734375 5.91796875 3.52734375 C5.91796875 4.51734375 5.91796875 5.50734375 5.91796875 6.52734375 C5.13421875 6.19734375 4.35046875 5.86734375 3.54296875 5.52734375 C-1.16143679 4.2295767 -5.20775759 4.39560662 -10.08203125 4.52734375 C-9.75203125 7.82734375 -9.42203125 11.12734375 -9.08203125 14.52734375 C-6.60703125 15.51734375 -6.60703125 15.51734375 -4.08203125 16.52734375 C-4.08203125 16.85734375 -4.08203125 17.18734375 -4.08203125 17.52734375 C-8.60270794 17.8938851 -8.60270794 17.8938851 -10.67578125 16.30859375 C-12.37177634 14.1603333 -12.76521017 12.51662487 -13.26953125 9.83984375 C-13.42808594 9.03160156 -13.58664062 8.22335937 -13.75 7.390625 C-13.85957031 6.77574219 -13.96914063 6.16085937 -14.08203125 5.52734375 C-9.59312046 0.54768387 -6.71517833 -1.21358644 0 0 Z " fill="#EDC7C5" transform="translate(514.08203125,255.47265625)"/>
<path d="M0 0 C0.66 0 1.32 0 2 0 C-0.23461538 8.3 -0.23461538 8.3 -2 11 C-2.99 11.33 -3.98 11.66 -5 12 C-5 11.01 -5 10.02 -5 9 C-5.33 9.66 -5.66 10.32 -6 11 C-9.26087791 12.81159884 -12.32553433 14.29337199 -16 15 C-14.02382455 10.81515788 -11.91994672 9.21183168 -7.84375 7.11328125 C-5.79540822 5.87646471 -4.33758901 4.47693139 -2.6875 2.75 C-1.800625 1.8425 -0.91375 0.935 0 0 Z " fill="#964947" transform="translate(589,339)"/>
<path d="M0 0 C0.66 0 1.32 0 2 0 C1.67257812 0.89847656 1.34515625 1.79695313 1.0078125 2.72265625 C-0.55801831 8.20306409 -0.21218206 13.78743162 -0.125 19.4375 C-0.11597656 20.55060547 -0.10695313 21.66371094 -0.09765625 22.81054688 C-0.0742224 25.54059023 -0.041414 28.2701801 0 31 C-0.33 30.34 -0.66 29.68 -1 29 C-1.66 29 -2.32 29 -3 29 C-5.85526536 23.28946927 -4.64586072 13.52985617 -3.10546875 7.49609375 C-2.16245926 4.94030478 -1.16766862 2.4604446 0 0 Z " fill="#8F5251" transform="translate(410,266)"/>
<path d="M0 0 C3.71599191 -0.20086443 4.77208445 -0.1519437 8 2 C8 2.66 8 3.32 8 4 C8.78375 4.103125 9.5675 4.20625 10.375 4.3125 C13 5 13 5 15 8 C18.56769552 8.73606499 18.56769552 8.73606499 22 9 C22 9.66 22 10.32 22 11 C22.61875 11.103125 23.2375 11.20625 23.875 11.3125 C26 12 26 12 28 15 C17.86735326 11.96020598 8.31399442 7.61340465 0 1 C0 0.67 0 0.34 0 0 Z " fill="#6A4C4C" transform="translate(442,386)"/>
<path d="M0 0 C0.66 0.33 1.32 0.66 2 1 C2 1.66 2 2.32 2 3 C2.66 3 3.32 3 4 3 C4.39063507 4.43333021 4.76198474 5.87192679 5.125 7.3125 C5.33382813 8.11300781 5.54265625 8.91351563 5.7578125 9.73828125 C6 12 6 12 4 15 C3.67 14.01 3.34 13.02 3 12 C0.5705484 15.6441774 0.83820425 17.71241272 1 22 C0.34 21.67 -0.32 21.34 -1 21 C-1.10808032 13.90272572 -0.93854006 7.03905044 0 0 Z " fill="#714241" transform="translate(405,292)"/>
<path d="M0 0 C10.99102802 1.36891865 21.45928329 13.02453793 28.51953125 21.0703125 C29.97764148 22.97085724 31.0091726 24.82501303 32 27 C30.0625 26.1875 30.0625 26.1875 28 25 C27.67 24.01 27.34 23.02 27 22 C26.34 22 25.68 22 25 22 C22.875 20.125 22.875 20.125 21 18 C21 17.34 21 16.68 21 16 C20.34 16 19.68 16 19 16 C19 15.34 19 14.68 19 14 C18.34 14 17.68 14 17 14 C15.33333333 12.33333333 13.66666667 10.66666667 12 9 C11.071875 8.443125 10.14375 7.88625 9.1875 7.3125 C8.465625 6.879375 7.74375 6.44625 7 6 C7 5.34 7 4.68 7 4 C6.21625 3.71125 5.4325 3.4225 4.625 3.125 C2 2 2 2 0 0 Z " fill="#D0908D" transform="translate(547,222)"/>
<path d="M0 0 C0.66 0 1.32 0 2 0 C-0.27190613 11.52886526 -3.59113445 21.56210496 -9 32 C-9.33 32 -9.66 32 -10 32 C-10.25790347 28.04780355 -9.64650983 25.85276493 -7.6875 22.4375 C-5.15506252 17.65877617 -3.82243713 13.03070803 -2.67578125 7.76171875 C-2.00962884 5.03935024 -1.1014973 2.57328518 0 0 Z " fill="#835656" transform="translate(595,324)"/>
<path d="M0 0 C0.66 0.33 1.32 0.66 2 1 C-2.79241505 5.92720172 -7.77809692 10.5328251 -13 15 C-13.680625 15.58523437 -14.36125 16.17046875 -15.0625 16.7734375 C-16.70601037 18.18500084 -18.35266531 19.59290162 -20 21 C-18.83385885 18.48992039 -17.9551722 16.95653062 -15.9375 15 C-13.83979005 13.24074762 -13.83979005 13.24074762 -13.7890625 11.171875 C-12.5177071 7.67250073 -9.44300911 6.19455489 -6.4375 4.25 C-5.82197266 3.83878906 -5.20644531 3.42757812 -4.57226562 3.00390625 C-3.05495359 1.99236489 -1.52833914 0.99480211 0 0 Z " fill="#C88280" transform="translate(450,222)"/>
<path d="M0 0 C0.99 0.33 1.98 0.66 3 1 C3.60687193 8.1610888 3.60687193 8.1610888 0.875 11.9375 C-2.28489968 14.20438456 -4.11813665 15 -8 15 C-9.875 13.5625 -9.875 13.5625 -11 12 C-9.06860205 10.06860205 -5.60390519 10.35915934 -3 10 C-2.01 9.67 -1.02 9.34 0 9 C0 6.03 0 3.06 0 0 Z " fill="#EEC9C8" transform="translate(520,262)"/>
<path d="M0 0 C0.66 0.33 1.32 0.66 2 1 C-0.92915527 4.12304734 -3.96858351 6.48990091 -7.5625 8.8125 C-8.51253906 9.43769531 -9.46257813 10.06289063 -10.44140625 10.70703125 C-11.28574219 11.13371094 -12.13007812 11.56039063 -13 12 C-13.99 11.67 -14.98 11.34 -16 11 C-18.16715557 11.87483915 -18.16715557 11.87483915 -20 13 C-19 10 -19 10 -16.3125 8.4375 C-13.24346268 7.10565362 -10.17061378 6.05687126 -7 5 C-6.01 4.34 -5.02 3.68 -4 3 C-3.01 3 -2.02 3 -1 3 C-0.67 2.01 -0.34 1.02 0 0 Z " fill="#85403E" transform="translate(584,347)"/>
<path d="M0 0 C0.66 0 1.32 0 2 0 C2 0.99 2 1.98 2 3 C2.66 3 3.32 3 4 3 C6.125 4.875 6.125 4.875 8 7 C8 7.66 8 8.32 8 9 C8.99 9 9.98 9 11 9 C11.33 10.65 11.66 12.3 12 14 C8.52224821 12.48446596 6.0442016 10.4226544 3.25 7.875 C2.45078125 7.15054687 1.6515625 6.42609375 0.828125 5.6796875 C-0.07679688 4.84824219 -0.07679688 4.84824219 -1 4 C-0.67 2.68 -0.34 1.36 0 0 Z " fill="#6D4B4B" transform="translate(429,371)"/>
<path d="M0 0 C5.0465426 7.5698139 5.0503921 18.13063348 3.48828125 26.859375 C3.32714844 27.56578125 3.16601562 28.2721875 3 29 C2.67 29 2.34 29 2 29 C1.93941406 27.99582031 1.87882813 26.99164063 1.81640625 25.95703125 C1.2879737 17.29796756 0.69595061 8.64755653 0 0 Z " fill="#B3706D" transform="translate(594,281)"/>
<path d="M0 0 C-3.42771102 1.84569055 -6.801204 3.31713631 -10.5 4.5 C-14.20303664 5.684473 -17.55005257 7.19288468 -21 9 C-21.99 9.33 -22.98 9.66 -24 10 C-24.33 9.34 -24.66 8.68 -25 8 C-4.78980506 -1.51974121 -4.78980506 -1.51974121 0 0 Z " fill="#CC8C89" transform="translate(477,213)"/>
<path d="M0 0 C2.13536309 7.25345559 1.36248391 15.64258691 0 23 C-0.66 23.33 -1.32 23.66 -2 24 C-2.05410136 20.93726169 -2.09372225 17.87548548 -2.125 14.8125 C-2.14175781 13.94818359 -2.15851563 13.08386719 -2.17578125 12.19335938 C-2.21038233 7.67791897 -2.15567916 4.09918517 0 0 Z " fill="#A95D5A" transform="translate(411,268)"/>
<path d="M0 0 C1.65360951 3.30721902 0.15339901 6.17685928 -0.8984375 9.578125 C-2.55324352 13.21635099 -4.46773286 14.27311384 -8 16 C-6.65678452 9.68688724 -3.75248411 5.20391664 0 0 Z M-10 16 C-9.01 16.495 -9.01 16.495 -8 17 C-8.99 17.495 -8.99 17.495 -10 18 C-10 17.34 -10 16.68 -10 16 Z " fill="#A15755" transform="translate(593,327)"/>
<path d="M0 0 C1.45922693 0.11409593 2.91740598 0.24165544 4.375 0.375 C5.59316406 0.47941406 5.59316406 0.47941406 6.8359375 0.5859375 C9 1 9 1 11 3 C11.375 6.4375 11.375 6.4375 11 10 C9.25 12 9.25 12 7 13 C4.75 12.6875 4.75 12.6875 3 12 C4.2375 11.1646875 4.2375 11.1646875 5.5 10.3125 C8.2745414 8.25072867 8.2745414 8.25072867 8.3125 5.25 C8.209375 4.5075 8.10625 3.765 8 3 C5.03 2.67 2.06 2.34 -1 2 C-0.67 1.34 -0.34 0.68 0 0 Z " fill="#FAE4E4" transform="translate(508,259)"/>
<path d="M0 0 C5.94 0.33 11.88 0.66 18 1 C17.67 1.66 17.34 2.32 17 3 C11.1142177 4.15613581 5.9057942 3.88860329 0 3 C0 2.01 0 1.02 0 0 Z " fill="#8C3A37" transform="translate(516,365)"/>
<path d="M0 0 C0.99 0.495 0.99 0.495 2 1 C2 1.66 2 2.32 2 3 C2.66 3 3.32 3 4 3 C4.39063507 4.43333021 4.76198474 5.87192679 5.125 7.3125 C5.33382813 8.11300781 5.54265625 8.91351563 5.7578125 9.73828125 C6 12 6 12 4 15 C3.79503906 14.36191406 3.59007812 13.72382813 3.37890625 13.06640625 C3.10949219 12.24011719 2.84007812 11.41382813 2.5625 10.5625 C2.29566406 9.73878906 2.02882813 8.91507812 1.75390625 8.06640625 C1.17844506 6.03780412 1.17844506 6.03780412 0 5 C-0.04063832 3.33382885 -0.042721 1.66611905 0 0 Z " fill="#894544" transform="translate(405,292)"/>
<path d="M0 0 C-1.489539 4.06963335 -3.7475392 5.32270828 -7.5 7.3125 C-8.4796875 7.84488281 -9.459375 8.37726563 -10.46875 8.92578125 C-11.72171875 9.45751953 -11.72171875 9.45751953 -13 10 C-13.66 9.67 -14.32 9.34 -15 9 C-14.39671875 8.60167969 -13.7934375 8.20335937 -13.171875 7.79296875 C-12.37265625 7.26316406 -11.5734375 6.73335938 -10.75 6.1875 C-9.96109375 5.66542969 -9.1721875 5.14335937 -8.359375 4.60546875 C-6.81382041 3.55377514 -5.3004844 2.45271711 -3.828125 1.30078125 C-2 0 -2 0 0 0 Z " fill="#7B3A38" transform="translate(582,352)"/>
<path d="M0 0 C1.25348607 2.95106435 1.01044806 3.97406463 -0.21484375 7.015625 C-1.06755859 8.61664063 -1.06755859 8.61664063 -1.9375 10.25 C-2.50339844 11.32765625 -3.06929687 12.4053125 -3.65234375 13.515625 C-4.09707031 14.33546875 -4.54179688 15.1553125 -5 16 C-5.33 16 -5.66 16 -6 16 C-6.3913152 11.54063718 -5.21759262 9.02208724 -3 5.1875 C-2.443125 4.21167969 -1.88625 3.23585938 -1.3125 2.23046875 C-0.879375 1.49441406 -0.44625 0.75835937 0 0 Z " fill="#715453" transform="translate(591,340)"/>
<path d="M0 0 C0.96808594 0.11859375 1.93617188 0.2371875 2.93359375 0.359375 C3.90425781 0.46765625 4.87492188 0.5759375 5.875 0.6875 C8.37109375 1.109375 8.37109375 1.109375 10.37109375 2.109375 C10.37109375 3.099375 10.37109375 4.089375 10.37109375 5.109375 C9.19546875 4.614375 9.19546875 4.614375 7.99609375 4.109375 C3.37747506 2.83527329 -0.87139981 2.94013564 -5.62890625 3.109375 C-3.80465353 0.71001888 -3.07702178 0.12801874 0 0 Z " fill="#F1D0CF" transform="translate(509.62890625,256.890625)"/>
<path d="M0 0 C0.66 0 1.32 0 2 0 C-0.23461538 8.3 -0.23461538 8.3 -2 11 C-2.99 11.33 -3.98 11.66 -5 12 C-5 7.24768876 -3.70946316 5.77682743 -1 2 C-0.67 1.34 -0.34 0.68 0 0 Z " fill="#7D4948" transform="translate(589,339)"/>
<path d="M0 0 C4.13937592 3.30015998 7.58662205 6.17324411 10 11 C8.0625 10.1875 8.0625 10.1875 6 9 C5.67 8.01 5.34 7.02 5 6 C4.34 6 3.68 6 3 6 C0 2.53846154 0 2.53846154 0 0 Z " fill="#CC8A86" transform="translate(569,238)"/>
<path d="M0 0 C3.3 0 6.6 0 10 0 C9.67 0.66 9.34 1.32 9 2 C6.125 2.8125 6.125 2.8125 3 3 C2.01 2.01 1.02 1.02 0 0 Z " fill="#EBC0BF" transform="translate(509,274)"/>
<path d="M0 0 C1 3 1 3 0.22265625 5.04296875 C-0.16019531 5.75066406 -0.54304688 6.45835937 -0.9375 7.1875 C-1.31777344 7.90292969 -1.69804687 8.61835938 -2.08984375 9.35546875 C-2.54037109 10.16951172 -2.54037109 10.16951172 -3 11 C-3.66 9.68 -4.32 8.36 -5 7 C-3.35 4.69 -1.7 2.38 0 0 Z " fill="#B16F6D" transform="translate(421,248)"/>
<path d="M0 0 C-2.09782787 2.09782787 -3.3799207 2.6509396 -6.125 3.625 C-6.84945312 3.88539063 -7.57390625 4.14578125 -8.3203125 4.4140625 C-9.15175781 4.70410156 -9.15175781 4.70410156 -10 5 C-9 2 -9 2 -6.125 0.25 C-3 -1 -3 -1 0 0 Z " fill="#93423F" transform="translate(574,355)"/>
<path d="M0 0 C0.66 0.33 1.32 0.66 2 1 C-0.31 3.31 -2.62 5.62 -5 8 C-5.66 7.67 -6.32 7.34 -7 7 C-2.25 1.125 -2.25 1.125 0 0 Z " fill="#CA8784" transform="translate(450,222)"/>
<path d="M0 0 C-2 2 -2 2 -5.625 2.125 C-6.73875 2.08375 -7.8525 2.0425 -9 2 C-8 0 -8 0 -6.1875 -0.6875 C-3.81180233 -1.02688538 -2.26664171 -0.72856341 0 0 Z " fill="#D1908D" transform="translate(487,211)"/>
<path d="M0 0 C0 0.66 0 1.32 0 2 C-2.35438733 3.42944945 -3.48032433 4.08661261 -6.25 3.625 C-6.8275 3.41875 -7.405 3.2125 -8 3 C-2.25 0 -2.25 0 0 0 Z " fill="#8B3A37" transform="translate(545,364)"/>
</svg>