<svg xmlns="http://www.w3.org/2000/svg" version="1.1" height="50" width="50"  viewBox="401.08 208.69 197.97 197.67">
<path d="M0 0 C3.4964157 2.84420913 6.77543904 5.85306736 10 9 C10.886875 9.845625 11.77375 10.69125 12.6875 11.5625 C13.450625 12.366875 14.21375 13.17125 15 14 C15.50660156 14.51175781 16.01320313 15.02351563 16.53515625 15.55078125 C34.09672137 34.23244619 41.71183809 60.80884103 41 86 C40.5483185 91.78348704 39.41770976 97.38276059 38 103 C37.82694336 103.68578125 37.65388672 104.3715625 37.47558594 105.078125 C34.91700311 114.81813262 31.13656653 123.30208068 26 132 C25.48179687 132.94101562 24.96359375 133.88203125 24.4296875 134.8515625 C21.49099905 140.06734985 18.7909446 143.4322753 14 147 C11.79950918 149.14406798 9.62908226 151.29075768 7.58984375 153.58984375 C-0.10562364 161.92817574 -10.7342356 167.39696371 -21 172 C-21.77859375 172.35835937 -22.5571875 172.71671875 -23.359375 173.0859375 C-44.44020055 181.79323501 -70.88404892 181.04484789 -92.109375 173.21875 C-117.42202136 162.546391 -137.77922929 144.83991346 -148.640625 119.35546875 C-150.30033053 115.25866688 -151.84962926 111.26867128 -153 107 C-153.27714844 106.09507812 -153.55429687 105.19015625 -153.83984375 104.2578125 C-158.00848856 88.54375048 -158.15288948 69.47927999 -153 54 C-152.63648438 52.77410156 -152.27296875 51.54820312 -151.8984375 50.28515625 C-147.19889052 34.81250342 -137.34229602 14.70782259 -123 6 C-122.34 6 -121.68 6 -121 6 C-121 5.34 -121 4.68 -121 4 C-86.20775207 -24.8077466 -36.67472263 -25.17810745 0 0 Z " fill="#7D89B9" transform="translate(558,227)"/>
<path d="M0 0 C0.99 0.495 0.99 0.495 2 1 C-5.86826281 14.63965356 -5.86826281 14.63965356 -12 19 C-14.20049082 21.14406798 -16.37091774 23.29075768 -18.41015625 25.58984375 C-26.10562364 33.92817574 -36.7342356 39.39696371 -47 44 C-48.16789063 44.53753906 -48.16789063 44.53753906 -49.359375 45.0859375 C-70.45603524 53.79977542 -96.82790537 53.01201979 -118.078125 45.23828125 C-134.25786708 38.38135847 -134.25786708 38.38135847 -138 34 C-137.67 33.34 -137.34 32.68 -137 32 C-135 32 -135 32 -133.375 33.375 C-132 35 -132 35 -132 37 C-131.15695312 37.10957031 -130.31390625 37.21914063 -129.4453125 37.33203125 C-127.80175781 37.56986328 -127.80175781 37.56986328 -126.125 37.8125 C-125.03445313 37.96332031 -123.94390625 38.11414063 -122.8203125 38.26953125 C-120 39 -120 39 -118 42 C-115.12240932 42.80336113 -115.12240932 42.80336113 -111.875 43.1875 C-110.23144531 43.42533203 -110.23144531 43.42533203 -108.5546875 43.66796875 C-107.71164062 43.77753906 -106.86859375 43.88710938 -106 44 C-106 44.66 -106 45.32 -106 46 C-103.69 45.67 -101.38 45.34 -99 45 C-99 45.66 -99 46.32 -99 47 C-95.00001563 47.02927916 -91.00005924 47.04689219 -87 47.0625 C-85.87464844 47.07087891 -84.74929688 47.07925781 -83.58984375 47.08789062 C-74.97588869 47.11307763 -67.27098997 46.61189157 -59 44 C-58.35804688 43.81824219 -57.71609375 43.63648438 -57.0546875 43.44921875 C-48.81533974 40.97133372 -41.31553802 36.77134888 -33.71484375 32.80859375 C-32 32 -32 32 -29.875 31.625 C-29.25625 31.41875 -28.6375 31.2125 -28 31 C-27.70351563 30.39414062 -27.40703125 29.78828125 -27.1015625 29.1640625 C-25.86989955 26.74441259 -24.5699242 25.48663132 -22.5 23.75 C-21.8915625 23.22921875 -21.283125 22.7084375 -20.65625 22.171875 C-19 21 -19 21 -17 21 C-16.76925781 20.45085937 -16.53851562 19.90171875 -16.30078125 19.3359375 C-14.63594737 16.34623582 -12.52249401 14.12452882 -10.1875 11.625 C-6.67592704 7.82884226 -3.25626073 4.0160549 0 0 Z " fill="#525065" transform="translate(584,355)"/>
<path d="M0 0 C0.66 0 1.32 0 2 0 C1.74481529 2.27264504 1.47030939 4.54312705 1.1875 6.8125 C1.03667969 8.07707031 0.88585937 9.34164063 0.73046875 10.64453125 C-0.02450866 14.11258254 -0.4749817 14.7766722 -3 17 C-3.82332409 19.08970378 -3.82332409 19.08970378 -4.25 21.375 C-4.42015625 22.12523437 -4.5903125 22.87546875 -4.765625 23.6484375 C-5.03354063 26.33652434 -4.54194493 28.35515609 -4 31 C-3.9065672 33.65733875 -3.86020357 36.28154126 -3.875 38.9375 C-3.87113281 39.62779297 -3.86726563 40.31808594 -3.86328125 41.02929688 C-3.87104388 45.12408324 -4.20803123 48.98358696 -5 53 C-7.76223278 50.23776722 -7.57856291 47.79293383 -8 44 C-12.96360717 51.44541076 -9.4706301 63.71934981 -8 72 C-6.12426512 80.431789 -3.39595362 87.8403897 0.828125 95.37890625 C2.07382695 98.16512629 2.23980214 99.98612309 2 103 C-4.639728 97.34832676 -7.72157144 86.24574146 -10 78 C-10.2784375 77.0925 -10.556875 76.185 -10.84375 75.25 C-15.00158493 59.54262361 -15.16353845 40.47004349 -10 25 C-9.62488281 23.7625 -9.24976563 22.525 -8.86328125 21.25 C-6.55874112 13.81421399 -3.76971641 6.81757224 0 0 Z " fill="#54546C" transform="translate(415,256)"/>
<path d="M0 0 C0.33 0 0.66 0 1 0 C1.91458502 5.61279575 1.96371772 10.39054945 0.875 16 C0.73956787 16.72695068 0.60413574 17.45390137 0.46459961 18.20288086 C-1.63502801 28.8737804 -4.64739406 39.4842561 -10 49 C-10.66 49 -11.32 49 -12 49 C-12.33 48.34 -12.66 47.68 -13 47 C-14.97890361 48.47104339 -16.94008524 49.9516654 -18.859375 51.5 C-23.39591859 55.0992412 -27.48592902 57.22762004 -33 59 C-33.66 58.01 -34.32 57.02 -35 56 C-32.49367089 52.11518987 -32.49367089 52.11518987 -30.125 51.5625 C-26.88138124 50.70389504 -25.32807018 48.38098087 -23 46 C-20.98685383 44.46053528 -18.94099922 42.98385354 -16.8671875 41.52734375 C-12.4037627 37.87629962 -10.60919548 33.1262176 -8.4375 27.9375 C-5.24634592 20.36951888 -5.24634592 20.36951888 -3 17 C-2.61573129 14.72648343 -2.61573129 14.72648343 -2.5 12.25 C-2.14964101 7.90554847 -1.34895118 4.13678361 0 0 Z " fill="#49568C" transform="translate(597,305)"/>
<path d="M0 0 C1.4375 3.125 1.4375 3.125 2 6 C2.99 6 3.98 6 5 6 C4.3980344 12.38083538 4.3980344 12.38083538 2.875 14.75 C0.07599871 16.61600086 -2.87308347 17.76103307 -6 19 C-6.4125 18.54625 -6.825 18.0925 -7.25 17.625 C-9.07309171 15.93212913 -10.77506312 15.07658236 -13 14 C-15.3129482 11.6870518 -15.49580975 10.52095125 -16.125 7.375 C-16.29257812 6.55773437 -16.46015625 5.74046875 -16.6328125 4.8984375 C-16.75398438 4.27195312 -16.87515625 3.64546875 -17 3 C-11.26516258 -2.07942743 -7.23222494 -3.13851271 0 0 Z " fill="#DDE1F4" transform="translate(518,258)"/>
<path d="M0 0 C0.33 0 0.66 0 1 0 C2.01562446 6.01195151 1.84393506 10.90967888 0.6875 16.875 C0.55666016 17.63296875 0.42582031 18.3909375 0.29101562 19.171875 C-0.73317373 24.73317373 -0.73317373 24.73317373 -3 27 C-3.680625 28.7015625 -3.680625 28.7015625 -4.375 30.4375 C-5.99648006 33.9922832 -6.88481249 34.92320833 -10 37 C-10.33 37.99 -10.66 38.98 -11 40 C-12.70703125 41.859375 -12.70703125 41.859375 -14.8125 43.75 C-15.49957031 44.38421875 -16.18664062 45.0184375 -16.89453125 45.671875 C-19 47 -19 47 -21.26171875 46.703125 C-21.83535156 46.47109375 -22.40898438 46.2390625 -23 46 C-22.18595703 45.41992188 -22.18595703 45.41992188 -21.35546875 44.828125 C-20.28232422 44.04695313 -20.28232422 44.04695313 -19.1875 43.25 C-18.47980469 42.73953125 -17.77210938 42.2290625 -17.04296875 41.703125 C-12.51139876 37.92537258 -10.66422592 33.25769893 -8.4375 27.9375 C-5.24634592 20.36951888 -5.24634592 20.36951888 -3 17 C-2.61573129 14.72648343 -2.61573129 14.72648343 -2.5 12.25 C-2.14964101 7.90554847 -1.34895118 4.13678361 0 0 Z " fill="#5A669A" transform="translate(597,305)"/>
<path d="M0 0 C2.76186886 2.76186886 2.53424606 5.53630097 2.875 9.25 C4.15652419 20.85694765 7.09195195 31.14182514 12.828125 41.37890625 C14.07382695 44.16512629 14.23980214 45.98612309 14 49 C4.36909437 40.80226485 0.91189246 21.9052594 -1 10 C-1.14444826 6.25996135 -1.18400212 3.55200635 0 0 Z " fill="#525065" transform="translate(403,310)"/>
<path d="M0 0 C1.35439668 2.70879335 1.06501451 5.00933268 1 8 C-0.98 8.99 -0.98 8.99 -3 10 C-3 10.66 -3 11.32 -3 12 C-6.71599191 12.20086443 -7.77208445 12.1519437 -11 10 C-11.36750064 6.63124415 -11.57975504 4.12327538 -10 1.0625 C-6.73357754 -0.67278693 -3.65648548 -0.17982715 0 0 Z " fill="#EFF2FD" transform="translate(517,260)"/>
<path d="M0 0 C1.09111084 0.00128906 2.18222168 0.00257813 3.30639648 0.00390625 C11.10809945 0.09694288 18.18196966 0.82655746 25.625 3.3125 C22.625 5.3125 22.625 5.3125 20.0234375 5.10546875 C19.02570312 4.90566406 18.02796875 4.70585937 17 4.5 C8.37342737 2.81317674 0.73968141 2.10208795 -8 3.1875 C-8.80695313 3.27902344 -9.61390625 3.37054688 -10.4453125 3.46484375 C-18.83473036 4.39986138 -18.83473036 4.39986138 -27.125 5.9375 C-29.375 6.3125 -29.375 6.3125 -32.375 5.3125 C-21.68864343 1.35459016 -11.37230647 -0.05595661 0 0 Z " fill="#95A0CC" transform="translate(500.375,208.6875)"/>
<path d="M0 0 C0.66 0 1.32 0 2 0 C1.74481529 2.27264504 1.47030939 4.54312705 1.1875 6.8125 C1.03667969 8.07707031 0.88585937 9.34164063 0.73046875 10.64453125 C-0.02450866 14.11258254 -0.4749817 14.7766722 -3 17 C-3.82332409 19.08970378 -3.82332409 19.08970378 -4.25 21.375 C-4.42015625 22.12523437 -4.5903125 22.87546875 -4.765625 23.6484375 C-5.03175723 26.31863083 -4.52925313 28.37761041 -4 31 C-4.08121425 32.94128253 -4.22804314 34.88084231 -4.4375 36.8125 C-4.53933594 37.78832031 -4.64117187 38.76414062 -4.74609375 39.76953125 C-4.87177734 40.87361328 -4.87177734 40.87361328 -5 42 C-9.41162176 35.38256736 -8.64181492 27.30066535 -7.50390625 19.67578125 C-6.00432668 12.51677145 -3.62433988 6.34617615 0 0 Z " fill="#5B6598" transform="translate(415,256)"/>
<path d="M0 0 C0.33 0.99 0.66 1.98 1 3 C-1 5 -1 5 -3.125 6.25 C-5.53896735 7.71937143 -7.60786539 9.25015249 -9.8125 11 C-13.69060068 13.96951709 -17.36384842 15.50980842 -22 17 C-22.66 16.01 -23.32 15.02 -24 14 C-21.85657746 10.67769506 -20.76788172 9.85899894 -17 9 C-15.00801052 8.26293649 -13.02956447 7.48871289 -11.0625 6.6875 C-10.04285156 6.27886719 -9.02320313 5.87023437 -7.97265625 5.44921875 C-4.91779045 3.95992149 -2.56476258 2.21523692 0 0 Z " fill="#414E84" transform="translate(586,347)"/>
<path d="M0 0 C0.33 0 0.66 0 1 0 C3.02787502 10.95052512 0.26474948 19.8180771 -6 29 C-6.99 29.66 -7.98 30.32 -9 31 C-8.44036835 27.35603486 -7.4910068 24.89740297 -5.5 21.8125 C-3.05227701 17.59736671 -2.43579429 14.19583364 -2.1796875 9.375 C-1.92816054 6.05046972 -1.03081135 3.16115481 0 0 Z " fill="#696F9B" transform="translate(597,305)"/>
<path d="M0 0 C0.33 0.66 0.66 1.32 1 2 C1.99 2 2.98 2 4 2 C3.3980344 8.38083538 3.3980344 8.38083538 1.875 10.75 C-0.92400129 12.61600086 -3.87308347 13.76103307 -7 15 C-8.5 13.625 -8.5 13.625 -10 12 C-10 11.34 -10 10.68 -10 10 C-8.72125 9.87625 -7.4425 9.7525 -6.125 9.625 C-2.65209064 9.30957601 -2.65209064 9.30957601 0 7 C0.16677282 3.41656024 0.16677282 3.41656024 0 0 Z " fill="#CDD3EC" transform="translate(519,262)"/>
<path d="M0 0 C0.33 0 0.66 0 1 0 C1.12117188 0.7734375 1.24234375 1.546875 1.3671875 2.34375 C2.49797399 9.41932823 2.49797399 9.41932823 4.1875 16.375 C5.01043053 20.04653622 4.90443689 22.38225245 4 26 C1.23776722 23.23776722 1.42143709 20.79293383 1 17 C0.34 17 -0.32 17 -1 17 C-1.12036664 11.22240116 -0.8320582 5.72040011 0 0 Z " fill="#4B5483" transform="translate(406,283)"/>
<path d="M0 0 C0 0.33 0 0.66 0 1 C-4.455 1.495 -4.455 1.495 -9 2 C-9.99 4.31 -10.98 6.62 -12 9 C-11.34 9 -10.68 9 -10 9 C-10 10.32 -10 11.64 -10 13 C-9.01 13.33 -8.02 13.66 -7 14 C-8.875 14.625 -8.875 14.625 -11 15 C-13.3129482 12.6870518 -13.49580975 11.52095125 -14.125 8.375 C-14.29257812 7.55773437 -14.46015625 6.74046875 -14.6328125 5.8984375 C-14.75398438 5.27195312 -14.87515625 4.64546875 -15 4 C-9.95281169 -0.47036678 -6.56868189 -1.68908963 0 0 Z " fill="#D0D6EE" transform="translate(516,257)"/>
<path d="M0 0 C2.08483917 6.25451751 -2.41170169 14.06323027 -5.25 19.75 C-5.8275 20.8225 -6.405 21.895 -7 23 C-7.66 23 -8.32 23 -9 23 C-7.45276945 17.27993553 -5.69353464 12.00445431 -2.91796875 6.76171875 C-1.77568293 4.56950212 -0.86739759 2.31306023 0 0 Z " fill="#5B596D" transform="translate(594,331)"/>
<path d="M0 0 C0.99 0.495 0.99 0.495 2 1 C4.58843601 9.77192204 4.99232417 19.03454122 3 28 C2.67 28 2.34 28 2 28 C1.93941406 26.73285156 1.87882813 25.46570313 1.81640625 24.16015625 C1.73191435 22.46093036 1.64727081 20.761712 1.5625 19.0625 C1.50352539 17.81629883 1.50352539 17.81629883 1.44335938 16.54492188 C1.16269231 10.99634986 0.66239935 5.51628363 0 0 Z " fill="#757EAD" transform="translate(594,283)"/>
<path d="M0 0 C-0.33 0.99 -0.66 1.98 -1 3 C-5.37573952 3.59332061 -9.57528444 4.13827236 -14 4 C-13.67 3.34 -13.34 2.68 -13 2 C-12.34 2 -11.68 2 -11 2 C-11 1.34 -11 0.68 -11 0 C-7.01803543 -1.05404945 -4.01804691 -0.84098656 0 0 Z " fill="#3D4D86" transform="translate(552,364)"/>
<path d="M0 0 C0.66 0 1.32 0 2 0 C1.77178654 2.27312618 1.5166633 4.54356309 1.25 6.8125 C1.04117187 8.70935547 1.04117187 8.70935547 0.828125 10.64453125 C0 14 0 14 -2.078125 15.94921875 C-2.71234375 16.29597656 -3.3465625 16.64273437 -4 17 C-3.67373505 10.67721029 -3.38495108 5.44535609 0 0 Z " fill="#6C79AD" transform="translate(415,256)"/>
<path d="M0 0 C0.66 0.33 1.32 0.66 2 1 C1.66226562 1.51949219 1.32453125 2.03898438 0.9765625 2.57421875 C-0.96469448 5.60953675 -2.7835563 8.45889074 -4.125 11.8125 C-5.06141183 14.15352957 -6.1079153 15.36592685 -8 17 C-7.86234424 9.42893341 -4.9442784 5.57683621 0 0 Z " fill="#757FAF" transform="translate(423,246)"/>
<path d="M0 0 C0.66 0.33 1.32 0.66 2 1 C-2.95 5.95 -7.9 10.9 -13 16 C-13 13 -13 13 -11.0625 11 C-10.381875 10.34 -9.70125 9.68 -9 9 C-8.67 8.01 -8.34 7.02 -8 6 C-6.15234375 4.39453125 -6.15234375 4.39453125 -3.9375 2.8125 C-3.20402344 2.28269531 -2.47054688 1.75289062 -1.71484375 1.20703125 C-1.14894531 0.80871094 -0.58304687 0.41039062 0 0 Z " fill="#8591C1" transform="translate(445,225)"/>
<path d="M0 0 C0.33 0 0.66 0 1 0 C0.62257767 6.16456476 -1.15870308 9.17375515 -5 14 C-6 11 -6 11 -4.78515625 8.30078125 C-4.21667969 7.31464844 -3.64820313 6.32851563 -3.0625 5.3125 C-2.49660156 4.31863281 -1.93070313 3.32476562 -1.34765625 2.30078125 C-0.90292969 1.54152344 -0.45820312 0.78226562 0 0 Z " fill="#6470A6" transform="translate(594,322)"/>
<path d="M0 0 C-4.07999715 3.69749741 -7.86395088 5.2589664 -13 7 C-11.98992724 4.3924752 -11.31481637 3.19558554 -8.90625 1.69921875 C-8.1121875 1.36535156 -7.318125 1.03148437 -6.5 0.6875 C-5.7059375 0.34074219 -4.911875 -0.00601562 -4.09375 -0.36328125 C-2 -1 -2 -1 0 0 Z " fill="#3C4676" transform="translate(577,357)"/>
<path d="M0 0 C0.66 0.33 1.32 0.66 2 1 C0.87985896 4.36042312 -0.21490768 5.41746812 -2.8125 7.75 C-3.49957031 8.38421875 -4.18664062 9.0184375 -4.89453125 9.671875 C-7 11 -7 11 -9.26171875 10.703125 C-10.12216797 10.35507812 -10.12216797 10.35507812 -11 10 C-10.18595703 9.41992188 -10.18595703 9.41992188 -9.35546875 8.828125 C-8.64003906 8.30734375 -7.92460938 7.7865625 -7.1875 7.25 C-6.47980469 6.73953125 -5.77210938 6.2290625 -5.04296875 5.703125 C-2.97022309 3.97517642 -1.52624146 2.21473524 0 0 Z " fill="#505E98" transform="translate(585,341)"/>
<path d="M0 0 C0.66 0 1.32 0 2 0 C0.49616703 4.21073233 -2.20664956 5.83237117 -6 8 C-6.99 8 -7.98 8 -9 8 C-8.67 7.34 -8.34 6.68 -8 6 C-7.34 6 -6.68 6 -6 6 C-6 5.34 -6 4.68 -6 4 C-4.36368108 2.95107762 -2.69514137 1.95093297 -1 1 C-0.67 0.67 -0.34 0.34 0 0 Z " fill="#404F89" transform="translate(561,358)"/>
<path d="M0 0 C3.375 0.3125 3.375 0.3125 7 1 C7.66 1.99 8.32 2.98 9 4 C6.69 4 4.38 4 2 4 C1.34 2.68 0.68 1.36 0 0 Z " fill="#49475B" transform="translate(492,402)"/>
<path d="M0 0 C0.66 0 1.32 0 2 0 C0.6302836 3.99500618 -1.25722422 6.80009492 -4 10 C-4.66 9.67 -5.32 9.34 -6 9 C-5.34 8.34 -4.68 7.68 -4 7 C-3.67 6.175 -3.34 5.35 -3 4.5 C-2 2 -2 2 0 0 Z " fill="#505681" transform="translate(589,339)"/>
<path d="M0 0 C3 1 3 1 4.1875 2.75 C5.10819096 5.29960574 5.14948718 7.30923081 5 10 C2.66063182 7.87330165 1.19346152 5.93775144 0 3 C0 2.01 0 1.02 0 0 Z " fill="#575468" transform="translate(412,349)"/>
<path d="M0 0 C0.33 0.99 0.66 1.98 1 3 C-1.15634036 5.15634036 -3.37098712 6.47793991 -6 8 C-4.73058503 4.08597051 -3.48832306 2.20927127 0 0 Z " fill="#474B70" transform="translate(586,347)"/>
<path d="M0 0 C1.51865978 4.55597933 -0.5715291 7.12657855 -2.625 11.3125 C-3.07875 12.199375 -3.5325 13.08625 -4 14 C-5 12 -5 12 -4.2578125 9.43359375 C-3.88398437 8.44488281 -3.51015625 7.45617187 -3.125 6.4375 C-2.75632812 5.44621094 -2.38765625 4.45492188 -2.0078125 3.43359375 C-1 1 -1 1 0 0 Z " fill="#5D6188" transform="translate(596,323)"/>
<path d="M0 0 C0.66 0 1.32 0 2 0 C1.21681311 3.91593446 -0.39179858 7.36406635 -2 11 C-2.33 11 -2.66 11 -3 11 C-2.53199289 6.94393835 -2.12046792 3.53411321 0 0 Z " fill="#69719F" transform="translate(415,256)"/>
<path d="M0 0 C6.625 -0.125 6.625 -0.125 10 1 C9.67 1.99 9.34 2.98 9 4 C6.03 3.01 3.06 2.02 0 1 C0 0.67 0 0.34 0 0 Z " fill="#595567" transform="translate(466,399)"/>
<path d="M0 0 C1.66666667 3.33333333 3.33333333 6.66666667 5 10 C1.55995373 8.85331791 0.73364831 8.12056696 -1 5 C-0.6875 2.25 -0.6875 2.25 0 0 Z " fill="#575467" transform="translate(420,359)"/>
</svg>