<svg xmlns="http://www.w3.org/2000/svg" height="50" width="50" viewBox="401.08 208.77 197.97 197.81">
    <path d="M558 227c3.496 2.844 6.775 5.853 10 9l2.688 2.563L573 241l1.535 1.55C592.097 261.233 599.712 287.81 599 313c-.452 5.783-1.582 11.383-3 17l-.524 2.078c-2.559 9.74-6.34 18.224-11.476 26.922l-1.57 2.852c-2.939 5.215-5.64 8.58-10.43 12.148-2.2 2.144-4.37 4.29-6.41 6.59-7.696 8.338-18.324 13.807-28.59 18.41l-2.36 1.086c-22.47 9.281-49.342 7.575-71.64-1.086-24.093-10.028-43.421-28.666-53.64-52.645-1.66-4.096-3.21-8.086-4.36-12.355l-.84-2.742c-4.168-15.714-4.313-34.779.84-50.258l1.102-3.715c4.7-15.472 14.556-35.577 28.898-44.285h2v-2c34.713-28.742 84.408-29.121 121-4Z" fill="#BF7976"/>
    <path d="M597 305h1c.915 5.612.965 10.391-.125 16l-.417 2.214C594.88 336.216 590.767 347.54 584 359l-1.57 2.852c-2.939 5.215-5.64 8.58-10.43 12.148-2.2 2.144-4.37 4.29-6.41 6.59-7.696 8.338-18.324 13.807-28.59 18.41l-2.36 1.086c-17.219 7.112-40.886 8.832-58.64 2.914v-2h-2l1-2 1.836.402c11.749 2.477 26.85 5.479 38.164.598 2.5-.344 2.5-.344 5-.5 4.839-.41 8.467-.967 12-4.5l3.125-.313c4.23-.75 6.527-2.111 9.98-4.53C547 389 547 389 549.004 388.538c2.555-.69 3.807-1.877 5.746-3.664l2.102-1.914L559 381c1.374-1.168 2.749-2.335 4.125-3.5 3.22-2.802 5.978-5.79 8.648-9.117C573 367 573 367 575 366l.813-2.313c1.453-3.289 3.407-4.477 6.187-6.687.87-2.13.87-2.13 1-4l-1.172 1.305c-5.533 5.13-12.4 8.063-19.828 8.695l-2 2-3-1c3.48-5.84 3.48-5.84 5.887-6.578L565 357c4.758-1.945 8.076-3.684 11-8 4.393-3 4.393-3 7-3v-3h2l.688-2.938c1.12-4 3.041-7.318 5.19-10.851 1.23-2.425 1.68-4.537 2.122-7.211.328-1.335.662-2.668 1-4 .524-2.25 1.045-4.5 1.563-6.75l.816-3.547L597 305Z" fill="#6C4C4B"/>
    <path d="M410 266h2l-.988 2.926c-1.264 4.441-1.273 8.672-1.2 13.262l.016 2.521c.063 5.722.422 11.361 1.149 17.041C411 304 411 304 409 307l-1-3c-4.54 6.811-2.164 17.101-.688 24.75A425.464 425.464 0 0 0 409 336l.621 2.746c1.817 7.052 5.281 13.26 9.379 19.254l2 1c.407 2.322.744 4.657 1 7-4.064-3.71-6.621-7.371-9.125-12.25l-1.053-2.023c-2.45-4.793-4.473-9.504-5.822-14.727l-.8-3.035c-4.352-16.972-5.867-36.096-.2-52.965l1.313-4.102c1.182-3.65 2.42-7.277 3.687-10.898Z" fill="#6F4D4D"/>
    <path d="M514.082 255.473C516 256 516 256 518 257v2h2l2 4h1c.607 7.161.607 7.161-2.125 10.938-3.16 2.266-4.993 3.062-8.875 3.062-1.563-1.313-1.563-1.313-3-3a208.063 208.063 0 0 0-5-2c-2.313-2.313-2.496-3.479-3.125-6.625l-.508-2.477L500 261c4.489-4.98 7.367-6.74 14.082-5.527Z" fill="#F5DAD9"/>
    <path d="m559 381 2 1c-2.836 4.886-5.818 7.676-10.75 10.5l-2 1.159c-21.53 12.1-45.11 14.44-69.25 10.341l-3-1v-2h-2l1-2 1.836.402c11.749 2.477 26.85 5.479 38.164.598 2.5-.344 2.5-.344 5-.5 4.839-.41 8.467-.967 12-4.5l3.125-.313c4.23-.75 6.527-2.111 9.98-4.53C547 389 547 389 548.973 388.566c2.732-.764 4.198-2.224 6.277-4.13l2.14-1.94L559 381Z" fill="#6B4A49"/>
    <path d="M589 339h2c-2.512 9.332-5.52 13.532-13.66 18.684-5.223 2.995-9.362 4.807-15.34 5.316l-2 2-3-1c3.48-5.84 3.48-5.84 5.887-6.578L565 357c4.826-1.973 7.939-3.741 11-8 1.71-.967 3.42-1.932 5.156-2.852 2.027-1.262 3.508-2.676 5.157-4.398L589 339Z" fill="#8A3C39"/>
    <path d="M404 318c2.307 3.461 2.703 5.982 3.438 10.063 2.157 11.25 5.008 20.35 11.562 29.937l2 1c.407 2.322.744 4.657 1 7-4.064-3.71-6.621-7.371-9.125-12.25l-1.053-2.023c-2.45-4.793-4.471-9.504-5.822-14.727l-.8-3c-1.289-4.981-2.401-9.915-3.2-15l2-1Z" fill="#6C4D4D"/>
    <path d="M421 248c1 3 1 3-.625 6.5l-1.121 2.117c-3.933 7.474-7.254 14.19-7.254 22.758 0 4.02-.317 7.663-1 11.625l-2 1a1182.5 1182.5 0 0 1-.125-9.063l-.05-2.568c-.04-5.166.468-9.43 2.175-14.369l.86-2.59c2.237-5.899 5.09-10.577 9.14-15.41Z" fill="#A86664"/>
    <path d="M597 305h1c1.276 6.761.487 12.313-1 19h-2l-.367 2.012c-2.274 11.983-2.274 11.983-6.758 15.3L585 343c1.213-5.184 3.112-9.24 5.879-13.79 1.23-2.424 1.678-4.536 2.121-7.21.328-1.335.662-2.668 1-4 .524-2.25 1.045-4.5 1.563-6.75l.816-3.547L597 305Zm-14 38 2 1-2 1v-2Z" fill="#A46361"/>
    <path d="M489 209c17.496-.608 34.118-.235 50 8-3.122 1.561-5.3.146-8.563-.875-5.561-1.665-10.672-2.636-16.437-3.125l-1-1a58.602 58.602 0 0 0-4.078-.027l-2.52.037c-1.752.035-3.505.074-5.257.117-4.511.059-8.047.032-12.145-2.127v-1Z" fill="#D2928F"/>
    <path d="M516 261c1 1 1 1 1.313 3.313C517 267 517 267 515.375 269.375 513 271 513 271 509.812 270.813 507 270 507 270 506 269c-.04-2.333-.042-4.667 0-7 3.573-2.336 5.932-1.994 10-1Z" fill="#FEF0F0"/>
    <path d="M514.082 255.473C516 256 516 256 518 257v2h2v3l-2.375-1c-4.704-1.298-8.75-1.132-13.625-1l1 10 5 2v1c-4.52.367-4.52.367-6.594-1.219-1.696-2.148-2.09-3.792-2.594-6.469l-.48-2.449L500 261c4.489-4.98 7.367-6.74 14.082-5.527Z" fill="#EDC7C5"/>
    <path d="M589 339h2c-2.235 8.3-2.235 8.3-4 11l-3 1v-3l-1 2c-3.26 1.812-6.326 3.293-10 4 1.976-4.185 4.08-5.788 8.156-7.887 2.049-1.237 3.506-2.636 5.157-4.363L589 339Z" fill="#964947"/>
    <path d="M410 266h2l-.992 2.723c-1.566 5.48-1.22 11.064-1.133 16.714l.027 3.374c.024 2.73.057 5.46.098 8.189l-1-2h-2c-2.855-5.71-1.646-15.47-.105-21.504.943-2.556 1.937-5.036 3.105-7.496Z" fill="#8F5251"/>
    <path d="M442 386c3.716-.2 4.772-.152 8 2v2l2.375.313C455 391 455 391 457 394c3.568.736 3.568.736 7 1v2l1.875.313C468 398 468 398 470 401c-10.133-3.04-19.686-7.387-28-14v-1Z" fill="#6A4C4C"/>
    <path d="m405 292 2 1v2h2c.39 1.433.762 2.872 1.125 4.313l.633 2.425C411 304 411 304 409 307l-1-3c-2.43 3.644-2.162 5.712-2 10l-2-1c-.108-7.097.061-13.96 1-21Z" fill="#714241"/>
    <path d="M547 222c10.991 1.369 21.46 13.025 28.52 21.07 1.458 1.9 2.49 3.755 3.48 5.93-1.938-.813-1.938-.813-4-2l-1-3h-2c-2.125-1.875-2.125-1.875-4-4v-2h-2v-2h-2l-5-5-2.813-1.688L554 228v-2l-2.375-.875C549 224 549 224 547 222Z" fill="#D0908D"/>
    <path d="M595 324h2c-2.272 11.529-5.591 21.562-11 32h-1c-.258-3.952.353-6.147 2.313-9.563 2.532-4.778 3.865-9.406 5.011-14.675.666-2.723 1.575-5.189 2.676-7.762Z" fill="#835656"/>
    <path d="m450 222 2 1c-4.792 4.927-9.778 9.533-15 14l-2.063 1.773c-1.643 1.412-3.29 2.82-4.937 4.227 1.166-2.51 2.045-4.043 4.063-6 2.097-1.76 2.097-1.76 2.148-3.828 1.271-3.5 4.346-4.977 7.351-6.922l1.866-1.246A497.704 497.704 0 0 1 450 222Z" fill="#C88280"/>
    <path d="m520 262 3 1c.607 7.161.607 7.161-2.125 10.938-3.16 2.266-4.993 3.062-8.875 3.062-1.875-1.438-1.875-1.438-3-3 1.931-1.931 5.396-1.64 8-2l3-1v-9Z" fill="#EEC9C8"/>
    <path d="m584 347 2 1c-2.93 3.123-5.969 5.49-9.563 7.813l-2.878 1.894L571 359l-3-1c-2.167.875-2.167.875-4 2 1-3 1-3 3.688-4.563 3.069-1.331 6.141-2.38 9.312-3.437l3-2h3l1-3Z" fill="#85403E"/>
    <path d="M429 371h2v3h2c2.125 1.875 2.125 1.875 4 4v2h3l1 5c-3.478-1.516-5.956-3.577-8.75-6.125l-2.422-2.195L428 375l1-4Z" fill="#6D4B4B"/>
    <path d="M594 281c5.047 7.57 5.05 18.13 3.488 26.86L597 310h-1l-.184-3.043c-.528-8.659-1.12-17.31-1.816-25.957Z" fill="#B3706D"/>
    <path d="M477 213c-3.428 1.846-6.801 3.317-10.5 4.5-3.703 1.184-7.05 2.693-10.5 4.5l-3 1-1-2c20.21-9.52 20.21-9.52 25-8Z" fill="#CC8C89"/>
    <path d="M411 268c2.135 7.253 1.362 15.643 0 23l-2 1c-.054-3.063-.094-6.125-.125-9.188-.017-.864-.034-1.728-.05-2.619-.035-4.515.02-8.094 2.175-12.193Z" fill="#A95D5A"/>
    <path d="M593 327c1.654 3.307.153 6.177-.898 9.578-1.655 3.638-3.57 4.695-7.102 6.422 1.343-6.313 4.248-10.796 8-16Zm-10 16 2 1-2 1v-2Z" fill="#A15755"/>
    <path d="M508 259c1.46.114 2.917.242 4.375.375l2.46.21C517 260 517 260 519 262c.375 3.438.375 3.438 0 7-1.75 2-1.75 2-4 3-2.25-.313-2.25-.313-4-1l2.5-1.688c2.775-2.061 2.775-2.061 2.813-5.062L516 262l-9-1 1-2Z" fill="#FAE4E4"/>
    <path d="m516 365 18 1-1 2c-5.886 1.156-11.094.889-17 0v-3Z" fill="#8C3A37"/>
    <path d="m405 292 2 1v2h2c.39 1.433.762 2.872 1.125 4.313l.633 2.425C411 304 411 304 409 307l-.621-1.934-.817-2.503-.808-2.497c-.576-2.028-.576-2.028-1.754-3.066a99.984 99.984 0 0 1 0-5Z" fill="#894544"/>
    <path d="M582 352c-1.49 4.07-3.748 5.323-7.5 7.313l-2.969 1.613L569 362l-2-1 1.828-1.207 2.422-1.606 2.39-1.582a84.492 84.492 0 0 0 4.532-3.304C580 352 580 352 582 352Z" fill="#7B3A38"/>
    <path d="M591 340c1.253 2.951 1.01 3.974-.215 7.016l-1.722 3.234-1.715 3.266L586 356h-1c-.391-4.46.782-6.978 3-10.813l1.688-2.957L591 340Z" fill="#715453"/>
    <path d="M509.629 256.89c.968.12 1.936.238 2.933.36l2.942.328C518 258 518 258 520 259v3l-2.375-1c-4.619-1.274-8.867-1.17-13.625-1 1.824-2.4 2.552-2.981 5.629-3.11Z" fill="#F1D0CF"/>
    <path d="M589 339h2c-2.235 8.3-2.235 8.3-4 11l-3 1c0-4.752 1.29-6.223 4-10l1-2Z" fill="#7D4948"/>
    <path d="M569 238c4.14 3.3 7.587 6.173 10 11-1.938-.813-1.938-.813-4-2l-1-3h-2c-3-3.462-3-3.462-3-6Z" fill="#CC8A86"/>
    <path d="M509 274h10l-1 2c-2.875.813-2.875.813-6 1l-3-3Z" fill="#EBC0BF"/>
    <path d="M421 248c1 3 1 3 .223 5.043l-1.16 2.144-1.153 2.168L418 259l-2-4 5-7Z" fill="#B16F6D"/>
    <path d="M574 355c-2.098 2.098-3.38 2.65-6.125 3.625-.724.26-1.449.52-2.195.79L564 360c1-3 1-3 3.875-4.75C571 354 571 354 574 355Z" fill="#93423F"/>
    <path d="m450 222 2 1-7 7-2-1c4.75-5.875 4.75-5.875 7-7Z" fill="#CA8784"/>
    <path d="M487 211c-2 2-2 2-5.625 2.125L478 213c1-2 1-2 2.813-2.688 2.375-.339 3.92-.04 6.187.688Z" fill="#D1908D"/>
    <path d="M545 364v2c-2.354 1.43-3.48 2.087-6.25 1.625L537 367c5.75-3 5.75-3 8-3Z" fill="#8B3A37"/>
</svg>