<svg xmlns="http://www.w3.org/2000/svg" version="1.1" height="50" width="50"  viewBox="401.08 208.63 197.96 197.73">
<path d="M0 0 C3.4964157 2.84420913 6.77543904 5.85306736 10 9 C10.886875 9.845625 11.77375 10.69125 12.6875 11.5625 C13.450625 12.366875 14.21375 13.17125 15 14 C15.50660156 14.51175781 16.01320313 15.02351563 16.53515625 15.55078125 C34.10444799 34.24066563 41.6975226 60.80199614 41 86 C39.76687184 102.57351049 34.34906668 117.69526576 26 132 C25.48179687 132.94230469 24.96359375 133.88460937 24.4296875 134.85546875 C21.48851372 140.06796783 18.78996007 143.43300846 14 147 C11.79950918 149.14406798 9.62908226 151.29075768 7.58984375 153.58984375 C-0.10562364 161.92817574 -10.7342356 167.39696371 -21 172 C-21.77859375 172.35835937 -22.5571875 172.71671875 -23.359375 173.0859375 C-44.44020055 181.79323501 -70.88404892 181.04484789 -92.109375 173.21875 C-117.42202136 162.546391 -137.77922929 144.83991346 -148.640625 119.35546875 C-150.30033053 115.25866688 -151.84962926 111.26867128 -153 107 C-153.27714844 106.09507812 -153.55429687 105.19015625 -153.83984375 104.2578125 C-158.00848856 88.54375048 -158.15288948 69.47927999 -153 54 C-152.63648438 52.77410156 -152.27296875 51.54820312 -151.8984375 50.28515625 C-149.48017709 42.33247443 -146.31193549 35.12604076 -142 28 C-141.53078125 27.19046875 -141.0615625 26.3809375 -140.578125 25.546875 C-138.13146486 21.43072911 -138.13146486 21.43072911 -137 20 C-136.34 20 -135.68 20 -135 20 C-134.773125 19.46375 -134.54625 18.9275 -134.3125 18.375 C-124.93751705 1.41074514 -102.29462085 -9.75142954 -84.49609375 -15.140625 C-54.74710482 -22.45322563 -25.26996021 -17.34845495 0 0 Z " fill="#8EB4A9" transform="translate(558,227)"/>
<path d="M0 0 C0.33 0 0.66 0 1 0 C3.8949634 16.31706644 -1.47123886 34.55528386 -9 49 C-9.69351563 48.71511719 -10.38703125 48.43023437 -11.1015625 48.13671875 C-14.27837038 47.66779136 -14.27837038 47.66779136 -17.0859375 50.45703125 C-18.19673145 51.5611817 -19.29269052 52.68041449 -20.375 53.8125 C-25.27020412 58.90093586 -29.18712047 61.88540763 -36.625 62.0625 C-37.40875 62.041875 -38.1925 62.02125 -39 62 C-40.67099977 62.31088368 -42.33871537 62.64080332 -44 63 C-44.66 63 -45.32 63 -46 63 C-46.99 63.66 -47.98 64.32 -49 65 C-49.33 64.34 -49.66 63.68 -50 63 C-50.99 63.66 -51.98 64.32 -53 65 C-53 64.34 -53 63.68 -53 63 C-53.66386719 63.27714844 -54.32773437 63.55429687 -55.01171875 63.83984375 C-56.33623047 64.38318359 -56.33623047 64.38318359 -57.6875 64.9375 C-58.99267578 65.47697266 -58.99267578 65.47697266 -60.32421875 66.02734375 C-63.95181006 67.34598643 -67.14081113 68 -71 68 C-71.33 67.01 -71.66 66.02 -72 65 C-72.68707031 64.89042969 -73.37414062 64.78085937 -74.08203125 64.66796875 C-75.43361328 64.43013672 -75.43361328 64.43013672 -76.8125 64.1875 C-77.70582031 64.03667969 -78.59914063 63.88585937 -79.51953125 63.73046875 C-82.18321256 62.94604607 -83.25690322 62.11372201 -85 60 C-81.20525644 58.73508548 -78.92818027 59.42468917 -75 60.125 C-68.05187166 61.23839005 -62.55385609 60.53433936 -56 58 C-56.33 58.66 -56.66 59.32 -57 60 C-55.24970238 59.68917128 -53.49977306 59.37626821 -51.75 59.0625 C-50.77546875 58.88847656 -49.8009375 58.71445312 -48.796875 58.53515625 C-43.94940205 57.60763698 -40.32125534 56.21147022 -36 53.83984375 C-34 53 -34 53 -30 53 C-27.99409871 51.58421876 -27.99409871 51.58421876 -26.125 49.6875 C-22.92247381 46.71712719 -19.9102854 44.9551427 -16 43 C-10.3776262 37.3776262 -7.9813722 29.39768053 -5.7109375 21.9453125 C-5 20 -5 20 -3 17 C-2.56768622 14.4654545 -2.2150091 11.98817057 -1.9375 9.4375 C-1.11769184 2.23538368 -1.11769184 2.23538368 0 0 Z M-46 63 C-44 64 -44 64 -44 64 Z M-74 67 C-73.01 67.33 -72.02 67.66 -71 68 C-71.99 68 -72.98 68 -74 68 C-74 67.67 -74 67.34 -74 67 Z " fill="#54897A" transform="translate(597,303)"/>
<path d="M0 0 C0.66 0.33 1.32 0.66 2 1 C1.70222656 1.70125 1.40445312 2.4025 1.09765625 3.125 C-0.02334986 6.06115834 -0.81888107 8.94765842 -1.5625 12 C-1.81128906 13.010625 -2.06007813 14.02125 -2.31640625 15.0625 C-3.42191425 19.81302582 -4.04229449 23.93212979 -3.96875 28.83203125 C-4.0118016 31.81873611 -4.4106086 34.73094061 -4.78515625 37.69140625 C-5.07683015 40.82557483 -4.98059095 43.91320992 -4.83984375 47.0546875 C-5 49 -5 49 -7 52 C-7.18175781 51.32453125 -7.36351562 50.6490625 -7.55078125 49.953125 C-7.80214844 49.06109375 -8.05351562 48.1690625 -8.3125 47.25 C-8.55613281 46.36828125 -8.79976563 45.4865625 -9.05078125 44.578125 C-9.86596414 41.95478282 -9.86596414 41.95478282 -11.6015625 39.96484375 C-13.87526803 36.77022397 -13.16629772 34.16227258 -12.70703125 30.40234375 C-10.70464716 20.76656177 -7.13365097 7.13365097 0 0 Z " fill="#73A294" transform="translate(416,256)"/>
<path d="M0 0 C2.9375 1 2.9375 1 5 2 C5.33 4.97 5.66 7.94 6 11 C6.99 10.67 7.98 10.34 9 10 C8 13 8 13 6.0625 14.0625 C5.0415625 14.5265625 5.0415625 14.5265625 4 15 C3.34 15.66 2.68 16.32 2 17 C-0.625 16.625 -0.625 16.625 -3 16 C-3 15.34 -3 14.68 -3 14 C-4.65 14 -6.3 14 -8 14 C-8 12.35 -8 10.7 -8 9 C-8.66 9 -9.32 9 -10 9 C-10.35789474 3.63157895 -10.35789474 3.63157895 -8.9375 1.125 C-5.90946518 -0.63321377 -3.43351057 -0.29599229 0 0 Z " fill="#F2FBF9" transform="translate(513,257)"/>
<path d="M0 0 C1.08853271 0.00128906 2.17706543 0.00257813 3.29858398 0.00390625 C11.43020429 0.1007617 18.86688678 0.96211892 26.6875 3.3125 C26.3575 3.9725 26.0275 4.6325 25.6875 5.3125 C24.69234375 5.168125 23.6971875 5.02375 22.671875 4.875 C-0.17486964 1.7604165 -20.70511847 2.67640231 -41.87109375 12.5 C-44.54120235 13.38861214 -45.71518668 13.2744679 -48.3125 12.3125 C-32.89174161 3.97695492 -17.51133048 -0.08648238 0 0 Z " fill="#A5C7BC" transform="translate(500.3125,208.6875)"/>
<path d="M0 0 C0.33 0 0.66 0 1 0 C2.31189581 7.85364654 1.92490545 15.25535119 0 23 C-0.66 23.66 -1.32 24.32 -2 25 C-2.433125 26.2375 -2.86625 27.475 -3.3125 28.75 C-4.5523715 32.1796943 -6.06591115 34.71018893 -8.5625 37.4296875 C-10.06839956 39.03274704 -10.06839956 39.03274704 -11.5625 41.0078125 C-15.72662758 46.23225034 -19.6945884 48.82670621 -26 51 C-25 48 -25 48 -23.07421875 46.7890625 C-22.28660156 46.40492188 -21.49898437 46.02078125 -20.6875 45.625 C-11.40318163 40.65965252 -8.63940361 31.55757183 -5.7109375 21.9453125 C-5 20 -5 20 -3 17 C-2.56768622 14.4654545 -2.2150091 11.98817057 -1.9375 9.4375 C-1.11769184 2.23538368 -1.11769184 2.23538368 0 0 Z " fill="#79A497" transform="translate(597,303)"/>
<path d="M0 0 C0.66 0 1.32 0 2 0 C-0.72296563 7.48815547 -3.71342757 12.12469893 -10 17 C-10.804375 17.804375 -11.60875 18.60875 -12.4375 19.4375 C-15.47829815 22.47829815 -18.7069774 25.2384162 -22 28 C-21.52354792 23.71193127 -20.34097516 21.73352513 -17 19 C-16.34 19 -15.68 19 -15 19 C-14.79375 18.443125 -14.5875 17.88625 -14.375 17.3125 C-12.85552111 14.75701277 -11.04066714 13.44214738 -8.72265625 11.63671875 C-5.77650581 8.8375418 -3.71666979 5.40747479 -1.515625 2.01171875 C-1.01546875 1.34785156 -0.5153125 0.68398438 0 0 Z " fill="#55655E" transform="translate(582,357)"/>
<path d="M0 0 C-1.67418627 1.6408842 -3.36227975 3.26145765 -5.0625 4.875 C-6.00222656 5.77992188 -6.94195313 6.68484375 -7.91015625 7.6171875 C-12.65460875 11.27599411 -17.12947471 12.15448751 -23 12 C-24.67343448 12.29749946 -26.34305915 12.62127066 -28 13 C-28.33 12.01 -28.66 11.02 -29 10 C-28.443125 9.97421875 -27.88625 9.9484375 -27.3125 9.921875 C-18.86789816 9.29423567 -13.50390764 6.27343862 -7 1 C-2.44705882 -1.22352941 -2.44705882 -1.22352941 0 0 Z M-30 13 C-28 14 -28 14 -28 14 Z " fill="#477C6D" transform="translate(581,353)"/>
<path d="M0 0 C0.66 0.33 1.32 0.66 2 1 C-1.42480831 4.52113104 -4.87887447 7.94477854 -8.625 11.125 C-14.75072634 16.39118766 -20.33087054 22.25309285 -26 28 C-26 23.74756789 -23.49772438 22.00964394 -20.6875 19.125 C-16.71497177 15.06124698 -16.71497177 15.06124698 -13.53125 10.38671875 C-11.47907847 7.18805343 -9.00519395 5.71297251 -5.8125 3.6875 C-4.72582031 2.99011719 -3.63914062 2.29273438 -2.51953125 1.57421875 C-1.68808594 1.05472656 -0.85664063 0.53523437 0 0 Z " fill="#99BEB3" transform="translate(450,222)"/>
<path d="M0 0 C1.72089844 0.02126953 1.72089844 0.02126953 3.4765625 0.04296875 C5.18972656 0.05263672 5.18972656 0.05263672 6.9375 0.0625 C10.1015625 0.23046875 10.1015625 0.23046875 12.265625 0.8046875 C14.54926486 1.33429759 15.84015261 0.82022493 18.1015625 0.23046875 C20.35063402 0.162562 22.60157855 0.14546891 24.8515625 0.16796875 C26.60726562 0.18150391 26.60726562 0.18150391 28.3984375 0.1953125 C29.29046875 0.20691406 30.1825 0.21851563 31.1015625 0.23046875 C30.4415625 1.22046875 29.7815625 2.21046875 29.1015625 3.23046875 C26.58730476 3.65507199 24.31950938 3.88486953 21.7890625 3.98046875 C21.07645264 4.01575684 20.36384277 4.05104492 19.62963867 4.08740234 C11.37368337 4.42025186 3.19006749 3.9753382 -4.8984375 2.23046875 C-2.8984375 0.23046875 -2.8984375 0.23046875 0 0 Z " fill="#51605A" transform="translate(485.8984375,401.76953125)"/>
<path d="M0 0 C0.33 0 0.66 0 1 0 C0.83628906 1.093125 0.67257812 2.18625 0.50390625 3.3125 C-0.15009907 8.54454258 -0.10970402 13.73493662 -0.0625 19 C-0.05798828 19.96550781 -0.05347656 20.93101562 -0.04882812 21.92578125 C-0.03715417 24.28392089 -0.02078021 26.64192602 0 29 C0.99 29 1.98 29 3 29 C2.67 31.64 2.34 34.28 2 37 C0.75227111 34.68278921 -0.14901564 32.52314994 -0.9375 30 C-1.79550884 27.02242248 -1.79550884 27.02242248 -3.5703125 25.125 C-6.2671847 21.11653421 -4.86616957 16.53029477 -4 12 C-2.83632838 7.93184155 -1.48620644 3.96091298 0 0 Z " fill="#576F67" transform="translate(408,271)"/>
<path d="M0 0 C0.66 0.33 1.32 0.66 2 1 C-0.39747104 3.97286409 -1.62592765 4.92518553 -5.4375 5.6875 C-6.613125 5.790625 -7.78875 5.89375 -9 6 C-9.79277344 6.18691406 -10.58554687 6.37382812 -11.40234375 6.56640625 C-14.25532051 7.04261741 -16.29928143 6.82032852 -19.125 6.25 C-19.97320313 6.09015625 -20.82140625 5.9303125 -21.6953125 5.765625 C-24.20265038 4.93267886 -25.31830698 4.00044529 -27 2 C-23.18159806 0.72719935 -20.82896613 1.4300605 -16.875 2.125 C-11.20837376 3.03021404 -6.92308294 3.03546061 -1.63671875 0.62890625 C-1.09660156 0.42136719 -0.55648437 0.21382813 0 0 Z " fill="#548F7F" transform="translate(539,361)"/>
<path d="M0 0 C1.18851563 0.00902344 2.37703125 0.01804687 3.6015625 0.02734375 C4.51679687 0.03894531 5.43203125 0.05054688 6.375 0.0625 C5.055 1.3825 3.735 2.7025 2.375 4.0625 C2.045 3.4025 1.715 2.7425 1.375 2.0625 C0.385 2.7225 -0.605 3.3825 -1.625 4.0625 C-1.625 3.4025 -1.625 2.7425 -1.625 2.0625 C-2.28886719 2.33964844 -2.95273437 2.61679687 -3.63671875 2.90234375 C-4.51972656 3.26457031 -5.40273438 3.62679688 -6.3125 4 C-7.18261719 4.35964844 -8.05273438 4.71929687 -8.94921875 5.08984375 C-12.57681006 6.40848643 -15.76581113 7.0625 -19.625 7.0625 C-19.625 5.7425 -19.625 4.4225 -19.625 3.0625 C-18.85414063 2.92972656 -18.08328125 2.79695313 -17.2890625 2.66015625 C-16.28617188 2.48355469 -15.28328125 2.30695313 -14.25 2.125 C-13.25226562 1.95097656 -12.25453125 1.77695312 -11.2265625 1.59765625 C-3.30245902 -0.03237705 -3.30245902 -0.03237705 0 0 Z M-22.625 6.0625 C-21.635 6.3925 -20.645 6.7225 -19.625 7.0625 C-20.615 7.0625 -21.605 7.0625 -22.625 7.0625 C-22.625 6.7325 -22.625 6.4025 -22.625 6.0625 Z " fill="#498473" transform="translate(545.625,363.9375)"/>
<path d="M0 0 C1.69636983 4.07542508 0.14844185 7.45009138 -1.25 11.375 C-1.57677734 12.34566406 -1.57677734 12.34566406 -1.91015625 13.3359375 C-3.31103787 17.39931342 -4.99945579 21.198966 -7 25 C-9.475 24.01 -9.475 24.01 -12 23 C-8.16689235 15.03893026 -8.16689235 15.03893026 -5.50390625 12.66796875 C-3.5773513 10.53124417 -3.10914269 8.64215321 -2.375 5.875 C-1.08333333 1.08333333 -1.08333333 1.08333333 0 0 Z " fill="#5D766D" transform="translate(595,327)"/>
<path d="M0 0 C1.485 0.99 1.485 0.99 3 2 C3.2578125 3.78515625 3.2578125 3.78515625 3.125 6.0625 C2.9612228 11.1172599 3.17990077 16.08264996 3.5 21.125 C3.57178467 22.28140991 3.57178467 22.28140991 3.64501953 23.46118164 C3.76084961 25.30761275 3.88006327 27.1538311 4 29 C3.34 29.33 2.68 29.66 2 30 C-0.5035281 20.0529464 -0.18974296 10.17233107 0 0 Z " fill="#55655F" transform="translate(402,301)"/>
<path d="M0 0 C0.33 0.99 0.66 1.98 1 3 C-16.00409836 12 -16.00409836 12 -24 12 C-23.67 11.01 -23.34 10.02 -23 9 C-20.48828125 8.19140625 -20.48828125 8.19140625 -17.3125 7.5625 C-12.11581118 6.41518689 -12.11581118 6.41518689 -7.5625 3.8125 C-4.72331834 1.80429834 -3.39565147 1.60051159 0 2 C0 1.34 0 0.68 0 0 Z " fill="#56645E" transform="translate(546,391)"/>
<path d="M0 0 C0.75 1.5625 0.75 1.5625 1 4 C-0.97828799 8.02722913 -2.82695532 10.87479017 -6 14 C-6.74636719 14.94166016 -6.74636719 14.94166016 -7.5078125 15.90234375 C-11.69977028 21.17773023 -15.64409427 23.80930233 -22 26 C-21 23 -21 23 -19.07421875 21.7890625 C-18.28660156 21.40492188 -17.49898437 21.02078125 -16.6875 20.625 C-12.81878561 18.58624892 -10.44272695 16.71294497 -8 13 C-7.34 12.01 -6.68 11.02 -6 10 C-5.34 10 -4.68 10 -4 10 C-3.79503906 9.36191406 -3.59007812 8.72382813 -3.37890625 8.06640625 C-3.10949219 7.24011719 -2.84007812 6.41382813 -2.5625 5.5625 C-2.29566406 4.73878906 -2.02882813 3.91507812 -1.75390625 3.06640625 C-1 1 -1 1 0 0 Z " fill="#649587" transform="translate(593,328)"/>
<path d="M0 0 C0 3 0 3 -1.5390625 4.76171875 C-2.22742188 5.39722656 -2.91578125 6.03273437 -3.625 6.6875 C-9.28329432 12.14550072 -13.75633518 17.79185596 -17 25 C-17.99 24.34 -18.98 23.68 -20 23 C-19.21718695 21.66144944 -18.42348123 20.32926356 -17.625 19 C-17.18414062 18.2575 -16.74328125 17.515 -16.2890625 16.75 C-15.86367188 16.1725 -15.43828125 15.595 -15 15 C-14.34 15 -13.68 15 -13 15 C-12.773125 14.46375 -12.54625 13.9275 -12.3125 13.375 C-9.22557351 7.78913302 -4.93725501 3.90387605 0 0 Z " fill="#8CB2A7" transform="translate(436,232)"/>
<path d="M0 0 C2.9375 1 2.9375 1 5 2 C4.67 2.66 4.34 3.32 4 4 C2.39125 3.6596875 2.39125 3.6596875 0.75 3.3125 C-2.84839564 2.73871384 -2.84839564 2.73871384 -5.4375 3.9375 C-7.90150691 7.18998912 -7.2626839 9.99407055 -7 14 C-7.33 14 -7.66 14 -8 14 C-8 12.35 -8 10.7 -8 9 C-8.66 9 -9.32 9 -10 9 C-10.35789474 3.63157895 -10.35789474 3.63157895 -8.9375 1.125 C-5.90946518 -0.63321377 -3.43351057 -0.29599229 0 0 Z " fill="#DEEEE9" transform="translate(513,257)"/>
<path d="M0 0 C0.33 0 0.66 0 1 0 C1.06058594 0.94101562 1.12117188 1.88203125 1.18359375 2.8515625 C1.26738281 4.09679687 1.35117187 5.34203125 1.4375 6.625 C1.55931641 8.46964844 1.55931641 8.46964844 1.68359375 10.3515625 C1.9462001 13.95615156 1.9462001 13.95615156 2.5625 17.3125 C2.99401774 19.96325185 2.86830459 21.49156451 2 24 C1.34 24 0.68 24 0 24 C-1.43438575 16.46947483 -2.43869509 7.31608526 0 0 Z " fill="#629183" transform="translate(408,276)"/>
<path d="M0 0 C0.66 0.33 1.32 0.66 2 1 C-2.11880687 6.24211784 -8.46669044 8.41911623 -14.875 9.47265625 C-17.25197497 9.71237958 -19.61345682 9.89844497 -22 10 C-19.54749701 7.08621119 -19.54749701 7.08621119 -17.08984375 6.69921875 C-16.37957031 6.69535156 -15.66929687 6.69148438 -14.9375 6.6875 C-9.72391653 6.3199851 -6.32325116 4.07087794 -2.06640625 1.1796875 C-1.38449219 0.79039062 -0.70257812 0.40109375 0 0 Z " fill="#548E7E" transform="translate(564,355)"/>
<path d="M0 0 C0.33 0 0.66 0 1 0 C1.33 6.27 1.66 12.54 2 19 C2.99 19 3.98 19 5 19 C4.67 21.64 4.34 24.28 4 27 C0.48802981 20.72862467 -0.29219865 14.59127386 -0.125 7.5625 C-0.11597656 6.83095703 -0.10695313 6.09941406 -0.09765625 5.34570312 C-0.07436153 3.56365702 -0.0385019 1.78178241 0 0 Z " fill="#558274" transform="translate(406,281)"/>
<path d="M0 0 C2.59975519 3.79739523 1.94531911 7.30694021 1.3125 11.625 C1.23322266 12.305625 1.15394531 12.98625 1.07226562 13.6875 C0.80078125 15.6640625 0.80078125 15.6640625 0 19 C-0.99 19.66 -1.98 20.32 -3 21 C-2 14 -1 7 0 0 Z " fill="#6D9084" transform="translate(597,307)"/>
<path d="M0 0 C0.66 0.33 1.32 0.66 2 1 C-1 7 -4 13 -7 19 C-6.66465679 11.95779251 -5.1994225 5.1994225 0 0 Z " fill="#71978B" transform="translate(416,256)"/>
<path d="M0 0 C-2.71182212 2.60334924 -3.89133813 2.99456691 -7.75 3.1875 C-8.8225 3.125625 -9.895 3.06375 -11 3 C-11 1.68 -11 0.36 -11 -1 C-6.99799622 -2.60080151 -3.95443764 -1.29279692 0 0 Z M-14 2 C-13.01 2.33 -12.02 2.66 -11 3 C-11.99 3 -12.98 3 -14 3 C-14 2.67 -14 2.34 -14 2 Z " fill="#427B6B" transform="translate(537,368)"/>
<path d="M0 0 C1.32 0 2.64 0 4 0 C3 3 3 3 1.0625 4.0625 C0.381875 4.371875 -0.29875 4.68125 -1 5 C-1.66 5.66 -2.32 6.32 -3 7 C-5.625 6.625 -5.625 6.625 -8 6 C-6.49736177 2.99472353 -4.08347159 3.02782386 -1 2 C-0.67 1.34 -0.34 0.68 0 0 Z " fill="#DFEFEA" transform="translate(518,267)"/>
<path d="M0 0 C0.6875 1.625 0.6875 1.625 1 4 C-0.4375 7.25 -0.4375 7.25 -2 10 C-3.32 9.67 -4.64 9.34 -6 9 C-4.47291037 5.56404834 -2.40072955 2.88087546 0 0 Z " fill="#556A62" transform="translate(590,342)"/>
<path d="M0 0 C3.46941546 0.45822468 6.67395049 0.89131683 10 2 C10 2.99 10 3.98 10 5 C8.51800098 4.55090939 7.03944764 4.09043436 5.5625 3.625 C4.73878906 3.36976563 3.91507812 3.11453125 3.06640625 2.8515625 C1 2 1 2 0 0 Z " fill="#58645F" transform="translate(453,393)"/>
<path d="M0 0 C-2.72544647 2.72544647 -5.28425205 3.15254871 -9 4 C-9.99 3.67 -10.98 3.34 -12 3 C-10.75823305 2.29773859 -9.50614401 1.61370891 -8.25 0.9375 C-7.20585938 0.36322266 -7.20585938 0.36322266 -6.140625 -0.22265625 C-3.63859372 -1.1312406 -2.4667645 -0.88336837 0 0 Z " fill="#3F7163" transform="translate(572,361)"/>
<path d="M0 0 C1.21816406 0.03480469 1.21816406 0.03480469 2.4609375 0.0703125 C3.68683594 0.09738281 3.68683594 0.09738281 4.9375 0.125 C5.87722656 0.15980469 5.87722656 0.15980469 6.8359375 0.1953125 C7.1659375 0.8553125 7.4959375 1.5153125 7.8359375 2.1953125 C3.5194453 2.95704642 0.09160297 3.35594854 -4.1640625 2.1953125 C-2.1640625 0.1953125 -2.1640625 0.1953125 0 0 Z " fill="#57655F" transform="translate(485.1640625,401.8046875)"/>
<path d="M0 0 C0.66 0.33 1.32 0.66 2 1 C-0.75264252 4.05849168 -3.00751252 5.87391379 -7 7 C-7.99 6.67 -8.98 6.34 -10 6 C-8.3811004 4.96951963 -6.75467511 3.95085322 -5.125 2.9375 C-4.22007812 2.36902344 -3.31515625 1.80054688 -2.3828125 1.21484375 C-1.20332031 0.61349609 -1.20332031 0.61349609 0 0 Z " fill="#5B9484" transform="translate(564,355)"/>
<path d="M0 0 C1.96301592 3.50538557 2.95902388 7.13351728 4 11 C3.01 11.495 3.01 11.495 2 12 C-1.57142857 4.71428571 -1.57142857 4.71428571 0 0 Z " fill="#515F5A" transform="translate(409,338)"/>
<path d="M0 0 C2.14331139 2.14331139 2.514193 3.14086424 3.25 6 C3.44078125 6.70125 3.6315625 7.4025 3.828125 8.125 C3.88484375 8.74375 3.9415625 9.3625 4 10 C3.34 10.66 2.68 11.32 2 12 C0.40861915 7.82262526 -0.21278058 4.46839215 0 0 Z " fill="#97BBAF" transform="translate(589,266)"/>
<path d="M0 0 C0 3.19610552 -0.54671542 4.41717626 -2 7.1875 C-2.37125 7.90292969 -2.7425 8.61835938 -3.125 9.35546875 C-3.558125 10.16951172 -3.558125 10.16951172 -4 11 C-4.99 10.34 -5.98 9.68 -7 9 C-6.21448343 7.68381002 -5.4213763 6.37214772 -4.625 5.0625 C-4.18414062 4.33160156 -3.74328125 3.60070312 -3.2890625 2.84765625 C-2 1 -2 1 0 0 Z " fill="#81A79B" transform="translate(423,246)"/>
<path d="M0 0 C4.08072342 0.55144911 4.91330796 0.91330796 8 4 C5.03 3.67 2.06 3.34 -1 3 C-0.67 2.01 -0.34 1.02 0 0 Z " fill="#55635D" transform="translate(473,399)"/>
<path d="M0 0 C0.99 0.33 1.98 0.66 3 1 C3 2.65 3 4.3 3 6 C1.0625 5.1875 1.0625 5.1875 -1 4 C-1.33 3.01 -1.66 2.02 -2 1 C-1.34 0.67 -0.68 0.34 0 0 Z " fill="#55665F" transform="translate(424,365)"/>
<path d="M0 0 C0.33 0 0.66 0 1 0 C1.24042276 4.08718695 0.42258812 7.17679443 -1 11 C-1.66 10.34 -2.32 9.68 -3 9 C-2.01 6.03 -1.02 3.06 0 0 Z " fill="#7EA89C" transform="translate(414,263)"/>
</svg>