<svg xmlns="http://www.w3.org/2000/svg" version="1.1" height="50" width="50"  viewBox="401.08 208.6 197.92 197.75">
<path d="M0 0 C1.27230469 0.56847656 1.27230469 0.56847656 2.5703125 1.1484375 C23.17863667 10.77426916 40.06187657 29.06035958 48.91015625 49.96875 C56.27518545 70.45356239 59.38880056 90.64853311 54 112 C53.82694336 112.68578125 53.65388672 113.3715625 53.47558594 114.078125 C50.91700311 123.81813262 47.13656653 132.30208068 42 141 C41.48179687 141.94101562 40.96359375 142.88203125 40.4296875 143.8515625 C37.49099905 149.06734985 34.7909446 152.4322753 30 156 C27.79950918 158.14406798 25.62908226 160.29075768 23.58984375 162.58984375 C15.89437636 170.92817574 5.2657644 176.39696371 -5 181 C-5.77859375 181.35835937 -6.5571875 181.71671875 -7.359375 182.0859375 C-28.44020055 190.79323501 -54.88404892 190.04484789 -76.109375 182.21875 C-101.42202136 171.546391 -121.77922929 153.83991346 -132.640625 128.35546875 C-134.30033053 124.25866688 -135.84962926 120.26867128 -137 116 C-137.27714844 115.09507812 -137.55429687 114.19015625 -137.83984375 113.2578125 C-142.00848856 97.54375048 -142.15288948 78.47927999 -137 63 C-136.63648438 61.77410156 -136.27296875 60.54820312 -135.8984375 59.28515625 C-131.19889052 43.81250342 -121.34229602 23.70782259 -107 15 C-106.34 15 -105.68 15 -105 15 C-105 14.34 -105 13.68 -105 13 C-75.68403178 -11.27342394 -34.19457228 -16.15569647 0 0 Z " fill="#9E9C9C" transform="translate(542,218)"/>
<path d="M0 0 C0.66 0.66 1.32 1.32 2 2 C1.75097428 4.66032353 1.3848598 7.13743162 0.875 9.75 C0.73537842 10.50337646 0.59575684 11.25675293 0.4519043 12.03295898 C-0.92217484 19.1564548 -2.8378633 26.07457736 -5 33 C-5.99 33 -6.98 33 -8 33 C-9.59039132 34.30071798 -9.59039132 34.30071798 -11.125 36.0625 C-13.83162223 38.87234087 -16.60174451 41.46850802 -19.625 43.9375 C-20.33914063 44.52402344 -21.05328125 45.11054688 -21.7890625 45.71484375 C-24.39597842 47.2301712 -26.03332098 47.2550303 -29 47 C-25.38556062 42.3724223 -21.64171567 38.73658931 -16.83203125 35.359375 C-13.27582578 32.72065537 -11.6063837 30.5494495 -10.0625 26.375 C-8.73539181 22.902146 -7.37321709 19.46551354 -5.875 16.0625 C-5.56304688 15.35222656 -5.25109375 14.64195312 -4.9296875 13.91015625 C-4 12 -4 12 -2 9 C-1.33386665 6.72461677 -1.33386665 6.72461677 -0.875 4.3125 C-0.70742188 3.50425781 -0.53984375 2.69601562 -0.3671875 1.86328125 C-0.24601563 1.24839844 -0.12484375 0.63351562 0 0 Z M-32 45 C-31.01 45.33 -30.02 45.66 -29 46 C-30.13499394 49.29148243 -30.99283376 49.9959869 -34.125 51.75 C-35.548125 52.36875 -35.548125 52.36875 -37 53 C-37.33 52.34 -37.66 51.68 -38 51 C-36 49 -34 47 -32 45 Z " fill="#6C6767" transform="translate(597,311)"/>
<path d="M0 0 C0.99 0.33 1.98 0.66 3 1 C2.72285156 1.74765625 2.44570313 2.4953125 2.16015625 3.265625 C1.61681641 4.74289062 1.61681641 4.74289062 1.0625 6.25 C0.70285156 7.22453125 0.34320313 8.1990625 -0.02734375 9.203125 C-1.70517558 14.0277338 -2.41435745 18.74583909 -3 23.8125 C-3.08685059 24.5542749 -3.17370117 25.2960498 -3.26318359 26.06030273 C-4.08952978 33.36021082 -4.5943049 40.66545956 -5 48 C-7.05765339 45.46624064 -7.96206116 44.23237542 -8.5 40.9375 C-8.69124531 37.98706742 -8.69124531 37.98706742 -10.5625 36.58203125 C-12 35 -12 35 -12.03125 33.046875 C-9.36303546 21.51077095 -5.74459668 10.38916421 0 0 Z " fill="#797575" transform="translate(415,256)"/>
<path d="M0 0 C0.66 0.66 1.32 1.32 2 2 C1.86328125 4.8984375 1.86328125 4.8984375 1.3125 8.375 C1.14363281 9.51710938 0.97476563 10.65921875 0.80078125 11.8359375 C-0.00479408 15.01894246 -0.92488961 16.52937249 -3 19 C-3.4125 20.03125 -3.825 21.0625 -4.25 22.125 C-6.97211302 28.81444795 -11.77880039 36.36175025 -18 40.25 C-20 41 -20 41 -23 40 C-22.45730469 39.60167969 -21.91460938 39.20335937 -21.35546875 38.79296875 C-20.64003906 38.26316406 -19.92460938 37.73335938 -19.1875 37.1875 C-18.12595703 36.40439453 -18.12595703 36.40439453 -17.04296875 35.60546875 C-13.45646413 32.78701101 -11.65883407 30.69126809 -10.0625 26.375 C-8.73539181 22.902146 -7.37321709 19.46551354 -5.875 16.0625 C-5.56304688 15.35222656 -5.25109375 14.64195312 -4.9296875 13.91015625 C-4 12 -4 12 -2 9 C-1.33386665 6.72461677 -1.33386665 6.72461677 -0.875 4.3125 C-0.70742188 3.50425781 -0.53984375 2.69601562 -0.3671875 1.86328125 C-0.24601563 1.24839844 -0.12484375 0.63351562 0 0 Z " fill="#7F7A7A" transform="translate(597,311)"/>
<path d="M0 0 C0.99 0.33 1.98 0.66 3 1 C2.72285156 1.74765625 2.44570313 2.4953125 2.16015625 3.265625 C1.61681641 4.74289062 1.61681641 4.74289062 1.0625 6.25 C0.70285156 7.22453125 0.34320313 8.1990625 -0.02734375 9.203125 C-1.74917709 14.15426024 -2.443124 19.05641755 -3.0625 24.25 C-3.15337891 24.99507813 -3.24425781 25.74015625 -3.33789062 26.5078125 C-3.56083103 28.33827056 -3.7807178 30.16910009 -4 32 C-4.33 32 -4.66 32 -5 32 C-5.40317439 29.32896965 -5.73137377 26.6862623 -6 24 C-6.13728516 22.75089844 -6.13728516 22.75089844 -6.27734375 21.4765625 C-6.77359961 13.22176996 -3.83803544 7.18489372 0 0 Z " fill="#878484" transform="translate(415,256)"/>
<path d="M0 0 C2 1 2 1 2 1 Z M-2 1 C-1.34 1.33 -0.68 1.66 0 2 C-2.51906234 4.69899537 -4.65045434 6.47747925 -8 8 C-12.55097745 10.38687628 -15.77661387 13.53990909 -19.3125 17.1875 C-19.86228516 17.74630859 -20.41207031 18.30511719 -20.97851562 18.88085938 C-22.32363696 20.24937412 -23.66246643 21.62406833 -25 23 C-25 20 -25 20 -22.98828125 17.6953125 C-22.10527344 16.84710938 -21.22226562 15.99890625 -20.3125 15.125 C-19.44238281 14.28195313 -18.57226562 13.43890625 -17.67578125 12.5703125 C-16.79277344 11.72210938 -15.90976562 10.87390625 -15 10 C-14.15179688 9.11828125 -13.30359375 8.2365625 -12.4296875 7.328125 C-10.25369282 5.24308829 -8.49975069 3.92444424 -5.8125 2.625 C-5.13832031 2.28726563 -4.46414063 1.94953125 -3.76953125 1.6015625 C-3.18558594 1.40304688 -2.60164063 1.20453125 -2 1 Z " fill="#ABAAAA" transform="translate(458,218)"/>
<path d="M0 0 C0.33 0.66 0.66 1.32 1 2 C0.34 1.67 -0.32 1.34 -1 1 C-0.67 0.67 -0.34 0.34 0 0 Z M-3 2 C-2.34 2 -1.68 2 -1 2 C-2.20381448 4.49361571 -3.45428722 6.68143083 -5 9 C-5.66 9 -6.32 9 -7 9 C-7.226875 9.515625 -7.45375 10.03125 -7.6875 10.5625 C-9.1767453 13.32824128 -10.93075409 15.78325789 -12.78125 18.31640625 C-13.89205197 19.85087948 -14.94921434 21.42382152 -16 23 C-16.66 22.34 -17.32 21.68 -18 21 C-7.64016251 6.97968659 -7.64016251 6.97968659 -3 2 Z " fill="#9B9999" transform="translate(434,234)"/>
<path d="M0 0 C1.48014919 4.02054709 0.73462927 7.92739378 0.1875 12.0625 C0.10435547 12.78244141 0.02121094 13.50238281 -0.06445312 14.24414062 C-0.52121877 17.83491874 -0.96073942 19.94110913 -3 23 C-5.11332569 18.82694746 -5.0130043 16.52320156 -3.75 12.0625 C-3.45996094 11.01707031 -3.16992188 9.97164063 -2.87109375 8.89453125 C-1.97209703 5.90728207 -1.05972857 2.93463295 0 0 Z " fill="#676161" transform="translate(408,271)"/>
<path d="M0 0 C2.75026417 -0.05404449 5.49946203 -0.09369306 8.25 -0.125 C9.02730469 -0.14175781 9.80460937 -0.15851563 10.60546875 -0.17578125 C17.72431144 -0.23662606 17.72431144 -0.23662606 21 2 C18.59940183 3.20029908 17.10639351 3.11459743 14.4296875 3.09765625 C13.53378906 3.09443359 12.63789063 3.09121094 11.71484375 3.08789062 C10.77769531 3.07951172 9.84054687 3.07113281 8.875 3.0625 C7.93011719 3.05798828 6.98523438 3.05347656 6.01171875 3.04882812 C3.67441613 3.03702357 1.33723939 3.02055759 -1 3 C-0.67 2.01 -0.34 1.02 0 0 Z " fill="#B5B3B3" transform="translate(496,209)"/>
<path d="M0 0 C0 3 0 3 0 3 Z M-2 3 C-1.67 3.66 -1.34 4.32 -1 5 C-1.9080162 6.13199353 -2.82683826 7.25532363 -3.75 8.375 C-4.26046875 9.00148438 -4.7709375 9.62796875 -5.296875 10.2734375 C-7.12451022 12.12622366 -8.55268354 13.12320552 -11 14 C-11.99 13.67 -12.98 13.34 -14 13 C-13.46890625 12.61328125 -12.9378125 12.2265625 -12.390625 11.828125 C-8.67177773 9.08649307 -5.14670262 6.40892784 -2 3 Z " fill="#787474" transform="translate(588,338)"/>
<path d="M0 0 C-0.598125 0.28875 -1.19625 0.5775 -1.8125 0.875 C-4.19327792 2.04742026 -4.19327792 2.04742026 -7 4 C-9.32387947 4.39387788 -11.65793749 4.73486085 -14 5 C-14.33 4.34 -14.66 3.68 -15 3 C-13.25531628 2.29911844 -11.50398839 1.61475991 -9.75 0.9375 C-8.77546875 0.55464844 -7.8009375 0.17179688 -6.796875 -0.22265625 C-3.95992605 -1.01113787 -2.70590448 -1.02437812 0 0 Z " fill="#B1B0B0" transform="translate(477,213)"/>
<path d="M0 0 C-0.33 0.66 -0.66 1.32 -1 2 C-5.82425944 3.47180796 -9.92477148 4.25376143 -15 4 C-14 2 -14 2 -12.109375 1.3671875 C-8.02124399 0.51436547 -4.20385856 -0.27121668 0 0 Z " fill="#B2B1B1" transform="translate(493,209)"/>
<path d="M0 0 C0.99 0.66 1.98 1.32 3 2 C2.2575 2.4125 1.515 2.825 0.75 3.25 C-1.90171685 4.93745618 -3.86674014 6.70872089 -6 9 C-5.8125 6.1875 -5.8125 6.1875 -5 3 C-2.4375 1.125 -2.4375 1.125 0 0 Z " fill="#E9E9E9" transform="translate(510,257)"/>
<path d="M0 0 C1 3 1 3 0.00390625 5.48046875 C-0.47175781 6.37378906 -0.94742188 7.26710938 -1.4375 8.1875 C-1.91058594 9.08855469 -2.38367188 9.98960937 -2.87109375 10.91796875 C-3.24363281 11.60503906 -3.61617187 12.29210937 -4 13 C-5.20545511 9.38363467 -4.7015245 8.7128829 -3.125 5.375 C-2.75632812 4.57835937 -2.38765625 3.78171875 -2.0078125 2.9609375 C-1 1 -1 1 0 0 Z " fill="#8A8888" transform="translate(594,322)"/>
<path d="M0 0 C2.02408755 0.09002398 4.04544287 0.24641038 6.0625 0.4375 C7.71958984 0.59025391 7.71958984 0.59025391 9.41015625 0.74609375 C10.26480469 0.82988281 11.11945312 0.91367187 12 1 C11.67 1.66 11.34 2.32 11 3 C9.37536158 3.05395478 7.75021459 3.09277195 6.125 3.125 C5.22007812 3.14820313 4.31515625 3.17140625 3.3828125 3.1953125 C1 3 1 3 -1 1 C-0.67 0.67 -0.34 0.34 0 0 Z " fill="#716E6E" transform="translate(521,363)"/>
<path d="M0 0 C0.33 0.66 0.66 1.32 1 2 C0.22265625 3.9453125 0.22265625 3.9453125 -0.9375 6.125 C-1.31777344 6.84945312 -1.69804687 7.57390625 -2.08984375 8.3203125 C-2.39019531 8.87460938 -2.69054687 9.42890625 -3 10 C-3.99 9.34 -4.98 8.68 -6 8 C-4.02 5.36 -2.04 2.72 0 0 Z " fill="#928F8F" transform="translate(422,247)"/>
</svg>