<svg xmlns="http://www.w3.org/2000/svg" version="1.1"  height="50" width="50" viewBox="401.08 207.84 197.96 198.52">
<path d="M0 0 C3.4964157 2.84420913 6.77543904 5.85306736 10 9 C10.886875 9.845625 11.77375 10.69125 12.6875 11.5625 C13.450625 12.366875 14.21375 13.17125 15 14 C15.50660156 14.51175781 16.01320313 15.02351563 16.53515625 15.55078125 C34.10444799 34.24066563 41.6975226 60.80199614 41 86 C39.76687184 102.57351049 34.34906668 117.69526576 26 132 C25.48179687 132.94230469 24.96359375 133.88460937 24.4296875 134.85546875 C21.48851372 140.06796783 18.78996007 143.43300846 14 147 C11.79950918 149.14406798 9.62908226 151.29075768 7.58984375 153.58984375 C-0.10320598 161.92555611 -10.73373237 167.40415072 -21 172 C-21.79019531 172.35835937 -22.58039063 172.71671875 -23.39453125 173.0859375 C-44.61028033 181.7547382 -70.75810875 181.09128393 -92.109375 173.21875 C-117.42202136 162.546391 -137.77922929 144.83991346 -148.640625 119.35546875 C-150.30033053 115.25866688 -151.84962926 111.26867128 -153 107 C-153.27714844 106.09507812 -153.55429687 105.19015625 -153.83984375 104.2578125 C-158.00848856 88.54375048 -158.15288948 69.47927999 -153 54 C-152.63648438 52.77410156 -152.27296875 51.54820312 -151.8984375 50.28515625 C-149.48017709 42.33247443 -146.31193549 35.12604076 -142 28 C-141.53078125 27.19046875 -141.0615625 26.3809375 -140.578125 25.546875 C-138.13146486 21.43072911 -138.13146486 21.43072911 -137 20 C-136.34 20 -135.68 20 -135 20 C-134.773125 19.46375 -134.54625 18.9275 -134.3125 18.375 C-124.93751705 1.41074514 -102.29462085 -9.75142954 -84.49609375 -15.140625 C-54.74710482 -22.45322563 -25.26996021 -17.34845495 0 0 Z " fill="#B9A682" transform="translate(558,227)"/>
<path d="M0 0 C3.64234012 5.58033996 1.2399344 12.83818858 0 19 C-0.71986294 22.16673348 -1.52351563 25.30375032 -2.375 28.4375 C-2.5716626 29.16984863 -2.7683252 29.90219727 -2.97094727 30.65673828 C-4.38719124 35.61218664 -6.03490973 40.73675741 -9 45 C-12 46 -12 46 -13.80078125 46.3125 C-18.07766781 47.64950184 -21.58751549 50.5810121 -25.23046875 53.125 C-29.26161655 55.85412686 -31.05092031 57 -36 57 C-38.0302589 57.93704257 -40.03696582 58.92925408 -42 60 C-42 59.01 -42 58.02 -42 57 C-41.38125 56.7525 -40.7625 56.505 -40.125 56.25 C-37.64931313 54.79371361 -37.04874998 53.62187494 -36 51 C-35.34 51.33 -34.68 51.66 -34 52 C-28.59761025 49.37051826 -23.54685468 45.91534708 -19 42 C-17.989375 41.29875 -16.97875 40.5975 -15.9375 39.875 C-11.88550324 36.520905 -10.66090511 31.83172395 -9 27 C-8.0440425 24.34276222 -7.20213816 22.26277961 -5.4765625 20.01953125 C-1.51951487 14.60737881 -0.72855826 6.55702431 0 0 Z " fill="#927C55" transform="translate(597,307)"/>
<path d="M0 0 C0.33 0.99 0.66 1.98 1 3 C1.66 3 2.32 3 3 3 C5.5099972 6.76499581 5.61476744 8.54293606 5 13 C3.19836839 15.47046475 1.72012538 16.35766015 -1 18 C-3.875 17.8125 -3.875 17.8125 -6 17 C-6 16.34 -6 15.68 -6 15 C-6.804375 15.020625 -7.60875 15.04125 -8.4375 15.0625 C-11 15 -11 15 -12 14 C-12.04063832 12.33382885 -12.042721 10.66611905 -12 9 C-12.66 9 -13.32 9 -14 9 C-13.51053485 3.49351702 -13.51053485 3.49351702 -11.125 1.1875 C-7.00121275 -1.11696935 -4.53466976 -0.90693395 0 0 Z " fill="#FCF9F1" transform="translate(516,257)"/>
<path d="M0 0 C1.08732422 0.00161133 2.17464844 0.00322266 3.29492188 0.00488281 C15.97106501 0.19581114 27.51369336 2.59106208 38.875 8.375 C38.875 9.035 38.875 9.695 38.875 10.375 C37.1115625 9.75625 37.1115625 9.75625 35.3125 9.125 C33.50116144 8.53807014 31.68849829 7.95522235 29.875 7.375 C28.81925781 7.01535156 27.76351562 6.65570313 26.67578125 6.28515625 C16.25791952 3.06467314 6.61331484 2.99579147 -4.20825195 3.42504883 C-6.125 3.375 -6.125 3.375 -8.125 2.375 C-19.00163542 3.93456701 -29.10225055 6.92044469 -39.125 11.375 C-40.23875 11.808125 -41.3525 12.24125 -42.5 12.6875 C-52.95018015 17.55223904 -60.24845246 25.16975573 -68.125 33.375 C-68.125 30.375 -68.125 30.375 -66.4453125 28.47265625 C-65.72085937 27.80105469 -64.99640625 27.12945312 -64.25 26.4375 C-61.27205281 23.75838798 -61.27205281 23.75838798 -59.28125 20.37109375 C-57.49102673 17.28053939 -54.55642007 16.01303461 -51.5 14.375 C-50.86263916 14.02469727 -50.22527832 13.67439453 -49.56860352 13.31347656 C-48.31154305 12.62608918 -47.0516062 11.94393059 -45.78857422 11.26757812 C-44.4768564 10.56378588 -43.1757903 9.84014097 -41.87890625 9.109375 C-29.1378021 2.20451856 -14.30416659 -0.02230843 0 0 Z " fill="#C9B998" transform="translate(500.125,208.625)"/>
<path d="M0 0 C-2.72296563 7.48815547 -5.71342757 12.12469893 -12 17 C-14.20049082 19.14406798 -16.37091774 21.29075768 -18.41015625 23.58984375 C-28.34874415 34.35868223 -43.98154784 41.99152885 -58 46 C-59.32 46 -60.64 46 -62 46 C-61.67 45.01 -61.34 44.02 -61 43 C-59.06640625 42.2265625 -59.06640625 42.2265625 -56.5625 41.625 C-48.00954096 39.27689034 -40.6851335 34.94760879 -33.2265625 30.234375 C-31.09580024 29.05311031 -29.36843668 28.48733265 -27 28 C-26.01 27.67 -25.02 27.34 -24 27 C-23.814375 26.1028125 -23.814375 26.1028125 -23.625 25.1875 C-22.71903194 22.01661177 -20.55415834 21.0068387 -18 19 C-16.99431758 17.33675599 -15.99335201 15.67063747 -15 14 C-14.01 13.67 -13.02 13.34 -12 13 C-11.30090867 11.68337799 -10.64017617 10.34625283 -10 9 C-8.71215002 7.37945544 -7.37520462 5.79710519 -6 4.25 C-4.948125 3.05117188 -4.948125 3.05117188 -3.875 1.828125 C-2 0 -2 0 0 0 Z " fill="#6D5D4D" transform="translate(584,357)"/>
<path d="M0 0 C-1.38877354 3.35620271 -2.91677965 5.07298728 -6 7 C-7.4797534 7 -8.95968853 6.9507852 -10.4375 6.875 C-13.24443417 6.79209371 -13.24443417 6.79209371 -16 9 C-16 8.34 -16 7.68 -16 7 C-17.43793392 7.31049726 -18.8753318 7.6234776 -20.3125 7.9375 C-21.11300781 8.11152344 -21.91351562 8.28554688 -22.73828125 8.46484375 C-25.145401 8.99886159 -25.145401 8.99886159 -28 10 C-28 9.34 -28 8.68 -28 8 C-29.546875 8.2784375 -29.546875 8.2784375 -31.125 8.5625 C-34.76148442 8.97307082 -37.45437009 8.778309 -41 8 C-41.33 7.01 -41.66 6.02 -42 5 C-40.35 5 -38.7 5 -37 5 C-36.67 4.34 -36.34 3.68 -36 3 C-36 3.99 -36 4.98 -36 6 C-35.484375 5.67 -34.96875 5.34 -34.4375 5 C-31.24150119 3.688821 -28.42722145 4 -25 4 C-24.34 3.34 -23.68 2.68 -23 2 C-22.43796875 2.35835938 -21.8759375 2.71671875 -21.296875 3.0859375 C-18.34387975 4.26110908 -17.17481609 3.74331204 -14.25 2.625 C-13.45078125 2.32851563 -12.6515625 2.03203125 -11.828125 1.7265625 C-11.22484375 1.48679687 -10.6215625 1.24703125 -10 1 C-9.34 1.66 -8.68 2.32 -8 3 C-8 2.34 -8 1.68 -8 1 C-5.29120665 -0.35439668 -2.99066732 -0.06501451 0 0 Z M-19 9 C-18.01 9.33 -17.02 9.66 -16 10 C-16.99 10 -17.98 10 -19 10 C-19 9.67 -19 9.34 -19 9 Z " fill="#8B713D" transform="translate(556,361)"/>
<path d="M0 0 C1.2152481 3.6457443 0.6857692 4.10897831 -0.9375 7.4375 C-4.67490271 16.32994094 -2.96938716 25.55602296 -2.15625 34.9296875 C-1.94499198 39.08090753 -2.37413793 42.89712646 -3 47 C-5 44 -5 44 -5.9375 40.5625 C-6.72836992 37.08496604 -6.72836992 37.08496604 -8.5625 35.0703125 C-10.83765918 31.79358868 -10.17563367 29.25443316 -9.71484375 25.41796875 C-7.88689282 16.67776623 -4.91214105 7.50057465 0 0 Z " fill="#927D56" transform="translate(413,261)"/>
<path d="M0 0 C1.72811928 5.18435784 -1.15780758 10.03722541 -3 15 C-3.433125 16.19625 -3.86625 17.3925 -4.3125 18.625 C-6.2912457 21.40990135 -7.51819349 21.58992562 -10.765625 22.2421875 C-15.03260284 23.68937928 -18.56237459 26.56345542 -22.23046875 29.125 C-26.26161655 31.85412686 -28.05092031 33 -33 33 C-35.0302589 33.93704257 -37.03696582 34.92925408 -39 36 C-39 35.01 -39 34.02 -39 33 C-38.38125 32.7525 -37.7625 32.505 -37.125 32.25 C-34.64931313 30.79371361 -34.04874998 29.62187494 -33 27 C-32.67 27.66 -32.34 28.32 -32 29 C-27.03088634 27.87302957 -27.03088634 27.87302957 -23 25 C-21.83791016 24.53787109 -21.83791016 24.53787109 -20.65234375 24.06640625 C-11.09703503 20.2245811 -5.12738473 12.10963167 -1.125 2.9375 C-0.75375 1.968125 -0.3825 0.99875 0 0 Z " fill="#836B3D" transform="translate(594,331)"/>
<path d="M0 0 C3.625 0.1875 3.625 0.1875 6.625 2.1875 C7.285 1.8575 7.945 1.5275 8.625 1.1875 C9.285 1.5175 9.945 1.8475 10.625 2.1875 C21.03301307 3.56300834 31.20774302 3.00725993 41.625 2.1875 C41.625 2.8475 41.625 3.5075 41.625 4.1875 C29.97257801 6.80287327 19.24474056 6.60769779 7.5 4.8125 C6.25476563 4.62361206 6.25476563 4.62361206 4.984375 4.4309082 C3.81261719 4.23694458 3.81261719 4.23694458 2.6171875 4.0390625 C1.91964355 3.92385254 1.22209961 3.80864258 0.50341797 3.68994141 C-1.375 3.1875 -1.375 3.1875 -4.375 1.1875 C-3.375 0.1875 -3.375 0.1875 0 0 Z " fill="#6D5D4E" transform="translate(476.375,399.8125)"/>
<path d="M0 0 C0.66 0 1.32 0 2 0 C0.65707139 3.43740442 -0.80915025 6.78385563 -2.375 10.125 C-7.80120908 21.93648719 -7.80120908 21.93648719 -9.07421875 34.6953125 C-8.97102153 37.89985775 -9.45179574 40.84782548 -10 44 C-10.33 44 -10.66 44 -11 44 C-12.95194805 35.28764652 -12.86275944 27.46640141 -8.97265625 19.3515625 C-7.87151843 16.96543411 -7.87151843 16.96543411 -7.5859375 14.078125 C-6.89854076 10.46700078 -5.56310062 8.1945286 -3.5625 5.125 C-2.94503906 4.15820312 -2.32757813 3.19140625 -1.69140625 2.1953125 C-1.13324219 1.47085938 -0.57507813 0.74640625 0 0 Z " fill="#A99670" transform="translate(421,247)"/>
<path d="M0 0 C3.13331912 1.18298783 6.01159047 2.47862787 9 4 C9 4.66 9 5.32 9 6 C7.824375 5.5875 6.64875 5.175 5.4375 4.75 C3.62616144 4.16307014 1.81349829 3.58022235 0 3 C-1.05574219 2.64035156 -2.11148438 2.28070313 -3.19921875 1.91015625 C-14.18793551 -1.48679579 -24.59252883 -1.42854248 -36 -1 C-36.33 -1.66 -36.66 -2.32 -37 -3 C-26.9312152 -8.0343924 -10.13287134 -3.124302 0 0 Z " fill="#CCBB9B" transform="translate(530,213)"/>
<path d="M0 0 C0.33 0.99 0.66 1.98 1 3 C-2.3 3.66 -5.6 4.32 -9 5 C-10.05609899 8.16829698 -10.13055309 8.98519175 -9 12 C-7.52109931 13.73026102 -7.52109931 13.73026102 -6 15 C-7.66611905 15.042721 -9.33382885 15.04063832 -11 15 C-12 14 -12 14 -12.0625 11.4375 C-12.041875 10.633125 -12.02125 9.82875 -12 9 C-12.66 9 -13.32 9 -14 9 C-13.51053485 3.49351702 -13.51053485 3.49351702 -11.125 1.1875 C-7.00121275 -1.11696935 -4.53466976 -0.90693395 0 0 Z " fill="#EDE4D4" transform="translate(516,257)"/>
<path d="M0 0 C0.33 0 0.66 0 1 0 C1.33 6.6 1.66 13.2 2 20 C2.66 20 3.32 20 4 20 C4 22.97 4 25.94 4 29 C2 26 2 26 1.0625 22.5625 C0.28161406 19.08255029 0.28161406 19.08255029 -1.578125 17.12109375 C-3.44767064 14.33218363 -3.19730031 12.79570152 -2.8125 9.5 C-2.66748047 8.09234375 -2.66748047 8.09234375 -2.51953125 6.65625 C-2.02010014 4.10276763 -1.28675862 2.24520846 0 0 Z " fill="#7E6A4B" transform="translate(406,279)"/>
<path d="M0 0 C2.78500924 4.71724433 2.08507557 8.78708451 1 14 C-0.13268038 17.11372462 -1.47363196 20.0608541 -3 23 C-3.66 23 -4.32 23 -5 23 C-5.268125 23.94875 -5.53625 24.8975 -5.8125 25.875 C-7 29 -7 29 -10 31 C-9.57228451 29.58034858 -9.13234457 28.1643776 -8.6875 26.75 C-8.44386719 25.96109375 -8.20023438 25.1721875 -7.94921875 24.359375 C-7 22 -7 22 -5.49609375 20.03515625 C-1.51986119 14.62623415 -0.72942529 6.56482759 0 0 Z " fill="#A59066" transform="translate(597,307)"/>
<path d="M0 0 C0.33 0.66 0.66 1.32 1 2 C0.39414062 2.32871094 -0.21171875 2.65742188 -0.8359375 2.99609375 C-10.56154184 8.51724452 -18.25246925 16.02158258 -26 24 C-26 21 -26 21 -24.3203125 19.09765625 C-23.59585937 18.42605469 -22.87140625 17.75445312 -22.125 17.0625 C-19.14937516 14.39348681 -19.14937516 14.39348681 -17.1796875 11.0078125 C-15.30711404 7.82071727 -12.16629369 6.50691218 -9 4.8125 C-8.03707031 4.27979492 -8.03707031 4.27979492 -7.0546875 3.73632812 C-4.72268716 2.45080074 -2.38185537 1.19092769 0 0 Z " fill="#C3B28F" transform="translate(458,218)"/>
<path d="M0 0 C1.99841037 5.9952311 -2.22190898 13.00402739 -4.4375 18.6875 C-6 21 -6 21 -8.59765625 21.64453125 C-9.39042969 21.76183594 -10.18320312 21.87914062 -11 22 C-7.33333333 14.66666667 -3.66666667 7.33333333 0 0 Z " fill="#71604C" transform="translate(594,331)"/>
<path d="M0 0 C0.66 0 1.32 0 2 0 C4.5099972 3.76499581 4.61476744 5.54293606 4 10 C2.19836839 12.47046475 0.72012538 13.35766015 -2 15 C-4.875 14.8125 -4.875 14.8125 -7 14 C-7 13.34 -7 12.68 -7 12 C-6.030625 11.525625 -5.06125 11.05125 -4.0625 10.5625 C-1.19522563 9.29806053 -1.19522563 9.29806053 0 8 C0.07148199 6.64756083 0.08399454 5.29165633 0.0625 3.9375 C0.041875 2.638125 0.02125 1.33875 0 0 Z " fill="#F2EBDD" transform="translate(517,260)"/>
<path d="M0 0 C0.99 0 1.98 0 3 0 C2.98839844 0.94101562 2.97679687 1.88203125 2.96484375 2.8515625 C2.95582031 4.09679687 2.94679688 5.34203125 2.9375 6.625 C2.92589844 7.85476563 2.91429687 9.08453125 2.90234375 10.3515625 C2.90768474 13.96193312 2.90768474 13.96193312 3.59375 17.3125 C4 20 4 20 2.5625 22.375 C2.046875 22.91125 1.53125 23.4475 1 24 C-0.29235715 19.08497242 -0.11135517 14.22709898 -0.0625 9.1875 C-0.05798828 8.30384766 -0.05347656 7.42019531 -0.04882812 6.50976562 C-0.03709866 4.33981441 -0.01916495 2.16989828 0 0 Z " fill="#6D5D4D" transform="translate(402,301)"/>
<path d="M0 0 C-1.55615009 1.29930979 -3.1202168 2.58914138 -4.6875 3.875 C-5.55761719 4.59429687 -6.42773438 5.31359375 -7.32421875 6.0546875 C-10.88184748 8.64110956 -13.5820779 10 -18 10 C-5.66532258 -2.83266129 -5.66532258 -2.83266129 0 0 Z M-20 10 C-19.34 10.33 -18.68 10.66 -18 11 C-19.65 11.66 -21.3 12.32 -23 13 C-22.01 12.01 -21.02 11.02 -20 10 Z " fill="#907847" transform="translate(585,348)"/>
<path d="M0 0 C6.17378173 4.23345033 12.58035222 9.16070445 16 16 C15.01 16.33 14.02 16.66 13 17 C12.9175 16.38125 12.835 15.7625 12.75 15.125 C12.2226134 12.84142622 12.2226134 12.84142622 10.1484375 12.08984375 C7.71447986 10.85516342 6.56641034 9.55840459 4.875 7.4375 C2.79096366 4.78974334 2.79096366 4.78974334 0 3 C0 2.01 0 1.02 0 0 Z " fill="#C8B796" transform="translate(562,231)"/>
<path d="M0 0 C-2.08770553 1.11841368 -3.85408801 1.9708176 -6.1875 2.4375 C-7.0846875 2.7159375 -7.0846875 2.7159375 -8 3 C-9.05609899 6.16829698 -9.13055309 6.98519175 -8 10 C-6.52109931 11.73026102 -6.52109931 11.73026102 -5 13 C-6.66611905 13.042721 -8.33382885 13.04063832 -10 13 C-11 12 -11 12 -11.3125 8.1875 C-11.25831199 5.1692278 -11.08640108 4.13824172 -9.4375 1.5 C-6.17971981 -0.50478781 -3.75217167 -0.28862859 0 0 Z " fill="#F3EDE0" transform="translate(515,259)"/>
<path d="M0 0 C0.33 0 0.66 0 1 0 C2.33257403 13.6332574 2.33257403 13.6332574 1 20 C0.67 20 0.34 20 0 20 C-0.87545133 16.23416966 -1.1346822 12.73819781 -1.125 8.875 C-1.12757813 7.84117187 -1.13015625 6.80734375 -1.1328125 5.7421875 C-1 3 -1 3 0 0 Z " fill="#A69065" transform="translate(410,271)"/>
<path d="M0 0 C0.33 0.99 0.66 1.98 1 3 C1.804375 3.12375 2.60875 3.2475 3.4375 3.375 C4.7059375 3.684375 4.7059375 3.684375 6 4 C6.33 4.66 6.66 5.32 7 6 C5.5629191 6.05422947 4.12524538 6.09289723 2.6875 6.125 C1.88699219 6.14820313 1.08648438 6.17140625 0.26171875 6.1953125 C-2 6 -2 6 -5 4 C-5 3.34 -5 2.68 -5 2 C-3.35 2 -1.7 2 0 2 C0 1.34 0 0.68 0 0 Z " fill="#876D3A" transform="translate(519,364)"/>
<path d="M0 0 C1.93590006 3.22151709 2.19948673 5.34406228 1.8125 9.0625 C1.69841797 10.34833984 1.69841797 10.34833984 1.58203125 11.66015625 C0.92467642 14.30281092 0.07529546 15.29389456 -2 17 C-2.25706972 11.08739655 -1.2982126 5.76081841 0 0 Z " fill="#9A8562" transform="translate(597,307)"/>
<path d="M0 0 C2.41276856 2.41276856 2.8306806 4.17218155 3.75 7.4375 C4.03359375 8.40558594 4.3171875 9.37367188 4.609375 10.37109375 C5 13 5 13 3 16 C0.89424625 10.47239641 -0.37851209 5.93002267 0 0 Z " fill="#BEAC89" transform="translate(589,266)"/>
<path d="M0 0 C1.18414294 3.55242882 0.69535532 4.69830562 -0.4375 8.1875 C-0.72496094 9.08855469 -1.01242187 9.98960937 -1.30859375 10.91796875 C-1.53675781 11.60503906 -1.76492188 12.29210937 -2 13 C-2.66 12.67 -3.32 12.34 -4 12 C-4.99 12.99 -5.98 13.98 -7 15 C-5.63408831 11.45756548 -4.09068516 8.07372071 -2.375 4.6875 C-1.70597656 3.36298828 -1.70597656 3.36298828 -1.0234375 2.01171875 C-0.68570313 1.34785156 -0.34796875 0.68398438 0 0 Z " fill="#7B6956" transform="translate(594,331)"/>
<path d="M0 0 C-1.39332574 3.36720387 -2.9789286 4.9859524 -6 7 C-5.67 6.01 -5.34 5.02 -5 4 C-5.99 3.01 -6.98 2.02 -8 1 C-5.29120665 -0.35439668 -2.99066732 -0.06501451 0 0 Z " fill="#8F7642" transform="translate(556,361)"/>
<path d="M0 0 C5.75 0.875 5.75 0.875 8 2 C8 2.99 8 3.98 8 5 C5.03 4.01 2.06 3.02 -1 2 C-0.67 1.34 -0.34 0.68 0 0 Z " fill="#6C5D4F" transform="translate(455,393)"/>
<path d="M0 0 C1.23593891 3.70781672 0.5678132 4.67510253 -0.9375 8.1875 C-1.31777344 9.08855469 -1.69804687 9.98960937 -2.08984375 10.91796875 C-2.54037109 11.94857422 -2.54037109 11.94857422 -3 13 C-3.33 13 -3.66 13 -4 13 C-3.55966813 7.80408388 -3.11696661 4.33664919 0 0 Z " fill="#96825F" transform="translate(413,261)"/>
<path d="M0 0 C2.64 0 5.28 0 8 0 C8 0.66 8 1.32 8 2 C8.66 2.33 9.32 2.66 10 3 C8.72125 3.061875 7.4425 3.12375 6.125 3.1875 C5.40570313 3.22230469 4.68640625 3.25710938 3.9453125 3.29296875 C3.30335938 3.19628906 2.66140625 3.09960938 2 3 C1.34 2.01 0.68 1.02 0 0 Z " fill="#5F5248" transform="translate(492,403)"/>
<path d="M0 0 C3 2 3 2 3.51171875 3.9453125 C3.67447917 5.96354167 3.83723958 7.98177083 4 10 C3.34 10 2.68 10 2 10 C1.34 6.7 0.68 3.4 0 0 Z " fill="#B3A07B" transform="translate(594,285)"/>
<path d="M0 0 C2.31 0 4.62 0 7 0 C6.01 1.485 6.01 1.485 5 3 C3.35 2.67 1.7 2.34 0 2 C0 1.34 0 0.68 0 0 Z " fill="#EDE4D4" transform="translate(510,272)"/>
</svg>