<?xml version="1.0" encoding="utf-8"?>
<!-- Generator: Adobe Illustrator 19.1.0, SVG Export Plug-In . SVG Version: 6.00 Build 0)  -->
<svg version="1.1" id="Icon" xmlns="http://www.w3.org/2000/svg" xmlns:xlink="http://www.w3.org/1999/xlink" x="0px" y="0px"
	 viewBox="0 0 1000 1000" style="enable-background:new 0 0 1000 1000;" xml:space="preserve">
<path d="M670,206l170,294L670,794H330L160,500l170-294H670 M700,154H300L100,500l200,346h400l200-346L700,154L700,154z"/>
<g>
	<rect x="267.7" y="244.5" transform="matrix(0.8628 0.5056 -0.5056 0.8628 233.1618 -96.1184)" width="52" height="274"/>
	<rect x="564.8" y="355.5" transform="matrix(0.5055 0.8628 -0.8628 0.5055 676.1617 -416.8599)" width="274" height="52"/>
	<rect x="473.8" y="596.1" transform="matrix(2.028241e-03 1 -1 2.028241e-03 1231.8849 231.8142)" width="52" height="274"/>
</g>
</svg>
